<?xml version="1.0" encoding="UTF-8"?>
<svg id="Layer_8" data-name="Layer 8" xmlns="http://www.w3.org/2000/svg" viewBox="0 0 250 250">
  <path d="m34.93,101.45v53.71c-2.79-1.59-4.67-4.58-4.67-8.02v-37.67c0-3.44,1.88-6.44,4.67-8.02Zm13.31-1.2v26.26l24.9-26.26h-24.9Zm37.02,2.99l-20.48,22.03,21.36,26.99c.98-1.46,1.55-3.23,1.55-5.12v-37.67c0-2.41-.92-4.6-2.43-6.24Zm-29.24,31.38l-7.77,8.1v12.46c.46,0,.82.37.82.83s-.34.8-.78.82c-.02,0-.03,0-.05,0v11.83l.02-.02c.09-2.01.56-5.03,2.33-8.13,0,0,0,0,0,0,.78-1.36,1.64-2.45,2.45-3.32.32-.34.64-.65.93-.92h19.67l-17.63-21.65Zm29.04-50.14c.24.47.38,1,.38,1.57,0,1.5-.96,2.77-2.29,3.24h-15.11c-.33-.07-.65-.18-.94-.33-.92-.49-1.47-1.47-1.47-2.51v-5.11h-13.31v5.14c0,1.34-.92,2.54-2.24,2.81,0,0-.02,0-.03,0h-15.24c-1.34-.47-2.29-1.74-2.29-3.24,0-.56.14-1.1.38-1.57h-4.19v18.76h.06c.2-1.57.92-2.97,1.98-4.03,1.26-1.26,3.01-2.04,4.93-2.04h46.6c3.55,0,6.47,2.65,6.92,6.07h.06v-18.76h-4.19Zm-19.43-.13v.03s0-.02.01-.03h-.01Zm52.26,15.25h-6.56l-10.63,11.83v-11.83h-5.28v27.99h5.28v-12.39l11.71,12.39h6.52v-.32l-13.47-14.11,12.43-13.39v-.16Zm9,27.99v-27.99h-5.24v27.99h5.24Zm23.35-10.63l-13.71-17.35h-4.28v27.99h5.28v-18.87l14.71,18.91v-.04h3.28v-28.03h-5.28v17.39Zm23.31-17.39c-4.4,0-8.8.04-13.19.04v27.99h5.28v-8.24h7.92c13.71,0,13.67-19.79,0-19.79Zm-7.92,5.04h7.92c6.72,0,6.76,9.92,0,9.92h-7.92v-9.92Zm27.03,22.99v-27.99h-5.24v27.99h5.24Zm23.35-10.63l-13.71-17.35h-4.28v27.99h5.28v-18.87l14.71,18.91v-.04h3.28v-28.03h-5.28v17.39Zm-106.05,31.49l-6.65-14.82h-1.25l-6.65,14.82h1.23l1.61-3.64h8.85l1.63,3.64h1.23Zm-11.26-4.7l3.98-9.02,3.98,9.02h-7.96Zm19.75-.97c3.24,0,4.83-2.12,4.8-4.53-.02-2.31-1.65-4.61-4.87-4.61h-6.52v14.82h1.14v-5.61h4.04l5.12,5.61h1.5l-5.23-5.67Zm-5.44-8.09h5.38c2.46,0,3.64,1.8,3.62,3.53-.02,2.07-1.16,3.53-3.75,3.53h-5.25v-7.07Zm17.44,13.76h1.14v-13.78h5.35v-1.02h-11.85v1.02h5.35v13.78Zm19.2-12.51c-1.46-2.18-3.3-2.52-5.42-2.52-2.43,0-5.69.97-5.63,4.11,0,2.73,2.77,3.28,5.48,3.81,2.43.47,4.89.95,4.87,3.17,0,2.62-2.9,3.13-4.72,3.13s-4.15-.89-5.06-2.69l-1.02.51c1.14,2.26,3.77,3.22,6.07,3.22,2.48,0,5.84-.8,5.86-4.15,0-3.2-2.96-3.7-5.82-4.25-2.5-.47-4.53-.91-4.53-2.79,0-2.37,2.75-3.01,4.49-3.01,1.67.02,3.41.28,4.49,2.01l.93-.55Zm21.61,12.51h1.12v-14.82h-1.4l-5.61,8.64-5.67-8.64h-1.35v14.82h1.14v-13.16l5.71,8.68h.38l5.67-8.68v13.16Zm5.5-13.74h9.1v-1.08h-10.22v14.82h10.48v-1.1h-9.36v-5.84h8.68v-1.04h-8.68v-5.76Zm16.78-1.08h-5.02v14.82h5.02c5.19,0,7.6-3.81,7.51-7.58-.08-3.64-2.5-7.24-7.51-7.24Zm0,1.08c4.28,0,6.31,3.07,6.37,6.16.06,3.17-1.97,6.48-6.37,6.48h-3.87v-12.64h3.87Zm11.47,13.74v-14.82h-1.12v14.82h1.12Zm16.28,0l-6.65-14.82h-1.25l-6.65,14.82h1.23l1.61-3.64h8.85l1.63,3.64h1.23Zm-11.26-4.7l3.98-9.02,3.98,9.02h-7.96Z"/>
</svg>