<?xml version="1.0" encoding="UTF-8"?>
<svg id="Layer_8" data-name="Layer 8" xmlns="http://www.w3.org/2000/svg" viewBox="0 0 120 42">
  <path d="m19.23,10.34v24.31c-1.26-.72-2.11-2.07-2.11-3.63V13.97c0-1.56.85-2.91,2.11-3.63Zm6.03-.54v11.89l11.27-11.89h-11.27Zm16.75,1.35l-9.27,9.97,9.67,12.22c.44-.66.7-1.46.7-2.32V13.97c0-1.09-.42-2.08-1.1-2.82Zm-13.24,14.2l-3.52,3.67v5.64c.21,0,.37.17.37.37s-.16.36-.35.37c0,0-.01,0-.02,0v5.35h0c.04-.92.25-2.28,1.05-3.69,0,0,0,0,0,0,.35-.61.74-1.11,1.11-1.5.15-.16.29-.29.42-.42h8.9l-7.98-9.8ZM41.92,2.66c.11.21.17.45.17.71,0,.68-.43,1.25-1.04,1.47h-6.84c-.15-.03-.29-.08-.42-.15-.42-.22-.66-.67-.66-1.14V1.24h-6.02v2.32c0,.61-.42,1.15-1.01,1.27,0,0,0,0-.01,0h-6.9c-.61-.21-1.04-.79-1.04-1.47,0-.26.06-.5.17-.71h-1.9v8.49h.03c.09-.71.42-1.34.9-1.82.57-.57,1.36-.92,2.23-.92h21.09c1.6,0,2.93,1.2,3.13,2.75h.03V2.66h-1.9Zm-8.79-.06h0s0,0,0,0h0Zm23.66,6.9h-2.97l-4.81,5.36v-5.36h-2.39v12.67h2.39v-5.61l5.3,5.61h2.95v-.14l-6.1-6.39,5.63-6.06v-.07Zm4.07,12.67v-12.67h-2.37v12.67h2.37Zm10.57-4.81l-6.21-7.85h-1.94v12.67h2.39v-8.54l6.66,8.56v-.02h1.48v-12.69h-2.39v7.87Zm10.55-7.87c-1.99,0-3.98.02-5.97.02v12.67h2.39v-3.73h3.58c6.21,0,6.19-8.96,0-8.96Zm-3.58,2.28h3.58c3.04,0,3.06,4.49,0,4.49h-3.58v-4.49Zm12.23,10.41v-12.67h-2.37v12.67h2.37Zm10.57-4.81l-6.21-7.85h-1.94v12.67h2.39v-8.54l6.66,8.56v-.02h1.48v-12.69h-2.39v7.87Zm-48,14.25l-3.01-6.71h-.57l-3.01,6.71h.56l.73-1.65h4l.74,1.65h.56Zm-5.1-2.13l1.8-4.08,1.8,4.08h-3.6Zm8.94-.44c1.47,0,2.18-.96,2.17-2.05,0-1.04-.75-2.09-2.2-2.09h-2.95v6.71h.52v-2.54h1.83l2.32,2.54h.68l-2.37-2.57Zm-2.46-3.66h2.43c1.11,0,1.65.81,1.64,1.6,0,.94-.53,1.6-1.7,1.6h-2.38v-3.2Zm7.89,6.23h.52v-6.24h2.42v-.46h-5.36v.46h2.42v6.24Zm8.69-5.66c-.66-.99-1.49-1.14-2.45-1.14-1.1,0-2.58.44-2.55,1.86,0,1.24,1.25,1.48,2.48,1.72,1.1.21,2.21.43,2.2,1.44,0,1.19-1.31,1.42-2.14,1.42s-1.88-.4-2.29-1.22l-.46.23c.52,1.03,1.71,1.46,2.75,1.46,1.12,0,2.64-.36,2.65-1.88,0-1.45-1.34-1.68-2.63-1.93-1.13-.21-2.05-.41-2.05-1.26,0-1.07,1.25-1.36,2.03-1.36.76,0,1.54.12,2.03.91l.42-.25Zm9.78,5.66h.51v-6.71h-.63l-2.54,3.91-2.57-3.91h-.61v6.71h.52v-5.96l2.59,3.93h.17l2.57-3.93v5.96Zm2.49-6.22h4.12v-.49h-4.63v6.71h4.74v-.5h-4.23v-2.64h3.93v-.47h-3.93v-2.61Zm7.6-.49h-2.27v6.71h2.27c2.35,0,3.44-1.72,3.4-3.43-.04-1.65-1.13-3.28-3.4-3.28Zm0,.49c1.94,0,2.85,1.39,2.88,2.79.03,1.44-.89,2.93-2.88,2.93h-1.75v-5.72h1.75Zm5.19,6.22v-6.71h-.51v6.71h.51Zm7.37,0l-3.01-6.71h-.57l-3.01,6.71h.56l.73-1.65h4l.74,1.65h.56Zm-5.1-2.13l1.8-4.08,1.8,4.08h-3.6Z"/>
</svg>