<?xml version="1.0" encoding="UTF-8"?>
<svg id="Layer_1" data-name="Layer 1" xmlns="http://www.w3.org/2000/svg" xmlns:xlink="http://www.w3.org/1999/xlink" viewBox="0 0 512 512">
  <defs>
    <style>
      .cls-1 {
        fill: #b09144;
      }

      .cls-2 {
        clip-path: url(#clippath);
      }

      .cls-3 {
        fill: #010101;
      }
    </style>
    <clipPath id="clippath">
      <path class="cls-3" d="m177.44,219.73v20.91c0,3.24-.75,5.98-2.49,7.97-1.74,1.99-4.23,2.99-7.72,2.99-6.72,0-9.96-3.98-9.96-11.7v-20.42h-7.22v21.91c0,1.99,0,3.98.75,5.98.5,1.74,1.24,3.49,2.24,5.23s2.74,2.99,4.73,3.98c1.99,1,4.48,1.49,7.47,1.49,3.24,0,5.73-.5,7.97-1.74,2.24-1.24,3.73-2.99,4.73-4.98v5.73h6.72v-37.6h-7.22v.25Zm101.34,37.6h7.22v-37.6h-7.22v37.6Zm52.78,0h7.22v-37.6h-7.22v37.6Zm-122.25-9.71c-2.24-2.74-3.49-5.73-3.49-8.96h0c0-3.73,1.24-6.72,3.73-9.46,2.49-2.49,5.48-3.98,9.46-3.98,2.99,0,5.48.75,7.47,2.24,1.99,1.49,3.49,3.24,4.48,5.48.75,1.74,1.24,3.49,1,5.48,0,1.99-.5,3.98-1.24,5.48-1,2.24-2.49,3.98-4.48,5.48-1.99,1.24-4.48,1.99-7.22,1.99-4.23,0-7.47-1.24-9.71-3.98m-4.98-23.4c-3.73,3.73-5.48,8.47-5.48,14.19s1.74,10.21,5.23,13.94c3.49,3.98,8.22,5.73,13.94,5.73,2.99,0,5.73-.75,8.22-1.99s4.48-3.24,5.73-5.73v6.47h7.22v-37.6h-7.22v6.72c-1-1.99-2.74-3.98-5.23-5.48s-5.23-2.24-8.71-2.24c-5.48,0-9.96,1.99-13.69,5.73m154.37,0c-3.73,3.73-5.73,8.47-5.73,14.19s1.74,10.21,5.48,13.94c3.73,3.98,8.47,5.98,14.44,5.98,4.48,0,8.71-1.24,12.2-3.98,3.49-2.74,5.73-5.98,6.97-10.21h-7.47c-.75,1.99-2.24,3.73-4.23,5.23-1.99,1.49-4.48,2.24-7.47,2.24-3.73,0-6.72-1.24-9.21-3.73-2.49-2.49-3.73-5.73-3.73-9.46s1.24-6.97,3.73-9.46c2.74-2.49,5.73-3.73,9.21-3.73,2.74,0,4.98.75,7.22,1.99,1.99,1.49,3.73,3.24,4.73,5.73h7.47c-1.24-4.48-3.49-7.97-7.22-10.71-3.73-2.74-7.72-3.98-12.2-3.98-5.73,0-10.21,1.99-14.19,5.73m-103.33,32.87h7.22v-51.04h-7.22s0,51.04,0,51.04Zm23.4-43.57h7.22v-7.47h-7.22v7.47Zm26.14-7.47v13.44h-6.72v5.48h6.72v31.87h7.22v-31.87h7.22v-5.48h-7.22v-13.44s-7.22,0-7.22,0Zm26.64,7.47h7.22v-7.47h-7.22v7.47Zm73.95-7.47v51.04h7.22v-19.42l15.44,19.42h8.47l-17.18-20.91,16.68-16.43h-8.71l-14.69,14.94v-28.38h-7.22v-.25Zm-301.52,44.32c-1.49-.25-2.99-.75-4.48-1.49-1.49-.75-3.24-1.74-4.48-3.24-1.49-1.49-2.74-3.24-3.49-5.23,2.24-1,4.73-1.49,7.47-1.49,4.48,0,8.47,1.24,12.2,3.98,3.24,2.74,5.23,4.48,6.22,5.48-2.24,1.74-5.48,2.49-9.21,2.49h0c-1.24,0-2.74,0-3.98-.5m-14.19-21.66c.5-4.98,2.49-8.96,5.98-11.95s7.47-4.48,12.2-4.48h0c5.23,0,9.71,1.74,13.2,5.48,3.73,3.49,5.48,8.22,5.48,13.69,0,4.73-1.49,8.71-4.48,11.95-4.98-4.23-8.22-6.72-9.71-7.72-3.73-2.49-7.97-3.49-12.7-3.49-2.74,0-5.98.5-9.46,1.74-.25-1.49-.5-3.24-.25-4.98m-1-15.69c-4.98,5.23-7.47,11.45-7.47,18.67,0,4.48,1,8.71,3.24,12.7s5.23,7.22,9.46,9.71,8.96,3.73,14.19,3.73,10.21-1.49,14.94-4.48c3.24,2.49,6.97,3.73,11.2,4.23,1,0,2.24,0,3.98.25v-6.72c-3.98-.25-7.22-1.24-9.46-2.74,4.23-4.98,6.22-10.71,6.22-17.18,0-7.22-2.49-13.44-7.72-18.42-5.23-5.23-11.45-7.72-19.17-7.72s-13.94,2.74-19.17,7.97"/>
    </clipPath>
  </defs>
  <path class="cls-1" d="m259.1,403.48c-3.98,0-7.97,0-11.95-.5,1.24,1.99,2.49,4.23,3.73,6.22h16.43c1.24-1.99,2.49-4.23,3.73-6.22-3.98.5-7.97.5-11.95.5m-40.58.75c2.74.75,5.23,1.24,7.97,1.74,2.74.5,5.48,1,8.22,1.49,1.74-1.74,3.24-3.49,4.73-5.48-3.98-.5-7.72-1.24-11.7-1.99-3.98-1-7.72-1.74-11.45-2.99.75,2.24,1.49,4.48,2.24,6.72m71.96-3.98c-3.98.75-7.72,1.49-11.7,1.99,1.49,1.74,3.24,3.49,4.73,5.48,2.74-.5,5.48-1,8.22-1.49s5.23-1.24,7.97-1.74c.75-2.24,1.49-4.48,2.24-6.72-3.73,1.24-7.72,1.99-11.45,2.99m-37.35-3.73h11.95c-2.24-2.99-4.23-6.22-5.98-9.21-1.99,2.99-3.98,6.22-5.98,9.21m-65.48-3.73s2.49,1.24,3.73,1.74l3.73,1.74s1.24.5,1.99.75l1.99.75,3.73,1.49c1.99-1.24,3.98-2.74,5.73-4.23l-2.74-1s-1.74-.75-2.74-1l-2.74-1s-1.74-.75-2.74-1.24l-5.48-2.49s-1.74-1-2.74-1.24l-2.74-1.24c.25,2.24.5,4.73,1,7.22m140.92-5.73s-1.74,1-2.74,1.24l-5.48,2.49s-1.74.75-2.74,1.24l-2.74,1s-1.74.75-2.74,1l-2.74,1c1.99,1.49,3.73,2.99,5.73,4.23l3.73-1.49,1.99-.75s1.24-.5,1.99-.75l3.73-1.74s2.49-1,3.73-1.74c.25-2.49.75-4.73,1-7.22l-2.74,1.24v.25Zm-105.57,5.23l5.98,1.24,5.98,1c-1.49-3.49-2.74-6.97-3.98-10.46-2.49,2.74-4.98,5.23-7.72,7.97m60,2.49l5.98-1,5.98-1.24c-2.74-2.49-5.23-5.23-7.72-7.97-1.24,3.49-2.49,6.97-3.98,10.46m-88.64-12.7l5.48,2.49s1.74.75,2.74,1.24l2.74,1c-.25-1.74-.75-3.73-1-5.48-.25-1.74-.5-3.49-.75-5.48-2.99,2.24-5.98,4.23-9.21,6.22m118.76-.75c-.25,1.74-.75,3.73-1,5.48l2.74-1s1.99-.75,2.74-1.24l5.48-2.49c-3.24-1.99-6.22-3.98-9.21-6.22,0,1.74-.5,3.73-.75,5.48m-153.62-5.98c2.24,1.74,4.48,3.24,6.72,4.98l1.74,1.24s1.24.75,1.74,1.24l3.49,2.24s2.24-1,3.24-1.49,2.24-1,3.24-1.49c-1.74-1-3.49-1.99-4.98-3.24l-2.49-1.49s-1.74-1.24-2.49-1.74c-1.49-1.24-3.24-2.24-4.73-3.49l-4.73-3.73c0,2.24-.5,4.73-.5,7.22m193.21-3.49c-1.49,1.24-3.24,2.24-4.73,3.49-.75.5-1.49,1.24-2.49,1.74l-2.49,1.49c-1.74,1-3.24,2.24-4.98,3.24,1,.5,2.24,1,3.24,1.49s2.24,1,3.24,1.49l3.49-2.24s1.24-.75,1.74-1.24l1.74-1.24c2.24-1.49,4.48-3.24,6.72-4.98,0-2.49-.25-4.73-.5-7.22l-4.73,3.73-.25.25Zm-179.02-7.72c-1.74.75-3.49,1.49-5.23,1.99.75.75,1.49,1.24,2.49,1.74l2.49,1.74c1.49,1.24,3.24,2.24,4.98,3.24,0-3.73,0-7.47.5-11.2-1.74.75-3.49,1.49-4.98,2.24m165.32,8.96c1.74-1,3.49-2.24,4.98-3.24l2.49-1.74s1.74-1.24,2.49-1.74c-1.74-.5-3.49-1.24-5.23-1.99s-3.49-1.49-4.98-2.24c.25,3.73.5,7.47.5,11.2m-97.6-14.44c.5,1.49,1,2.74,1.49,4.23,1,2.74,1.99,5.73,3.24,8.47,1.74-2.49,3.24-5.23,4.73-7.72.75-1.24,1.49-2.49,2.24-3.73.75-1.24,1.49-2.74,1.99-3.98h-2.99l-2.74-.25c-.75,1.24-1.49,2.74-2.24,3.98-.5-1.49-1-2.99-1.49-4.23-1.74-.25-3.73-.5-5.48-.75.5,1.49.75,2.74,1.24,4.23m30.13-3.49c-.5,1.49-1,2.99-1.49,4.23-.75-1.24-1.49-2.74-2.24-3.98-1.74,0-3.73.25-5.48.25.75,1.24,1.24,2.74,1.99,3.98s1.49,2.49,2.24,3.73c1.49,2.49,2.99,5.23,4.73,7.72,1.24-2.74,2.24-5.73,3.24-8.47.5-1.49,1-2.74,1.49-4.23s.75-2.99,1.24-4.23c-1.74.5-3.73.5-5.48.75m-50.29,11.2c2.24-2.24,4.23-4.23,6.22-6.47,1-1,1.99-2.24,2.99-3.24,1-1.24,1.99-2.24,2.74-3.49-1.74-.25-3.49-1-5.23-1.49-1,1.24-1.99,2.24-2.99,3.49,0-1.49-.5-2.99-.5-4.48l-2.49-1s-1.74-.75-2.49-1c.25,5.98,1,11.7,2.24,17.68m74.45-16.68l-2.49,1c0,1.49-.25,2.99-.5,4.48-1-1-1.99-2.24-2.99-3.49-1.74.5-3.49,1-5.23,1.49,1,1.24,1.74,2.24,2.74,3.49,1,1,1.99,2.24,2.99,3.24,1.99,2.24,3.98,4.48,6.22,6.47,1-5.98,1.74-11.7,2.24-17.68-.75.25-1.74.75-2.49,1m-159.1-.25s-.75,2.24-1,3.49l2.74,2.99s1.99,1.99,2.74,2.99l2.74,2.99,2.99,2.74c2.24-.5,4.73-1,6.97-1.49-2.99-2.74-5.73-5.48-8.47-8.22l-1.99-2.24s-1.24-1.49-1.99-2.24l-1.99-2.24s-1.24-1.49-1.99-2.24c-.25,1.24-.75,2.24-1,3.49m241.01-1.24l-1.99,2.24s-1.24,1.49-1.99,2.24l-1.99,2.24c-2.74,2.99-5.48,5.48-8.47,8.22,2.24.5,4.73,1,6.97,1.49l2.99-2.74,2.74-2.99s1.99-1.99,2.74-2.99l2.74-2.99s-.5-2.24-1-3.49c-.25-1.24-.75-2.24-1-3.49-.5.75-1.24,1.49-1.99,2.24m-225.83-3.49c-1.74.25-3.73.75-5.48,1,.75.75,1.24,1.49,1.99,2.24l1.99,2.24c1.49,1.49,2.74,2.99,4.23,4.23.75-3.73,1.74-7.22,2.74-10.71-1.74.5-3.49.75-5.48,1.24m210.89,9.71c1.49-1.24,2.74-2.74,4.23-4.23l1.99-2.24s1.24-1.49,1.99-2.24c-1.74-.25-3.73-.5-5.48-1-1.74-.25-3.73-.75-5.48-1.24,1,3.49,1.99,7.22,2.74,10.71m-164.08-6.97c0,2.99-.25,5.98-.5,8.96,2.49-1.49,4.98-3.49,7.47-5.23,2.49-1.74,4.73-3.49,6.97-5.48-.75-.25-1.74-.75-2.49-1.24l-2.49-1.24s-1.24,1-1.74,1.49l-1.74,1.24c0-1.49,0-2.99.25-4.48-.75-.5-1.49-1-2.49-1.49l-2.24-1.49c-.5,2.99-.75,5.98-1,8.96m117.02-7.47s-1.49,1-2.49,1.49c0,1.49.25,2.99.25,4.48l-1.74-1.24s-1.24-1-1.74-1.49l-2.49,1.24s-1.74.75-2.49,1.24c2.24,1.99,4.48,3.73,6.97,5.48,2.49,1.74,4.98,3.49,7.47,5.23,0-2.99,0-5.98-.5-8.96,0-2.99-.5-5.98-1-8.96,0,0-2.24,1.49-2.24,1.49Zm-135.94-6.72c-.5,1.49-.75,2.99-1.24,4.23-.25,1.49-.75,2.99-1,4.48,1.49-.5,2.74-1,4.23-1.74,1.49-.5,2.74-1.24,4.23-1.74,2.74-1.24,5.48-2.49,7.97-3.98l-4.23-3.49c-1.24.75-2.74,1.24-4.23,1.99.5-1.49.75-2.99,1.24-4.48-.25-.25-.75-.5-1-1l-1-1-1.99-1.99c-1,2.74-1.99,5.48-2.74,8.47m153.37-6.47l-1,1s-.75.5-1,1c.5,1.49.75,2.99,1.24,4.48-1.49-.5-2.74-1.24-4.23-1.74l-4.23,3.49c2.49,1.24,5.23,2.74,7.97,3.98,1.24.75,2.74,1.24,4.23,1.74,1.49.5,2.74,1.24,4.23,1.74-.25-1.49-.75-2.99-1-4.48s-.75-2.99-1.24-4.23c-.75-2.99-1.74-5.73-2.74-8.47l-1.99,1.99-.25-.5Zm-201.18-.5c1,1.74,2.24,3.49,3.24,4.98,1.49-3.49,2.99-6.72,4.73-9.96h-11.2c1,1.74,1.99,3.49,2.99,5.23m245.49-4.98c1.74,3.24,3.24,6.72,4.73,9.96,1.24-1.74,2.24-3.49,3.24-4.98,1-1.74,1.99-3.49,2.99-5.23-3.73,0-7.47.25-11.2,0m-260.43,4.73l1.99,3.49,1,1.74,1,1.74,2.24,3.49s.75,1.24,1.24,1.74l1.24,1.74h7.22l-3.49-4.73c-1-1.74-2.24-3.24-3.24-4.98-1-1.74-1.99-3.49-2.99-4.98l-1.49-2.49s-1-1.74-1.49-2.74c-1.24,1.99-2.24,4.23-3.24,6.47m278.61-3.73l-1.49,2.49c-1,1.74-1.99,3.49-2.99,4.98-1,1.74-2.24,3.24-3.24,4.98l-3.49,4.73h7.22l1.24-1.74s.75-1.24,1.24-1.74l2.24-3.49,1-1.74,1-1.74,1.99-3.49c-1-2.24-2.24-4.23-3.24-6.47-.5,1-1,1.74-1.49,2.74m-231.8-6.72c-.75,1.24-1.49,2.74-1.99,3.98-.75,1.24-1.24,2.74-1.99,3.98,2.99-.5,5.98-1,8.71-1.74,2.99-.75,5.73-1.49,8.71-2.24l-1.74-1.99-1-1-.75-1c-1.49.25-2.99.75-4.48,1,.75-1.24,1.24-2.74,1.99-3.98-1-1.49-2.24-2.99-3.24-4.48-1.49,2.49-2.99,4.98-4.23,7.72m182-3.24c.75,1.24,1.49,2.74,1.99,3.98-1.49-.25-2.99-.75-4.48-1l-.75,1-1,1-1.74,1.99c2.74.75,5.73,1.49,8.71,2.24,2.99.75,5.73,1.24,8.71,1.74-.5-1.49-1.24-2.74-1.99-3.98s-1.24-2.74-1.99-3.98c-1.49-2.74-2.74-5.23-4.23-7.72-1,1.49-2.24,2.99-3.24,4.48m-190.72-11.45c-2.49,0-4.73-.25-6.97-.75h-.25s-1,1.49-1.24,2.24h13.44c1.49,0,2.99,0,4.48-.25l-1.24-1.99c-2.74.75-5.48,1-8.22,1m198.44-.5l-.75,1.24c1.49,0,2.99,0,4.48.25h13.44c-.5-.5-.75-1-1.24-1.49h-3.73c-2.99,0-5.73-.5-8.22-1.24-1.24.5-2.74.75-3.98.75m-217.86-3.98s-1.49,1.74-2.24,2.74-1.49,1.74-1.99,2.74c-1.24,1.74-2.74,3.73-3.98,5.73-1.24,1.99-2.49,3.98-3.73,5.98,2.24.25,4.73.5,6.97.75,2.24,0,4.48.25,6.97.25h13.94c-1,1.99-2.24,3.98-3.24,5.98l-1.49,2.99-1.49,2.99c-1.99,4.23-3.73,8.47-5.23,12.95,2.24,0,4.73-.5,6.97-.75,1.24,0,2.24-.25,3.49-.5,1.24,0,2.24-.5,3.49-.5,2.24-.5,4.48-.75,6.72-1.24s4.48-1,6.72-1.74c-.75,2.24-1.24,4.23-1.99,6.47-.5,2.24-1.24,4.48-1.74,6.72s-1,4.48-1.49,6.72-.75,4.48-1,6.97c1.24-.25,2.24-.75,3.24-1s2.24-.75,3.24-1c2.24-.75,4.48-1.49,6.47-2.49,4.23-1.74,8.47-3.49,12.45-5.48-1,8.96-1.24,18.18-.75,27.64,1.99-1,3.98-2.24,6.22-3.49,1.99-1.24,3.98-2.49,5.98-3.73,1.99-1.24,3.73-2.49,5.73-3.98,1.74-1.24,3.73-2.74,5.48-3.98,0,1.24,0,2.24.25,3.24,0,1,.25,2.24.5,3.24.25,2.24.75,4.48,1,6.72.75,4.48,1.74,8.96,2.99,13.69,3.49-2.99,6.97-6.22,10.21-9.46,3.24-3.24,6.22-6.72,9.21-9.96,1.24,4.23,2.74,8.47,4.48,12.95,1.74,4.23,3.73,8.47,5.73,12.7,2.99-3.73,5.73-7.47,8.22-11.2,2.49-3.98,4.98-7.72,6.97-11.7,2.24,3.98,4.48,7.72,6.97,11.7,2.49,3.73,5.23,7.47,8.22,11.2,2.24-4.23,3.98-8.47,5.73-12.7s3.24-8.71,4.48-12.95c2.99,3.49,5.98,6.72,9.21,9.96,3.24,3.24,6.72,6.47,10.21,9.46,1.24-4.48,2.24-9.21,2.99-13.69.5-2.24.75-4.48,1-6.72,0-1,.25-2.24.5-3.24,0-1,0-2.24.25-3.24,1.74,1.49,3.49,2.74,5.48,3.98,1.74,1.24,3.73,2.74,5.73,3.98s3.98,2.49,5.98,3.73c1.99,1.24,3.98,2.49,6.22,3.49.5-9.46.25-18.67-.75-27.64,3.98,1.99,8.22,3.98,12.45,5.48,2.24.75,4.23,1.74,6.47,2.49,1,.5,2.24.75,3.24,1s2.24.75,3.24,1c-.25-2.24-.75-4.73-1-6.97-.5-2.24-1-4.48-1.49-6.72s-1-4.48-1.74-6.72-1.24-4.48-1.99-6.47c2.24.5,4.48,1.24,6.72,1.74,2.24.5,4.48,1,6.72,1.24,1.24,0,2.24.5,3.49.5s2.24.25,3.49.5c2.24.25,4.48.5,6.97.75-1.49-4.48-3.24-8.71-5.23-12.95-.5-1-1-1.99-1.49-2.99s-1-1.99-1.49-2.99c-1-1.99-2.24-3.98-3.24-5.98h13.94c2.24,0,4.73,0,6.97-.25,2.24,0,4.73-.5,6.97-.75-1.24-1.99-2.49-3.98-3.73-5.98-1.24-1.99-2.49-3.73-3.98-5.73-.75-1-1.24-1.74-1.99-2.74s-1.49-1.74-2.24-2.74h0c-1.49,1-3.24,1.99-5.23,2.74,1,1.24,1.74,2.49,2.74,3.49,1.24,1.74,2.74,3.73,3.98,5.73-2.24,0-4.48.25-6.97.25h-16.68c-1,0-2.24,0-3.24-.25,1.24,1.74,2.24,3.73,3.49,5.73.5,1,1,1.99,1.74,2.99.5,1,1,1.99,1.49,2.99,1.99,3.98,3.98,8.22,5.48,12.45-2.24-.25-4.48-.75-6.72-1-1,0-2.24-.5-3.24-.5s-2.24-.5-3.24-.75c-2.24-.5-4.48-1-6.47-1.49-2.24-.5-4.23-1.24-6.47-1.99.75,1.99,1.49,4.23,2.24,6.22s1.24,4.23,1.99,6.47c.5,2.24,1.24,4.48,1.74,6.72.5,2.24,1,4.48,1.24,6.72-1-.25-2.24-.75-3.24-1.24s-2.24-.75-3.24-1.24c-2.24-.75-4.23-1.74-6.22-2.74-3.98-1.74-8.22-3.73-11.95-5.98,1.24,8.71,1.99,17.68,1.74,26.89-1.99-1.24-3.98-2.24-5.73-3.49-1.99-1.24-3.73-2.49-5.73-3.73-1.74-1.24-3.73-2.74-5.48-3.98-1.74-1.49-3.49-2.74-5.23-4.23v3.24c0,1,0,2.24-.25,3.24,0,2.24-.5,4.48-.75,6.72-.75,4.48-1.49,8.96-2.49,13.44-3.49-2.99-6.72-6.22-9.71-9.46s-5.98-6.72-8.71-10.21c-1,4.23-2.49,8.47-3.98,12.7-1.49,4.23-3.24,8.47-5.23,12.7-2.74-3.73-5.23-7.47-7.47-11.2-2.24-3.98-4.48-7.72-6.47-11.7-1.99,3.98-3.98,7.72-6.47,11.7-2.24,3.73-4.98,7.47-7.47,11.2-1.99-4.23-3.73-8.47-5.23-12.7s-2.74-8.47-3.98-12.7c-2.74,3.49-5.48,6.97-8.71,10.21-2.99,3.24-6.22,6.47-9.71,9.46-1-4.48-1.99-8.96-2.49-13.44-.25-2.24-.5-4.48-.75-6.72,0-1,0-2.24-.25-3.24v-3.24c-1.74,1.49-3.49,2.74-5.23,4.23s-3.49,2.74-5.48,3.98c-1.74,1.24-3.73,2.49-5.73,3.73-1.99,1.24-3.98,2.49-5.73,3.49,0-9.21.25-18.18,1.74-26.89-3.73,2.24-7.97,4.23-11.95,5.98-1.99,1-4.23,1.74-6.22,2.74-1,.5-2.24.75-3.24,1.24s-2.24.75-3.24,1.24c.5-2.24.75-4.48,1.24-6.72s1-4.48,1.74-6.72c.5-2.24,1.24-4.23,1.99-6.47.75-2.24,1.49-4.23,2.24-6.22-1.99.75-4.23,1.24-6.47,1.99-2.24.5-4.23,1-6.47,1.49-1,0-2.24.5-3.24.75-1,0-2.24.5-3.24.5-2.24.25-4.48.75-6.72,1,1.74-4.23,3.49-8.47,5.48-12.45l1.49-2.99c.5-1,1-1.99,1.74-2.99,1-1.99,2.24-3.73,3.49-5.73-1,0-2.24,0-3.24.25h-16.68c-2.24,0-4.48,0-6.97-.25,1.24-1.99,2.49-3.73,3.98-5.73,1.24-1.49,2.24-3.24,3.49-4.73-1.74-.75-3.49-1.74-4.98-2.99-.5.5-.75,1-1.24,1.49m-17.18,2.74l2.24,5.73c2.24-2.99,4.48-5.98,6.72-8.96-3.73-.75-7.22-1.49-10.96-2.49.75,1.99,1.24,3.73,1.99,5.73m271.39-3.24c2.24,2.74,4.48,5.73,6.72,8.96l2.24-5.73c.75-1.99,1.24-3.73,1.99-5.73-3.73,1-7.22,1.74-10.96,2.49m-285.83,0c1,2.49,1.74,5.23,2.74,7.72l1.49,3.73.75,1.99s.5,1.24.75,1.99c2.49.5,4.73,1,6.97,1.24l-1.24-2.74s-.75-1.74-1.24-2.74l-2.24-5.48c-.75-1.74-1.24-3.73-1.99-5.73-.25-1-.75-1.99-1-2.74l-.75-2.74c-1.49,1.74-2.99,3.73-4.48,5.48m304.01-2.74s-.5,1.99-1,2.74c-.75,1.99-1.24,3.73-1.99,5.73l-2.24,5.48s-.75,1.74-1.24,2.74l-1.24,2.74c2.24-.5,4.73-.75,6.97-1.24.25-.5.5-1.24.75-1.99l.75-1.99,1.49-3.73c1-2.49,1.74-5.23,2.74-7.72-1.49-1.99-2.99-3.73-4.48-5.48l-.75,2.74h.25Zm-18.67-5.48s-.75,1-1,1.74c.75,0,1.74-.25,2.49-.5,1.49-.25,2.99-.75,4.23-1h-5.73v-.25Zm-234.54-98.85c.75,1.24,1.74,2.49,2.49,3.73l1.24,1.74,1.24,1.74s1-1.49,1.24-2.49l1.49-2.49c-1-1.24-1.74-2.49-2.49-3.73,1.49,0,2.99.25,4.48.5,1-1.49,1.99-2.99,3.24-4.48-2.99-.5-5.73-1-8.71-1.49-2.99-.25-5.98-.75-8.96-1,1.49,2.49,2.99,5.23,4.73,7.72m198.19-6.72c-2.99.5-5.98,1-8.71,1.49,1,1.49,2.24,2.99,3.24,4.48,1.49,0,2.99-.5,4.48-.5-.75,1.24-1.49,2.49-2.49,3.73l1.49,2.49s1,1.49,1.24,2.49l1.24-1.74,1.24-1.74s1.74-2.49,2.49-3.73c1.74-2.49,3.24-4.98,4.73-7.72-2.99,0-5.98.5-8.96,1m-231.05-.75s-1,1.74-1.24,2.74l-.5,1c2.49,0,4.98.25,7.22.75,1,0,1.99,0,2.99-.25-1.99-2.99-3.98-6.22-5.73-9.46l-2.74,5.48v-.25Zm259.69,4.23c1.74,0,3.49.25,4.98.5h5.48l-.75-1.74s-.75-1.74-1.24-2.74l-2.74-5.48c-1.74,3.24-3.73,6.47-5.73,9.46m-267.16-16.93s-1.24,2.49-1.99,3.73l-1.99,3.73s-1.24,2.49-1.74,3.73l-1.74,3.73s1.24,1.74,1.74,2.74c1.24-.25,2.49-.5,3.98-.75l.75-1.49,1.24-2.74s.75-1.74,1.24-2.74l2.74-5.23c1-1.74,1.99-3.49,2.99-5.23-2.24,0-4.73.25-7.22.5m279.11,4.73l2.74,5.23s.75,1.74,1.24,2.74l1.24,2.74,1,2.49s1.99.5,2.74.75c0,0,.25-.5.5-.5.75-1,1.24-1.99,1.99-2.99l-1.74-3.73s-1-2.49-1.74-3.73l-1.99-3.73s-1.24-2.49-1.99-3.73c-2.49,0-4.73-.5-7.22-.5,1,1.74,1.99,3.49,2.99,5.23m-221.34,4.73l1.74-1.99,1-1s.5-.75,1-1c-.5-1.49-1.24-2.74-1.74-4.23,1.49.5,2.99,1,4.23,1.49.5-.75,1.24-1.24,1.99-1.99l1.99-1.99c-2.74-1-5.48-2.24-8.22-3.24l-2.24-.75-2.24-.75c-1.49-.5-2.99-.75-4.23-1.24,1.74,5.73,4.23,11.2,6.72,16.68m170.05-15.44l-2.24.75-2.24.75c-2.74,1-5.73,1.99-8.22,3.24l1.99,1.99,1.99,1.99c1.49-.5,2.74-1,4.23-1.49-.5,1.49-1,2.74-1.74,4.23.25.25.75.75,1,1l1,1,1.74,1.99c2.49-5.23,4.73-10.96,6.72-16.68-1.49.5-2.99.75-4.23,1.24m-201.43-10.21l-1,1.24-1.74,2.49s-1.24,1.49-1.74,2.49l-1.74,2.49c1.74,0,3.73,0,5.48.25,1.74,0,3.73.25,5.48.5-.75-1.74-1.24-3.49-1.99-5.23l-1-2.74-.75-2.74s-1,1.24-1,1.24Zm228.81,1.49l-1,2.74c-.75,1.74-1.24,3.49-1.99,5.23,1.74,0,3.73-.5,5.48-.5s3.73-.25,5.48-.25l-1.74-2.49s-1.24-1.49-1.74-2.49l-1.74-2.49-1-1.24-1-1.24s-.75,2.74-.75,2.74Zm-183.5,0c.5,2.99,1.24,5.98,1.99,8.71,1.49-1,2.74-2.24,4.48-3.24-.25-1.49-.5-2.99-.75-4.48,1.24.75,2.74,1.49,3.98,2.24l2.24-1.49,1.24-.75s.75-.5,1.24-.75c-1.24-.75-2.49-1.74-3.73-2.49-1.24-.75-2.49-1.49-3.73-2.24s-2.49-1.49-3.98-2.24c-1.24-.75-2.74-1.49-3.98-1.99.25,2.99.75,5.98,1.24,8.96m137.19-6.72c-1.24.75-2.74,1.49-3.98,2.24s-2.49,1.49-3.73,2.24c-1.24.75-2.49,1.49-3.73,2.49.5,0,.75.5,1.24.75l1.24.75,2.24,1.49c1.24-.75,2.49-1.49,3.98-2.24,0,1.49-.5,2.99-.75,4.48,1.49,1,2.99,2.24,4.48,3.24.75-2.74,1.24-5.73,1.99-8.71.5-2.99,1-5.98,1.24-8.96-1.24.75-2.74,1.24-3.98,1.99m-191.47-3.73s-1,1-1.24,1.49l-2.49,3.24c-1.74,2.24-3.24,4.48-4.98,6.72.5,1.24.75,2.24,1.24,3.24s1,2.24,1.49,3.24l.75-1.24s.5-.75.75-1.24l1.74-2.49,1.74-2.49s1.24-1.49,1.74-2.24l1.74-2.24s1.24-1.49,1.99-2.24l3.98-4.48c-2.24-.25-4.73-.75-6.97-1l-1.24,1.49-.25.25Zm240.02-.75l3.98,4.48s1.24,1.49,1.99,2.24l1.74,2.24s1.24,1.49,1.74,2.24l1.74,2.49,1.74,2.49s.5.75.75,1.24l.75,1.24s1-2.24,1.49-3.24.75-2.24,1.24-3.24c-1.49-2.24-3.24-4.48-4.98-6.72l-2.49-3.24s-.75-1-1.24-1.49l-1.24-1.49c-2.49.25-4.73.5-6.97,1m-165.57-1v8.96l2.49-1.24,2.49-1.24v-4.48c1.24,1,2.24,1.99,3.49,2.99l2.49-1s.75-.25,1.24-.5l1.24-.5s-1.99-2.24-3.24-3.24c-1-1-2.24-1.99-3.24-2.99s-2.24-1.99-3.49-2.99c-1.24-1-2.24-1.99-3.49-2.99,0,2.99-.5,5.98-.5,8.96m95.36-6.22s-2.24,1.99-3.49,2.99c-1,1-2.24,1.99-3.24,2.99s-2.24,1.99-3.24,3.24l1.24.5s.75.25,1.24.5l2.49,1s2.24-1.99,3.49-2.99v4.48l2.49,1.24,2.49,1.24v-8.96c0-2.99,0-5.98-.5-8.96-1.24,1-2.24,1.99-3.49,2.99m-140.67-3.49l-2.24,1.99c-1.49,1.24-2.99,2.49-4.48,3.98,3.49,1,7.22,1.99,10.71,3.24-.25-1.74-.5-3.73-1-5.48,0-1.74-.5-3.73-.75-5.48l-2.49,1.74h.25Zm186.98,3.73c-.25,1.74-.5,3.73-1,5.48,3.49-1.24,6.97-2.24,10.71-3.24-1.49-1.49-2.99-2.74-4.48-3.98l-2.24-1.99-2.49-1.74c0,1.74-.5,3.73-.75,5.48m-119.51-1.99c-.25,1.49-.75,2.99-1,4.23-.25,1.49-.5,2.99-.75,4.48l1.24-.5h.75l.75-.25,2.74-.5c.25-1.49.75-2.99,1-4.48,1,1.24,1.74,2.49,2.74,3.73l2.74-.5h2.74c-.75-1.49-1.49-2.74-2.49-3.98-.75-1.24-1.74-2.49-2.49-3.73-1.74-2.49-3.49-4.73-5.48-7.22-.75,2.99-1.49,5.98-2.24,8.71m47.06-1.49s-1.74,2.49-2.49,3.73c-.75,1.24-1.74,2.49-2.49,3.73h1.24l.75.25h.75l2.74.5c1-1.24,1.74-2.49,2.74-3.73.25,1.49.75,2.99,1,4.48,1.74.5,3.49.75,5.23,1.24,0-1.49-.5-2.99-.75-4.48-.25-1.49-.5-2.99-1-4.23-.75-2.99-1.49-5.73-2.24-8.71-1.99,2.49-3.73,4.73-5.48,7.22m-23.65-1.49c-.5,1.24-1.24,2.74-1.74,3.98-.5,1.49-1.24,2.74-1.74,4.23h5.48c.5-1.49,1.24-2.74,1.99-4.23.75,1.49,1.24,2.74,1.99,4.23h5.48c-.5-1.49-1-2.74-1.74-4.23-.5-1.24-1.24-2.74-1.74-3.98-1.24-2.74-2.49-5.48-3.98-8.22-1.49,2.74-2.74,5.48-3.98,8.22m-98.35-8.96s-1,.75-1.49,1.24l-1.49,1.24-2.99,2.74s-1.99,1.99-2.99,2.74c.25,2.49.75,4.73,1.24,6.97l4.23-3.98,1-1,1-1,2.24-1.99,2.24-1.99,2.24-1.74,2.24-1.74,1.24-1s.75-.5,1.24-.75c-2.24-.75-4.48-1.49-6.72-2.24,0,0-3.24,2.49-3.24,2.49Zm194.7,0s.75.5,1.24.75l1.24,1,2.24,1.74,2.24,1.74,2.24,1.99,2.24,1.99,1,1,1,1,4.23,3.98c.5-2.24.75-4.73,1.24-6.97-1-1-1.99-1.99-2.99-2.74l-2.99-2.74-1.49-1.24s-1-1-1.49-1.24l-3.24-2.49c-2.24.75-4.48,1.49-6.72,2.24m-162.34-6.22l-1.24.75-1.24.75c-1.74,1-3.49,1.99-5.23,2.99,3.49,1.74,6.72,3.49,9.71,5.23v-2.74l.25-2.74c0-1.74.25-3.73.5-5.48l-2.74,1.49v-.25Zm137.44,4.23v2.74l.25,2.74c3.24-1.74,6.47-3.49,9.71-5.23-1.74-1-3.49-1.99-5.23-2.99l-1.24-.75-1.24-.75-2.74-1.49c0,1.74.25,3.73.5,5.48m-112.29-14.69l-5.73,1.99c2.99,2.24,5.73,4.73,8.47,7.22.75-3.49,1.74-7.22,2.99-10.71-1.99.5-3.98,1-5.73,1.74m86.65,8.96c2.74-2.49,5.48-4.73,8.47-7.22l-5.73-1.99c-1.99-.5-3.98-1-5.73-1.74,1,3.49,1.99,7.22,2.99,10.71m-117.02-10.21s-2.49,1.24-3.73,1.99l-3.49,1.99-1.74,1-1.74,1v7.22l4.98-3.24,5.23-2.99,1.24-.75,1.24-.75,2.74-1.24,2.74-1.24s1.74-.75,2.74-1.24c-1.99-1.24-4.23-2.49-6.22-3.73l-3.73,1.99h-.25Zm140.18,1.74s1.74.75,2.74,1.24l2.74,1.24,2.74,1.24,1.24.75,1.24.75,5.23,2.99,4.98,3.24v-7.22l-1.74-1-1.74-1-3.49-1.99s-2.49-1.24-3.73-1.99l-3.73-1.99c-1.99,1.24-4.23,2.49-6.22,3.73m-80.17-6.72l-5.98.75c2.49,2.99,4.73,5.73,6.97,8.71,1.49-3.24,3.24-6.47,4.98-9.96,0,0-5.98.5-5.98.5Zm29.13,9.46c2.24-2.99,4.48-5.73,6.97-8.71l-5.98-.75-5.98-.5c1.74,3.24,3.49,6.47,4.98,9.96m-21.16,1c-2.24,4.23-3.98,8.22-5.73,12.45-2.49-3.73-5.23-7.22-8.22-10.96-2.99-3.49-5.98-6.97-9.21-10.46-1.74,4.48-3.24,8.96-4.48,13.2-1.24,4.48-2.24,8.96-3.24,13.2-3.24-2.99-6.72-6.22-10.21-8.96-1.74-1.49-3.49-2.74-5.48-4.23-1-.75-1.99-1.49-2.74-1.99-1-.75-1.99-1.24-2.99-1.99-.5,2.24-.75,4.73-1,6.97-.25,2.24-.5,4.48-.75,6.97,0,2.24-.25,4.48-.25,6.97v6.72c-7.47-4.73-15.69-9.21-24.4-12.7,0,4.73.5,9.21,1.24,13.94.25,2.24.75,4.48,1,6.72,0,1,.5,2.24.5,3.24s.5,2.24.75,3.24c-1.99-.75-4.23-1.49-6.47-2.24-2.24-.75-4.23-1.24-6.47-1.99-2.24-.75-4.48-1.24-6.72-1.74s-4.48-1-6.72-1.49c.5,2.24,1.24,4.48,1.74,6.72.75,2.24,1.24,4.48,1.99,6.72.25,1,.75,2.24,1.24,3.24s.75,2.24,1.24,3.24c.75,2.24,1.74,4.23,2.74,6.22-4.48-.75-8.96-1.24-13.44-1.74h-13.94c.5,1,1,1.99,1.49,3.24.5,1,1,1.99,1.74,3.24,1,1.99,2.24,3.98,3.49,5.98,1.24,1.99,2.24,3.98,3.49,5.73,1.24,1.99,2.49,3.73,3.73,5.73h-.25c2.49,1.49,4.73,3.24,6.72,5.23h4.23c-1.24-1.74-2.74-3.49-3.98-5.23-1.24-1.74-2.49-3.73-3.73-5.48-1.24-1.99-2.49-3.73-3.49-5.73-.5-1-1.24-1.99-1.74-2.99l-1.49-2.99c2.24,0,4.48,0,6.97.25,1.24,0,2.24,0,3.49.25,1.24,0,2.24,0,3.49.25,4.48.5,8.71,1.24,13.2,1.99-1-1.99-1.99-3.98-2.74-5.98-.5-1-1-1.99-1.24-2.99-.5-1-.75-1.99-1.24-2.99-.75-1.99-1.49-4.23-2.24-6.47s-1.24-4.23-1.99-6.47c2.24.5,4.48,1,6.72,1.74s4.48,1.24,6.47,1.99c2.24.75,4.23,1.49,6.22,2.24s4.23,1.74,6.22,2.49c-.25-1-.5-2.24-.75-3.24s-.5-2.24-.75-3.24c-.5-2.24-.75-4.23-1.24-6.47-.75-4.48-1.24-8.96-1.74-13.44,8.47,3.73,16.18,8.22,23.4,13.2v-13.44c0-2.24,0-4.48.5-6.72,0-2.24.5-4.48.75-6.72,1,.75,1.74,1.24,2.74,1.99s1.74,1.49,2.74,2.24c1.74,1.49,3.49,2.99,5.23,4.23,3.49,2.99,6.72,6.22,9.71,9.21.75-4.23,1.49-8.71,2.49-13.2,1-4.23,2.49-8.71,3.98-13.2,2.99,3.49,5.98,6.97,8.71,10.46,2.74,3.73,5.23,7.22,7.47,10.96,1.49-3.98,3.24-8.22,5.23-12.2s3.98-7.97,6.47-11.95c2.24,3.98,4.48,7.97,6.47,11.95,1.99,4.23,3.73,8.22,5.23,12.2,2.24-3.73,4.73-7.47,7.47-10.96,2.74-3.49,5.48-6.97,8.71-10.46,1.49,4.48,2.74,8.71,3.98,13.2,1,4.48,1.99,8.71,2.49,13.2,2.99-3.24,6.22-6.22,9.71-9.21,1.74-1.49,3.49-2.99,5.23-4.23,1-.75,1.74-1.49,2.74-2.24s1.74-1.49,2.74-1.99c.25,2.24.5,4.48.75,6.72,0,2.24.25,4.48.5,6.72v13.44c7.22-4.98,15.19-9.46,23.4-13.2-.25,4.48-.75,8.96-1.74,13.44-.25,2.24-.75,4.48-1.24,6.47,0,1-.5,2.24-.75,3.24-.25,1-.5,2.24-.75,3.24,1.99-.75,3.98-1.74,6.22-2.49,1.99-.75,4.23-1.49,6.22-2.24,2.24-.75,4.23-1.24,6.47-1.99,2.24-.5,4.48-1.24,6.72-1.74-.75,2.24-1.24,4.48-1.99,6.47-.75,2.24-1.49,4.23-2.24,6.47-.5,1-.75,1.99-1.24,2.99s-.75,1.99-1.24,2.99c-1,1.99-1.74,3.98-2.74,5.98,4.48-1,8.71-1.49,13.2-1.99,1.24,0,2.24-.25,3.49-.25s2.24,0,3.49-.25c2.24,0,4.48-.25,6.97-.25-.5,1-1,1.99-1.49,2.99s-1.24,1.99-1.74,2.99c-1.24,1.99-2.24,3.98-3.49,5.73-1.24,1.99-2.49,3.73-3.73,5.48-1.24,1.74-2.49,3.49-3.98,5.23h12.7c1-1.74,2.24-3.49,3.49-4.73-1.99,0-3.73-.25-5.73-.25,1.24-1.74,2.49-3.73,3.73-5.73,1.24-1.99,2.49-3.98,3.49-5.73,1.24-1.99,2.24-3.98,3.49-5.98.5-1,1-1.99,1.74-3.24.5-1,1-1.99,1.49-3.24h-13.94c-4.73.25-8.96.75-13.44,1.74,1-1.99,1.74-4.23,2.74-6.22.5-1,.75-2.24,1.24-3.24s.75-2.24,1.24-3.24c.75-2.24,1.49-4.48,1.99-6.72.75-2.24,1.24-4.48,1.74-6.72l-6.72,1.49c-2.24.5-4.48,1.24-6.72,1.74-2.24.75-4.48,1.24-6.47,1.99-2.24.75-4.23,1.49-6.47,2.24,0-1,.5-2.24.75-3.24,0-1,.5-2.24.5-3.24.5-2.24.75-4.48,1-6.72.5-4.73,1-9.21,1.24-13.94-8.71,3.49-16.93,7.97-24.4,12.7v-6.72c0-2.24,0-4.48-.25-6.97,0-2.24-.5-4.48-.75-6.97-.25-2.24-.5-4.73-1-6.97-1,.75-1.99,1.24-2.99,1.99s-1.99,1.49-2.74,1.99c-1.74,1.49-3.73,2.74-5.48,4.23-3.49,2.99-6.97,5.98-10.21,8.96-.75-4.48-1.99-8.71-3.24-13.2-1.24-4.48-2.74-8.71-4.48-13.2-3.24,3.49-6.47,6.97-9.21,10.46-2.99,3.73-5.73,7.22-8.22,10.96-1.74-3.98-3.73-8.22-5.73-12.45-2.24-3.98-4.48-7.97-6.97-11.95-2.49,3.98-4.98,7.97-6.97,11.95m-41.58-16.43c-2.49,1-5.23,1.74-7.72,2.74-.5,2.24-1.24,4.73-1.74,6.97l2.74-1,1.49-.5,1.49-.5,5.73-1.99c3.73-1,7.72-2.24,11.45-2.99-1.74-1.74-3.49-3.24-5.23-4.73-2.74.75-5.23,1.49-7.97,2.24m83.66,2.49c3.98.75,7.72,1.99,11.45,2.99l5.73,1.99,1.49.5,1.49.5,2.74,1c-.5-2.24-1-4.73-1.74-6.97-2.49-1-5.23-1.74-7.72-2.74-2.74-.75-5.23-1.49-7.97-2.24-1.74,1.49-3.49,3.24-5.23,4.73m-51.54-9.21c-2.74.25-5.48.75-8.22,1-1,2.24-1.99,4.48-2.99,6.47,3.98-.75,7.72-1.24,11.7-1.74,3.98-.25,7.97-.75,11.95-.75-1.24-1.99-2.74-3.98-4.23-5.73-2.74,0-5.48.5-8.22.5m20.42,5.23c3.98,0,7.97.5,11.95.75,3.98.5,7.97,1,11.7,1.74-1-2.24-1.99-4.48-2.99-6.47-2.74-.25-5.48-.75-8.22-1-2.74,0-5.48-.5-8.22-.5-1.49,1.99-2.99,3.98-4.23,5.73"/>
  <g>
    <path class="cls-3" d="m177.44,219.73v20.91c0,3.24-.75,5.98-2.49,7.97-1.74,1.99-4.23,2.99-7.72,2.99-6.72,0-9.96-3.98-9.96-11.7v-20.42h-7.22v21.91c0,1.99,0,3.98.75,5.98.5,1.74,1.24,3.49,2.24,5.23s2.74,2.99,4.73,3.98c1.99,1,4.48,1.49,7.47,1.49,3.24,0,5.73-.5,7.97-1.74,2.24-1.24,3.73-2.99,4.73-4.98v5.73h6.72v-37.6h-7.22v.25Zm101.34,37.6h7.22v-37.6h-7.22v37.6Zm52.78,0h7.22v-37.6h-7.22v37.6Zm-122.25-9.71c-2.24-2.74-3.49-5.73-3.49-8.96h0c0-3.73,1.24-6.72,3.73-9.46,2.49-2.49,5.48-3.98,9.46-3.98,2.99,0,5.48.75,7.47,2.24,1.99,1.49,3.49,3.24,4.48,5.48.75,1.74,1.24,3.49,1,5.48,0,1.99-.5,3.98-1.24,5.48-1,2.24-2.49,3.98-4.48,5.48-1.99,1.24-4.48,1.99-7.22,1.99-4.23,0-7.47-1.24-9.71-3.98m-4.98-23.4c-3.73,3.73-5.48,8.47-5.48,14.19s1.74,10.21,5.23,13.94c3.49,3.98,8.22,5.73,13.94,5.73,2.99,0,5.73-.75,8.22-1.99s4.48-3.24,5.73-5.73v6.47h7.22v-37.6h-7.22v6.72c-1-1.99-2.74-3.98-5.23-5.48s-5.23-2.24-8.71-2.24c-5.48,0-9.96,1.99-13.69,5.73m154.37,0c-3.73,3.73-5.73,8.47-5.73,14.19s1.74,10.21,5.48,13.94c3.73,3.98,8.47,5.98,14.44,5.98,4.48,0,8.71-1.24,12.2-3.98,3.49-2.74,5.73-5.98,6.97-10.21h-7.47c-.75,1.99-2.24,3.73-4.23,5.23-1.99,1.49-4.48,2.24-7.47,2.24-3.73,0-6.72-1.24-9.21-3.73-2.49-2.49-3.73-5.73-3.73-9.46s1.24-6.97,3.73-9.46c2.74-2.49,5.73-3.73,9.21-3.73,2.74,0,4.98.75,7.22,1.99,1.99,1.49,3.73,3.24,4.73,5.73h7.47c-1.24-4.48-3.49-7.97-7.22-10.71-3.73-2.74-7.72-3.98-12.2-3.98-5.73,0-10.21,1.99-14.19,5.73m-103.33,32.87h7.22v-51.04h-7.22s0,51.04,0,51.04Zm23.4-43.57h7.22v-7.47h-7.22v7.47Zm26.14-7.47v13.44h-6.72v5.48h6.72v31.87h7.22v-31.87h7.22v-5.48h-7.22v-13.44s-7.22,0-7.22,0Zm26.64,7.47h7.22v-7.47h-7.22v7.47Zm73.95-7.47v51.04h7.22v-19.42l15.44,19.42h8.47l-17.18-20.91,16.68-16.43h-8.71l-14.69,14.94v-28.38h-7.22v-.25Zm-301.52,44.32c-1.49-.25-2.99-.75-4.48-1.49-1.49-.75-3.24-1.74-4.48-3.24-1.49-1.49-2.74-3.24-3.49-5.23,2.24-1,4.73-1.49,7.47-1.49,4.48,0,8.47,1.24,12.2,3.98,3.24,2.74,5.23,4.48,6.22,5.48-2.24,1.74-5.48,2.49-9.21,2.49h0c-1.24,0-2.74,0-3.98-.5m-14.19-21.66c.5-4.98,2.49-8.96,5.98-11.95s7.47-4.48,12.2-4.48h0c5.23,0,9.71,1.74,13.2,5.48,3.73,3.49,5.48,8.22,5.48,13.69,0,4.73-1.49,8.71-4.48,11.95-4.98-4.23-8.22-6.72-9.71-7.72-3.73-2.49-7.97-3.49-12.7-3.49-2.74,0-5.98.5-9.46,1.74-.25-1.49-.5-3.24-.25-4.98m-1-15.69c-4.98,5.23-7.47,11.45-7.47,18.67,0,4.48,1,8.71,3.24,12.7s5.23,7.22,9.46,9.71,8.96,3.73,14.19,3.73,10.21-1.49,14.94-4.48c3.24,2.49,6.97,3.73,11.2,4.23,1,0,2.24,0,3.98.25v-6.72c-3.98-.25-7.22-1.24-9.46-2.74,4.23-4.98,6.22-10.71,6.22-17.18,0-7.22-2.49-13.44-7.72-18.42-5.23-5.23-11.45-7.72-19.17-7.72s-13.94,2.74-19.17,7.97"/>
    <g>
      <path class="cls-3" d="m177.44,219.73v20.91c0,3.24-.75,5.98-2.49,7.97-1.74,1.99-4.23,2.99-7.72,2.99-6.72,0-9.96-3.98-9.96-11.7v-20.42h-7.22v21.91c0,1.99,0,3.98.75,5.98.5,1.74,1.24,3.49,2.24,5.23s2.74,2.99,4.73,3.98c1.99,1,4.48,1.49,7.47,1.49,3.24,0,5.73-.5,7.97-1.74,2.24-1.24,3.73-2.99,4.73-4.98v5.73h6.72v-37.6h-7.22v.25Zm101.34,37.6h7.22v-37.6h-7.22v37.6Zm52.78,0h7.22v-37.6h-7.22v37.6Zm-122.25-9.71c-2.24-2.74-3.49-5.73-3.49-8.96h0c0-3.73,1.24-6.72,3.73-9.46,2.49-2.49,5.48-3.98,9.46-3.98,2.99,0,5.48.75,7.47,2.24,1.99,1.49,3.49,3.24,4.48,5.48.75,1.74,1.24,3.49,1,5.48,0,1.99-.5,3.98-1.24,5.48-1,2.24-2.49,3.98-4.48,5.48-1.99,1.24-4.48,1.99-7.22,1.99-4.23,0-7.47-1.24-9.71-3.98m-4.98-23.4c-3.73,3.73-5.48,8.47-5.48,14.19s1.74,10.21,5.23,13.94c3.49,3.98,8.22,5.73,13.94,5.73,2.99,0,5.73-.75,8.22-1.99s4.48-3.24,5.73-5.73v6.47h7.22v-37.6h-7.22v6.72c-1-1.99-2.74-3.98-5.23-5.48s-5.23-2.24-8.71-2.24c-5.48,0-9.96,1.99-13.69,5.73m154.37,0c-3.73,3.73-5.73,8.47-5.73,14.19s1.74,10.21,5.48,13.94c3.73,3.98,8.47,5.98,14.44,5.98,4.48,0,8.71-1.24,12.2-3.98,3.49-2.74,5.73-5.98,6.97-10.21h-7.47c-.75,1.99-2.24,3.73-4.23,5.23-1.99,1.49-4.48,2.24-7.47,2.24-3.73,0-6.72-1.24-9.21-3.73-2.49-2.49-3.73-5.73-3.73-9.46s1.24-6.97,3.73-9.46c2.74-2.49,5.73-3.73,9.21-3.73,2.74,0,4.98.75,7.22,1.99,1.99,1.49,3.73,3.24,4.73,5.73h7.47c-1.24-4.48-3.49-7.97-7.22-10.71-3.73-2.74-7.72-3.98-12.2-3.98-5.73,0-10.21,1.99-14.19,5.73m-103.33,32.87h7.22v-51.04h-7.22s0,51.04,0,51.04Zm23.4-43.57h7.22v-7.47h-7.22v7.47Zm26.14-7.47v13.44h-6.72v5.48h6.72v31.87h7.22v-31.87h7.22v-5.48h-7.22v-13.44s-7.22,0-7.22,0Zm26.64,7.47h7.22v-7.47h-7.22v7.47Zm73.95-7.47v51.04h7.22v-19.42l15.44,19.42h8.47l-17.18-20.91,16.68-16.43h-8.71l-14.69,14.94v-28.38h-7.22v-.25Zm-301.52,44.32c-1.49-.25-2.99-.75-4.48-1.49-1.49-.75-3.24-1.74-4.48-3.24-1.49-1.49-2.74-3.24-3.49-5.23,2.24-1,4.73-1.49,7.47-1.49,4.48,0,8.47,1.24,12.2,3.98,3.24,2.74,5.23,4.48,6.22,5.48-2.24,1.74-5.48,2.49-9.21,2.49h0c-1.24,0-2.74,0-3.98-.5m-14.19-21.66c.5-4.98,2.49-8.96,5.98-11.95s7.47-4.48,12.2-4.48h0c5.23,0,9.71,1.74,13.2,5.48,3.73,3.49,5.48,8.22,5.48,13.69,0,4.73-1.49,8.71-4.48,11.95-4.98-4.23-8.22-6.72-9.71-7.72-3.73-2.49-7.97-3.49-12.7-3.49-2.74,0-5.98.5-9.46,1.74-.25-1.49-.5-3.24-.25-4.98m-1-15.69c-4.98,5.23-7.47,11.45-7.47,18.67,0,4.48,1,8.71,3.24,12.7s5.23,7.22,9.46,9.71,8.96,3.73,14.19,3.73,10.21-1.49,14.94-4.48c3.24,2.49,6.97,3.73,11.2,4.23,1,0,2.24,0,3.98.25v-6.72c-3.98-.25-7.22-1.24-9.46-2.74,4.23-4.98,6.22-10.71,6.22-17.18,0-7.22-2.49-13.44-7.72-18.42-5.23-5.23-11.45-7.72-19.17-7.72s-13.94,2.74-19.17,7.97"/>
      <g class="cls-2">
        <rect class="cls-3" x="81.33" y="205.29" width="355.54" height="53.03"/>
      </g>
    </g>
  </g>
  <g>
    <path class="cls-1" d="m152.04,281.23h3.49c-.75,1.99-1.99,3.49-3.73,4.98-1.74,1.24-3.98,1.99-6.22,1.99-3.24,0-5.73-1-7.97-3.24-1.99-2.24-3.24-4.73-3.24-7.72,0-1.99.5-3.73,1.49-5.48,1-1.74,2.24-2.99,3.98-3.98,1.74-1,3.49-1.49,5.73-1.49,1.24,0,2.74,0,3.73.75,1.24.5,2.24,1,2.99,1.74s1.49,1.49,1.99,2.24,1,1.49,1.24,2.24h-3.49s-1.24-1.74-2.49-2.74c-1.24-.75-2.49-1.24-4.23-1.24-2.24,0-3.98.75-5.48,2.24s-2.24,3.49-2.24,5.73.75,4.23,2.24,5.73c1.49,1.49,3.24,2.24,5.48,2.24,1,0,1.74,0,2.74-.5.75-.25,1.49-.75,1.99-1.24s1-1,1.24-1.24.5-.75.75-1"/>
    <path class="cls-1" d="m163.24,277.25h0c0-3.24,1-5.98,3.24-7.97s4.73-2.99,7.72-2.99,5.73,1,7.97,3.24,3.24,4.73,3.24,7.72-1,5.73-3.24,7.72c-2.24,2.24-4.73,3.24-7.97,3.24s-5.73-1-7.97-3.24c-1.99-2.24-3.24-4.73-3.24-7.72m3.24,0h0c0,2.24.75,4.23,2.24,5.73,1.49,1.49,3.24,2.24,5.48,2.24s3.98-.75,5.48-2.49c1.49-1.49,2.24-3.49,2.24-5.48s-.75-3.98-2.24-5.73c-1.49-1.49-3.24-2.49-5.48-2.49s-3.98.75-5.48,2.24-2.24,3.49-2.24,5.73"/>
    <polygon class="cls-1" points="194.37 287.45 194.37 266.54 197.6 266.54 197.6 284.47 205.07 284.47 205.07 287.45 194.37 287.45"/>
    <polygon class="cls-1" points="213.04 287.45 213.04 266.54 216.53 266.54 216.53 284.47 223.75 284.47 223.75 287.45 213.04 287.45"/>
    <polygon class="cls-1" points="231.71 287.45 231.71 266.54 243.42 266.54 243.42 269.53 235.2 269.53 235.2 275.5 243.42 275.5 243.42 278.24 235.2 278.24 235.2 284.47 243.42 284.47 243.42 287.45 231.71 287.45"/>
    <path class="cls-1" d="m269.31,281.23h3.49c-.75,1.99-1.99,3.49-3.73,4.98-1.74,1.24-3.98,1.99-6.22,1.99-3.24,0-5.73-1-7.97-3.24-1.99-2.24-3.24-4.73-3.24-7.72,0-1.99.5-3.73,1.49-5.48,1-1.74,2.24-2.99,3.98-3.98,1.74-1,3.49-1.49,5.73-1.49,1.24,0,2.74,0,3.73.75,1.24.5,2.24,1,2.99,1.74s1.49,1.49,1.99,2.24c.5.75,1,1.49,1.24,2.24h-3.49s-1.24-1.74-2.49-2.74c-1.24-.75-2.49-1.24-4.23-1.24-2.24,0-3.98.75-5.48,2.24s-2.24,3.49-2.24,5.73.75,4.23,2.24,5.73c1.49,1.49,3.24,2.24,5.48,2.24,1,0,1.74,0,2.74-.5.75-.25,1.49-.75,1.99-1.24l1.24-1.24c.25-.25.5-.75.75-1"/>
    <polygon class="cls-1" points="284.75 287.45 284.75 269.53 279.77 269.53 279.77 266.54 292.96 266.54 292.96 269.53 287.98 269.53 287.98 287.45 284.75 287.45"/>
    <rect class="cls-1" x="300.93" y="266.54" width="3.49" height="21.16"/>
    <path class="cls-1" d="m313.13,277.25h0c0-3.24,1-5.98,3.24-7.97s4.73-2.99,7.72-2.99,5.73,1,7.97,3.24,3.24,4.73,3.24,7.72-1,5.73-3.24,7.72c-2.24,2.24-4.73,3.24-7.97,3.24s-5.73-1-7.97-3.24c-1.99-2.24-3.24-4.73-3.24-7.72m3.24,0h0c0,2.24.75,4.23,2.24,5.73,1.49,1.49,3.24,2.24,5.48,2.24s3.98-.75,5.48-2.49c1.49-1.49,2.24-3.49,2.24-5.48s-.75-3.98-2.24-5.73c-1.49-1.49-3.24-2.49-5.48-2.49s-3.98.75-5.48,2.24-2.24,3.49-2.24,5.73"/>
    <polygon class="cls-1" points="347.24 266.54 358.2 282.48 357.95 266.54 361.18 266.54 361.18 287.45 358.2 287.45 347.24 271.52 347.24 287.45 344 287.45 344 266.54 347.24 266.54"/>
    <path class="cls-1" d="m369.9,281.23h3.24s0,1.49.5,1.99c.25.5.5,1,1,1.24.5.25.75.5,1,.5h1c1,0,1.74-.25,2.49-1,.75-.75,1-1.49,1-2.49,0-.5,0-1-.25-1.24,0-.5-.5-.75-1-1-.5-.25-.75-.5-1.24-.75-.5,0-1-.5-1.74-.75h-.5c-.5,0-1-.25-1.24-.5-.25,0-.75-.25-1.24-.75-.5-.25-1-.75-1.49-1-.25-.25-.75-.75-1-1.49-.25-.75-.5-1.24-.5-1.99,0-1.74.75-3.24,1.99-4.48,1.24-1,2.99-1.74,4.73-1.74.75,0,1.49,0,1.99.25.75,0,1.24.5,1.99,1,.75.5,1.24,1,1.49,1.74.5.75.75,1.74.75,2.74h-3.24s0-.75-.25-1c0-.25-.25-.5-.5-1,0-.25-.5-.5-1-.75-.5,0-1-.25-1.49-.25-1,0-1.74.25-2.24.75-.75.5-1,1.24-1,2.24v1.24c0,.25.5.75,1,1,.5.25,1,.5,1.24.75.5,0,1.24.5,1.99.75h.25c.75.25,1.49.75,1.99,1,.5.25,1,.75,1.49,1.24s1,1,1.24,1.74.5,1.24.5,2.24c0,1.74-.5,3.24-1.74,4.48-1.24,1.24-2.99,1.74-4.98,1.74s-3.73-.5-4.98-1.74-1.99-2.74-1.99-4.73"/>
  </g>
</svg>