<?xml version="1.0" encoding="UTF-8"?>
<svg id="Layer_1" data-name="Layer 1" xmlns="http://www.w3.org/2000/svg" viewBox="0 0 512 512">
  <defs>
    <style>
      .cls-1 {
        fill: #e42529;
      }

      .cls-2 {
        fill: #111840;
      }
    </style>
  </defs>
  <path class="cls-1" d="m343.3,264.72h-34.4c-1.03-2.67-1.16-5.31-.16-7.94.82-2.15,1.84-4.21,2.63-6.37.68-1.83,1.2-3.72,1.7-5.61.27-1.02.72-1.6,1.82-1.86,4.6-1.09,9.17-2.3,13.76-3.42,1.12-.27,1.6-.85,1.59-1.98-.02-3.32-.03-6.64,0-9.95.02-1.23-.66-1.59-1.69-1.85-4.52-1.12-9.02-2.36-13.55-3.42-1.21-.28-1.65-.87-1.91-1.97-1.06-4.57-2.8-8.89-5.14-12.96-1.58-2.74-1.59-2.75.09-5.61,1.99-3.38,4.01-6.74,6.01-10.11.98-1.66.98-1.74-.38-3.11-2.52-2.54-5.06-5.06-7.71-7.72-2.37,1.38-4.64,2.69-6.89,4.02-2.1,1.23-4.19,2.47-6.27,3.74-1.02.62-1.91.68-3.01.03-4.32-2.57-8.87-4.61-13.81-5.7-1.41-.31-2.23-1.07-2.57-2.66-.87-4.08-1.98-8.12-3.01-12.17-.56-2.19-.83-2.39-3.04-2.4-2.91,0-5.82-.02-8.74,0-1.82.01-1.88.04-2.34,1.82-1.06,4.12-2.11,8.24-3.07,12.38-.37,1.62-1.15,2.58-2.82,2.97-4.64,1.08-8.99,2.9-13.04,5.4-1.5.93-2.73.97-4.27,0-3.59-2.29-7.3-4.38-10.97-6.55-.46-.27-.95-.49-1.49-.76-.35.25-.7.44-.98.72-2.36,2.34-4.71,4.68-7.04,7.04-1.15,1.17-1.16,1.38-.31,2.8,2.15,3.6,4.23,7.23,6.48,10.77,1.03,1.62,1.13,2.92.07,4.6-2.64,4.21-4.41,8.82-5.54,13.66-.22.94-.62,1.47-1.66,1.72-4.4,1.06-8.77,2.24-13.14,3.38-2.16.56-2.27.69-2.27,2.89,0,2.84-.02,5.69,0,8.53.02,1.94.12,2.02,1.93,2.48,4.52,1.14,9.03,2.3,13.56,3.41.9.22,1.41.7,1.6,1.6.8,3.87,2.27,7.49,3.93,11.05,1.37,2.93,1.65,5.95.25,9.08h-34.29c-.06-.5-.17-1.01-.17-1.52,0-20.86-.07-41.72.06-62.57.04-6.76,3.39-11.86,9.17-15.3,4.66-2.77,9.38-5.42,14.07-8.13,15.77-9.1,31.54-18.2,47.32-27.3,6.36-3.67,12.73-3.67,19.09,0,8.68,5,17.35,10.02,26.03,15.02,11.67,6.72,23.35,13.44,35.04,20.13,3.26,1.87,5.85,4.34,7.53,7.73,1.29,2.59,2.02,5.31,2.02,8.21,0,20.72.01,41.44.01,62.17,0,.46-.05.92-.09,1.59Z"/>
  <path class="cls-2" d="m129.63,337.91h-14.52v-36.51c-.13-.04-.26-.08-.39-.12-.33.46-.68.9-.97,1.38-4.69,7.68-9.37,15.37-14.06,23.05-.32.52-.59,1.07-.96,1.55-.66.85-1.72.84-2.37-.01-.29-.37-.5-.8-.75-1.21-4.69-7.68-9.37-15.37-14.06-23.05-.34-.56-.72-1.09-1.32-2.01-.34,2.81-.14,5.2-.18,7.58-.04,2.44,0,4.87,0,7.31,0,2.44,0,4.87,0,7.31v14.7h-14.64v-64.11c.59-.07,1.11-.19,1.63-.19,3.79-.02,7.58.04,11.37-.04,1.25-.02,1.94.46,2.57,1.5,5.08,8.39,10.21,16.76,15.33,25.13.35.57.72,1.12,1.23,1.91.51-.77.93-1.36,1.3-1.98,5.05-8.26,10.13-16.49,15.1-24.79.82-1.37,1.72-1.81,3.24-1.77,3.45.1,6.9.03,10.36.04.66,0,1.32.06,2.1.1v64.22Z"/>
  <path class="cls-1" d="m271.58,256.43c0-3.37-.05-6.61.04-9.84.02-.58.57-1.17.96-1.7.18-.25.54-.4.85-.54,5.67-2.54,8.97-8.7,7.55-15.72-1.08-5.31-3.65-9.71-7.99-13.01-.58-.44-1.24-.79-2.11-1.34-1.15,4.51-.18,8.9-.71,13.4-4.58.23-9.14.06-13.98.12v-13.91c-1.02.54-1.7.79-2.24,1.21-3.86,2.92-6.26,6.87-7.78,11.38-1.08,3.21-1.44,6.46-.27,9.75.94,2.64,2.55,4.74,4.83,6.35,1.05.74,2.16,1.42,3.1,2.28.55.51,1.13,1.32,1.16,2.01.12,3.1.05,6.21.05,9.41-.74.23-1.36.45-1.99.62-5.03,1.36-9.6,3.66-13.67,6.91-.91.73-1.81,1.05-2.95,1-1.54-.07-3.08-.02-4.98-.02.48-.61.71-.98,1.01-1.28,3.48-3.5,4.18-8.52,1.73-12.65-2.11-3.56-3.74-7.32-4.44-11.46-1.37-8.12-.57-15.91,3.48-23.18,4.47-8.03,11.05-13.55,19.94-16.17,12.17-3.58,23.2-1.19,32.78,6.97,5.8,4.94,9.49,11.37,10.8,19.02.95,5.54.89,11.02-.71,16.45-.81,2.74-2,5.3-3.38,7.8-2.89,5.22-2.41,8.97,1.66,13.42.21.23.39.5.83,1.07-2.33,0-4.32.03-6.32-.03-.42-.01-.89-.31-1.24-.6-4.65-3.78-9.92-6.29-16-7.74Z"/>
  <path class="cls-2" d="m273.53,292.28v45.62c-4.53.25-9.01.07-13.64.13v-3.85c-.42.17-.67.2-.83.34-6.66,5.78-14.1,6.15-21.79,2.72-6.29-2.81-10.18-7.98-12.04-14.54-2.51-8.85-1.18-17.11,4.76-24.25,5.45-6.54,12.58-8.84,20.95-7.21,2.85.55,5.37,1.81,7.54,3.75.3.27.62.52.93.77.03.03.12-.02.35-.06v-3.25c1.56-.51,11.26-.61,13.77-.16Zm-24.62,33.96c6.55-.02,10.92-4.51,10.92-11.24,0-6.7-4.41-11.22-10.95-11.23-6.63,0-11.1,4.59-11.04,11.36.05,6.67,4.49,11.12,11.08,11.1Z"/>
  <path class="cls-2" d="m424.81,311.51c.39-.52.8-1.02,1.17-1.55,3.75-5.47,7.54-10.92,11.22-16.44.78-1.17,1.61-1.57,2.97-1.55,4.53.07,9.07.03,13.55.03.09.15.12.21.15.27.02.06.06.13.04.19-.04.13-.08.26-.16.37-5.33,7.34-10.66,14.67-16.12,22.18,5.62,7.52,11.24,15.04,16.99,22.74-.53.12-.87.26-1.22.26-4.27.02-8.53-.03-12.8.04-1.09.02-1.71-.41-2.32-1.26-4.06-5.67-8.16-11.31-12.26-16.95-.38-.52-.79-1.02-1.58-1.4v19.45h-13.7v-63.91c1.39-.49,10.95-.61,13.58-.14v37.47c.16.06.32.13.48.19Z"/>
  <path class="cls-2" d="m185.39,320.53h-32.58c.82,2.41,2.17,4.08,4.2,4.99,5.11,2.3,10.1,2.21,14.78-1.18.27-.2.53-.41.96-.76,3.53,2.03,7.08,4.07,10.78,6.2-.3.5-.48.91-.75,1.25-2.86,3.52-6.49,5.97-10.84,7.15-6.66,1.82-13.3,1.68-19.69-1.07-8.39-3.61-12.92-10.19-13.94-19.19-.52-4.58,0-9.07,1.96-13.3,3.82-8.3,10.45-12.71,19.41-13.73,4.88-.56,9.62.12,13.98,2.49,7.27,3.97,11.12,10.27,12.13,18.38.35,2.82.32,5.66-.39,8.78Zm-13.45-10.39c-.27-3.96-4.23-7.09-8.96-7.18-5.6-.11-9.67,2.73-10.19,7.18h19.15Z"/>
  <path class="cls-2" d="m329.94,290.74c13.67.09,24.3,10.84,24.18,24.47-.11,13.64-10.83,24.14-24.58,24.07-13.74-.07-24.27-10.8-24.2-24.66.07-13.39,10.96-23.96,24.59-23.87Zm10.35,23.83c0,.06.02-.35,0-.75-.27-4.79-3.76-8.7-8.5-9.54-4.98-.88-9.68,1.44-11.62,5.8-1.45,3.26-1.44,6.57-.02,9.84,1.17,2.69,3.19,4.57,5.99,5.4,8.14,2.42,14.42-3.15,14.16-10.75Z"/>
  <path class="cls-2" d="m404.86,302.55c-3.88,2.25-7.78,4.51-11.82,6.85-2.06-3.4-5.03-5.02-8.81-5.09-2.97-.05-5.6.86-7.72,3.01-4.11,4.19-3.9,11.85.4,15.77,4.69,4.27,11.41,3.35,16.27-2.39,3.87,2.21,7.77,4.45,11.66,6.67-3.92,8.72-15.44,13.62-26.32,11.34-10.78-2.26-18.62-11.92-18.72-23.05-.11-12.04,7.21-21.68,18.45-24.3,10.63-2.48,22.45,2.42,26.61,11.19Z"/>
  <path class="cls-2" d="m196.08,305.21h-7.21v-13.11c1.2-.03,2.39-.07,3.58-.08,1.13-.01,2.26,0,3.6,0v-8.75c4.62-1.38,9.07-2.72,13.78-4.13v12.82h9.48v13.23h-9.25c-.08.76-.17,1.28-.17,1.8-.01,4.67-.02,9.34,0,14.01.01,2.95.93,4.06,3.86,4.45,1.79.24,3.62.24,5.55.36v12.03c-.31.09-.62.23-.93.27-3.92.41-7.84.51-11.71-.33-6.2-1.34-9.51-5.09-10.22-11.5-.22-2.01-.33-4.05-.35-6.07-.05-4.26-.02-8.52-.02-12.79,0-.66,0-1.31,0-2.18Z"/>
  <path class="cls-2" d="m297.5,337.89h-13.55v-66.95h13.55v66.95Z"/>
  <path class="cls-1" d="m158.43,360.35c.2-.5.35-.9.56-1.43h4.5c.06.73.15,1.37.15,2.02.01,4.06.03,8.11,0,12.17-.03,5.78-3.26,9.16-9.06,9.51-2.11.13-4.19-.01-6.19-.78-.79-.31-1.54-.74-2.38-1.16.38-1.33.7-2.47,1.07-3.79,2.32,1.07,4.59,1.58,6.99,1.39,2.55-.21,3.94-1.44,4.36-4.09-.36.17-.66.25-.88.43-3.12,2.48-8.41,1.44-10.57-2.3-1.9-3.28-1.95-6.7-.16-10.06,2.05-3.84,7.62-5.09,10.85-2.43.2.17.43.29.76.51Zm.15,6.81c-.02-3.16-2.53-5.16-5.19-4.15-1.56.59-2.48,2.06-2.53,4.03-.05,2.07.84,3.66,2.42,4.31,2.73,1.12,5.33-.94,5.31-4.19Z"/>
  <path class="cls-1" d="m290.16,360.42c.18-.59.31-1.03.47-1.52h4.46c.08.61.21,1.18.21,1.76.02,4.26.05,8.53,0,12.79-.05,4.99-2.49,7.96-7.38,8.95-2.77.56-5.52.35-8.18-.66-.68-.26-1.3-.66-2.04-1.05.36-1.29.69-2.44,1.05-3.72.61.22,1.12.36,1.59.57,1.86.8,3.81.91,5.78.71,2.31-.23,3.55-1.47,4.01-3.91-.19.01-.4-.04-.53.04-5.16,3.27-10.87.93-12.12-5.02-.49-2.31-.26-4.57.8-6.72,2.15-4.34,8.09-5.48,11.22-2.66.15.13.33.22.67.44Zm-7.64,7.16c.08,1.46.6,3,2.41,3.77,1.52.65,3.21.25,4.25-.96,1.29-1.49,1.43-4.18.32-5.91-.87-1.36-2.52-2.01-4.06-1.6-1.82.48-2.93,2.14-2.93,4.71Z"/>
  <path class="cls-1" d="m122.22,353.14v4.17h-10.62v4.48c3.09.29,6.19,0,9.43.19v4.2h-9.37v5.03h10.73v4.04c-1.47.44-13.65.53-16.03.1v-22.02c1.35-.45,12.07-.62,15.87-.21Z"/>
  <path class="cls-1" d="m231.96,369.17h-10.85c.56,3.24,3.07,3.75,6.58,1.39,1.11.55,2.31,1.13,3.8,1.86-.72.72-1.24,1.41-1.91,1.89-2.94,2.14-7.5,2.22-10.55.23-2.85-1.85-4.16-5.48-3.36-9.35,1.02-4.95,5.17-7.54,10.4-6.53,4.76.93,6.92,5.24,6.3,9.84-.02.18-.2.33-.41.66Zm-10.77-3.57c1.91.1,3.8.25,5.71-.1-.3-2.17-1.37-3.22-3.05-3.12-1.6.09-2.53,1.18-2.65,3.22Z"/>
  <path class="cls-1" d="m213.1,369.1h-11.22c.26,3.26,2.87,3.81,6.56,1.48,1.12.56,2.3,1.15,3.58,1.8-.61,1.26-1.53,1.93-2.54,2.45-3.03,1.56-6.13,1.62-9.15.05-3.2-1.66-4.22-4.58-4.16-7.98.01-.87.2-1.75.45-2.59,1.31-4.51,5.13-6.18,8.85-5.84,4.62.42,7.4,3.32,7.63,7.71.04.87,0,1.74,0,2.92Zm-5.47-3.54c-.3-2.16-1.3-3.21-2.96-3.19-1.67.02-2.68,1.17-2.77,3.19h5.74Z"/>
  <path class="cls-1" d="m269.49,375.49c-.04-.83-.11-1.55-.11-2.27-.02-2.44.04-4.88-.05-7.31-.06-1.85-.97-2.87-2.6-3.11-2.22-.32-3.92,1.11-3.84,3.09.1,2.37.02,4.74.02,7.11,0,.74,0,1.48,0,2.34-1.67.51-3.25.26-4.97.18v-16.56h4.5c.13.37.28.78.44,1.25.26-.09.46-.12.61-.23,1.85-1.35,3.87-1.84,6.13-1.32,2.57.59,4.51,2.37,4.64,4.98.21,3.9.05,7.82.05,11.85h-4.84Z"/>
  <path class="cls-1" d="m142.62,375.49h-5.11c0-1.32,0-2.52,0-3.72,0-2.03.06-4.06-.04-6.09-.09-1.86-1.36-2.93-3.22-2.92-1.87,0-3.16,1.08-3.23,2.92-.09,2.5-.03,5.01-.03,7.51,0,.73,0,1.45,0,2.3h-4.91v-16.68c1.4,0,2.68-.11,3.92.06.47.06.85.78,1.33,1.26,1.92-1.38,4.09-2.11,6.58-1.46,2.39.62,3.88,2.09,4.44,4.49.14.59.26,1.2.27,1.8.03,3.44.01,6.88.01,10.52Z"/>
  <path class="cls-1" d="m193.34,375.53h-4.87c-.06-.61-.15-1.18-.15-1.76-.02-2.57.04-5.14-.03-7.71-.07-2.62-2.26-4-4.65-3.02-1.38.57-1.86,1.67-1.86,3.07,0,2.44,0,4.87,0,7.31,0,.66-.06,1.32-.09,2.07h-4.8v-16.68c1.21,0,2.28.03,3.34,0,.95-.03,1.68.12,1.43,1.57.83-.49,1.37-.85,1.94-1.14,3.65-1.84,9.29-.6,9.69,4.95.27,3.69.05,7.41.05,11.34Z"/>
  <path d="m333.3,375.64h-2.23v-16.14c.6-.04,1.19-.07,1.85-.12.18.59.33,1.08.49,1.63,3.79-2.78,7.39-3.02,10.9,1.02.3-.4.56-.87.93-1.23,2-2,4.43-2.21,6.96-1.4,2.55.81,3.84,2.75,3.92,5.35.1,3.57.03,7.14.03,10.84-.72.04-1.29.07-2.07.11-.05-.76-.12-1.41-.12-2.06-.02-2.71.07-5.42-.04-8.12-.13-3.26-2.52-5.09-5.63-4.44-2.12.44-3.38,2.08-3.44,4.64-.06,2.5-.02,5.01-.02,7.51,0,.73,0,1.47,0,2.33-.74.06-1.32.11-1.94.17-.12-.33-.28-.58-.28-.82-.03-2.71-.02-5.41-.04-8.12,0-.68.01-1.36-.1-2.02-.43-2.52-2.35-3.97-4.93-3.79-2.46.18-4.13,1.84-4.21,4.35-.08,2.71-.02,5.41-.02,8.12,0,.66,0,1.33,0,2.2Z"/>
  <path d="m411.59,351.79c.65-.06.97-.11,1.3-.11.26,0,.51.07.89.13v23.79h-1.92c-.09-.84-.17-1.61-.28-2.64-.43.39-.67.58-.89.8-2.19,2.32-4.86,2.8-7.81,1.96-2.88-.83-4.51-2.91-5.17-5.73-.48-2.08-.39-4.18.4-6.19,2.03-5.17,8.63-6.52,12.54-2.57.22.22.29.6.43.9.17-.11.35-.22.52-.32v-10.03Zm.05,15.78c.02-4.1-2.58-6.83-6.28-6.6-2.93.18-4.95,2.09-5.41,5.11-.55,3.62.82,6.57,3.56,7.63,4.2,1.63,8.12-1.33,8.14-6.13Z"/>
  <path class="cls-1" d="m235.59,358.89h4.49c.14.48.28.98.47,1.61,1.74-.9,3.34-2.17,5.68-1.78-.1,1.37-.2,2.74-.3,4.16-.82.19-1.54.32-2.24.53-2.26.68-3.1,1.78-3.12,4.1-.02,2.56,0,5.13,0,7.8-1.67.51-3.25.26-4.97.18v-16.62Z"/>
  <path d="m394.44,368.36h-12.8c.28,2.51.98,4.54,3.27,5.43,2.88,1.12,5.28.09,7.35-2.24.52.27,1.01.53,1.47.77-.05.28-.03.44-.1.53-2.32,2.91-5.33,3.78-8.87,2.89-3.48-.88-5.51-3.99-5.51-8.24,0-4.27,2.02-7.4,5.52-8.23,6.26-1.48,10.43,3.1,9.67,9.1Zm-2.33-1.7c0-3.6-2.19-5.99-5.3-5.9-3.06.09-5.22,2.64-4.93,5.9h10.24Z"/>
  <path class="cls-1" d="m167.73,358.93h4.84v16.55h-4.84v-16.55Z"/>
  <path class="cls-1" d="m248.91,358.9h4.64v16.65c-.77.02-1.56.05-2.34.06-.73.01-1.46,0-2.13,0-.51-1.63-.62-14.11-.17-16.71Z"/>
  <path d="m310.1,373.75h10.59c.05.64.08,1.15.13,1.81h-12.93v-22.55h2.21v20.74Z"/>
  <path d="m369.13,361.35c-1.09-.09-1.82-.16-2.66-.23-.06-.48-.11-.92-.19-1.55.91-.11,1.75-.21,2.81-.34v-4.48h2.38v4.62h5.7v1.78h-5.48c-.08.72-.19,1.23-.19,1.74-.02,2.57-.02,5.13,0,7.7.02,2.72,1.27,3.83,3.93,3.47.6-.08,1.18-.23,1.77-.34.51,1.56.46,1.7-.79,2.02-.59.15-1.19.26-1.79.32-3.28.35-5.35-1.39-5.47-4.71-.09-2.63-.02-5.27-.02-7.9,0-.66,0-1.32,0-2.1Z"/>
  <path d="m324,375.76v-16.22c.35-.06.6-.13.85-.14.33,0,.66.04,1.13.08v16.08c-.57.06-1.14.12-1.98.2Z"/>
  <path d="m363.38,375.64h-1.73c-.49-.51-.65-11.96-.24-16.14.58-.03,1.2-.07,1.97-.11v16.25Z"/>
  <path class="cls-1" d="m173.08,353.96c-.02,1.6-1.4,2.95-2.99,2.93-1.64-.02-2.91-1.33-2.9-2.99.01-1.68,1.26-2.9,2.95-2.89,1.66.01,2.96,1.31,2.94,2.94Z"/>
  <path class="cls-1" d="m251.16,351.02c1.71-.02,2.95,1.22,2.93,2.93-.01,1.69-1.33,2.99-2.97,2.94-1.58-.04-2.79-1.28-2.83-2.88-.04-1.73,1.15-2.98,2.87-2.99Z"/>
  <path d="m326.33,353.81c-.02.71-.7,1.39-1.43,1.42-.85.04-1.56-.66-1.53-1.51.03-.73.7-1.42,1.41-1.45.76-.03,1.56.77,1.55,1.54Z"/>
  <path d="m363.72,353.86c-.05.8-.87,1.46-1.69,1.36-.76-.09-1.33-.79-1.28-1.55.05-.74.75-1.4,1.46-1.4.77,0,1.55.83,1.5,1.59Z"/>
</svg>