<?xml version="1.0" encoding="UTF-8"?>
<svg id="Layer_1" data-name="Layer 1" xmlns="http://www.w3.org/2000/svg" viewBox="0 0 512 512">
  <defs>
    <style>
      .cls-1 {
        fill: #2e355b;
      }

      .cls-2 {
        fill: #929497;
      }
    </style>
  </defs>
  <g>
    <path class="cls-1" d="m229.76,209.05h26.71v7.53h-18.76v10.23h16.88v7.53h-16.88v16.82h-7.94v-42.12Z"/>
    <path class="cls-1" d="m260.46,222.34h7.24v4h.47c.35-.71.82-1.35,1.41-1.94.59-.59,1.24-1.1,1.97-1.54.73-.44,1.51-.79,2.35-1.06.84-.27,1.68-.4,2.5-.4,1.02,0,1.89.11,2.62.33.73.22,1.34.5,1.85.85l-2.06,6.88c-.47-.24-.99-.42-1.56-.56-.57-.14-1.26-.21-2.09-.21-1.06,0-2.02.21-2.88.62-.86.41-1.6,1-2.21,1.74-.61.75-1.08,1.63-1.41,2.63-.33,1.01-.5,2.1-.5,3.28v14.19h-7.71v-28.82Z"/>
    <path class="cls-1" d="m300.99,248.11h-.47c-.9,1.1-1.99,2.04-3.26,2.82-1.27.78-2.91,1.18-4.91,1.18-1.49,0-2.89-.25-4.21-.74-1.31-.49-2.46-1.17-3.44-2.03-.98-.86-1.75-1.9-2.29-3.12-.55-1.22-.82-2.55-.82-4s.29-2.83.88-4.03c.59-1.2,1.41-2.23,2.47-3.09,1.06-.86,2.3-1.52,3.74-1.97,1.43-.45,2.99-.68,4.68-.68,1.88,0,3.43.15,4.65.44,1.21.29,2.22.6,3,.91v-.88c0-1.53-.61-2.79-1.82-3.79-1.22-1-2.73-1.5-4.53-1.5-2.67,0-4.92,1.12-6.76,3.35l-5.59-3.82c3.06-3.84,7.24-5.76,12.53-5.76,4.47,0,7.88,1.05,10.23,3.15,2.35,2.1,3.53,5.21,3.53,9.32v17.29h-7.59v-3.06Zm0-8.65c-.9-.43-1.83-.77-2.79-1.03-.96-.25-2.01-.38-3.15-.38-1.84,0-3.26.4-4.26,1.21-1,.8-1.5,1.79-1.5,2.97s.48,2.12,1.44,2.82c.96.71,2.07,1.06,3.32,1.06,1.02,0,1.96-.19,2.82-.56.86-.37,1.6-.86,2.21-1.47s1.08-1.31,1.41-2.12c.33-.8.5-1.64.5-2.5Z"/>
    <path class="cls-1" d="m325.82,252.11c-1.88,0-3.56-.24-5.03-.71-1.47-.47-2.75-1.09-3.82-1.85-1.08-.76-1.99-1.65-2.74-2.65-.75-1-1.31-2.01-1.71-3.03l6.88-2.94c.67,1.49,1.56,2.6,2.68,3.32,1.12.73,2.36,1.09,3.74,1.09s2.53-.25,3.35-.76c.82-.51,1.24-1.12,1.24-1.82,0-.78-.34-1.42-1.03-1.91-.69-.49-1.87-.93-3.56-1.32l-4.06-.88c-.9-.2-1.83-.51-2.79-.94-.96-.43-1.83-.98-2.62-1.65-.78-.67-1.43-1.47-1.94-2.41-.51-.94-.76-2.04-.76-3.29,0-1.41.3-2.67.91-3.76.61-1.1,1.44-2.03,2.5-2.79,1.06-.76,2.3-1.35,3.74-1.76,1.43-.41,2.97-.62,4.62-.62,2.74,0,5.2.54,7.35,1.62,2.16,1.08,3.74,2.79,4.76,5.15l-6.65,2.71c-.55-1.14-1.35-1.96-2.41-2.47-1.06-.51-2.12-.76-3.18-.76s-2.06.23-2.88.68c-.82.45-1.24,1.03-1.24,1.74,0,.67.34,1.2,1.03,1.59.69.39,1.62.75,2.79,1.06l4.41,1.06c2.94.71,5.13,1.83,6.56,3.38,1.43,1.55,2.15,3.38,2.15,5.5,0,1.26-.29,2.45-.88,3.59-.59,1.14-1.42,2.15-2.5,3.03-1.08.88-2.37,1.58-3.88,2.09-1.51.51-3.19.76-5.03.76Z"/>
    <path class="cls-1" d="m342.52,222.34h7.24v3.76h.47c.9-1.41,2.13-2.55,3.68-3.41,1.55-.86,3.26-1.29,5.15-1.29,2.2,0,4.04.51,5.53,1.53,1.49,1.02,2.55,2.27,3.18,3.76.9-1.45,2.18-2.7,3.82-3.74,1.65-1.04,3.65-1.56,6-1.56,1.76,0,3.29.29,4.59.85,1.29.57,2.36,1.36,3.21,2.38.84,1.02,1.48,2.25,1.91,3.68.43,1.43.65,2.99.65,4.68v18.18h-7.71v-16.76c0-3.92-1.61-5.88-4.82-5.88-1.02,0-1.92.23-2.71.68-.78.45-1.44,1.06-1.97,1.82-.53.76-.94,1.68-1.23,2.74-.29,1.06-.44,2.2-.44,3.41v14h-7.71v-16.76c0-3.92-1.69-5.88-5.06-5.88-.98,0-1.84.23-2.59.68-.74.45-1.37,1.06-1.88,1.82-.51.76-.9,1.68-1.18,2.74-.27,1.06-.41,2.2-.41,3.41v14h-7.71v-28.82Z"/>
    <path class="cls-1" d="m411.75,248.11h-.47c-.9,1.1-1.99,2.04-3.26,2.82-1.27.78-2.91,1.18-4.91,1.18-1.49,0-2.89-.25-4.21-.74-1.31-.49-2.46-1.17-3.44-2.03-.98-.86-1.75-1.9-2.29-3.12-.55-1.22-.82-2.55-.82-4s.29-2.83.88-4.03c.59-1.2,1.41-2.23,2.47-3.09,1.06-.86,2.3-1.52,3.74-1.97,1.43-.45,2.99-.68,4.68-.68,1.88,0,3.43.15,4.65.44,1.22.29,2.21.6,3,.91v-.88c0-1.53-.61-2.79-1.82-3.79-1.22-1-2.73-1.5-4.53-1.5-2.67,0-4.92,1.12-6.76,3.35l-5.59-3.82c3.06-3.84,7.24-5.76,12.53-5.76,4.47,0,7.88,1.05,10.23,3.15,2.35,2.1,3.53,5.21,3.53,9.32v17.29h-7.59v-3.06Zm0-8.65c-.9-.43-1.83-.77-2.79-1.03-.96-.25-2.01-.38-3.15-.38-1.84,0-3.26.4-4.26,1.21-1,.8-1.5,1.79-1.5,2.97s.48,2.12,1.44,2.82c.96.71,2.07,1.06,3.32,1.06,1.02,0,1.96-.19,2.82-.56.86-.37,1.6-.86,2.21-1.47.61-.61,1.08-1.31,1.41-2.12.33-.8.5-1.64.5-2.5Z"/>
    <path class="cls-1" d="m452.52,243.81c-1.26,2.43-3.01,4.42-5.26,5.97-2.26,1.55-5.07,2.32-8.44,2.32-2.23,0-4.28-.38-6.15-1.15-1.86-.76-3.47-1.83-4.82-3.21-1.35-1.37-2.41-2.99-3.18-4.85-.76-1.86-1.15-3.91-1.15-6.15s.38-4.29,1.15-6.18c.76-1.88,1.82-3.5,3.18-4.85,1.35-1.35,2.96-2.41,4.82-3.18,1.86-.76,3.91-1.15,6.15-1.15,3.33,0,6.14.76,8.41,2.29,2.27,1.53,3.94,3.51,5,5.94l-7.06,2.94c-.67-1.33-1.52-2.34-2.56-3.03-1.04-.69-2.34-1.03-3.91-1.03-1.02,0-1.98.2-2.88.59-.9.39-1.7.94-2.38,1.65-.69.71-1.23,1.57-1.62,2.59-.39,1.02-.59,2.16-.59,3.41s.2,2.39.59,3.41c.39,1.02.93,1.88,1.62,2.59.69.71,1.48,1.26,2.38,1.65.9.39,1.86.59,2.88.59,1.61,0,2.97-.36,4.09-1.09,1.12-.73,2.01-1.77,2.68-3.15l7.06,3.06Z"/>
    <path class="cls-2" d="m253.41,304.61h-23.65v-42.12h5.41v36.94h18.23v5.18Z"/>
    <path class="cls-2" d="m265.11,265.85c0,1.06-.37,1.96-1.12,2.71-.75.75-1.65,1.12-2.71,1.12s-1.96-.37-2.71-1.12c-.75-.74-1.12-1.65-1.12-2.71s.37-1.96,1.12-2.71c.74-.74,1.65-1.12,2.71-1.12s1.96.37,2.71,1.12c.74.75,1.12,1.65,1.12,2.71Zm-1.12,9.94v28.82h-5.41v-28.82h5.41Z"/>
    <path class="cls-2" d="m276.46,304.61h-5.41v-28.82h5.18v4h.24c.82-1.41,2.09-2.59,3.79-3.53,1.71-.94,3.4-1.41,5.09-1.41,2.12,0,3.98.49,5.59,1.47,1.61.98,2.78,2.33,3.53,4.06,2.39-3.69,5.71-5.53,9.94-5.53,3.33,0,5.9,1.02,7.71,3.06,1.8,2.04,2.71,4.94,2.71,8.71v18h-5.41v-17.18c0-2.71-.49-4.66-1.47-5.85-.98-1.2-2.63-1.79-4.94-1.79-2.08,0-3.82.88-5.24,2.65-1.41,1.76-2.12,3.84-2.12,6.23v15.94h-5.41v-17.18c0-2.71-.49-4.66-1.47-5.85-.98-1.2-2.63-1.79-4.94-1.79-2.08,0-3.82.88-5.24,2.65-1.41,1.76-2.12,3.84-2.12,6.23v15.94Z"/>
    <path class="cls-2" d="m328.17,265.85c0,1.06-.37,1.96-1.12,2.71-.74.75-1.65,1.12-2.71,1.12s-1.96-.37-2.71-1.12c-.75-.74-1.12-1.65-1.12-2.71s.37-1.96,1.12-2.71c.74-.74,1.65-1.12,2.71-1.12s1.96.37,2.71,1.12c.74.75,1.12,1.65,1.12,2.71Zm-1.12,9.94v28.82h-5.41v-28.82h5.41Z"/>
    <path class="cls-2" d="m345.22,305.08c-2.35,0-4.3-.72-5.85-2.18-1.55-1.45-2.34-3.47-2.38-6.06v-16.12h-5.06v-4.94h5.06v-8.82h5.41v8.82h7.06v4.94h-7.06v14.35c0,1.92.37,3.23,1.12,3.91.74.69,1.59,1.03,2.53,1.03.43,0,.85-.05,1.26-.15.41-.1.79-.23,1.15-.38l1.71,4.82c-1.41.51-3.06.76-4.94.76Z"/>
    <path class="cls-2" d="m367.28,305.55c-4.24,0-7.73-1.45-10.47-4.35-2.75-2.9-4.12-6.57-4.12-11s1.33-8.05,4-10.97c2.67-2.92,6.08-4.38,10.23-4.38s7.68,1.38,10.21,4.15c2.53,2.76,3.79,6.64,3.79,11.62l-.06.59h-22.65c.08,2.82,1.02,5.1,2.82,6.82,1.8,1.73,3.96,2.59,6.47,2.59,3.45,0,6.16-1.73,8.12-5.18l4.82,2.35c-1.29,2.43-3.09,4.33-5.38,5.71-2.29,1.37-4.89,2.06-7.79,2.06Zm-8.65-18.82h16.53c-.16-2-.97-3.66-2.44-4.97-1.47-1.31-3.44-1.97-5.91-1.97-2.04,0-3.79.63-5.26,1.88-1.47,1.26-2.44,2.94-2.91,5.06Z"/>
    <path class="cls-2" d="m398.22,305.55c-3.76,0-7-1.49-9.71-4.47-2.67-3.02-4-6.65-4-10.88s1.33-7.86,4-10.88c2.71-2.98,5.94-4.47,9.71-4.47,2.12,0,4.05.45,5.79,1.35,1.74.9,3.09,2.1,4.03,3.59h.23l-.23-4v-13.29h5.41v42.12h-5.18v-4h-.23c-.94,1.49-2.29,2.69-4.03,3.59-1.75.9-3.68,1.35-5.79,1.35Zm.88-4.94c2.67,0,4.84-.96,6.53-2.88,1.76-1.92,2.65-4.43,2.65-7.53s-.88-5.51-2.65-7.47c-1.73-1.96-3.9-2.94-6.53-2.94s-4.76.98-6.53,2.94c-1.76,1.96-2.65,4.45-2.65,7.47s.88,5.55,2.65,7.47c1.76,1.96,3.94,2.94,6.53,2.94Z"/>
  </g>
  <g>
    <g>
      <path class="cls-1" d="m143.79,244.85v17.58h60.05v26.59h-42.47c-1.02,0-2.03-.03-3.03-.11h-14.4v55.94h-26.64v-103.04c.2-2.97.7-5.86,1.46-8.64,5.13-18.71,22.29-32.5,42.6-32.5h42.47v26.59h-42.47c-8.66,0-15.88,6.3-17.32,14.55-.04.24-.08.48-.11.73-.1.76-.15,1.52-.15,2.3Z"/>
      <path class="cls-1" d="m117.31,241.83v6.03c-.07-.99-.11-2-.11-3.01s.03-2.02.11-3.02Z"/>
    </g>
    <path class="cls-2" d="m151.77,317.65h24.87c15.02,0,27.21,12.19,27.21,27.21h-52.08v-27.21h0Z"/>
  </g>
</svg>