<?xml version="1.0" encoding="UTF-8"?>
<svg id="Layer_1" data-name="Layer 1" xmlns="http://www.w3.org/2000/svg" viewBox="0 0 512 512">
  <defs>
    <style>
      .cls-1 {
        letter-spacing: -.08em;
      }

      .cls-2 {
        fill: #fed304;
        fill-rule: evenodd;
      }

      .cls-3 {
        letter-spacing: -.1em;
      }

      .cls-4, .cls-5 {
        fill: #344a9f;
      }

      .cls-6 {
        letter-spacing: -.1em;
      }

      .cls-7 {
        letter-spacing: 0em;
      }

      .cls-5 {
        font-family: SHARY-Light, SHARY;
        font-size: 24.54px;
        font-weight: 300;
      }
    </style>
  </defs>
  <g>
    <path class="cls-4" d="m79.24,281.89c.82-1.58,1.25-3.38,1.25-5.34,0-6.43-4.85-11.17-11.38-11.17h-10.57c-7.73,0-13.46,5.61-13.46,13.18v24.95h24.57c7.41,0,13.02-5.45,13.02-12.75,0-3.54-1.31-6.64-3.43-8.88Zm-20.71-6.76h10.57c1.19,0,1.63.43,1.63,1.42,0,.92-.44,1.42-1.63,1.42h-14.22c.22-1.8,1.47-2.83,3.65-2.83Zm11.12,18.63h-14.82v-6.04h14.82c2.07,0,3.27,1.14,3.27,3.05s-1.2,2.99-3.27,2.99Z"/>
    <path class="cls-4" d="m126.58,276.28v15.09c0,2.02-1.31,3.22-3.49,3.22h-3.32c-2.18,0-3.48-1.2-3.48-3.22v-15.09h-8.93v15.09c0,2.02-1.31,3.22-3.49,3.22h-3.32c-2.18,0-3.49-1.2-3.49-3.22v-15.09h-8.93v15.09c0,6.97,5.28,12.15,12.42,12.15h3.32c3.11,0,5.83-.98,7.96-2.62,2.12,1.63,4.84,2.62,7.95,2.62h3.32c7.14,0,12.42-5.18,12.42-12.15v-15.09h-8.93Z"/>
    <path class="cls-4" d="m163.57,276.28h-21.63v8.93h21.63c1.58,0,2.67.6,3.16,1.63h-14.93c-5.93,0-10.41,3.49-10.41,8.23s4.47,8.33,10.41,8.33h24.13v-15.14c0-6.92-5.28-11.98-12.37-11.98Zm3.43,19.77h-15.31c-1.09,0-1.36-.22-1.36-.98,0-.66.27-.93,1.36-.93h15.31v1.91Z"/>
    <path class="cls-4" d="m194.13,294.58c-2.18,0-3.38-1.2-3.38-3.16v-3.05c0-1.96,1.2-3.16,3.38-3.16h12.31c1.11,0,1.98.31,2.57,1.16l6.68-6.68c-1.78-2.23-4.69-3.41-9.24-3.41h-12.31c-7.08,0-12.31,5.12-12.31,12.09v3.05c0,6.97,5.23,12.09,12.31,12.09h25.28v-8.93h-25.28Z"/>
    <path class="cls-4" d="m249.48,276.28h-14.77v-13.62h-9.86v40.86h9.86v-17.33h14.77c2.39,0,3.76,1.31,3.76,3.49v13.84h9.86v-13.84c0-7.68-5.77-13.4-13.62-13.4Z"/>
    <path class="cls-4" d="m291.16,276.28h-21.63v8.93h21.63c1.58,0,2.67.6,3.16,1.63h-14.93c-5.93,0-10.4,3.49-10.4,8.23s4.47,8.33,10.4,8.33h24.13v-15.14c0-6.92-5.28-11.98-12.36-11.98Zm3.43,19.77h-15.31c-1.09,0-1.36-.22-1.36-.98,0-.66.27-.93,1.36-.93h15.31v1.91Z"/>
    <path class="cls-4" d="m309.41,281.62v9.91h25.05v-9.91h-25.05Z"/>
    <path class="cls-4" d="m379.68,265.38h-4.47c-3.37,0-6.37,1.04-8.66,2.89-2.28-1.85-5.28-2.89-8.66-2.89h-4.47c-7.73,0-13.51,5.61-13.51,13.24v24.9h9.75v-24.9c0-2.18,1.37-3.48,3.76-3.48h4.47c2.4,0,3.82,1.31,3.82,3.48v24.9h9.69v-24.9c0-2.18,1.42-3.48,3.81-3.48h4.47c2.39,0,3.76,1.31,3.76,3.48v24.9h9.75v-24.9c0-7.63-5.77-13.24-13.51-13.24Z"/>
    <path class="cls-4" d="m423.76,279.6h-11.61c-2.39,0-3.76-.98-3.76-2.23s1.31-2.23,3.76-2.23h24.46v-9.76h-24.46c-7.63,0-13.51,5.02-13.51,11.99s5.88,11.93,13.51,11.93h11.61c2.39,0,3.76.98,3.76,2.23s-1.36,2.23-3.81,2.23h-24.46v9.76h24.52c7.63,0,13.51-5.02,13.51-11.99s-5.88-11.93-13.51-11.93Z"/>
    <path class="cls-4" d="m467.83,279.6h-11.61c-2.39,0-3.76-.98-3.76-2.23s1.31-2.23,3.76-2.23h24.46v-9.76h-24.46c-7.63,0-13.51,5.02-13.51,11.99s5.88,11.93,13.51,11.93h11.61c2.39,0,3.76.98,3.76,2.23s-1.36,2.23-3.81,2.23h-24.46v9.76h24.52c7.63,0,13.51-5.02,13.51-11.99s-5.88-11.93-13.51-11.93Z"/>
  </g>
  <g>
    <path class="cls-2" d="m237.57,143.47c-8.55,4.37-15.85,10.82-21.26,18.67l27.51,60.96c.54-.18,1.1-.33,1.67-.45l-7.92-79.19Z"/>
    <path class="cls-2" d="m259.97,137.31l-8.54,85.35c.57.12,1.13.27,1.67.45l36.1-80c-7.67-3.79-16.32-5.92-25.46-5.92-1.27,0-2.53.04-3.78.12h0Z"/>
    <path class="cls-2" d="m307.57,157.45l-49.34,68.63c.43.38.84.79,1.22,1.22l60.75-43.67c-1.93-9.86-6.37-18.82-12.64-26.18h0Z"/>
    <path class="cls-2" d="m320.09,206.42l-57.66,26.02c.18.54.33,1.1.45,1.67l46.76-4.68c5.06-6.68,8.7-14.5,10.45-23.01h0Z"/>
    <path class="cls-2" d="m294.71,243.23l-31.83-3.18c-.12.57-.27,1.13-.45,1.67l17.96,8.11c5.11-1.54,9.92-3.77,14.32-6.59h0Z"/>
    <path class="cls-2" d="m266.87,252.18l-7.41-5.33c-.38.43-.79.84-1.22,1.22-1.82,1.82-4.15,2.72-5.56,3.12,2.78.54,5.62.88,8.53,1.01h0c.84.04,1.68.06,2.53.06,1.05,0,2.09-.03,3.13-.08h0Z"/>
    <path class="cls-2" d="m238.69,226.08l-31.21-43.42c-.83,3.89-1.27,7.93-1.27,12.07,0,3.7.35,7.33,1.02,10.84l30.24,21.74c.38-.43.79-.84,1.22-1.22h0Z"/>
    <path class="cls-2" d="m234.49,232.44l-20.86-9.41c1.97,3.49,4.3,6.75,6.93,9.74l13.48,1.35c.12-.57.27-1.13.45-1.67h0Z"/>
    <path class="cls-2" d="m234.05,240.05l-5.1.51c1.03.78,2.08,1.53,3.16,2.24h0c1.36.9,2.76,1.74,4.2,2.52-.65-.96-1.41-2.27-1.82-3.6v-.03s-.02-.03-.02-.03v-.03s-.02-.03-.02-.03h0s0-.03,0-.03c-.16-.5-.3-1.02-.41-1.54h0Z"/>
  </g>
  <text class="cls-5" transform="translate(119.53 331.88)"><tspan class="cls-6" x="0" y="0">T</tspan><tspan class="cls-7" x="16.96" y="0">ools, </tspan><tspan class="cls-1" x="91.03" y="0">T</tspan><tspan x="108.4" y="0">alent, </tspan><tspan class="cls-3" x="197.13" y="0">T</tspan><tspan x="214.08" y="0">rust</tspan></text>
</svg>