<?xml version="1.0" encoding="UTF-8"?>
<svg id="Layer_1" data-name="Layer 1" xmlns="http://www.w3.org/2000/svg" viewBox="0 0 512 512">
  <defs>
    <style>
      .cls-1 {
        fill: #6d6e71;
      }

      .cls-2 {
        fill: none;
      }

      .cls-3 {
        fill: #fec25e;
        fill-rule: evenodd;
      }

      .cls-4 {
        fill: #58595b;
      }
    </style>
  </defs>
  <g>
    <path class="cls-3" d="m149.5,160.07c-3.91-3.25-9.7-4.6-13.22-.36-3.5,4.22-1.36,9.55,2.96,13.13,4.2,3.5,9.86,4.34,13.19.34,3.35-4.04,1.54-9.4-2.93-13.11Zm0,0c-3.91-3.25-9.7-4.6-13.22-.36-3.5,4.22-1.36,9.55,2.96,13.13,4.2,3.5,9.86,4.34,13.19.34,3.35-4.04,1.54-9.4-2.93-13.11Zm0,0c-3.91-3.25-9.7-4.6-13.22-.36-3.5,4.22-1.36,9.55,2.96,13.13,4.2,3.5,9.86,4.34,13.19.34,3.35-4.04,1.54-9.4-2.93-13.11Zm47.49-34.91c-2.7-5.4-7.49-7.26-13.73-4.09-1.52.77-2.6,1.49-3.3,2.06l9.15,17.99c.82-.24,1.92-.76,3.07-1.34,6.3-3.21,7.94-8.47,4.81-14.62Zm0,0c-2.7-5.4-7.49-7.26-13.73-4.09-1.52.77-2.6,1.49-3.3,2.06l9.15,17.99c.82-.24,1.92-.76,3.07-1.34,6.3-3.21,7.94-8.47,4.81-14.62Zm-47.49,34.91c-3.91-3.25-9.7-4.6-13.22-.36-3.5,4.22-1.36,9.55,2.96,13.13,4.2,3.5,9.86,4.34,13.19.34,3.35-4.04,1.54-9.4-2.93-13.11Zm0,0c-3.91-3.25-9.7-4.6-13.22-.36-3.5,4.22-1.36,9.55,2.96,13.13,4.2,3.5,9.86,4.34,13.19.34,3.35-4.04,1.54-9.4-2.93-13.11Zm47.49-34.91c-2.7-5.4-7.49-7.26-13.73-4.09-1.52.77-2.6,1.49-3.3,2.06l9.15,17.99c.82-.24,1.92-.76,3.07-1.34,6.3-3.21,7.94-8.47,4.81-14.62Zm18.57-3.88l-4.54-6.31c-1.04-1.43-1.84-2.77-2.64-4.08l-.07.03c.08,1.56.13,3.17.11,4.8l-.24,7.81,7.38-2.25Zm-18.57,3.88c-2.7-5.4-7.49-7.26-13.73-4.09-1.52.77-2.6,1.49-3.3,2.06l9.15,17.99c.82-.24,1.92-.76,3.07-1.34,6.3-3.21,7.94-8.47,4.81-14.62Zm18.57-3.88l-4.54-6.31c-1.04-1.43-1.84-2.77-2.64-4.08l-.07.03c.08,1.56.13,3.17.11,4.8l-.24,7.81,7.38-2.25Zm-66.06,38.79c-3.91-3.25-9.7-4.6-13.22-.36-3.5,4.22-1.36,9.55,2.96,13.13,4.2,3.5,9.86,4.34,13.19.34,3.35-4.04,1.54-9.4-2.93-13.11Zm0,0c-3.91-3.25-9.7-4.6-13.22-.36-3.5,4.22-1.36,9.55,2.96,13.13,4.2,3.5,9.86,4.34,13.19.34,3.35-4.04,1.54-9.4-2.93-13.11Zm47.49-34.91c-2.7-5.4-7.49-7.26-13.73-4.09-1.52.77-2.6,1.49-3.3,2.06l9.15,17.99c.82-.24,1.92-.76,3.07-1.34,6.3-3.21,7.94-8.47,4.81-14.62Zm18.57-3.88l-4.54-6.31c-1.04-1.43-1.84-2.77-2.64-4.08l-.07.03c.08,1.56.13,3.17.11,4.8l-.24,7.81,7.38-2.25Zm-18.57,3.88c-2.7-5.4-7.49-7.26-13.73-4.09-1.52.77-2.6,1.49-3.3,2.06l9.15,17.99c.82-.24,1.92-.76,3.07-1.34,6.3-3.21,7.94-8.47,4.81-14.62Zm18.57-3.88l-4.54-6.31c-1.04-1.43-1.84-2.77-2.64-4.08l-.07.03c.08,1.56.13,3.17.11,4.8l-.24,7.81,7.38-2.25Zm-66.06,38.79c-3.91-3.25-9.7-4.6-13.22-.36-3.5,4.22-1.36,9.55,2.96,13.13,4.2,3.5,9.86,4.34,13.19.34,3.35-4.04,1.54-9.4-2.93-13.11Zm0,0c-3.91-3.25-9.7-4.6-13.22-.36-3.5,4.22-1.36,9.55,2.96,13.13,4.2,3.5,9.86,4.34,13.19.34,3.35-4.04,1.54-9.4-2.93-13.11Zm47.49-34.91c-2.7-5.4-7.49-7.26-13.73-4.09-1.52.77-2.6,1.49-3.3,2.06l9.15,17.99c.82-.24,1.92-.76,3.07-1.34,6.3-3.21,7.94-8.47,4.81-14.62Zm18.57-3.88l-4.54-6.31c-1.04-1.43-1.84-2.77-2.64-4.08l-.07.03c.08,1.56.13,3.17.11,4.8l-.24,7.81,7.38-2.25Zm-18.57,3.88c-2.7-5.4-7.49-7.26-13.73-4.09-1.52.77-2.6,1.49-3.3,2.06l9.15,17.99c.82-.24,1.92-.76,3.07-1.34,6.3-3.21,7.94-8.47,4.81-14.62Zm18.57-3.88l-4.54-6.31c-1.04-1.43-1.84-2.77-2.64-4.08l-.07.03c.08,1.56.13,3.17.11,4.8l-.24,7.81,7.38-2.25Zm-66.06,38.79c-3.91-3.25-9.7-4.6-13.22-.36-3.5,4.22-1.36,9.55,2.96,13.13,4.2,3.5,9.86,4.34,13.19.34,3.35-4.04,1.54-9.4-2.93-13.11Zm0,0c-3.91-3.25-9.7-4.6-13.22-.36-3.5,4.22-1.36,9.55,2.96,13.13,4.2,3.5,9.86,4.34,13.19.34,3.35-4.04,1.54-9.4-2.93-13.11Zm47.49-34.91c-2.7-5.4-7.49-7.26-13.73-4.09-1.52.77-2.6,1.49-3.3,2.06l9.15,17.99c.82-.24,1.92-.76,3.07-1.34,6.3-3.21,7.94-8.47,4.81-14.62Zm18.57-3.88l-4.54-6.31c-1.04-1.43-1.84-2.77-2.64-4.08l-.07.03c.08,1.56.13,3.17.11,4.8l-.24,7.81,7.38-2.25Zm118.16,2.5c-4.69-2.81-9.64.11-12.53,4.92-2.81,4.69-2.78,10.41,1.68,13.09,4.5,2.7,9.52.09,12.51-4.89,2.61-4.36,3.07-10.28-1.66-13.12Zm-136.73,1.38c-2.7-5.4-7.49-7.26-13.73-4.09-1.52.77-2.6,1.49-3.3,2.06l9.15,17.99c.82-.24,1.92-.76,3.07-1.34,6.3-3.21,7.94-8.47,4.81-14.62Zm18.57-3.88l-4.54-6.31c-1.04-1.43-1.84-2.77-2.64-4.08l-.07.03c.08,1.56.13,3.17.11,4.8l-.24,7.81,7.38-2.25Zm118.16,2.5c-4.69-2.81-9.64.11-12.53,4.92-2.81,4.69-2.78,10.41,1.68,13.09,4.5,2.7,9.52.09,12.51-4.89,2.61-4.36,3.07-10.28-1.66-13.12Zm-184.22,36.29c-3.91-3.25-9.7-4.6-13.22-.36-3.5,4.22-1.36,9.55,2.96,13.13,4.2,3.5,9.86,4.34,13.19.34,3.35-4.04,1.54-9.4-2.93-13.11Zm0,0c-3.91-3.25-9.7-4.6-13.22-.36-3.5,4.22-1.36,9.55,2.96,13.13,4.2,3.5,9.86,4.34,13.19.34,3.35-4.04,1.54-9.4-2.93-13.11Zm47.49-34.91c-2.7-5.4-7.49-7.26-13.73-4.09-1.52.77-2.6,1.49-3.3,2.06l9.15,17.99c.82-.24,1.92-.76,3.07-1.34,6.3-3.21,7.94-8.47,4.81-14.62Zm18.57-3.88l-4.54-6.31c-1.04-1.43-1.84-2.77-2.64-4.08l-.07.03c.08,1.56.13,3.17.11,4.8l-.24,7.81,7.38-2.25Zm118.16,2.5c-4.69-2.81-9.64.11-12.53,4.92-2.81,4.69-2.78,10.41,1.68,13.09,4.5,2.7,9.52.09,12.51-4.89,2.61-4.36,3.07-10.28-1.66-13.12Zm-136.73,1.38c-2.7-5.4-7.49-7.26-13.73-4.09-1.52.77-2.6,1.49-3.3,2.06l9.15,17.99c.82-.24,1.92-.76,3.07-1.34,6.3-3.21,7.94-8.47,4.81-14.62Zm18.57-3.88l-4.54-6.31c-1.04-1.43-1.84-2.77-2.64-4.08l-.07.03c.08,1.56.13,3.17.11,4.8l-.24,7.81,7.38-2.25Zm118.16,2.5c-4.69-2.81-9.64.11-12.53,4.92-2.81,4.69-2.78,10.41,1.68,13.09,4.5,2.7,9.52.09,12.51-4.89,2.61-4.36,3.07-10.28-1.66-13.12Zm-184.22,36.29c-3.91-3.25-9.7-4.6-13.22-.36-3.5,4.22-1.36,9.55,2.96,13.13,4.2,3.5,9.86,4.34,13.19.34,3.35-4.04,1.54-9.4-2.93-13.11Zm0,0c-3.91-3.25-9.7-4.6-13.22-.36-3.5,4.22-1.36,9.55,2.96,13.13,4.2,3.5,9.86,4.34,13.19.34,3.35-4.04,1.54-9.4-2.93-13.11Zm47.49-34.91c-2.7-5.4-7.49-7.26-13.73-4.09-1.52.77-2.6,1.49-3.3,2.06l9.15,17.99c.82-.24,1.92-.76,3.07-1.34,6.3-3.21,7.94-8.47,4.81-14.62Zm18.57-3.88l-4.54-6.31c-1.04-1.43-1.84-2.77-2.64-4.08l-.07.03c.08,1.56.13,3.17.11,4.8l-.24,7.81,7.38-2.25Zm118.16,2.5c-4.69-2.81-9.64.11-12.53,4.92-2.81,4.69-2.78,10.41,1.68,13.09,4.5,2.7,9.52.09,12.51-4.89,2.61-4.36,3.07-10.28-1.66-13.12Zm44.29,39.08c-.95-1.28-1.75-2.11-2.19-2.45l-7.5,5.56,2.02,2.72c2.1,2.84,5,3.49,7.34,1.75,2.65-1.97,2.39-4.75.33-7.58Zm-181.02-37.7c-2.7-5.4-7.49-7.26-13.73-4.09-1.52.77-2.6,1.49-3.3,2.06l9.15,17.99c.82-.24,1.92-.76,3.07-1.34,6.3-3.21,7.94-8.47,4.81-14.62Zm18.57-3.88l-4.54-6.31c-1.04-1.43-1.84-2.77-2.64-4.08l-.07.03c.08,1.56.13,3.17.11,4.8l-.24,7.81,7.38-2.25Zm118.16,2.5c-4.69-2.81-9.64.11-12.53,4.92-2.81,4.69-2.78,10.41,1.68,13.09,4.5,2.7,9.52.09,12.51-4.89,2.61-4.36,3.07-10.28-1.66-13.12Zm-184.22,36.29c-3.91-3.25-9.7-4.6-13.22-.36-3.5,4.22-1.36,9.55,2.96,13.13,4.2,3.5,9.86,4.34,13.19.34,3.35-4.04,1.54-9.4-2.93-13.11Zm228.51,2.79c-.95-1.28-1.75-2.11-2.19-2.45l-7.5,5.56,2.02,2.72c2.1,2.84,5,3.49,7.34,1.75,2.65-1.97,2.39-4.75.33-7.58Zm-228.51-2.79c-3.91-3.25-9.7-4.6-13.22-.36-3.5,4.22-1.36,9.55,2.96,13.13,4.2,3.5,9.86,4.34,13.19.34,3.35-4.04,1.54-9.4-2.93-13.11Zm47.49-34.91c-2.7-5.4-7.49-7.26-13.73-4.09-1.52.77-2.6,1.49-3.3,2.06l9.15,17.99c.82-.24,1.92-.76,3.07-1.34,6.3-3.21,7.94-8.47,4.81-14.62Zm18.57-3.88l-4.54-6.31c-1.04-1.43-1.84-2.77-2.64-4.08l-.07.03c.08,1.56.13,3.17.11,4.8l-.24,7.81,7.38-2.25Zm118.16,2.5c-4.69-2.81-9.64.11-12.53,4.92-2.81,4.69-2.78,10.41,1.68,13.09,4.5,2.7,9.52.09,12.51-4.89,2.61-4.36,3.07-10.28-1.66-13.12Zm44.29,39.08c-.95-1.28-1.75-2.11-2.19-2.45l-7.5,5.56,2.02,2.72c2.1,2.84,5,3.49,7.34,1.75,2.65-1.97,2.39-4.75.33-7.58Zm-181.02-37.7c-2.7-5.4-7.49-7.26-13.73-4.09-1.52.77-2.6,1.49-3.3,2.06l9.15,17.99c.82-.24,1.92-.76,3.07-1.34,6.3-3.21,7.94-8.47,4.81-14.62Zm18.57-3.88l-4.54-6.31c-1.04-1.43-1.84-2.77-2.64-4.08l-.07.03c.08,1.56.13,3.17.11,4.8l-.24,7.81,7.38-2.25Zm118.16,2.5c-4.69-2.81-9.64.11-12.53,4.92-2.81,4.69-2.78,10.41,1.68,13.09,4.5,2.7,9.52.09,12.51-4.89,2.61-4.36,3.07-10.28-1.66-13.12Zm-184.22,36.29c-3.91-3.25-9.7-4.6-13.22-.36-3.5,4.22-1.36,9.55,2.96,13.13,4.2,3.5,9.86,4.34,13.19.34,3.35-4.04,1.54-9.4-2.93-13.11Zm228.51,2.79c-.95-1.28-1.75-2.11-2.19-2.45l-7.5,5.56,2.02,2.72c2.1,2.84,5,3.49,7.34,1.75,2.65-1.97,2.39-4.75.33-7.58Zm-228.51-2.79c-3.91-3.25-9.7-4.6-13.22-.36-3.5,4.22-1.36,9.55,2.96,13.13,4.2,3.5,9.86,4.34,13.19.34,3.35-4.04,1.54-9.4-2.93-13.11Zm8.8,184.66c-3.73-4.01-9.29-2.57-13.4,1.26-3.99,3.72-5.56,9.23-2.01,13.04,3.58,3.84,9.12,2.72,13.37-1.23,3.72-3.47,5.8-9.04,2.04-13.07Zm38.69-219.57c-2.7-5.4-7.49-7.26-13.73-4.09-1.52.77-2.6,1.49-3.3,2.06l9.15,17.99c.82-.24,1.92-.76,3.07-1.34,6.3-3.21,7.94-8.47,4.81-14.62Zm18.57-3.88l-4.54-6.31c-1.04-1.43-1.84-2.77-2.64-4.08l-.07.03c.08,1.56.13,3.17.11,4.8l-.24,7.81,7.38-2.25Zm118.16,2.5c-4.69-2.81-9.64.11-12.53,4.92-2.81,4.69-2.78,10.41,1.68,13.09,4.5,2.7,9.52.09,12.51-4.89,2.61-4.36,3.07-10.28-1.66-13.12Zm44.29,39.08c-.95-1.28-1.75-2.11-2.19-2.45l-7.5,5.56,2.02,2.72c2.1,2.84,5,3.49,7.34,1.75,2.65-1.97,2.39-4.75.33-7.58Zm-181.02-37.7c-2.7-5.4-7.49-7.26-13.73-4.09-1.52.77-2.6,1.49-3.3,2.06l9.15,17.99c.82-.24,1.92-.76,3.07-1.34,6.3-3.21,7.94-8.47,4.81-14.62Zm18.57-3.88l-4.54-6.31c-1.04-1.43-1.84-2.77-2.64-4.08l-.07.03c.08,1.56.13,3.17.11,4.8l-.24,7.81,7.38-2.25Zm118.16,2.5c-4.69-2.81-9.64.11-12.53,4.92-2.81,4.69-2.78,10.41,1.68,13.09,4.5,2.7,9.52.09,12.51-4.89,2.61-4.36,3.07-10.28-1.66-13.12Zm-184.22,36.29c-3.91-3.25-9.7-4.6-13.22-.36-3.5,4.22-1.36,9.55,2.96,13.13,4.2,3.5,9.86,4.34,13.19.34,3.35-4.04,1.54-9.4-2.93-13.11Zm228.51,2.79c-.95-1.28-1.75-2.11-2.19-2.45l-7.5,5.56,2.02,2.72c2.1,2.84,5,3.49,7.34,1.75,2.65-1.97,2.39-4.75.33-7.58Zm-219.71,181.87c-3.73-4.01-9.29-2.57-13.4,1.26-3.99,3.72-5.56,9.23-2.01,13.04,3.58,3.84,9.12,2.72,13.37-1.23,3.72-3.47,5.8-9.04,2.04-13.07Zm-8.8-184.66c-3.91-3.25-9.7-4.6-13.22-.36-3.5,4.22-1.36,9.55,2.96,13.13,4.2,3.5,9.86,4.34,13.19.34,3.35-4.04,1.54-9.4-2.93-13.11Zm8.8,184.66c-3.73-4.01-9.29-2.57-13.4,1.26-3.99,3.72-5.56,9.23-2.01,13.04,3.58,3.84,9.12,2.72,13.37-1.23,3.72-3.47,5.8-9.04,2.04-13.07Zm38.69-219.57c-2.7-5.4-7.49-7.26-13.73-4.09-1.52.77-2.6,1.49-3.3,2.06l9.15,17.99c.82-.24,1.92-.76,3.07-1.34,6.3-3.21,7.94-8.47,4.81-14.62Zm18.57-3.88l-4.54-6.31c-1.04-1.43-1.84-2.77-2.64-4.08l-.07.03c.08,1.56.13,3.17.11,4.8l-.24,7.81,7.38-2.25Zm118.16,2.5c-4.69-2.81-9.64.11-12.53,4.92-2.81,4.69-2.78,10.41,1.68,13.09,4.5,2.7,9.52.09,12.51-4.89,2.61-4.36,3.07-10.28-1.66-13.12Zm44.29,39.08c-.95-1.28-1.75-2.11-2.19-2.45l-7.5,5.56,2.02,2.72c2.1,2.84,5,3.49,7.34,1.75,2.65-1.97,2.39-4.75.33-7.58Zm-181.02-37.7c-2.7-5.4-7.49-7.26-13.73-4.09-1.52.77-2.6,1.49-3.3,2.06l9.15,17.99c.82-.24,1.92-.76,3.07-1.34,6.3-3.21,7.94-8.47,4.81-14.62Zm18.57-3.88l-4.54-6.31c-1.04-1.43-1.84-2.77-2.64-4.08l-.07.03c.08,1.56.13,3.17.11,4.8l-.24,7.81,7.38-2.25Zm118.16,2.5c-4.69-2.81-9.64.11-12.53,4.92-2.81,4.69-2.78,10.41,1.68,13.09,4.5,2.7,9.52.09,12.51-4.89,2.61-4.36,3.07-10.28-1.66-13.12Zm-184.22,36.29c-3.91-3.25-9.7-4.6-13.22-.36-3.5,4.22-1.36,9.55,2.96,13.13,4.2,3.5,9.86,4.34,13.19.34,3.35-4.04,1.54-9.4-2.93-13.11Zm228.51,2.79c-.95-1.28-1.75-2.11-2.19-2.45l-7.5,5.56,2.02,2.72c2.1,2.84,5,3.49,7.34,1.75,2.65-1.97,2.39-4.75.33-7.58Zm-219.71,181.87c-3.73-4.01-9.29-2.57-13.4,1.26-3.99,3.72-5.56,9.23-2.01,13.04,3.58,3.84,9.12,2.72,13.37-1.23,3.72-3.47,5.8-9.04,2.04-13.07Zm-8.8-184.66c-3.91-3.25-9.7-4.6-13.22-.36-3.5,4.22-1.36,9.55,2.96,13.13,4.2,3.5,9.86,4.34,13.19.34,3.35-4.04,1.54-9.4-2.93-13.11Zm8.8,184.66c-3.73-4.01-9.29-2.57-13.4,1.26-3.99,3.72-5.56,9.23-2.01,13.04,3.58,3.84,9.12,2.72,13.37-1.23,3.72-3.47,5.8-9.04,2.04-13.07Zm38.69-219.57c-2.7-5.4-7.49-7.26-13.73-4.09-1.52.77-2.6,1.49-3.3,2.06l9.15,17.99c.82-.24,1.92-.76,3.07-1.34,6.3-3.21,7.94-8.47,4.81-14.62Zm18.57-3.88l-4.54-6.31c-1.04-1.43-1.84-2.77-2.64-4.08l-.07.03c.08,1.56.13,3.17.11,4.8l-.24,7.81,7.38-2.25Zm118.16,2.5c-4.69-2.81-9.64.11-12.53,4.92-2.81,4.69-2.78,10.41,1.68,13.09,4.5,2.7,9.52.09,12.51-4.89,2.61-4.36,3.07-10.28-1.66-13.12Zm44.29,39.08c-.95-1.28-1.75-2.11-2.19-2.45l-7.5,5.56,2.02,2.72c2.1,2.84,5,3.49,7.34,1.75,2.65-1.97,2.39-4.75.33-7.58Zm-181.02-37.7c-2.7-5.4-7.49-7.26-13.73-4.09-1.52.77-2.6,1.49-3.3,2.06l9.15,17.99c.82-.24,1.92-.76,3.07-1.34,6.3-3.21,7.94-8.47,4.81-14.62Zm18.57-3.88l-4.54-6.31c-1.04-1.43-1.84-2.77-2.64-4.08l-.07.03c.08,1.56.13,3.17.11,4.8l-.24,7.81,7.38-2.25Zm118.16,2.5c-4.69-2.81-9.64.11-12.53,4.92-2.81,4.69-2.78,10.41,1.68,13.09,4.5,2.7,9.52.09,12.51-4.89,2.61-4.36,3.07-10.28-1.66-13.12Zm-184.22,36.29c-3.91-3.25-9.7-4.6-13.22-.36-3.5,4.22-1.36,9.55,2.96,13.13,4.2,3.5,9.86,4.34,13.19.34,3.35-4.04,1.54-9.4-2.93-13.11Zm228.51,2.79c-.95-1.28-1.75-2.11-2.19-2.45l-7.5,5.56,2.02,2.72c2.1,2.84,5,3.49,7.34,1.75,2.65-1.97,2.39-4.75.33-7.58Zm-219.71,181.87c-3.73-4.01-9.29-2.57-13.4,1.26-3.99,3.72-5.56,9.23-2.01,13.04,3.58,3.84,9.12,2.72,13.37-1.23,3.72-3.47,5.8-9.04,2.04-13.07Zm-8.8-184.66c-3.91-3.25-9.7-4.6-13.22-.36-3.5,4.22-1.36,9.55,2.96,13.13,4.2,3.5,9.86,4.34,13.19.34,3.35-4.04,1.54-9.4-2.93-13.11Zm8.8,184.66c-3.73-4.01-9.29-2.57-13.4,1.26-3.99,3.72-5.56,9.23-2.01,13.04,3.58,3.84,9.12,2.72,13.37-1.23,3.72-3.47,5.8-9.04,2.04-13.07Zm38.69-219.57c-2.7-5.4-7.49-7.26-13.73-4.09-1.52.77-2.6,1.49-3.3,2.06l9.15,17.99c.82-.24,1.92-.76,3.07-1.34,6.3-3.21,7.94-8.47,4.81-14.62Zm18.57-3.88l-4.54-6.31c-1.04-1.43-1.84-2.77-2.64-4.08l-.07.03c.08,1.56.13,3.17.11,4.8l-.24,7.81,7.38-2.25Zm118.16,2.5c-4.69-2.81-9.64.11-12.53,4.92-2.81,4.69-2.78,10.41,1.68,13.09,4.5,2.7,9.52.09,12.51-4.89,2.61-4.36,3.07-10.28-1.66-13.12Zm44.29,39.08c-.95-1.28-1.75-2.11-2.19-2.45l-7.5,5.56,2.02,2.72c2.1,2.84,5,3.49,7.34,1.75,2.65-1.97,2.39-4.75.33-7.58Zm-181.02-37.7c-2.7-5.4-7.49-7.26-13.73-4.09-1.52.77-2.6,1.49-3.3,2.06l9.15,17.99c.82-.24,1.92-.76,3.07-1.34,6.3-3.21,7.94-8.47,4.81-14.62Zm18.57-3.88l-4.54-6.31c-1.04-1.43-1.84-2.77-2.64-4.08l-.07.03c.08,1.56.13,3.17.11,4.8l-.24,7.81,7.38-2.25Zm118.16,2.5c-4.69-2.81-9.64.11-12.53,4.92-2.81,4.69-2.78,10.41,1.68,13.09,4.5,2.7,9.52.09,12.51-4.89,2.61-4.36,3.07-10.28-1.66-13.12Zm-184.22,36.29c-3.91-3.25-9.7-4.6-13.22-.36-3.5,4.22-1.36,9.55,2.96,13.13,4.2,3.5,9.86,4.34,13.19.34,3.35-4.04,1.54-9.4-2.93-13.11Zm228.51,2.79c-.95-1.28-1.75-2.11-2.19-2.45l-7.5,5.56,2.02,2.72c2.1,2.84,5,3.49,7.34,1.75,2.65-1.97,2.39-4.75.33-7.58Zm-219.71,181.87c-3.73-4.01-9.29-2.57-13.4,1.26-3.99,3.72-5.56,9.23-2.01,13.04,3.58,3.84,9.12,2.72,13.37-1.23,3.72-3.47,5.8-9.04,2.04-13.07Zm-8.8-184.66c-3.91-3.25-9.7-4.6-13.22-.36-3.5,4.22-1.36,9.55,2.96,13.13,4.2,3.5,9.86,4.34,13.19.34,3.35-4.04,1.54-9.4-2.93-13.11Zm8.8,184.66c-3.73-4.01-9.29-2.57-13.4,1.26-3.99,3.72-5.56,9.23-2.01,13.04,3.58,3.84,9.12,2.72,13.37-1.23,3.72-3.47,5.8-9.04,2.04-13.07Zm38.69-219.57c-2.7-5.4-7.49-7.26-13.73-4.09-1.52.77-2.6,1.49-3.3,2.06l9.15,17.99c.82-.24,1.92-.76,3.07-1.34,6.3-3.21,7.94-8.47,4.81-14.62Zm18.57-3.88l-4.54-6.31c-1.04-1.43-1.84-2.77-2.64-4.08l-.07.03c.08,1.56.13,3.17.11,4.8l-.24,7.81,7.38-2.25Zm81.57,265.59c-.93-3.26-3.68-4.17-7.19-3.17-1.39.39-2.42.8-2.92,1.1l2.72,9.57c.74-.02,1.64-.19,2.7-.49,3.84-1.09,5.65-3.62,4.69-7.01Zm13.26-4.83c-1.2-1.29-2.17-2.52-3.12-3.72l-.07.03c.27,1.54.53,3.13.71,4.75l.72,7.78,7.05-3.14-5.29-5.7Zm23.33-258.26c-4.69-2.81-9.64.11-12.53,4.92-2.81,4.69-2.78,10.41,1.68,13.09,4.5,2.7,9.52.09,12.51-4.89,2.61-4.36,3.07-10.28-1.66-13.12Zm44.29,39.08c-.95-1.28-1.75-2.11-2.19-2.45l-7.5,5.56,2.02,2.72c2.1,2.84,5,3.49,7.34,1.75,2.65-1.97,2.39-4.75.33-7.58Zm-181.02-37.7c-2.7-5.4-7.49-7.26-13.73-4.09-1.52.77-2.6,1.49-3.3,2.06l9.15,17.99c.82-.24,1.92-.76,3.07-1.34,6.3-3.21,7.94-8.47,4.81-14.62Zm18.57-3.88l-4.54-6.31c-1.04-1.43-1.84-2.77-2.64-4.08l-.07.03c.08,1.56.13,3.17.11,4.8l-.24,7.81,7.38-2.25Zm118.16,2.5c-4.69-2.81-9.64.11-12.53,4.92-2.81,4.69-2.78,10.41,1.68,13.09,4.5,2.7,9.52.09,12.51-4.89,2.61-4.36,3.07-10.28-1.66-13.12Zm-184.22,36.29c-3.91-3.25-9.7-4.6-13.22-.36-3.5,4.22-1.36,9.55,2.96,13.13,4.2,3.5,9.86,4.34,13.19.34,3.35-4.04,1.54-9.4-2.93-13.11Zm228.51,2.79c-.95-1.28-1.75-2.11-2.19-2.45l-7.5,5.56,2.02,2.72c2.1,2.84,5,3.49,7.34,1.75,2.65-1.97,2.39-4.75.33-7.58Zm-219.71,181.87c-3.73-4.01-9.29-2.57-13.4,1.26-3.99,3.72-5.56,9.23-2.01,13.04,3.58,3.84,9.12,2.72,13.37-1.23,3.72-3.47,5.8-9.04,2.04-13.07Zm138.83,42.14c-.93-3.26-3.68-4.17-7.19-3.17-1.39.39-2.42.8-2.92,1.1l2.72,9.57c.74-.02,1.64-.19,2.7-.49,3.84-1.09,5.65-3.62,4.69-7.01Zm13.26-4.83c-1.2-1.29-2.17-2.52-3.12-3.72l-.07.03c.27,1.54.53,3.13.71,4.75l.72,7.78,7.05-3.14-5.29-5.7Zm-160.89-221.97c-3.91-3.25-9.7-4.6-13.22-.36-3.5,4.22-1.36,9.55,2.96,13.13,4.2,3.5,9.86,4.34,13.19.34,3.35-4.04,1.54-9.4-2.93-13.11Zm8.8,184.66c-3.73-4.01-9.29-2.57-13.4,1.26-3.99,3.72-5.56,9.23-2.01,13.04,3.58,3.84,9.12,2.72,13.37-1.23,3.72-3.47,5.8-9.04,2.04-13.07Zm38.69-219.57c-2.7-5.4-7.49-7.26-13.73-4.09-1.52.77-2.6,1.49-3.3,2.06l9.15,17.99c.82-.24,1.92-.76,3.07-1.34,6.3-3.21,7.94-8.47,4.81-14.62Zm18.57-3.88l-4.54-6.31c-1.04-1.43-1.84-2.77-2.64-4.08l-.07.03c.08,1.56.13,3.17.11,4.8l-.24,7.81,7.38-2.25Zm81.57,265.59c-.93-3.26-3.68-4.17-7.19-3.17-1.39.39-2.42.8-2.92,1.1l2.72,9.57c.74-.02,1.64-.19,2.7-.49,3.84-1.09,5.65-3.62,4.69-7.01Zm13.26-4.83c-1.2-1.29-2.17-2.52-3.12-3.72l-.07.03c.27,1.54.53,3.13.71,4.75l.72,7.78,7.05-3.14-5.29-5.7Zm24.25-14.1c-1.84-2.74-4.63-2.6-7.56-.68-1.32.89-2.18,1.65-2.54,2.08l5.21,7.74,2.81-1.88c2.93-1.98,3.71-4.83,2.08-7.26Zm-.92-244.16c-4.69-2.81-9.64.11-12.53,4.92-2.81,4.69-2.78,10.41,1.68,13.09,4.5,2.7,9.52.09,12.51-4.89,2.61-4.36,3.07-10.28-1.66-13.12Zm44.29,39.08c-.95-1.28-1.75-2.11-2.19-2.45l-7.5,5.56,2.02,2.72c2.1,2.84,5,3.49,7.34,1.75,2.65-1.97,2.39-4.75.33-7.58Zm-181.02-37.7c-2.7-5.4-7.49-7.26-13.73-4.09-1.52.77-2.6,1.49-3.3,2.06l9.15,17.99c.82-.24,1.92-.76,3.07-1.34,6.3-3.21,7.94-8.47,4.81-14.62Zm18.57-3.88l-4.54-6.31c-1.04-1.43-1.84-2.77-2.64-4.08l-.07.03c.08,1.56.13,3.17.11,4.8l-.24,7.81,7.38-2.25Zm118.16,2.5c-4.69-2.81-9.64.11-12.53,4.92-2.81,4.69-2.78,10.41,1.68,13.09,4.5,2.7,9.52.09,12.51-4.89,2.61-4.36,3.07-10.28-1.66-13.12Zm-184.22,36.29c-3.91-3.25-9.7-4.6-13.22-.36-3.5,4.22-1.36,9.55,2.96,13.13,4.2,3.5,9.86,4.34,13.19.34,3.35-4.04,1.54-9.4-2.93-13.11Zm228.51,2.79c-.95-1.28-1.75-2.11-2.19-2.45l-7.5,5.56,2.02,2.72c2.1,2.84,5,3.49,7.34,1.75,2.65-1.97,2.39-4.75.33-7.58Zm-219.71,181.87c-3.73-4.01-9.29-2.57-13.4,1.26-3.99,3.72-5.56,9.23-2.01,13.04,3.58,3.84,9.12,2.72,13.37-1.23,3.72-3.47,5.8-9.04,2.04-13.07Zm138.83,42.14c-.93-3.26-3.68-4.17-7.19-3.17-1.39.39-2.42.8-2.92,1.1l2.72,9.57c.74-.02,1.64-.19,2.7-.49,3.84-1.09,5.65-3.62,4.69-7.01Zm13.26-4.83c-1.2-1.29-2.17-2.52-3.12-3.72l-.07.03c.27,1.54.53,3.13.71,4.75l.72,7.78,7.05-3.14-5.29-5.7Zm24.25-14.1c-1.84-2.74-4.63-2.6-7.56-.68-1.32.89-2.18,1.65-2.54,2.08l5.21,7.74,2.81-1.88c2.93-1.98,3.71-4.83,2.08-7.26Zm3.94-251.81c-1.03-.61-2.07-1.2-3.11-1.79-.58-.32-1.15-.64-1.73-.95-.09-.06-.19-.11-.29-.16-23.04-12.43-49.42-19.49-77.45-19.49s-54.41,7.06-77.45,19.49c-.1.05-.2.1-.29.16-1.06.57-2.1,1.16-3.14,1.75-.57.33-1.13.66-1.7.99-48.17,28.28-80.5,80.57-80.5,140.4,0,40.57,14.87,77.68,39.46,106.18.43.49.86.98,1.3,1.47,29.88,33.81,73.6,55.13,122.32,55.13s92.44-21.32,122.32-55.13c.44-.49.87-.98,1.3-1.47.75-.87,1.49-1.75,2.23-2.64.11-.12.21-.24.3-.36,23.09-28.08,36.94-64.02,36.94-103.18,0-59.83-32.33-112.12-80.51-140.4Zm4.7,29.05l10.19-11.09,2.46,2.26-10.24,11.15c-3.88,4.22-3.65,7.73-1.13,10.05,2.8,2.57,6.29,2.37,10.11-1.79l10.25-11.15,2.46,2.26-10.09,10.98c-3.99,4.33-7.92,5.18-11.36,3.75-1.15-.48-2.25-1.21-3.28-2.15-.92-.85-1.67-1.77-2.21-2.76,0,0,0-.01-.01-.01-1.7-3.17-1.24-7.06,2.85-11.5Zm10.35,211.83l17.48,3.33-2.77,2.77-14.85-2.9.27,3.7,6.91,6.89-2.34,2.34-17.31-17.27-.8-.8,2.34-2.34.95.95,7.78,7.77.08-.09c-.21-1.18-.37-2.31-.51-3.35l-1.06-10.37-.2-1.96,2.9-2.9.15,1.85.98,12.38Zm-123.04,49.76c1.98.35,4.07.3,5.5-.1l.21,2.69c-1.3.39-3.8.56-6.87.01-7.11-1.27-11.66-6.7-10.19-14.96.92-5.14,3.92-8.8,8.07-10.33,2.21-.81,4.74-1.03,7.46-.54,3.14.56,5.01,1.58,5.79,2.18l-.29.57-.97,1.95c-1.13-.82-2.81-1.58-4.91-1.96-5.91-1.05-10.51,2.02-11.69,8.63-1.1,6.17,1.75,10.76,7.89,11.86Zm-34.22-22.93l-1.23,2.44-8.65-4.37-5.21,10.33-2.96-1.49,10.96-21.71.56-1.12,12.32,6.22-.64,1.28-.6,1.19-9.37-4.73-3.83,7.59,8.65,4.37Zm-21.22-12.27l-1.64,2.18-7.77-5.8-6.92,9.28-2.65-1.98,14.56-19.49.75-1,11.05,8.25-.87,1.16-.79,1.06-8.4-6.27-5.09,6.81,7.77,5.8Zm11.12-214.57c4.7-3.29,9.65-6.26,14.82-8.86.01-.01.03-.01.04-.02,1.49-.75,2.99-1.48,4.51-2.17.97-.44,1.95-.87,2.94-1.29,1.83-.77,3.67-1.5,5.54-2.18,1.88-.68,3.77-1.33,5.68-1.92,1.9-.59,3.81-1.13,5.74-1.63.98-.26,1.97-.5,2.96-.72,1.1-.26,2.21-.49,3.32-.72.98-.2,1.95-.38,2.94-.55,6.88-1.2,13.95-1.83,21.18-1.83s14.3.63,21.18,1.83c.99.17,1.96.35,2.94.55,1.11.23,2.22.46,3.32.72.99.22,1.98.46,2.96.72,1.93.5,3.84,1.04,5.74,1.63,1.91.6,3.81,1.24,5.68,1.92,1.14.42,2.26.85,3.38,1.29,1.11.45,2.21.91,3.31,1.39.56.24,1.11.49,1.66.73,1.72.78,3.42,1.6,5.09,2.45.73.37,1.46.76,2.18,1.14,1.31.71,2.61,1.43,3.89,2.18,1.28.75,2.55,1.52,3.8,2.32h.01c15.03,9.52,27.82,22.25,37.4,37.23h0c.81,1.25,1.58,2.51,2.33,3.79.76,1.28,1.49,2.57,2.2,3.88.78,1.44,1.53,2.9,2.26,4.38.83,1.69,1.62,3.4,2.37,5.13.38.89.76,1.79,1.13,2.7h0c.68,1.68,1.32,3.36,1.92,5.06.19.58.39,1.15.59,1.72.58,1.72,1.12,3.45,1.62,5.2.07.26.14.52.21.78.42,1.49.81,2.99,1.17,4.5.15.59.28,1.19.41,1.79.15.65.29,1.3.42,1.95.1.47.2.95.28,1.43.11.55.21,1.1.31,1.65.34,1.92.64,3.87.9,5.83.25,1.95.46,3.93.61,5.92.02.16.03.31.03.47.12,1.51.2,3.02.26,4.55.05,1.52.08,3.05.08,4.59s-.03,3.06-.08,4.59c-.06,1.52-.14,3.04-.26,4.55,0,.16-.01.31-.03.47-.15,1.99-.36,3.96-.61,5.92-.26,1.95-.56,3.9-.9,5.83-.1.55-.2,1.1-.31,1.65-.08.48-.18.96-.28,1.43-.13.65-.27,1.3-.42,1.95-.13.6-.27,1.2-.41,1.79-.36,1.51-.75,3.01-1.17,4.5-.07.28-.15.56-.24.84-.48,1.68-1,3.35-1.55,5-.34,1-.68,1.99-1.04,2.98-.34.92-.69,1.84-1.04,2.76-5.37,13.69-13.18,26.2-22.89,36.95-1.67,1.87-3.41,3.68-5.21,5.43-5.24,5.15-10.95,9.82-17.06,13.94-.53.36-1.06.72-1.6,1.05-5.76,3.78-11.86,7.07-18.24,9.83-.53.22-1.07.45-1.61.68-1.07.45-2.15.88-3.23,1.29-.55.21-1.09.41-1.64.61-1.87.68-3.77,1.32-5.68,1.92-1.9.59-3.81,1.13-5.74,1.63-.98.26-1.97.5-2.96.72-.75.17-1.51.34-2.26.5-.66.14-1.33.27-1.99.4-4.67.9-9.42,1.53-14.25,1.88-.98.07-1.96.13-2.95.17-1.98.1-3.98.15-5.99.15-7.8,0-15.44-.73-22.83-2.15-.97-.17-1.94-.37-2.91-.58h0c-.57-.12-1.14-.24-1.7-.37-.99-.22-1.98-.46-2.96-.72-1.93-.5-3.84-1.04-5.74-1.63-.95-.3-1.9-.6-2.84-.92-.02-.01-.04-.02-.06-.02-.54-.18-1.08-.37-1.61-.57-.39-.13-.78-.27-1.17-.41-2.79-1.02-5.53-2.14-8.22-3.36h-.01c-3.03-1.37-6-2.86-8.89-4.46-1.27-.7-2.52-1.43-3.76-2.17-1.57-.95-3.11-1.93-4.63-2.93-1.31-.87-2.6-1.77-3.87-2.68-.56-.41-1.11-.82-1.66-1.22-7.69-5.74-14.67-12.38-20.79-19.76-.44-.53-.87-1.06-1.3-1.59-1.11-1.39-2.21-2.81-3.27-4.26-1.21-1.65-2.38-3.34-3.51-5.05-.66-1.01-1.32-2.04-1.96-3.08-.38-.62-.75-1.23-1.12-1.86-.73-1.24-1.45-2.49-2.14-3.76-.94-1.72-1.84-3.46-2.69-5.23,0-.01,0-.02,0-.03-.32-.66-.63-1.32-.94-1.99-.93-2-1.8-4.03-2.61-6.09-1.09-2.77-2.09-5.59-2.98-8.45-.3-.95-.58-1.89-.85-2.85-.27-.96-.53-1.92-.78-2.88-.01-.01-.01-.02-.01-.03-.49-1.93-.94-3.88-1.35-5.84-.01-.01-.01-.02-.01-.03-.2-.99-.39-1.98-.57-2.98-.15-.87-.3-1.75-.44-2.62-.12-.77-.23-1.54-.34-2.31-.09-.68-.18-1.35-.26-2.03-.07-.6-.14-1.19-.2-1.79-.43-4.18-.65-8.42-.65-12.71,0-5.44.36-10.81,1.05-16.06.1-.76.21-1.5.32-2.25.15-.98.31-1.95.48-2.92.19-1.07.39-2.14.61-3.21,0-.01,0-.02.01-.03.41-1.97.86-3.91,1.35-5.84,0-.01,0-.02.01-.03.46-1.79.96-3.56,1.51-5.32.92-3.01,1.96-5.96,3.1-8.86.26-.65.52-1.3.79-1.95.53-1.29,1.09-2.57,1.68-3.84h0c.79-1.74,1.62-3.45,2.49-5.13.26-.51.53-1.01.8-1.52.53-1.01,1.08-2,1.65-2.99.29-.5.58-.99.86-1.49.51-.86,1.03-1.72,1.55-2.56.99-1.58,2.02-3.14,3.07-4.68.46-.67.93-1.34,1.41-2,7.13-9.94,15.73-18.75,25.49-26.14,1.23-.93,2.47-1.84,3.74-2.71Zm145.86,205.82c.22,0,.44.03.66.06,1.71.22,3.28,1.26,4.38,2.9,1.89,2.8,1.37,5.85-.36,8.11l.06.1c2.02-.54,4.02.31,6.01,2.18,2.68,2.5,4.56,4.2,5.55,4.72l-2.84,1.91c-.75-.36-2.45-1.87-4.82-4.11-2.61-2.51-4.48-2.85-7.04-1.27l-2.58,1.74,6.18,9.2-2.75,1.84-13.6-20.23-.48-.71c1.2-1.22,3.08-2.71,4.98-3.98,1.07-.73,2.06-1.28,2.97-1.68l.1.1c.08-.08.17-.17.25-.25,1.2-.48,2.28-.68,3.33-.63Zm-22.23,39.13l-3.12,1.4-2.33-25.4-.14-1.51,3.65-1.63,1.11,1.2,17.29,18.61-3.23,1.44-5.78-6.24-8.29,3.7.84,8.43Zm-13.26-20.67c1.69.78,3,2.34,3.62,4.53.64,2.23.48,4.17-.4,5.8-1.17,2.27-3.66,3.96-6.76,4.84-.96.27-1.85.49-2.63.51l2.81,9.86-3.19.9-6.65-23.39-.26-.92c1.46-.69,3.41-1.48,5.97-2.21,2.78-.79,5.06-.83,6.82-.2.23.08.46.17.67.28Zm-154.2-37.83c3.93-3.66,8.48-4.86,12.46-3.8,2.03.53,3.91,1.66,5.48,3.35,1.68,1.81,2.66,3.84,2.98,5.94.61,3.86-1.01,7.96-4.6,11.31-6.45,6-13.51,5.26-17.97.48-4.61-4.96-4.02-12,1.65-17.28Zm68.13,35.71l.47-1.41,3.14,1.05-.49,1.46-7.65,22.79-3.13-1.05,7.66-22.84Zm37.81,6.64l13.84-.23.02,1.5.02,1.27-10.53.18.13,8.08,9.96-.17.05,2.74-9.96.16.15,9.22,11.1-.18.04,2.77-14.4.23-.4-24.37-.02-1.2Zm124.06-188.97l-.2.1-1.5-2.99.13-.07,20.2-10.17-3.5-6.96,2.51-1.26,8.53,16.94-2.51,1.26-3.52-6.99-20.14,10.14Zm7.48-35.67c2.11,2.84,2.95,5.05,2.74,7.2-.15,1.71-1.12,3.33-2.7,4.51-2.71,2.01-5.78,1.63-8.12.01l-.09.07c.63,1.99-.13,4.02-1.91,6.09-2.34,2.77-3.95,4.72-4.44,5.74-.01.01-.02.02-.02.03l-2.03-2.74c.02-.05.05-.11.09-.17.44-.85,1.81-2.54,3.79-4.85,2.38-2.71,2.64-4.6.94-7.08l-1.86-2.5-8.83,6.55-.07.05-.97-1.31-1-1.35,20.27-15.03c1.27,1.14,2.85,2.95,4.21,4.78Zm-223.48,10.43c-.48,1.22-1.17,2.38-2.06,3.45-.81.98-1.71,1.78-2.69,2.4-4.24,2.74-9.81,2.19-14.65-1.83-6.25-5.19-7.11-12.47-2.74-17.73,4.48-5.38,11.48-5.45,17.32-.6,5.33,4.43,6.57,9.78,4.82,14.31Zm-35.14,5.51l2.43,1.33-5.05,9.2,7.45,4.09,4.67-8.49,2.39,1.31-4.67,8.49,10.05,5.53c-.34.66-.66,1.32-.97,1.99l-.53.96-22.41-12.32,6.64-12.09Zm196.82-50.15c4.18-6.96,11.25-8.92,17.11-5.4,6,3.6,7.13,10.51,3.23,17.02-3.56,5.93-8.64,7.97-13.37,6.95h-.01c-1.29-.29-2.56-.8-3.76-1.52-1.09-.65-2.02-1.43-2.8-2.3-3.33-3.78-3.63-9.36-.4-14.75Zm-26.32-9.42c2.61-7.56,9.52-10.92,17.03-8.32,3.02,1.04,4.7,2.34,5.38,3.06l-1.63,2.29c-.99-.99-2.53-2-4.54-2.7-5.68-1.96-10.7.36-12.9,6.71-2.04,5.92.06,10.9,5.95,12.93,1.9.66,3.98.94,5.45.76l-.21,2.7c-.57.08-1.34.08-2.27-.02-1.27-.13-2.81-.45-4.52-1.04-1.4-.48-2.67-1.13-3.78-1.91-4.28-3.03-6.14-8.16-3.96-14.46Zm-32.87-17.28l13.8,1.06-.21,2.76-10.5-.8-.61,8.06,9.93.76-.21,2.72-9.93-.76-.7,9.2,11.06.84-.2,2.64v.12s-13.19-1-13.19-1l-1.18-.09,1.94-25.51Zm-23.61,1.51l2.24,22.69,10.89-1.08.27,2.66v.1s-13.55,1.34-13.55,1.34l-.63.06-2.51-25.45,3.29-.32Zm-29.65,6.9l3.82-1.16,15.83,21.92-.08.03-3.31,1-.1-.14-4.86-6.76-8.69,2.65-.2,8.47-3.27,1,.86-27.01Zm-23.73,10.14c4.24-2.15,7.75-2.7,10.7-1.86,2.97.83,5.5,2.86,7.38,6.55,1.89,3.72,2.29,7.35,1.22,10.53-.69,2.11-2.18,4.09-4.38,5.85-1.16.93-2.52,1.79-4.05,2.57-1.47.75-2.81,1.36-4.02,1.87-.51.21-1,.4-1.47.58l-11.41-22.43c1.66-1.18,3.69-2.47,6.03-3.66Zm-3.11,32.09c-1.06.77-2.1,1.56-3.13,2.36l-5.88-2.26c-2.4-.84-3.93-1.41-5.48-2.06l-.06.05c.37,1.6.67,3.12,1.04,5.7l1.14,6.3-2.96,2.39-2.05-14.98-13.8-5.1,2.99-2.41,6.4,2.53c1.79.7,3.16,1.25,4.55,1.88l.09-.07c-.39-1.63-.63-2.95-.92-4.82l-1.05-6.86,2.96-2.39,1.77,14.58,14.39,5.16Zm198.85,19.55c2.65-1.97,2.39-4.75.33-7.58-.95-1.28-1.75-2.11-2.19-2.45l-7.5,5.56,2.02,2.72c2.1,2.84,5,3.49,7.34,1.75Zm-54.81-28.65c4.5,2.7,9.52.09,12.51-4.89,2.61-4.36,3.07-10.28-1.66-13.12-4.69-2.81-9.64.11-12.53,4.92-2.81,4.69-2.78,10.41,1.68,13.09Zm1.67,227.55l5.21,7.74,2.81-1.88c2.93-1.98,3.71-4.83,2.08-7.26-1.84-2.74-4.63-2.6-7.56-.68-1.32.89-2.18,1.65-2.54,2.08Zm-17.27,8.98l-.07.03c.27,1.54.53,3.13.71,4.75l.72,7.78,7.05-3.14-5.29-5.7c-1.2-1.29-2.17-2.52-3.12-3.72Zm-17.33,5.38c-1.39.39-2.42.8-2.92,1.1l2.72,9.57c.74-.02,1.64-.19,2.7-.49,3.84-1.09,5.65-3.62,4.69-7.01-.93-3.26-3.68-4.17-7.19-3.17ZM215.56,121.28l-4.54-6.31c-1.04-1.43-1.84-2.77-2.64-4.08l-.07.03c.08,1.56.13,3.17.11,4.8l-.24,7.81,7.38-2.25Zm-23.38,18.5c6.3-3.21,7.94-8.47,4.81-14.62-2.7-5.4-7.49-7.26-13.73-4.09-1.52.77-2.6,1.49-3.3,2.06l9.15,17.99c.82-.24,1.92-.76,3.07-1.34Zm-35.92,218.02c3.72-3.47,5.8-9.04,2.04-13.07-3.73-4.01-9.29-2.57-13.4,1.26-3.99,3.72-5.56,9.23-2.01,13.04,3.58,3.84,9.12,2.72,13.37-1.23Zm-6.76-197.73c-3.91-3.25-9.7-4.6-13.22-.36-3.5,4.22-1.36,9.55,2.96,13.13,4.2,3.5,9.86,4.34,13.19.34,3.35-4.04,1.54-9.4-2.93-13.11Zm185.14,207.87c-1.84-2.74-4.63-2.6-7.56-.68-1.32.89-2.18,1.65-2.54,2.08l5.21,7.74,2.81-1.88c2.93-1.98,3.71-4.83,2.08-7.26Zm-24.25,14.1c-1.2-1.29-2.17-2.52-3.12-3.72l-.07.03c.27,1.54.53,3.13.71,4.75l.72,7.78,7.05-3.14-5.29-5.7Zm-13.26,4.83c-.93-3.26-3.68-4.17-7.19-3.17-1.39.39-2.42.8-2.92,1.1l2.72,9.57c.74-.02,1.64-.19,2.7-.49,3.84-1.09,5.65-3.62,4.69-7.01Zm-138.83-42.14c-3.73-4.01-9.29-2.57-13.4,1.26-3.99,3.72-5.56,9.23-2.01,13.04,3.58,3.84,9.12,2.72,13.37-1.23,3.72-3.47,5.8-9.04,2.04-13.07Zm219.71-181.87c-.95-1.28-1.75-2.11-2.19-2.45l-7.5,5.56,2.02,2.72c2.1,2.84,5,3.49,7.34,1.75,2.65-1.97,2.39-4.75.33-7.58Zm-228.51-2.79c-3.91-3.25-9.7-4.6-13.22-.36-3.5,4.22-1.36,9.55,2.96,13.13,4.2,3.5,9.86,4.34,13.19.34,3.35-4.04,1.54-9.4-2.93-13.11Zm184.22-36.29c-4.69-2.81-9.64.11-12.53,4.92-2.81,4.69-2.78,10.41,1.68,13.09,4.5,2.7,9.52.09,12.51-4.89,2.61-4.36,3.07-10.28-1.66-13.12Zm-118.16-2.5l-4.54-6.31c-1.04-1.43-1.84-2.77-2.64-4.08l-.07.03c.08,1.56.13,3.17.11,4.8l-.24,7.81,7.38-2.25Zm-18.57,3.88c-2.7-5.4-7.49-7.26-13.73-4.09-1.52.77-2.6,1.49-3.3,2.06l9.15,17.99c.82-.24,1.92-.76,3.07-1.34,6.3-3.21,7.94-8.47,4.81-14.62Zm181.02,37.7c-.95-1.28-1.75-2.11-2.19-2.45l-7.5,5.56,2.02,2.72c2.1,2.84,5,3.49,7.34,1.75,2.65-1.97,2.39-4.75.33-7.58Zm-44.29-39.08c-4.69-2.81-9.64.11-12.53,4.92-2.81,4.69-2.78,10.41,1.68,13.09,4.5,2.7,9.52.09,12.51-4.89,2.61-4.36,3.07-10.28-1.66-13.12Zm.92,244.16c-1.84-2.74-4.63-2.6-7.56-.68-1.32.89-2.18,1.65-2.54,2.08l5.21,7.74,2.81-1.88c2.93-1.98,3.71-4.83,2.08-7.26Zm-24.25,14.1c-1.2-1.29-2.17-2.52-3.12-3.72l-.07.03c.27,1.54.53,3.13.71,4.75l.72,7.78,7.05-3.14-5.29-5.7Zm-13.26,4.83c-.93-3.26-3.68-4.17-7.19-3.17-1.39.39-2.42.8-2.92,1.1l2.72,9.57c.74-.02,1.64-.19,2.7-.49,3.84-1.09,5.65-3.62,4.69-7.01ZM215.56,121.28l-4.54-6.31c-1.04-1.43-1.84-2.77-2.64-4.08l-.07.03c.08,1.56.13,3.17.11,4.8l-.24,7.81,7.38-2.25Zm-18.57,3.88c-2.7-5.4-7.49-7.26-13.73-4.09-1.52.77-2.6,1.49-3.3,2.06l9.15,17.99c.82-.24,1.92-.76,3.07-1.34,6.3-3.21,7.94-8.47,4.81-14.62Zm-38.69,219.57c-3.73-4.01-9.29-2.57-13.4,1.26-3.99,3.72-5.56,9.23-2.01,13.04,3.58,3.84,9.12,2.72,13.37-1.23,3.72-3.47,5.8-9.04,2.04-13.07Zm-8.8-184.66c-3.91-3.25-9.7-4.6-13.22-.36-3.5,4.22-1.36,9.55,2.96,13.13,4.2,3.5,9.86,4.34,13.19.34,3.35-4.04,1.54-9.4-2.93-13.11Zm147.63,226.8c-.93-3.26-3.68-4.17-7.19-3.17-1.39.39-2.42.8-2.92,1.1l2.72,9.57c.74-.02,1.64-.19,2.7-.49,3.84-1.09,5.65-3.62,4.69-7.01Zm-138.83-42.14c-3.73-4.01-9.29-2.57-13.4,1.26-3.99,3.72-5.56,9.23-2.01,13.04,3.58,3.84,9.12,2.72,13.37-1.23,3.72-3.47,5.8-9.04,2.04-13.07Zm219.71-181.87c-.95-1.28-1.75-2.11-2.19-2.45l-7.5,5.56,2.02,2.72c2.1,2.84,5,3.49,7.34,1.75,2.65-1.97,2.39-4.75.33-7.58Zm-228.51-2.79c-3.91-3.25-9.7-4.6-13.22-.36-3.5,4.22-1.36,9.55,2.96,13.13,4.2,3.5,9.86,4.34,13.19.34,3.35-4.04,1.54-9.4-2.93-13.11Zm184.22-36.29c-4.69-2.81-9.64.11-12.53,4.92-2.81,4.69-2.78,10.41,1.68,13.09,4.5,2.7,9.52.09,12.51-4.89,2.61-4.36,3.07-10.28-1.66-13.12Zm-118.16-2.5l-4.54-6.31c-1.04-1.43-1.84-2.77-2.64-4.08l-.07.03c.08,1.56.13,3.17.11,4.8l-.24,7.81,7.38-2.25Zm-18.57,3.88c-2.7-5.4-7.49-7.26-13.73-4.09-1.52.77-2.6,1.49-3.3,2.06l9.15,17.99c.82-.24,1.92-.76,3.07-1.34,6.3-3.21,7.94-8.47,4.81-14.62Zm181.02,37.7c-.95-1.28-1.75-2.11-2.19-2.45l-7.5,5.56,2.02,2.72c2.1,2.84,5,3.49,7.34,1.75,2.65-1.97,2.39-4.75.33-7.58Zm-44.29-39.08c-4.69-2.81-9.64.11-12.53,4.92-2.81,4.69-2.78,10.41,1.68,13.09,4.5,2.7,9.52.09,12.51-4.89,2.61-4.36,3.07-10.28-1.66-13.12Zm-36.59,263.09c-.93-3.26-3.68-4.17-7.19-3.17-1.39.39-2.42.8-2.92,1.1l2.72,9.57c.74-.02,1.64-.19,2.7-.49,3.84-1.09,5.65-3.62,4.69-7.01ZM215.56,121.28l-4.54-6.31c-1.04-1.43-1.84-2.77-2.64-4.08l-.07.03c.08,1.56.13,3.17.11,4.8l-.24,7.81,7.38-2.25Zm-18.57,3.88c-2.7-5.4-7.49-7.26-13.73-4.09-1.52.77-2.6,1.49-3.3,2.06l9.15,17.99c.82-.24,1.92-.76,3.07-1.34,6.3-3.21,7.94-8.47,4.81-14.62Zm-38.69,219.57c-3.73-4.01-9.29-2.57-13.4,1.26-3.99,3.72-5.56,9.23-2.01,13.04,3.58,3.84,9.12,2.72,13.37-1.23,3.72-3.47,5.8-9.04,2.04-13.07Zm-8.8-184.66c-3.91-3.25-9.7-4.6-13.22-.36-3.5,4.22-1.36,9.55,2.96,13.13,4.2,3.5,9.86,4.34,13.19.34,3.35-4.04,1.54-9.4-2.93-13.11Zm8.8,184.66c-3.73-4.01-9.29-2.57-13.4,1.26-3.99,3.72-5.56,9.23-2.01,13.04,3.58,3.84,9.12,2.72,13.37-1.23,3.72-3.47,5.8-9.04,2.04-13.07Zm219.71-181.87c-.95-1.28-1.75-2.11-2.19-2.45l-7.5,5.56,2.02,2.72c2.1,2.84,5,3.49,7.34,1.75,2.65-1.97,2.39-4.75.33-7.58Zm-228.51-2.79c-3.91-3.25-9.7-4.6-13.22-.36-3.5,4.22-1.36,9.55,2.96,13.13,4.2,3.5,9.86,4.34,13.19.34,3.35-4.04,1.54-9.4-2.93-13.11Zm184.22-36.29c-4.69-2.81-9.64.11-12.53,4.92-2.81,4.69-2.78,10.41,1.68,13.09,4.5,2.7,9.52.09,12.51-4.89,2.61-4.36,3.07-10.28-1.66-13.12Zm-118.16-2.5l-4.54-6.31c-1.04-1.43-1.84-2.77-2.64-4.08l-.07.03c.08,1.56.13,3.17.11,4.8l-.24,7.81,7.38-2.25Zm-18.57,3.88c-2.7-5.4-7.49-7.26-13.73-4.09-1.52.77-2.6,1.49-3.3,2.06l9.15,17.99c.82-.24,1.92-.76,3.07-1.34,6.3-3.21,7.94-8.47,4.81-14.62Zm181.02,37.7c-.95-1.28-1.75-2.11-2.19-2.45l-7.5,5.56,2.02,2.72c2.1,2.84,5,3.49,7.34,1.75,2.65-1.97,2.39-4.75.33-7.58Zm-44.29-39.08c-4.69-2.81-9.64.11-12.53,4.92-2.81,4.69-2.78,10.41,1.68,13.09,4.5,2.7,9.52.09,12.51-4.89,2.61-4.36,3.07-10.28-1.66-13.12Zm-118.16-2.5l-4.54-6.31c-1.04-1.43-1.84-2.77-2.64-4.08l-.07.03c.08,1.56.13,3.17.11,4.8l-.24,7.81,7.38-2.25Zm-18.57,3.88c-2.7-5.4-7.49-7.26-13.73-4.09-1.52.77-2.6,1.49-3.3,2.06l9.15,17.99c.82-.24,1.92-.76,3.07-1.34,6.3-3.21,7.94-8.47,4.81-14.62Zm-38.69,219.57c-3.73-4.01-9.29-2.57-13.4,1.26-3.99,3.72-5.56,9.23-2.01,13.04,3.58,3.84,9.12,2.72,13.37-1.23,3.72-3.47,5.8-9.04,2.04-13.07Zm-8.8-184.66c-3.91-3.25-9.7-4.6-13.22-.36-3.5,4.22-1.36,9.55,2.96,13.13,4.2,3.5,9.86,4.34,13.19.34,3.35-4.04,1.54-9.4-2.93-13.11Zm8.8,184.66c-3.73-4.01-9.29-2.57-13.4,1.26-3.99,3.72-5.56,9.23-2.01,13.04,3.58,3.84,9.12,2.72,13.37-1.23,3.72-3.47,5.8-9.04,2.04-13.07Zm219.71-181.87c-.95-1.28-1.75-2.11-2.19-2.45l-7.5,5.56,2.02,2.72c2.1,2.84,5,3.49,7.34,1.75,2.65-1.97,2.39-4.75.33-7.58Zm-228.51-2.79c-3.91-3.25-9.7-4.6-13.22-.36-3.5,4.22-1.36,9.55,2.96,13.13,4.2,3.5,9.86,4.34,13.19.34,3.35-4.04,1.54-9.4-2.93-13.11Zm184.22-36.29c-4.69-2.81-9.64.11-12.53,4.92-2.81,4.69-2.78,10.41,1.68,13.09,4.5,2.7,9.52.09,12.51-4.89,2.61-4.36,3.07-10.28-1.66-13.12Zm-118.16-2.5l-4.54-6.31c-1.04-1.43-1.84-2.77-2.64-4.08l-.07.03c.08,1.56.13,3.17.11,4.8l-.24,7.81,7.38-2.25Zm-18.57,3.88c-2.7-5.4-7.49-7.26-13.73-4.09-1.52.77-2.6,1.49-3.3,2.06l9.15,17.99c.82-.24,1.92-.76,3.07-1.34,6.3-3.21,7.94-8.47,4.81-14.62Zm181.02,37.7c-.95-1.28-1.75-2.11-2.19-2.45l-7.5,5.56,2.02,2.72c2.1,2.84,5,3.49,7.34,1.75,2.65-1.97,2.39-4.75.33-7.58Zm-44.29-39.08c-4.69-2.81-9.64.11-12.53,4.92-2.81,4.69-2.78,10.41,1.68,13.09,4.5,2.7,9.52.09,12.51-4.89,2.61-4.36,3.07-10.28-1.66-13.12Zm-118.16-2.5l-4.54-6.31c-1.04-1.43-1.84-2.77-2.64-4.08l-.07.03c.08,1.56.13,3.17.11,4.8l-.24,7.81,7.38-2.25Zm-18.57,3.88c-2.7-5.4-7.49-7.26-13.73-4.09-1.52.77-2.6,1.49-3.3,2.06l9.15,17.99c.82-.24,1.92-.76,3.07-1.34,6.3-3.21,7.94-8.47,4.81-14.62Zm-38.69,219.57c-3.73-4.01-9.29-2.57-13.4,1.26-3.99,3.72-5.56,9.23-2.01,13.04,3.58,3.84,9.12,2.72,13.37-1.23,3.72-3.47,5.8-9.04,2.04-13.07Zm-8.8-184.66c-3.91-3.25-9.7-4.6-13.22-.36-3.5,4.22-1.36,9.55,2.96,13.13,4.2,3.5,9.86,4.34,13.19.34,3.35-4.04,1.54-9.4-2.93-13.11Zm8.8,184.66c-3.73-4.01-9.29-2.57-13.4,1.26-3.99,3.72-5.56,9.23-2.01,13.04,3.58,3.84,9.12,2.72,13.37-1.23,3.72-3.47,5.8-9.04,2.04-13.07Zm219.71-181.87c-.95-1.28-1.75-2.11-2.19-2.45l-7.5,5.56,2.02,2.72c2.1,2.84,5,3.49,7.34,1.75,2.65-1.97,2.39-4.75.33-7.58Zm-228.51-2.79c-3.91-3.25-9.7-4.6-13.22-.36-3.5,4.22-1.36,9.55,2.96,13.13,4.2,3.5,9.86,4.34,13.19.34,3.35-4.04,1.54-9.4-2.93-13.11Zm184.22-36.29c-4.69-2.81-9.64.11-12.53,4.92-2.81,4.69-2.78,10.41,1.68,13.09,4.5,2.7,9.52.09,12.51-4.89,2.61-4.36,3.07-10.28-1.66-13.12Zm-118.16-2.5l-4.54-6.31c-1.04-1.43-1.84-2.77-2.64-4.08l-.07.03c.08,1.56.13,3.17.11,4.8l-.24,7.81,7.38-2.25Zm-18.57,3.88c-2.7-5.4-7.49-7.26-13.73-4.09-1.52.77-2.6,1.49-3.3,2.06l9.15,17.99c.82-.24,1.92-.76,3.07-1.34,6.3-3.21,7.94-8.47,4.81-14.62Zm181.02,37.7c-.95-1.28-1.75-2.11-2.19-2.45l-7.5,5.56,2.02,2.72c2.1,2.84,5,3.49,7.34,1.75,2.65-1.97,2.39-4.75.33-7.58Zm-44.29-39.08c-4.69-2.81-9.64.11-12.53,4.92-2.81,4.69-2.78,10.41,1.68,13.09,4.5,2.7,9.52.09,12.51-4.89,2.61-4.36,3.07-10.28-1.66-13.12Zm-118.16-2.5l-4.54-6.31c-1.04-1.43-1.84-2.77-2.64-4.08l-.07.03c.08,1.56.13,3.17.11,4.8l-.24,7.81,7.38-2.25Zm-18.57,3.88c-2.7-5.4-7.49-7.26-13.73-4.09-1.52.77-2.6,1.49-3.3,2.06l9.15,17.99c.82-.24,1.92-.76,3.07-1.34,6.3-3.21,7.94-8.47,4.81-14.62Zm-38.69,219.57c-3.73-4.01-9.29-2.57-13.4,1.26-3.99,3.72-5.56,9.23-2.01,13.04,3.58,3.84,9.12,2.72,13.37-1.23,3.72-3.47,5.8-9.04,2.04-13.07Zm-8.8-184.66c-3.91-3.25-9.7-4.6-13.22-.36-3.5,4.22-1.36,9.55,2.96,13.13,4.2,3.5,9.86,4.34,13.19.34,3.35-4.04,1.54-9.4-2.93-13.11Zm228.51,2.79c-.95-1.28-1.75-2.11-2.19-2.45l-7.5,5.56,2.02,2.72c2.1,2.84,5,3.49,7.34,1.75,2.65-1.97,2.39-4.75.33-7.58Zm-228.51-2.79c-3.91-3.25-9.7-4.6-13.22-.36-3.5,4.22-1.36,9.55,2.96,13.13,4.2,3.5,9.86,4.34,13.19.34,3.35-4.04,1.54-9.4-2.93-13.11Zm184.22-36.29c-4.69-2.81-9.64.11-12.53,4.92-2.81,4.69-2.78,10.41,1.68,13.09,4.5,2.7,9.52.09,12.51-4.89,2.61-4.36,3.07-10.28-1.66-13.12Zm-118.16-2.5l-4.54-6.31c-1.04-1.43-1.84-2.77-2.64-4.08l-.07.03c.08,1.56.13,3.17.11,4.8l-.24,7.81,7.38-2.25Zm-18.57,3.88c-2.7-5.4-7.49-7.26-13.73-4.09-1.52.77-2.6,1.49-3.3,2.06l9.15,17.99c.82-.24,1.92-.76,3.07-1.34,6.3-3.21,7.94-8.47,4.81-14.62Zm181.02,37.7c-.95-1.28-1.75-2.11-2.19-2.45l-7.5,5.56,2.02,2.72c2.1,2.84,5,3.49,7.34,1.75,2.65-1.97,2.39-4.75.33-7.58Zm-44.29-39.08c-4.69-2.81-9.64.11-12.53,4.92-2.81,4.69-2.78,10.41,1.68,13.09,4.5,2.7,9.52.09,12.51-4.89,2.61-4.36,3.07-10.28-1.66-13.12Zm-118.16-2.5l-4.54-6.31c-1.04-1.43-1.84-2.77-2.64-4.08l-.07.03c.08,1.56.13,3.17.11,4.8l-.24,7.81,7.38-2.25Zm-18.57,3.88c-2.7-5.4-7.49-7.26-13.73-4.09-1.52.77-2.6,1.49-3.3,2.06l9.15,17.99c.82-.24,1.92-.76,3.07-1.34,6.3-3.21,7.94-8.47,4.81-14.62Zm-47.49,34.91c-3.91-3.25-9.7-4.6-13.22-.36-3.5,4.22-1.36,9.55,2.96,13.13,4.2,3.5,9.86,4.34,13.19.34,3.35-4.04,1.54-9.4-2.93-13.11Zm228.51,2.79c-.95-1.28-1.75-2.11-2.19-2.45l-7.5,5.56,2.02,2.72c2.1,2.84,5,3.49,7.34,1.75,2.65-1.97,2.39-4.75.33-7.58Zm-228.51-2.79c-3.91-3.25-9.7-4.6-13.22-.36-3.5,4.22-1.36,9.55,2.96,13.13,4.2,3.5,9.86,4.34,13.19.34,3.35-4.04,1.54-9.4-2.93-13.11Zm184.22-36.29c-4.69-2.81-9.64.11-12.53,4.92-2.81,4.69-2.78,10.41,1.68,13.09,4.5,2.7,9.52.09,12.51-4.89,2.61-4.36,3.07-10.28-1.66-13.12Zm-118.16-2.5l-4.54-6.31c-1.04-1.43-1.84-2.77-2.64-4.08l-.07.03c.08,1.56.13,3.17.11,4.8l-.24,7.81,7.38-2.25Zm-18.57,3.88c-2.7-5.4-7.49-7.26-13.73-4.09-1.52.77-2.6,1.49-3.3,2.06l9.15,17.99c.82-.24,1.92-.76,3.07-1.34,6.3-3.21,7.94-8.47,4.81-14.62Zm181.02,37.7c-.95-1.28-1.75-2.11-2.19-2.45l-7.5,5.56,2.02,2.72c2.1,2.84,5,3.49,7.34,1.75,2.65-1.97,2.39-4.75.33-7.58Zm-44.29-39.08c-4.69-2.81-9.64.11-12.53,4.92-2.81,4.69-2.78,10.41,1.68,13.09,4.5,2.7,9.52.09,12.51-4.89,2.61-4.36,3.07-10.28-1.66-13.12Zm-118.16-2.5l-4.54-6.31c-1.04-1.43-1.84-2.77-2.64-4.08l-.07.03c.08,1.56.13,3.17.11,4.8l-.24,7.81,7.38-2.25Zm-18.57,3.88c-2.7-5.4-7.49-7.26-13.73-4.09-1.52.77-2.6,1.49-3.3,2.06l9.15,17.99c.82-.24,1.92-.76,3.07-1.34,6.3-3.21,7.94-8.47,4.81-14.62Zm-47.49,34.91c-3.91-3.25-9.7-4.6-13.22-.36-3.5,4.22-1.36,9.55,2.96,13.13,4.2,3.5,9.86,4.34,13.19.34,3.35-4.04,1.54-9.4-2.93-13.11Zm228.51,2.79c-.95-1.28-1.75-2.11-2.19-2.45l-7.5,5.56,2.02,2.72c2.1,2.84,5,3.49,7.34,1.75,2.65-1.97,2.39-4.75.33-7.58Zm-228.51-2.79c-3.91-3.25-9.7-4.6-13.22-.36-3.5,4.22-1.36,9.55,2.96,13.13,4.2,3.5,9.86,4.34,13.19.34,3.35-4.04,1.54-9.4-2.93-13.11Zm184.22-36.29c-4.69-2.81-9.64.11-12.53,4.92-2.81,4.69-2.78,10.41,1.68,13.09,4.5,2.7,9.52.09,12.51-4.89,2.61-4.36,3.07-10.28-1.66-13.12Zm-118.16-2.5l-4.54-6.31c-1.04-1.43-1.84-2.77-2.64-4.08l-.07.03c.08,1.56.13,3.17.11,4.8l-.24,7.81,7.38-2.25Zm-18.57,3.88c-2.7-5.4-7.49-7.26-13.73-4.09-1.52.77-2.6,1.49-3.3,2.06l9.15,17.99c.82-.24,1.92-.76,3.07-1.34,6.3-3.21,7.94-8.47,4.81-14.62Zm181.02,37.7c-.95-1.28-1.75-2.11-2.19-2.45l-7.5,5.56,2.02,2.72c2.1,2.84,5,3.49,7.34,1.75,2.65-1.97,2.39-4.75.33-7.58Zm-44.29-39.08c-4.69-2.81-9.64.11-12.53,4.92-2.81,4.69-2.78,10.41,1.68,13.09,4.5,2.7,9.52.09,12.51-4.89,2.61-4.36,3.07-10.28-1.66-13.12Zm-118.16-2.5l-4.54-6.31c-1.04-1.43-1.84-2.77-2.64-4.08l-.07.03c.08,1.56.13,3.17.11,4.8l-.24,7.81,7.38-2.25Zm-18.57,3.88c-2.7-5.4-7.49-7.26-13.73-4.09-1.52.77-2.6,1.49-3.3,2.06l9.15,17.99c.82-.24,1.92-.76,3.07-1.34,6.3-3.21,7.94-8.47,4.81-14.62Zm-47.49,34.91c-3.91-3.25-9.7-4.6-13.22-.36-3.5,4.22-1.36,9.55,2.96,13.13,4.2,3.5,9.86,4.34,13.19.34,3.35-4.04,1.54-9.4-2.93-13.11Zm0,0c-3.91-3.25-9.7-4.6-13.22-.36-3.5,4.22-1.36,9.55,2.96,13.13,4.2,3.5,9.86,4.34,13.19.34,3.35-4.04,1.54-9.4-2.93-13.11Zm184.22-36.29c-4.69-2.81-9.64.11-12.53,4.92-2.81,4.69-2.78,10.41,1.68,13.09,4.5,2.7,9.52.09,12.51-4.89,2.61-4.36,3.07-10.28-1.66-13.12Zm-118.16-2.5l-4.54-6.31c-1.04-1.43-1.84-2.77-2.64-4.08l-.07.03c.08,1.56.13,3.17.11,4.8l-.24,7.81,7.38-2.25Zm-18.57,3.88c-2.7-5.4-7.49-7.26-13.73-4.09-1.52.77-2.6,1.49-3.3,2.06l9.15,17.99c.82-.24,1.92-.76,3.07-1.34,6.3-3.21,7.94-8.47,4.81-14.62Zm136.73-1.38c-4.69-2.81-9.64.11-12.53,4.92-2.81,4.69-2.78,10.41,1.68,13.09,4.5,2.7,9.52.09,12.51-4.89,2.61-4.36,3.07-10.28-1.66-13.12Zm-118.16-2.5l-4.54-6.31c-1.04-1.43-1.84-2.77-2.64-4.08l-.07.03c.08,1.56.13,3.17.11,4.8l-.24,7.81,7.38-2.25Zm-18.57,3.88c-2.7-5.4-7.49-7.26-13.73-4.09-1.52.77-2.6,1.49-3.3,2.06l9.15,17.99c.82-.24,1.92-.76,3.07-1.34,6.3-3.21,7.94-8.47,4.81-14.62Zm-47.49,34.91c-3.91-3.25-9.7-4.6-13.22-.36-3.5,4.22-1.36,9.55,2.96,13.13,4.2,3.5,9.86,4.34,13.19.34,3.35-4.04,1.54-9.4-2.93-13.11Zm0,0c-3.91-3.25-9.7-4.6-13.22-.36-3.5,4.22-1.36,9.55,2.96,13.13,4.2,3.5,9.86,4.34,13.19.34,3.35-4.04,1.54-9.4-2.93-13.11Zm66.06-38.79l-4.54-6.31c-1.04-1.43-1.84-2.77-2.64-4.08l-.07.03c.08,1.56.13,3.17.11,4.8l-.24,7.81,7.38-2.25Zm-18.57,3.88c-2.7-5.4-7.49-7.26-13.73-4.09-1.52.77-2.6,1.49-3.3,2.06l9.15,17.99c.82-.24,1.92-.76,3.07-1.34,6.3-3.21,7.94-8.47,4.81-14.62Zm18.57-3.88l-4.54-6.31c-1.04-1.43-1.84-2.77-2.64-4.08l-.07.03c.08,1.56.13,3.17.11,4.8l-.24,7.81,7.38-2.25Zm-18.57,3.88c-2.7-5.4-7.49-7.26-13.73-4.09-1.52.77-2.6,1.49-3.3,2.06l9.15,17.99c.82-.24,1.92-.76,3.07-1.34,6.3-3.21,7.94-8.47,4.81-14.62Zm-47.49,34.91c-3.91-3.25-9.7-4.6-13.22-.36-3.5,4.22-1.36,9.55,2.96,13.13,4.2,3.5,9.86,4.34,13.19.34,3.35-4.04,1.54-9.4-2.93-13.11Zm0,0c-3.91-3.25-9.7-4.6-13.22-.36-3.5,4.22-1.36,9.55,2.96,13.13,4.2,3.5,9.86,4.34,13.19.34,3.35-4.04,1.54-9.4-2.93-13.11Zm66.06-38.79l-4.54-6.31c-1.04-1.43-1.84-2.77-2.64-4.08l-.07.03c.08,1.56.13,3.17.11,4.8l-.24,7.81,7.38-2.25Zm-18.57,3.88c-2.7-5.4-7.49-7.26-13.73-4.09-1.52.77-2.6,1.49-3.3,2.06l9.15,17.99c.82-.24,1.92-.76,3.07-1.34,6.3-3.21,7.94-8.47,4.81-14.62Zm18.57-3.88l-4.54-6.31c-1.04-1.43-1.84-2.77-2.64-4.08l-.07.03c.08,1.56.13,3.17.11,4.8l-.24,7.81,7.38-2.25Zm-18.57,3.88c-2.7-5.4-7.49-7.26-13.73-4.09-1.52.77-2.6,1.49-3.3,2.06l9.15,17.99c.82-.24,1.92-.76,3.07-1.34,6.3-3.21,7.94-8.47,4.81-14.62Zm-47.49,34.91c-3.91-3.25-9.7-4.6-13.22-.36-3.5,4.22-1.36,9.55,2.96,13.13,4.2,3.5,9.86,4.34,13.19.34,3.35-4.04,1.54-9.4-2.93-13.11Zm0,0c-3.91-3.25-9.7-4.6-13.22-.36-3.5,4.22-1.36,9.55,2.96,13.13,4.2,3.5,9.86,4.34,13.19.34,3.35-4.04,1.54-9.4-2.93-13.11Zm66.06-38.79l-4.54-6.31c-1.04-1.43-1.84-2.77-2.64-4.08l-.07.03c.08,1.56.13,3.17.11,4.8l-.24,7.81,7.38-2.25Zm-18.57,3.88c-2.7-5.4-7.49-7.26-13.73-4.09-1.52.77-2.6,1.49-3.3,2.06l9.15,17.99c.82-.24,1.92-.76,3.07-1.34,6.3-3.21,7.94-8.47,4.81-14.62Zm18.57-3.88l-4.54-6.31c-1.04-1.43-1.84-2.77-2.64-4.08l-.07.03c.08,1.56.13,3.17.11,4.8l-.24,7.81,7.38-2.25Zm-18.57,3.88c-2.7-5.4-7.49-7.26-13.73-4.09-1.52.77-2.6,1.49-3.3,2.06l9.15,17.99c.82-.24,1.92-.76,3.07-1.34,6.3-3.21,7.94-8.47,4.81-14.62Zm-47.49,34.91c-3.91-3.25-9.7-4.6-13.22-.36-3.5,4.22-1.36,9.55,2.96,13.13,4.2,3.5,9.86,4.34,13.19.34,3.35-4.04,1.54-9.4-2.93-13.11Zm0,0c-3.91-3.25-9.7-4.6-13.22-.36-3.5,4.22-1.36,9.55,2.96,13.13,4.2,3.5,9.86,4.34,13.19.34,3.35-4.04,1.54-9.4-2.93-13.11Zm47.49-34.91c-2.7-5.4-7.49-7.26-13.73-4.09-1.52.77-2.6,1.49-3.3,2.06l9.15,17.99c.82-.24,1.92-.76,3.07-1.34,6.3-3.21,7.94-8.47,4.81-14.62Zm0,0c-2.7-5.4-7.49-7.26-13.73-4.09-1.52.77-2.6,1.49-3.3,2.06l9.15,17.99c.82-.24,1.92-.76,3.07-1.34,6.3-3.21,7.94-8.47,4.81-14.62Zm-47.49,34.91c-3.91-3.25-9.7-4.6-13.22-.36-3.5,4.22-1.36,9.55,2.96,13.13,4.2,3.5,9.86,4.34,13.19.34,3.35-4.04,1.54-9.4-2.93-13.11Zm0,0c-3.91-3.25-9.7-4.6-13.22-.36-3.5,4.22-1.36,9.55,2.96,13.13,4.2,3.5,9.86,4.34,13.19.34,3.35-4.04,1.54-9.4-2.93-13.11Zm47.49-34.91c-2.7-5.4-7.49-7.26-13.73-4.09-1.52.77-2.6,1.49-3.3,2.06l9.15,17.99c.82-.24,1.92-.76,3.07-1.34,6.3-3.21,7.94-8.47,4.81-14.62Zm0,0c-2.7-5.4-7.49-7.26-13.73-4.09-1.52.77-2.6,1.49-3.3,2.06l9.15,17.99c.82-.24,1.92-.76,3.07-1.34,6.3-3.21,7.94-8.47,4.81-14.62Zm-47.49,34.91c-3.91-3.25-9.7-4.6-13.22-.36-3.5,4.22-1.36,9.55,2.96,13.13,4.2,3.5,9.86,4.34,13.19.34,3.35-4.04,1.54-9.4-2.93-13.11Zm0,0c-3.91-3.25-9.7-4.6-13.22-.36-3.5,4.22-1.36,9.55,2.96,13.13,4.2,3.5,9.86,4.34,13.19.34,3.35-4.04,1.54-9.4-2.93-13.11Zm0,0c-3.91-3.25-9.7-4.6-13.22-.36-3.5,4.22-1.36,9.55,2.96,13.13,4.2,3.5,9.86,4.34,13.19.34,3.35-4.04,1.54-9.4-2.93-13.11Z"/>
    <g>
      <path class="cls-4" d="m211.89,221.95c0,1.48-1.55,2.59-2.91,3.15-1.36.56-3.07.34-4.27-.31-1.21-.65-1.8-2.35-1.8-3.52s1.93-3.77,3.71-3.77c.81,0,2.49.47,3.25.65.9.22,2.02,2.07,2.02,3.8Z"/>
      <path class="cls-4" d="m202.72,202.79c0,.68-.55,1.24-1.24,1.24s-1.24-.55-1.24-1.24.55-1.24,1.24-1.24,1.24.55,1.24,1.24h0Z"/>
      <path class="cls-4" d="m202.53,201.45c-.29-.23-.65-.36-1.04-.36-.2,0-.39.03-.57.1-.66.23-1.13.86-1.13,1.6,0,.59.3,1.1.75,1.41h.01c.27.19.59.29.94.29.6,0,1.12-.31,1.42-.77.18-.27.28-.59.28-.93,0-.55-.26-1.03-.66-1.34Zm-1.04.57c.42,0,.77.34.77.77s-.35.77-.77.77-.77-.35-.77-.77.34-.77.77-.77Z"/>
      <path class="cls-4" d="m225.81,203.84c0,.68-.61,1.24-1.36,1.24s-1.36-.55-1.36-1.24.61-1.24,1.36-1.24,1.36.55,1.36,1.24h0Z"/>
      <path class="cls-4" d="m224.45,202.15c-1,0-1.82.76-1.82,1.7,0,.37.13.71.35.99.33.43.86.71,1.47.71.29,0,.57-.06.81-.18.6-.27,1.02-.85,1.02-1.52,0-.94-.82-1.7-1.83-1.7Zm0,2.47c-.49,0-.9-.35-.9-.77s.41-.77.9-.77.9.34.9.77-.4.77-.9.77Z"/>
      <path class="cls-4" d="m356.57,279.72c-.04-.67-.05-1.25-.07-1.77-.05-2.17-.09-3.75-1.86-5.05.04-.21.05-.45.03-.73-.05-1-.59-1.93-1.12-2.82-.48-.82-.98-1.68-.98-2.38,0-1.07.16-1.33.38-1.69.39-.64.74-1.33.69-2.76-.01-.54.05-1.32.11-2.07.2-2.35.35-4.21-1.01-5-.42-.25-1.28-.54-2.43.25-.3.2-.61.29-.9.33,1.79-1.54,2.15-3.19,1.57-6.37l-.1-.6c-.45-2.57-.73-2.95-2.99-4.14-.42-.23-.95-.5-1.6-.87-.28-.16-.42-.28-.49-.35.12-.24.5-.67.71-.91.63-.71,1.34-1.51,1.18-2.59-.05-.36-.26-1.02-1.03-1.5-.28-.17-.54-.33-.79-.48-.31-.18-.69-.41-.95-.59.52-.94.51-1.77.4-2.33-.21-1.03-.94-1.95-2.17-2.74-.28-.19-.55-.36-.82-.52-1.32-1.54-1.68-2.41-2.44-4.25l-.39-.96c-.34-.79-.44-1.83-.52-2.67-.12-1.26-.24-2.56-1.45-3-1.19-.42-2.15.54-2.46.85-.63.63-1.11.62-1.88.41.29-.85.47-2.01.02-3.41-.34-1.05-.99-1.49-1.47-1.67-1.24-.45-2.45.29-3.42.89-.12.07-.25.16-.39.24-.8-2.21-3.25-5.75-5.04-6.29-.69-.21-1.39-.06-1.87.41-.77.74-.7,1.87-.44,3.03-.72-.3-1.55-.37-2.26.38-.67.71-2.84,2.98-3.78,3.97-.34,0-.62.01-1.02.05-1.05.09-2.53.36-3.3,1.53-.76,1.16-.32,2.45,0,3.4.08.23.11.4.14.53.26,1.18.77,1.46,2.14,2.22.41.22.84.68,1.09,1.06-.16,0-.35-.02-.59-.06-1.59-.23-2.88-.34-3.65.56-.68.8-.39,1.73-.25,2.18.04.14.12.37.1.46-.33.43-1.32,1.74-.94,3.22.36,1.39,1.7,2.14,2.68,2.58.59.27.76.56,1.06,1.11.38.67.9,1.59,2.24,2.13.33.13.73.38,1.14.67-.25.06-.51.12-.79.18-2.02.45-3.35,1.63-3.48,3.1-.15,1.67,1.13,3.07,3.8,4.19.14.05.22.1.27.14-.12.5-1.04,1.57-1.5,2.11-1.02,1.18-1.98,2.3-1.34,3.55.62,1.21,2.13,1.08,2.63,1.04,1.74-.14,2.25.17,2.37.27.23.2.27.84.31,1.45l.03.45c.05.62-.06,1.19-.19,1.53-.95-.43-1.58.11-1.77.3-.4.42-.72,1.15.07,2.22,2.24,3.04,2.55,6.25.92,9.54-.89,1.8.25,3.35,1.01,4.38,1.05,1.44,1.28,1.86.18,2.95-2.54,2.55-1.33,5.24-.75,6.53.08.19.2.44.24.58-.05.61.03,1.05.1,1.43.08.42.17.89.11,1.95-.06.82-.1,1.04-.13,1.14-.09.45-.08.64.01,1.87.05.72-.07,1.85-.21,3.05-.21,1.93-.45,4.12-.15,6.03.2,1.28.83,1.92,1.33,2.24.75.46,1.57.48,2.3.35-.18.49-.4,1-.59,1.42-.72.19-1.37.91-1.11,2.09.14.62.56,1.09,1.13,1.26.02,0,.04.01.06.01.31.52.67,1.25.86,1.98.19.72.18,1.43.16,2.25-.02,1.24-.04,2.66.68,4.3.36.84.42,1.83.49,2.78.1,1.48.21,3,1.31,4.08.38.61.17,3.45-.43,5.96l-.07.32.06.32c.64,3.23,1.66,8.71,1.66,9.72,0,10.22-1.96,12.87-3.69,15.2-.24.33-.48.65-.7.97l1.89,1.3.02.02.55.38c.21-.29.42-.58.65-.88.13-.18.27-.36.4-.55.02-.03.04-.05.05-.08,1.81-2.51,3.83-6.04,3.83-16.36,0-1.5-1.27-8.02-1.66-9.99.59-2.58,1.23-6.8-.41-8.41-.34-.34-.4-1.25-.47-2.21-.08-1.15-.17-2.45-.73-3.76-.46-1.05-.45-1.98-.43-3.06.02-.91.04-1.94-.26-3.07-.01-.03-.49-1.65-1.32-2.97.85-1.62,1.78-4.15,1.51-5.2-.12-.46-.41-.83-.81-1.06-.75-.42-1.51-.18-2.24.05-.26.08-.75.23-1.04.26,0-.03-.01-.07-.02-.12-.24-1.52-.02-3.49.17-5.24.15-1.34.29-2.6.22-3.6-.05-.65-.07-.91-.06-1.02.05-.27.12-.61.18-1.58.09-1.43-.05-2.16-.15-2.69-.06-.32-.08-.44-.06-.68.09-.71-.2-1.34-.5-2.01-.65-1.46-.84-2.2.14-3.18,2.97-2.96,1.11-5.49.11-6.85-.26-.36-.76-1.03-.73-1.27,1.31-2.64,2.24-6.55-.06-10.85,1.07-.98,1.45-2.84,1.33-4.31l-.03-.41c-.07-1.05-.16-2.5-1.34-3.52-.73-.62-1.71-.96-3.02-1.02,1.08-1.28,2.23-2.81,1.84-4.43-.16-.66-.64-1.57-2.06-2.16-1.24-.52-1.72-.95-1.89-1.15.16-.12.49-.32,1.07-.44,1.48-.33,2.37-.51,2.89-.6l.25.27.95-.38c.98-.38,1.22-1.26,1.02-1.92-.19-.62-.45-.95-1.02-1.05-.84-.81-2.49-2.29-3.98-2.89-.34-.13-.44-.29-.73-.81-.38-.68-.96-1.7-2.45-2.37-.64-.3-.89-.5-.98-.59.03-.1.13-.31.4-.68.56-.74.66-1.47.61-2.08.11.01.23.03.37.05,2.95.43,3.84-.84,4.11-1.64.63-1.87-1.21-4.12-2.75-4.97-.26-.14-.51-.28-.68-.38-.04-.18-.1-.42-.22-.78-.07-.2-.17-.51-.22-.71.16-.06.45-.14.98-.19.46-.04.71-.04,1.2-.04h.83l.44-.46s2.37-2.47,3.64-3.81c.09.06.17.12.24.17.76.57,1.91,1.42,3.05.65.7-.47.88-1.23.81-2.12.57.85,1.06,1.76,1.2,2.38.24,1.13.87,1.61,1.36,1.82,1.19.51,2.33-.19,3.33-.81.16-.1.38-.23.58-.34.08.72-.19,1.25-.44,1.74-.24.47-.63,1.25-.13,2.07.18.3.62.8,1.52.8.09.01.36.09.55.14.91.27,2.46.73,4.08-.19.1.91.26,2,.69,3l.38.93c.54,1.31.95,2.29,1.65,3.37-.33.35-.58.77-.8,1.18-.63,1.19-.17,2.24.57,2.76,1.04.73,2.8.56,3.84-.29,0,.07-.06.2-.15.34-.54.8-.53,1.52-.43,1.97.26,1.18,1.29,1.8,2.49,2.51l-.03.03c-.72.82-1.7,1.94-1.46,3.41.17.97.85,1.79,2.02,2.45.68.39,1.23.68,1.67.91.52.27,1.05.55,1.14.66.08.13.19.75.3,1.35l.1.61c.52,2.85.09,3.15-1.18,4.04-1.5,1.05-1.5,2.51-.87,3.43.83,1.2,2.93,1.78,4.89,1.08-.02.5-.07,1.05-.1,1.47-.07.83-.14,1.69-.12,2.4.02.65-.06.77-.26,1.1-.43.7-.82,1.49-.82,3.26,0,1.52.78,2.84,1.4,3.9.29.5.7,1.18.71,1.46v.03c-.14.21-.4.64-.3,1.23.11.76.61,1.11,1.44,1.7.56.39.63.57.69,2.74.01.54.03,1.15.06,1.85.02.29.02.5.02.64-1,.64-1.21,1.82-1.21,3.55,0,.71-.46,1.91-.91,3.07-.63,1.65-1.35,3.53-1.34,5.32.01.72.01,1.66.01,2.7.01,3.77.01,8.45.19,10.03.17,1.62-.29,4.95-1.27,6.06-.66.75-.76,2.01-.94,4.8-.11,1.89-.31,5.04-.88,5.83-1.22,1.69-1.39,2.7-1.79,5.14-.16,1.01-.37,2.27-.71,4l-.12.59c-.79,4.05-1.46,7.46-3.43,11.45-.01.04-.03.07-.05.11-.42.84-.9,1.72-1.45,2.63-2.51,4.13-6.51,9.03-13.26,15.78l2.12,2.12c.08-.08.17-.17.25-.25,11.26-11.28,15.07-17.65,17.01-23.79.2-.64.38-1.28.54-1.92.02-.03.02-.06.03-.09.46-1.76.81-3.54,1.19-5.46l.11-.59c.35-1.78.56-3.06.73-4.09.38-2.28.45-2.76,1.26-3.87,1-1.39,1.23-3.94,1.45-7.4.06-1.13.16-2.65.3-3.15,1.87-2.28,2.04-6.8,1.89-8.23-.16-1.42-.17-6.41-.17-9.7-.01-1.06-.01-2-.01-2.72-.01-1.22.58-2.75,1.14-4.22.57-1.48,1.11-2.88,1.11-4.15,0-.6.04-.95.07-1.14,1.14-.66,1.18-1.94,1.12-3.21Z"/>
      <path class="cls-4" d="m328.45,363.6l.1.1c.08-.08.17-.17.25-.25-.11.05-.23.09-.35.15Z"/>
      <path class="cls-4" d="m138.57,198.56c-.34.66-.66,1.32-.97,1.99l1.06-1.94-.09-.05Z"/>
      <path class="cls-4" d="m178.83,150.9c-1.06.77-2.1,1.56-3.13,2.36l.21.08,2.99-2.41-.07-.03Z"/>
      <path class="cls-4" d="m244.9,309.88l-.9,2.83c-.15-.05-.3-.1-.45-.15-.08-.02-.16-.05-.24-.08-.83-.28-1.76-.62-2.76-1.02-3.34-1.33-7.39-3.24-10.75-5.33-3-1.86-4.67-4.64-6.29-7.32-1.06-1.77-2.06-3.43-3.39-4.75-3.32-3.32-10.74-12.45-13.67-18.84-2.84-6.19-6.06-16.84-7.04-22.23l2.92-.53c.95,5.22,4.07,15.53,6.82,21.52,2.55,5.56,9.45,14.36,13.07,17.98,1.58,1.58,2.73,3.48,3.83,5.31,1.51,2.5,2.92,4.86,5.32,6.34,3.83,2.38,8.61,4.52,12.04,5.76.53.19,1.03.36,1.49.51Z"/>
      <path class="cls-4" d="m235.46,211.53c-1.31.27-2.44.62-3.55.96-1.52.47-3.1.96-5.01,1.17-3.45.37-3.48.92-3.54,2.25-.02.41-.04.88-.13,1.39-.07.34-.13.75-.21,1.2-.35,2.1-.83,4.98-1.62,6.67-.29.63-.93,1.6-1.78,2.56-.31.36-.65.72-1.01,1.04-.16.16-.33.31-.5.45-1.09.91-2.32,1.59-3.52,1.59-.19,0-.39-.02-.58-.06-.88-.17-1.74-.4-2.57-.61-.34-.09-.67-.18-.99-.26-.98-.24-1.87-.43-2.56-.43-.2,0-.43.02-.67.04-.18.02-.36.04-.55.07-1.54.18-3.65.44-5.19-1.33-.7-.81-1.2-1.56-1.56-2.3-.79-1.64-.88-3.19-.88-5.01,0-1.29.2-2.73.57-4.26.24-1,.55-2.04.94-3.08.42-1.16.92-2.33,1.5-3.49l.35-.69c1.17-2.34,1.37-2.71,1.91-4.34.02-.06.04-.13.06-.2l.08-.25c.26-.78.74-2.21.9-3.55.1-.81.09-1.58-.15-2.16-.75-1.86-1.31-1.86-3.02-1.85-.28,0-.56,0-.86-.01l.09-2.96h.76c1.92-.01,4.28-.01,5.78,3.7,1.05,2.57-.08,5.95-.68,7.77l-.08.24c-.66,2-.88,2.45-2.14,4.95l-.34.68c-1.69,3.38-2.7,6.93-2.7,9.5,0,2.36.16,3.59,1.71,5.36.46.52,1.17.5,2.59.33.51-.06,1.05-.13,1.58-.13,1.31,0,2.76.38,4.3.78.79.21,1.61.42,2.4.58.77.08,3.3-2.18,4.12-3.93.62-1.32,1.08-4.07,1.38-5.9.08-.47.15-.9.21-1.25.06-.3.08-.64.09-.99.14-2.8,1.19-4.53,6.19-5.07,1.62-.17,3-.6,4.46-1.05,1.17-.36,2.38-.74,3.83-1.03l.59,2.91Z"/>
      <path class="cls-4" d="m205.35,201.06c-.9-.93-2.48-1.73-4.48-1.73-.73,0-1.65.32-2.8.99-.53.3-.84.47-1.05.58-.57.3-.64.36-1.21.94l1.31,1.31c.13-.12.22-.21.29-.28.02.49.16.89.29,1.17.67,1.4,2.29,2.15,3.48,2.15.78,0,2.06-.46,3.13-1.13,1.04-.65,1.88-1.5,1.88-2.33,0-.51-.3-1.12-.84-1.67Zm-2.44,2.66c-.62.34-1.3.61-1.73.61-.19,0-.41-.04-.63-.13h-.01c-.48-.17-.95-.52-1.16-.96-.23-.49-.11-1.06.36-1.7.66-.31,1-.35,1.13-.35h.05c.63,0,1.16.11,1.61.26,1.07.36,1.65.99,1.78,1.23-.18.27-.76.69-1.4,1.04Z"/>
      <path class="cls-4" d="m228.93,200.96c-1.16-.61-2.4-.96-3.49-.96-2,0-4.53,1.2-5.27,3.42-.18.54-.05,1.15.37,1.74.75,1.04,2.5,2.1,4.4,2.1,1.44,0,3.55-1.07,4.25-3.89.15.13.29.25.42.39l1.32-1.32c-.57-.57-1.25-1.07-2-1.48Zm-3.67,4.4c-.11.02-.22.03-.32.03-.74,0-1.44-.25-1.96-.56-.56-.31-.93-.69-1.02-.9.53-1.41,2.38-2.06,3.48-2.06.62,0,1.35.17,2.06.47-.29,2.1-1.44,2.86-2.24,3.02Z"/>
      <path class="cls-4" d="m218.78,227.96c0,.25-.06.52-.17.81-.15.46-.44.94-.79,1.41-.76,1.02-1.84,1.94-2.71,2.24-1.26.45-2.15.57-2.9.57-.43,0-.81-.04-1.19-.08-.38-.04-.74-.08-1.18-.08-.96,0-1.6-.13-2.22-.25-.64-.13-1.25-.25-2.37-.25-4.1,0-4.8-2.76-5.06-3.8l-.04-.18c-.26-.95-.24-1.66-.23-2.35v-.43h2.97v.49c-.01.59-.02.98.12,1.52l.06.22c.24.94.39,1.56,2.18,1.56.82,0,1.45.06,1.97.13.38.06.7.12.99.18.54.11.97.19,1.63.19.22,0,.42.01.61.02.33.02.61.05.88.08.86.09,1.43.15,2.78-.34.51-.17,1.57-1.38,1.72-1.85,0,0-.02.07-.02.19h2.97Z"/>
      <path class="cls-4" d="m243.55,312.55c.01,2.14-.21,3.91-.39,5.4-.03.25-.06.49-.09.72-.09.7-.15,1.33-.17,1.94-.09,2.39-.39,4.19-.69,5.94-.32,1.83-.61,3.57-.61,5.87,0,2.44-.3,5.44-.58,8.34-.28,2.78-.54,5.4-.54,7.41,0,2.29-.35,5.43-.69,8.47-.31,2.78-.61,5.4-.61,7.11h-2.96c0-1.88.3-4.58.62-7.44.33-2.96.68-6.01.68-8.14s.26-4.85.54-7.7c.28-2.83.57-5.76.57-8.05,0-2.56.33-4.5.65-6.37.28-1.65.57-3.35.65-5.55.03-.94.15-1.9.28-2.92.21-1.73.46-3.68.34-6.13,0-.19,0-.38-.03-.58l2.85-.2h.11c.05.66.07,1.29.07,1.88Z"/>
      <path class="cls-4" d="m228.24,352.98c-.01.74-.01,1.6-.01,2.61,0,4.84-.85,8.67-1.35,10.95-.15.67-.32,1.44-.32,1.66,0,.59-.24,1.12-.68,1.48-.78.64-1.74.44-2.66.26-.57-.12-1.27-.26-1.66-.15-2.04.61-3.2,1.32-3.45,2.13l-1.15-.35s-.04-.02-.06-.02l-1.63-.5s.01-.05.02-.07c.78-2.4,3.47-3.46,5.43-4.04,1.06-.31,2.18-.1,3.02.07.06-.31.14-.68.24-1.11.48-2.17,1.28-5.79,1.28-10.31,0-1.02,0-1.88.01-2.63.01-4.11.02-4.75-.73-8.97-.68-3.86-.46-5.86-.24-7.79.11-.96.22-1.86.22-3.04,0-3.45-.16-7.66-1.29-14.98-.61-3.95-.7-5.28-.77-6.45-.07-.96-.13-1.87-.5-4.27l2.94-.45c.39,2.52.45,3.49.52,4.52.08,1.17.16,2.37.75,6.2,1.16,7.51,1.31,11.86,1.31,15.43,0,1.34-.11,2.38-.23,3.38-.2,1.8-.39,3.5.21,6.93.8,4.49.79,5.26.78,9.51Z"/>
      <path class="cls-4" d="m246.18,314.89c-.13,3.21-.25,6.25-.25,9.01,0,6.07-.63,13.35-1.14,19.19-.32,3.66-.59,6.82-.59,8.43,0,3.65-.18,6.47-.3,8.34-.06.87-.1,1.51-.1,1.92,0,1.05.07,2.07.13,3.05.19,2.81.35,5.23-1.26,6.74-1.04.97-2.6,1.3-4.8,1.01-3.65-.5-4.28.65-4.76,3.22v.02s0,.02,0,.03l-2.92-.54s.01-.06.02-.09h0c.61-3.24,2.07-6.39,8.07-5.59,1.61.22,2.18-.05,2.37-.23.58-.55.45-2.49.33-4.38-.06-.98-.14-2.09-.14-3.24,0-.47.05-1.16.11-2.11.11-1.83.29-4.59.29-8.15,0-1.74.27-4.8.6-8.68.51-5.79,1.14-13,1.14-18.94,0-1.64.04-3.41.1-5.22.04-1.3.1-2.61.15-3.91.03-.76.06-1.52.09-2.29.02-.6.04-1.2.06-1.8.01-.44.03-.88.04-1.31.11-4.09.1-7.96-.31-10.84-.66-4.65-1.83-5.67-3.6-7.2-.47-.4-1-.86-1.55-1.41l-.59-.59c-2.16-2.14-2.43-2.46-4.68-6.61l2.61-1.42c2.11,3.89,2.23,4,4.16,5.92l.6.6c.47.47.94.88,1.39,1.27,2.03,1.75,3.78,3.27,4.6,9.02.63,4.4.38,10.69.14,16.78Z"/>
      <path class="cls-4" d="m270,288.95c-.73,3.91-.91,5.41-1.08,6.85-.28,2.26-.51,4.21-2.66,14.13-1.68,7.81-2.57,12.68-3.29,16.6-.78,4.29-1.39,7.68-2.66,12.74-.67,2.68-1.21,4.83-1.69,6.71-1.23,4.91-1.98,7.87-3.32,13.48-.96,4.02-1.44,5.14-1.71,5.74-.03.07-.06.13-.08.19-.02.13-.02.71-.02,1.51h-2.97c0-1.84,0-2.07.35-2.89.21-.48.65-1.48,1.54-5.24,1.35-5.63,2.09-8.6,3.33-13.52.48-1.87,1.02-4.02,1.69-6.7,1.24-4.97,1.85-8.32,2.62-12.55.72-3.94,1.61-8.84,3.31-16.7,2.12-9.78,2.35-11.67,2.61-13.85.17-1.43.36-3.04,1.12-7.05l2.91.55Z"/>
      <path class="cls-4" d="m316.06,327.69l-2.96.21c-.41-5.95-1.55-9.02-5.23-16.5-2.32-4.7-5.97-7.87-10.27-8.95-3.13-.78-6.24-.3-8.52,1.34-5.47,3.92-9.6,13.45-9.6,22.15,0,5.61-.75,14.65-1.36,21.92-.36,4.4-.68,8.21-.68,9.59,0,2.21-.46,5.12-.86,7.68-.32,2.04-.63,3.96-.63,5.05,0,.47-.18.91-.53,1.24-.73.71-1.83.67-3.66.61-2.05-.08-5.17-.18-6.41,1.06-1.29,1.28-1.18,1.61-.87,2.58.17.52.37,1.16.4,1.96h0c.01.08.01.16.01.24h-2.96v-.07c-.01-.42-.14-.79-.28-1.22-.51-1.59-.77-3.22,1.6-5.59,2.16-2.16,5.89-2.03,8.62-1.93.36.01.8.03,1.17.03.1-1.21.34-2.73.6-4.42.39-2.46.83-5.25.83-7.22,0-1.5.31-5.18.7-9.84.6-7.21,1.34-16.19,1.34-21.67,0-9.73,4.56-20.06,10.84-24.56,2.99-2.15,6.99-2.81,10.97-1.81,5.17,1.29,9.5,5.02,12.21,10.52,3.83,7.75,5.09,11.2,5.53,17.6Z"/>
      <path class="cls-4" d="m295.41,329.69c-.38,1.96-.84,2.98-1.28,3.97-.44.98-.85,1.9-1.21,3.95-1.72,9.98-3.41,27.07-3.41,31.32h-2.97c0-4.35,1.71-21.72,3.46-31.83.42-2.42.95-3.6,1.42-4.65.41-.91.76-1.7,1.07-3.32l2.92.56Z"/>
      <path class="cls-4" d="m201.22,216.4l-1.61.27-1.32.22c-.74-4.53-3.1-7.62-3.12-7.65l2.34-1.82c.1.11,1.9,2.46,3.04,6.17.27.87.5,1.81.67,2.81Z"/>
      <path class="cls-4" d="m233.57,224.69c-.78.42-1.74,1.15-2.75,1.92-1.02.78-2.17,1.66-3.37,2.38-1.91,1.15-4.91,1.73-7.27,1.73-.95,0-1.8-.1-2.43-.29l.07-.24.29-.96.38-1.26.11-.38c.26.08.61.13,1.02.15,1.77.1,4.67-.32,6.3-1.3,1.06-.63,2.1-1.42,3.1-2.19,1.11-.85,2.16-1.65,3.17-2.19l1.38,2.63Z"/>
      <path class="cls-4" d="m201.05,234.14c0,1.27-.49,1.86-1.03,2.3-.14.11-.51.42-.51,3.04h-2.97c0-3.31.56-4.47,1.54-5.29,0-.02.01-.03.01-.05,0-1.22-.79-3.28-1.36-4.78-.21-.56-.4-1.06-.54-1.49-.16-.47-.38-1.1-.64-1.83-.66-1.89-1.57-4.49-2.19-6.65l2.86-.82c.59,2.08,1.48,4.63,2.14,6.49.26.75.49,1.39.65,1.87.13.39.31.86.5,1.37.69,1.82,1.54,4.08,1.54,5.84Z"/>
      <path class="cls-4" d="m189.01,166.15c-.08-.02-.18-.02-.27-.01-.01.2.05.73.56,1.79,1.44,2.97,2.49,7.16,3.26,10.23.27,1.09.51,2.04.69,2.6.74,2.35,2.04,4.61,2.87,5.43l-2.1,2.11c-1.28-1.27-2.79-4.07-3.61-6.65-.2-.65-.44-1.58-.73-2.77-.7-2.77-1.75-6.97-3.05-9.66-1.06-2.19-1.13-3.87-.22-5,.89-1.09,2.35-1.19,3.32-.95,2.23.56,6.59,4.73,8.36,6.5,2.26,2.26,5.64,11,5.64,13.82h-2.97c0-2.02-3.13-10.09-4.77-11.72-2.98-2.97-6.04-5.49-6.98-5.72Z"/>
      <path class="cls-4" d="m244.72,180.09c-.1.1-.13.13-.13.67-.01,1.33-.25,2.84-2.91,3.88l-1.08-2.77c1.01-.4,1.01-.51,1.02-1.13,0-.66.01-1.76,1-2.75.66-.74.53-4.88.46-6.87-.02-.84-.05-1.64-.05-2.33,0-1.08-.18-1.78-.36-2.2-1.16,1.3-3.34,4.05-4.58,6.4-.42.81-.87,1.79-1.34,2.82-1.22,2.68-2.61,5.72-4.41,7.51l-2.1-2.1c1.42-1.41,2.69-4.19,3.81-6.65.49-1.07.95-2.07,1.41-2.96,1.72-3.26,4.76-6.81,5.61-7.66.69-.68,1.66-.88,2.53-.52,1.48.62,2.4,2.67,2.4,5.36,0,.66.03,1.43.05,2.24.14,4.53.13,7.61-1.33,9.06Z"/>
      <path class="cls-4" d="m227,193.89l-.06,2.97c-2.73-.07-3.63-.1-5.07.71-.6.33-1.68,1.77-3.43,6.75l-2.8-.98c1.29-3.68,2.76-7.24,4.78-8.36,2.15-1.21,3.72-1.16,6.58-1.09Z"/>
      <path class="cls-4" d="m194.85,212.26l-2.62,1.4c-1.2-2.25-2.06-6.08-2.46-8.92-.48-3.42.16-6.85,1.73-9.19l2.47,1.65c-1.16,1.72-1.64,4.45-1.26,7.12.46,3.25,1.3,6.37,2.14,7.94Z"/>
      <path class="cls-4" d="m321.24,315.92c-.5-1.6-1.03-3.33-1.59-5.12-1.08-3.52-2.2-7.16-3.35-10.6-1.78-5.32-5.82-15.33-7.39-19.08-1.73-4.09-7.38-14.99-9.9-18.51-2.33-3.27-7.33-9.03-11.14-11.61-2.42-1.64-6.19-3.8-9.21-5.54-1.41-.81-2.69-1.54-3.66-2.12-1.46-.88-3.27-1.83-5.01-2.75-1.95-1.04-3.97-2.11-5.39-3.01-1.31-.83-2.73-3.13-3.98-5.16-1-1.63-1.95-3.17-2.94-4.16-1.09-1.09-2.62-2.89-3.97-4.48-1.21-1.42-2.36-2.76-3.11-3.52-1.03-1.02-1.94-4.95-1.94-7.33,0-.96.16-2.57.33-4.28.21-2.11.43-4.3.43-5.96,0-1.89-.3-3.29-.54-4.42-.16-.7-.27-1.26-.27-1.71,0-.83-.15-1.88-.31-2.98-.14-1.03-.3-2.09-.3-2.82,0-.78.46-1.66.98-2.67.66-1.26,1.39-2.69,1.61-4.52.41-3.37.21-6.77-.21-10.83-.62-6-1.59-9.9-2.97-11.93-1.6-2.35-4.62-2.35-6.43-2.35-2.5,0-8.12,3.91-10.32,6.72-.45.56-1.14,1.61-2.01,2.94-1.13,1.73-3.19,4.87-4.01,5.61-.6.12-1.09.45-1.57.78-.85.57-1.65,1.12-3.17.77-3.02-.7-6.06-.67-8.07-.66h-.69c-.84,0-1.85-1.1-2.65-1.98-.26-.28-.51-.56-.75-.8-.54-.53-1.93-1.97-3.43-3.52-1.81-1.88-3.77-3.91-4.62-4.76-4.51-4.49-9.32-6.01-12.56-6.49-.29-.04-.56-.06-.81-.06h-.05c-1.24,0-2.05.46-2.55.89-.54.46-.93,1.07-1.19,1.82-.01.02-.01.05-.02.07-.22.67-.33,1.46-.33,2.35,0,.28.01,6.74.78,9.98l.16.66c.65,2.75,2.19,9.19,2.4,12.08.17,2.31,1.17,3.15,2.23,4.03.34.29.69.58,1.02.89.07.18.05.79.04,1.19-.04,1.18-.1,2.8,1.09,3.98l2.1-2.1c-.28-.27-.25-1.07-.22-1.77.03-1.07.08-2.39-.86-3.32-.48-.48-.92-.85-1.27-1.14-.9-.76-1.09-.92-1.17-1.97-.22-3.14-1.74-9.5-2.48-12.56l-.15-.65c-.52-2.16-.7-6.74-.7-9.3,0-.97.19-1.72.51-1.99.19-.17.54-.22,1.03-.15,2.8.42,6.97,1.74,10.9,5.67.84.83,2.79,2.85,4.59,4.71,1.51,1.57,2.92,3.02,3.46,3.56.21.21.43.45.65.7,1.14,1.25,2.7,2.95,4.85,2.95h.72c1.86-.02,4.69-.03,7.37.58,2.78.64,4.49-.52,5.51-1.21.15-.1.36-.24.47-.3,1.22-.08,2.25-1.31,5.92-6.91.77-1.17,1.49-2.27,1.86-2.74,2.1-2.67,6.86-5.55,7.99-5.58,1.72,0,3.31.08,3.97,1.05.74,1.09,1.78,3.81,2.48,10.57.4,3.86.59,7.07.22,10.17-.16,1.3-.74,2.42-1.3,3.5-.65,1.25-1.31,2.54-1.31,4.04,0,.94.16,2.1.32,3.23.14.96.28,1.95.28,2.57,0,.77.16,1.53.33,2.33.23,1.04.48,2.22.48,3.8s-.22,3.72-.42,5.66c-.18,1.79-.34,3.48-.34,4.58,0,2.31.82,7.45,2.81,9.43.67.67,1.77,1.97,2.95,3.35,1.45,1.71,2.96,3.48,4.13,4.65.75.74,1.6,2.14,2.52,3.62,1.48,2.41,3.02,4.91,4.91,6.11,1.51.96,3.59,2.06,5.59,3.12,1.71.9,3.48,1.84,4.88,2.68.98.59,2.28,1.33,3.7,2.15,2.98,1.71,6.7,3.84,9.02,5.42,3.14,2.12,7.84,7.3,10.4,10.88,2.37,3.32,7.93,14.05,9.57,17.93,1.73,4.13,5.66,13.92,7.31,18.87,1.14,3.4,2.26,7.03,3.34,10.54.55,1.79,1.08,3.53,1.59,5.14,1.42,4.47,1.04,13.44.6,15.41-.47,2.13-2.25,14.21-2.25,16.02h2.97c0-1.35,1.65-12.99,2.18-15.37.56-2.51.91-11.99-.67-16.96Z"/>
    </g>
    <path class="cls-1" d="m256,92.69c-90.18,0-163.55,73.23-163.55,163.25,0,40.78,15.06,78.13,39.93,106.78.43.49.86.98,1.3,1.47,29.98,33.72,73.71,55,122.32,55s92.34-21.28,122.32-55c.44-.49.87-.98,1.3-1.47.75-.87,1.49-1.75,2.23-2.64.11-.12.21-.24.3-.36,23.36-28.23,37.4-64.4,37.4-103.78,0-90.02-73.37-163.25-163.55-163.25Zm0,325.57c-89.67,0-162.62-72.82-162.62-162.32,0-59.44,32.17-111.52,80.04-139.8.57-.33,1.13-.66,1.7-.99,1.04-.59,2.08-1.18,3.14-1.75.09-.06.19-.11.29-.16,23.04-12.51,49.43-19.62,77.45-19.62s54.41,7.11,77.45,19.62c.1.05.2.1.29.16.58.31,1.15.63,1.73.95,1.04.59,2.08,1.18,3.11,1.79,47.87,28.28,80.04,80.36,80.04,139.8,0,89.5-72.95,162.32-162.62,162.32Z"/>
  </g>
  <path class="cls-2" d="m321.48,179.74c-.1.1-.13.13-.13.67-.01,1.33-.25,2.84-2.91,3.88l-1.08-2.77c1.01-.4,1.01-.51,1.02-1.13,0-.66.01-1.76,1-2.75.66-.74.53-4.88.46-6.87-.02-.84-.05-1.64-.05-2.33,0-1.08-.18-1.78-.36-2.2-1.16,1.3-3.34,4.05-4.58,6.4-.42.81-.87,1.79-1.34,2.82-1.22,2.68-2.61,5.72-4.41,7.51l-2.1-2.1c1.42-1.41,2.69-4.19,3.81-6.65.49-1.07.95-2.07,1.41-2.96,1.72-3.26,4.76-6.81,5.61-7.66.69-.68,1.66-.88,2.53-.52,1.48.62,2.4,2.67,2.4,5.36,0,.66.03,1.43.05,2.24.14,4.53.13,7.61-1.33,9.06Z"/>
</svg>