<?xml version="1.0" encoding="UTF-8"?>
<svg id="Layer_1" data-name="Layer 1" xmlns="http://www.w3.org/2000/svg" xmlns:xlink="http://www.w3.org/1999/xlink" viewBox="0 0 512 512">
  <defs>
    <style>
      .cls-1 {
        fill: url(#linear-gradient-2);
      }

      .cls-2 {
        font-family: ArialMT, Arial;
        font-size: 19.74px;
      }

      .cls-3 {
        fill: url(#linear-gradient-5);
      }

      .cls-4 {
        fill: url(#linear-gradient-3);
      }

      .cls-5 {
        fill: url(#linear-gradient);
      }

      .cls-6 {
        fill: url(#linear-gradient-4);
      }
    </style>
    <linearGradient id="linear-gradient" x1="288.05" y1="251.86" x2="312.84" y2="247.49" gradientUnits="userSpaceOnUse">
      <stop offset="0" stop-color="#59a746"/>
      <stop offset=".35" stop-color="#5ba845"/>
      <stop offset=".54" stop-color="#63ac44"/>
      <stop offset=".7" stop-color="#71b342"/>
      <stop offset=".84" stop-color="#84bd3f"/>
      <stop offset=".96" stop-color="#9eca3b"/>
      <stop offset="1" stop-color="#a8cf3a"/>
    </linearGradient>
    <linearGradient id="linear-gradient-2" x1="310.69" y1="241.99" x2="364.17" y2="227.66" gradientUnits="userSpaceOnUse">
      <stop offset="0" stop-color="#59a746"/>
      <stop offset=".29" stop-color="#59a746"/>
      <stop offset=".33" stop-color="#59a746"/>
      <stop offset=".44" stop-color="#5da945"/>
      <stop offset=".55" stop-color="#6baf43"/>
      <stop offset=".67" stop-color="#81b941"/>
      <stop offset=".79" stop-color="#a1c73d"/>
      <stop offset=".92" stop-color="#c9d838"/>
      <stop offset="1" stop-color="#e7e635"/>
    </linearGradient>
    <linearGradient id="linear-gradient-3" x1="323.12" y1="253.1" x2="362.48" y2="253.1" gradientUnits="userSpaceOnUse">
      <stop offset="0" stop-color="#59a746"/>
      <stop offset=".14" stop-color="#62ab44"/>
      <stop offset=".37" stop-color="#7db741"/>
      <stop offset=".67" stop-color="#a8ca3d"/>
      <stop offset="1" stop-color="#dfe337"/>
    </linearGradient>
    <linearGradient id="linear-gradient-4" x1="122.61" y1="305.85" x2="374.27" y2="305.85" gradientUnits="userSpaceOnUse">
      <stop offset="0" stop-color="#59a746"/>
      <stop offset=".76" stop-color="#59a545"/>
      <stop offset=".77" stop-color="#59a545"/>
      <stop offset=".84" stop-color="#5ba644"/>
      <stop offset=".88" stop-color="#63a943"/>
      <stop offset=".91" stop-color="#71b042"/>
      <stop offset=".94" stop-color="#85b940"/>
      <stop offset=".96" stop-color="#9ec53d"/>
      <stop offset=".98" stop-color="#bdd33a"/>
      <stop offset="1" stop-color="#dfe337"/>
    </linearGradient>
    <linearGradient id="linear-gradient-5" x1="126.51" y1="310.3" x2="298.72" y2="310.3" gradientUnits="userSpaceOnUse">
      <stop offset="0" stop-color="#cedd32"/>
      <stop offset=".06" stop-color="#b2d036"/>
      <stop offset=".13" stop-color="#96c33b"/>
      <stop offset=".22" stop-color="#7fb83f"/>
      <stop offset=".32" stop-color="#6eb042"/>
      <stop offset=".44" stop-color="#62ab44"/>
      <stop offset=".6" stop-color="#5aa745"/>
      <stop offset="1" stop-color="#59a746"/>
    </linearGradient>
  </defs>
  <path class="cls-5" d="m314.16,254.93s-3.25-10.97-9.75-18.68c-6.5-7.72-21.12-11.37-21.12-11.37,0,0,2.84,4.47,6.5,13.4,4.25,10.4,5.28,13.81,14.62,21.12,9.34,7.31,8.94,15.84,8.94,15.84,0,0,1.62-3.25-.81-12.59-3.38-12.96-11.37-17.47-11.37-17.47l4.87,2.03c4.87,2.03,8.12,7.72,8.12,7.72Z"/>
  <path class="cls-1" d="m322.28,199.69c-13.4,19.09-8.53,41.84-8.53,41.84,0,0,0-.81.41-4.06.77-6.19,4.53-11.9,8.24-16.76,2.71-3.56,5.24-6.99,7.32-10.98.48-.92,2.48-3.67,2.32-4.76.62,4.05-.73,8.71-1.96,12.49-2.37,7.33-7.87,12.66-11.26,19.43-2.38,4.76-3.29,10.13-3.43,15.41-.26,10,2.97,19.76,8.12,28.22,2.17,3.56,4.92,6.83,7.59,10.03,1.08,1.3,2.3,2.48,3.38,3.78-.58-.7-1.14-1.41-1.69-2.13-2.74-3.54-5.33-7.22-7.61-11.08-2.48-4.2-4.63-8.42-4.6-13.44.04-8.46,5.17-16.08,9.73-22.83,3.88-5.75,8.54-10.99,11.55-17.28,3.07-6.4,4.44-13.43,4.23-20.51-.22-7.57-1.72-15.17-.36-22.71.51-2.84,1.34-5.62,2.4-8.32.23-.59.77-2.81,1.38-3.15,0,0-13.81,7.72-27.21,26.81Z"/>
  <path class="cls-4" d="m345.84,224.46s-.28,7.84-7.72,15.43c-18.68,19.09-14.62,28.84-14.62,28.84,0,0,1.78-5.13,4.47-8.12,3.66-4.06,8.12-4.87,8.12-4.87,0,0-6.61,4.86-8.12,15.43-1.22,8.53.41,10.56.41,10.56,0,0,.41-8.94,7.31-13,6.9-4.06,12.19-2.03,17.06-2.03s5.69-4.47,5.69-5.28,0-.81.81-1.62l.58-.58c.12-.12.1-.31-.04-.41-.54-.35-1.66-1.14-1.35-1.45.29-.29,1.18-.98,1.68-1.36.19-.14.2-.41.04-.58-.42-.43-.87-.9-1.13-1.41s-.3-.56.15-.88c.6-.43,1.68-.57,2.38-.92.28-.14.56-.3.74-.55.41-.58.12-1.4-.28-1.99-1.45-2.15-3.96-3.41-4.93-5.92-.58-1.5-.62-3.11-.97-4.67-.35-1.57-1.03-3.04-1.75-4.47-1.82-3.58-4.5-6.94-7.61-9.49-.09-.07-.9-.57-.9-.67Z"/>
  <path class="cls-6" d="m355.82,307.8c-4.27-10.44-13.64-16.76-24.4-18.93,4.86-2.24,10.05-4.54,15.36-3.85,6.19.8,11.24,5.62,14.17,11.13,2.2,4.14,3.42,8.69,4.54,13.21,1.04,4.21,2.78,7.53,5.52,10.96l3.25,4.06c-10.91,2.18-28.63,5.3-37.54-3.06-4.87-4.57-6.7-11.73-11.7-16.16-4.14-3.67-9.92-4.95-15.46-5.06-14.91-.3-29.67,2.96-44.41,4.69-16.95,1.99-33.94,3.69-50.98,4.68-6.47.38-12.95.65-19.44.8-15.13.35-30.32.03-45.28-2.21-7.66-1.15-15.41-2.86-22.03-6.88-2.59-1.57-5.24-4.11-4.76-7.1.44-2.81,3.37-4.41,5.95-5.59-2.93,1.09-3.43,5.4-1.65,7.97,1.78,2.57,4.94,3.76,7.95,4.62,15.36,4.4,32.11,4.8,48.03,4.65,33.9-.31,67.95-2.91,101.67-6.2,11.4-1.11,22.8-2.23,34.2-3.34,5.64-.55,11.4-1.1,16.93.17,7.59,1.73,13.97,6.68,20.09,11.5,0-.02-.01-.03-.02-.05Z"/>
  <path class="cls-3" d="m128.94,302.45c-1.62,1.62-2.59,4.63-2.41,6.36.19,1.79,1.25,3.4,2.62,4.57,1.37,1.17,3.02,1.94,4.7,2.6,7.42,2.89,15.58,3.79,23.46,4.4,7.84.6,15.71.74,23.57.53,5.44-.15,10.88-.47,16.29-.99,59.71-5.69,101.54-20.31,101.54-20.31,0,0-59.17,14.41-96.26,17.06-39.8,2.84-62.1-2.37-64.09-2.88-1.71-.44-3.49-.86-5.04-1.73-1.01-.57-1.92-1.33-2.57-2.3-.66-.99-1.14-2.09-1.5-3.22-.37-1.14-.31-2.07-.31-4.1Z"/>
  <g>
    <path d="m171.45,270.84c-1.53-2.27-3.9-4.15-7.11-5.63-2.21-1-6.28-2.18-12.21-3.52-5.93-1.34-9.61-2.65-11.01-3.93-1.43-1.28-2.14-2.91-2.14-4.89,0-2.28,1.01-4.23,3.03-5.85,2.02-1.62,5.24-2.43,9.65-2.43s7.45.89,9.61,2.67c2.17,1.78,3.44,4.42,3.82,7.9l7-.53c-.13-3.24-1.03-6.13-2.71-8.69-1.68-2.56-4.08-4.5-7.21-5.82-3.12-1.32-6.73-1.98-10.82-1.98-3.72,0-7.09.63-10.13,1.88-3.03,1.26-5.35,3.09-6.93,5.51-1.58,2.42-2.37,5.02-2.37,7.81,0,2.53.65,4.83,1.94,6.87,1.29,2.05,3.25,3.76,5.89,5.14,2.03,1.08,5.58,2.23,10.65,3.44,5.07,1.21,8.34,2.11,9.83,2.69,2.31.88,3.96,1.97,4.97,3.26,1,1.29,1.5,2.8,1.5,4.53s-.52,3.28-1.56,4.72c-1.04,1.44-2.63,2.58-4.76,3.41-2.14.83-4.59,1.24-7.38,1.24-3.14,0-5.96-.54-8.46-1.64-2.51-1.09-4.36-2.52-5.55-4.29-1.19-1.77-1.95-4.03-2.28-6.79l-6.88.6c.1,3.69,1.11,6.99,3.03,9.91,1.92,2.92,4.57,5.11,7.94,6.57,3.37,1.46,7.56,2.19,12.55,2.19,3.94,0,7.48-.72,10.63-2.16,3.15-1.44,5.56-3.46,7.24-6.06,1.68-2.6,2.52-5.36,2.52-8.3s-.76-5.58-2.29-7.85Z"/>
    <path d="m204.87,261.45l23.15-22.36h-9.9l-27.4,27.36v-27.36h-7.3v55.17h7.3v-19.12l9.03-8.81,19.65,27.92h9.63l-24.16-32.82Z"/>
    <path d="m236.37,239.09v55.17h7.3v-55.17h-7.3Z"/>
    <path d="m292.94,251.49v30.92l-28.98-43.32h-7.49v55.17h7v-43.35l28.98,43.35h7.49v-34.3c-3.41-2.99-5.36-5.46-7-8.47Z"/>
  </g>
  <text class="cls-2" transform="translate(337.42 282.28)"><tspan x="0" y="0">ZM</tspan></text>
</svg>