<?xml version="1.0" encoding="UTF-8"?>
<svg id="Layer_1" data-name="Layer 1" xmlns="http://www.w3.org/2000/svg" viewBox="0 0 512 512">
  <defs>
    <style>
      .cls-1 {
        fill: #a16c29;
      }

      .cls-2 {
        fill: #262262;
      }

      .cls-3 {
        fill: #231f20;
      }
    </style>
  </defs>
  <path class="cls-3" d="m230.71,275.12v-1.37l34.35-50.05h-16.56c-3.56,0-5.88.14-6.97.43-1.09.29-2.33,1.33-3.75,3.12-1.41,1.79-2.49,4.09-3.22,6.89h-1.73l1.73-12.25h39.57v1.81l-33.99,49.62h16.25c5.52,0,9.03-.43,10.52-1.3,1.49-.86,2.85-2.35,4.06-4.48,1.22-2.12,2.14-4.19,2.77-6.2h1.81l-1.81,13.78h-43.02Z"/>
  <path class="cls-3" d="m281.43,223.7v-1.81h24.34v1.81h-1.14c-2.62,0-4.33.22-5.14.65-.81.43-1.36,1.24-1.63,2.42-.27,1.18-.41,3.98-.41,8.4v26.1c0,4.19.1,6.93.29,8.22.2,1.3.72,2.26,1.57,2.89.85.63,2.48.94,4.89.94h1.57v1.81h-24.34v-1.81h1.57c2.28,0,3.85-.29,4.73-.86.88-.58,1.43-1.47,1.67-2.69.24-1.22.35-4.05.35-8.5v-26.1c0-4.24-.12-6.97-.35-8.21-.24-1.23-.76-2.08-1.57-2.55s-2.56-.71-5.26-.71h-1.14Z"/>
  <path class="cls-3" d="m311.65,234.69h-1.81l.27-12.8h51.66l.27,12.8h-1.69c-.6-3.51-1.43-6.04-2.47-7.6-1.05-1.56-2.17-2.51-3.38-2.87-1.2-.35-3.26-.53-6.16-.53h-8.56v37.57c0,4.16.1,6.9.29,8.2.2,1.31.73,2.28,1.59,2.91.86.63,2.49.94,4.87.94h2.59v1.81h-26.53v-1.81h2.75c2.28,0,3.85-.29,4.73-.86.88-.57,1.44-1.47,1.69-2.69.25-1.22.37-4.05.37-8.5v-37.57h-7.89c-3.43,0-5.73.16-6.91.49-1.18.33-2.28,1.31-3.32,2.96-1.03,1.65-1.83,4.16-2.37,7.54"/>
  <path class="cls-3" d="m410.02,248.43h-27.79v12.84c0,4.19.11,6.93.31,8.22.21,1.3.74,2.26,1.59,2.88.85.63,2.47.94,4.85.94h1.37v1.81h-23.94v-1.81h1.37c2.28,0,3.85-.29,4.73-.86.88-.57,1.44-1.47,1.69-2.69.25-1.22.37-4.05.37-8.5v-26.1c0-4.24-.12-6.97-.37-8.2-.25-1.23-.77-2.08-1.57-2.55-.8-.47-2.55-.71-5.24-.71h-.98v-1.81h23.94v1.81h-.98c-2.59,0-4.29.22-5.1.65-.81.43-1.35,1.24-1.63,2.41-.27,1.18-.41,3.98-.41,8.4v10.56h27.79v-10.56c0-4.24-.12-6.97-.35-8.2-.24-1.23-.75-2.08-1.55-2.55-.8-.47-2.54-.71-5.24-.71h-1.41v-1.81h24.22v1.81h-.79c-2.62,0-4.33.22-5.14.65-.81.43-1.35,1.24-1.63,2.41-.28,1.18-.41,3.98-.41,8.4v26.1c0,4.19.1,6.93.29,8.22s.73,2.26,1.59,2.88c.86.63,2.48.94,4.87.94h1.22v1.81h-24.22v-1.81h1.84c2.25,0,3.81-.29,4.69-.86.88-.57,1.43-1.47,1.67-2.69.24-1.22.35-4.05.35-8.5v-12.84Z"/>
  <path class="cls-3" d="m433.03,274.57v-17.11h1.96c2.22,11.15,7.5,16.72,15.82,16.72,3.74,0,6.64-1.07,8.69-3.2,2.05-2.13,3.08-4.52,3.08-7.17s-.9-4.91-2.71-6.71c-1.81-1.78-5.1-3.69-9.89-5.73-4.27-1.83-7.49-3.43-9.66-4.81-2.17-1.37-3.87-3.16-5.08-5.36-1.22-2.2-1.82-4.54-1.82-7.03,0-3.79,1.31-6.95,3.95-9.48,2.63-2.53,5.96-3.79,9.99-3.79,2.25,0,4.37.37,6.36,1.1,1.99.73,4.03,2.25,6.12,4.55,1.2-1.44,1.88-3,2.04-4.67h1.73v13.93h-1.73c-1-4.06-2.75-7.25-5.28-9.58-2.53-2.33-5.45-3.49-8.77-3.49s-5.49.86-6.97,2.57c-1.48,1.71-2.22,3.59-2.22,5.63,0,2.46.93,4.54,2.79,6.24,1.83,1.73,5.14,3.66,9.93,5.81,4.58,2.04,7.91,3.68,9.99,4.93,2.08,1.24,3.75,2.96,5.01,5.16,1.26,2.2,1.88,4.74,1.88,7.62,0,4.55-1.52,8.26-4.55,11.11-3.04,2.85-7.09,4.28-12.17,4.28-5.84,0-10.7-2.24-14.6-6.71-.86,1.23-1.5,2.96-1.92,5.18h-1.96Z"/>
  <path class="cls-1" d="m218.37,193.36c-30.49-3.98-57.88-10.88-75.43-36.13-8.79,12.61-20.02,20.67-32.88,26.04-12.86,5.38-27.32,8.11-42.57,10.09l-2.34.31v70.31c0,64.78,77.79,97.65,77.79,97.65,0,0,19.44-8.21,38.89-24.53,19.44-16.32,38.88-40.73,38.88-73.12v-70.31l-2.35-.31Zm-7.42,70.62c0,49.84-53.17,79.56-68.01,86.89-6.38-3.15-19.8-10.41-33-21.57-23.25-19.63-35.04-41.61-35.04-65.32v-61.78c23.7-3.44,49.08-9.64,68.03-29.54,18.94,19.89,44.32,26.1,68.01,29.54v61.78Z"/>
  <path class="cls-2" d="m180.7,289.7l-1.71,4.13h3.45l-1.74-4.13Zm0,0l-1.71,4.13h3.45l-1.74-4.13Zm-48.26-14.57c-3.86-1.44-7.84-2.29-11.96-2.52-1.92-.11-2-.17-2.01-2.15v-30.55h-1.62v34.13c5.4.41,10.69.81,15.97,1.21-.12-.03-.24-.1-.37-.14m-7.95-6.43c-1.86-.17-2.02-.35-2.03-2.23v-28.6h-1.83v32.35c2.99.57,5.97.94,8.81,1.73,2.88.8,5.65,2.01,8.41,3.02-3.21-3.54-7.99-5.79-13.36-6.28m8.32,6.57c.12.05.23.06.35.03-.12-.01-.23-.02-.35-.03m8.54-29.7c0-.53-.21-1.1-.47-1.57-3.51-6.33-9.37-8.92-16.17-10.24v32.78c6.68.77,12.25,3.51,16.47,8.97.13-.35.17-.43.17-.51.01-9.81.02-19.62-.01-29.43m4.63-4.35c-1.6,1.88-2.45,3.94-2.39,6.59.17,8.64.07,17.29.07,25.94v1.57c4.42-5.33,10.07-8.01,16.68-8.8v-32.72c-5.65.97-10.6,3.04-14.35,7.43m16.59-3.34v1.47c0,8.93-.01,17.85-.01,26.79,0,2.35-.04,2.36-2.35,2.61-5.11.55-9.54,2.55-13.06,6.4,5.39-2.86,11.2-4.17,17.22-4.71v-32.55h-1.8Zm3.99,2.08v1.6c0,9.72-.03,19.43.02,29.15.01,1.39-.48,1.88-1.85,1.93-1.8.09-3.62.25-5.38.63-2.53.55-5.01,1.3-7.81,2.05,5.77-.44,11.17-.85,16.67-1.26v-34.1h-1.64Zm14.14,49.75l-1.71,4.13h3.45l-1.74-4.13Zm0,0l-1.71,4.13h3.45l-1.74-4.13Zm-14.14-49.75v1.6c0,9.72-.03,19.43.02,29.15.01,1.39-.48,1.88-1.85,1.93-1.8.09-3.62.25-5.38.63-2.53.55-5.01,1.3-7.81,2.05,5.77-.44,11.17-.85,16.67-1.26v-34.1h-1.64Zm-2.2-2.08h-1.8v1.47c0,8.93-.01,17.85-.01,26.79,0,2.35-.04,2.36-2.35,2.61-5.11.55-9.54,2.55-13.06,6.4,5.39-2.86,11.2-4.17,17.22-4.71v-32.55Zm-4.03-4.08c-5.65.97-10.6,3.04-14.35,7.43-1.6,1.88-2.45,3.94-2.39,6.59.17,8.64.07,17.29.07,25.94v1.57c4.42-5.33,10.07-8.01,16.68-8.8v-32.72Zm-19.45,10.21c-3.51-6.33-9.37-8.92-16.17-10.24v32.78c6.68.77,12.25,3.51,16.47,8.97.13-.35.17-.43.17-.51.01-9.81.02-19.62-.01-29.43,0-.53-.21-1.1-.47-1.57m-7.73,31.3c-.12-.01-.23-.02-.35-.03.12.05.23.06.35.03m-10.7-8.83v-28.6h-1.83v32.35c2.99.57,5.97.94,8.81,1.73,2.88.8,5.65,2.01,8.41,3.02-3.21-3.54-7.99-5.79-13.36-6.28-1.86-.17-2.02-.35-2.03-2.23m-1.98,6.14c-1.92-.11-2-.17-2.01-2.15v-30.55h-1.62v34.13c5.4.41,10.69.81,15.97,1.21-.12-.03-.24-.1-.37-.14-3.86-1.44-7.84-2.29-11.96-2.52m22.47-94.42c-18.65,17.79-42.52,24-64.12,27.37v58.42c0,22.51,11.32,43.48,33.65,62.34,11.71,9.9,23.54,16.63,30.48,20.18,7.52-3.85,23.07-12.66,36.86-25.94,18.08-17.4,27.24-36.43,27.24-56.57v-58.42c-21.6-3.37-45.47-9.58-64.11-27.37m-41.7,28.67c5.13-1.05,10.25-2.1,15.39-3.15,5.68-1.16,11.37-2.3,17.06-3.46,2.61-.54,5.21-1.03,7.81-1.61.6-.14,1.13-.06,1.69.07,2.34.49,4.69.95,7.04,1.43,3.8.77,7.6,1.53,11.4,2.3,4.79.96,9.58,1.93,14.36,2.9,3.15.63,6.29,1.26,9.44,1.9.12.03.23.09.36.13v.1c-.5.1-1,.21-1.51.31-5.13.97-10.25,1.95-15.39,2.93-5.76,1.1-11.53,2.18-17.29,3.27-2.92.55-5.84,1.12-8.76,1.67-.76.15-1.48-.02-2.21-.15-6.78-1.3-13.56-2.62-20.33-3.92-2.65-.5-5.3-1.03-7.95-1.54-.18-.03-.38-.04-.62-.06v1.3c0,.89.02,1.77-.01,2.66,0,.32.11.48.38.64.91.51,1.28,1.58.9,2.56-.16.41-.41.73-.78.95-.27.16-.39.4-.38.71.01.72,0,1.43,0,2.15,0,.3.11.54.36.7.54.36.75.88.75,1.52-.01,5.77-.01,11.56-.01,17.34,0,.07,0,.14-.02.25h-3.65c-.01-.23-.05-.48-.05-.72,0-5.66-.01-11.31-.02-16.97,0-.6.22-1.08.7-1.42.29-.19.41-.46.41-.8-.01-.69-.01-1.39,0-2.08,0-.3-.11-.51-.36-.69-1.25-.86-1.23-2.62.05-3.44.3-.19.4-.4.4-.75-.03-1.3-.02-2.61-.01-3.92,0-.22-.04-.31-.28-.36-3.17-.64-6.35-1.29-9.51-1.94-.45-.09-.89-.2-1.34-.36.67-.15,1.33-.29,1.99-.43m48.1,71.67c-2.03.63-3.93,1.66-5.92,2.41-.53.2-1.31.27-1.77.03-4.61-2.56-9.63-3.67-14.79-4.11-3.47-.29-6.97-.23-10.46-.28-1.65-.03-1.82-.13-1.82-1.85,0-11.72,0-23.44.01-35.17,0-1.7.15-1.84,1.82-1.85h1.91c-.05-3.3,2.61-1.49,4.14-2.27,0-.69-.02-1.47,0-2.24.03-1.47.36-1.81,1.92-1.59,7.23,1.05,13.46,3.87,17.69,10.16.1.15.21.29.4.54.22-.27.44-.49.61-.73,4.27-6.18,10.47-8.96,17.65-9.97,1.5-.2,1.8.15,1.83,1.68.01.74,0,1.48,0,2.12,1.36.95,4.05-1.07,4.08,2.31h1.5q2.29,0,2.29,2.37v21.77c0,4.28.01,8.56.01,12.84-.01,1.8-.15,1.93-1.91,1.88-6.48-.22-12.94.05-19.18,1.97m2.32,6.95v15.23h-2.92l-7.43-10.15v10.15h-3.01v-15.23h2.89l7.44,10.11v-10.11h3.02Zm-18.19,6.11v2.98h-6.22v3.18h8.58v2.95h-11.6v-15.23h11.6v2.93h-8.58v3.18h6.22Zm-16.23-66.93c.38-1.08.74-2.12,1.1-3.15.87-2.48,1.75-4.96,2.6-7.44.09-.25.18-.32.46-.26,4.7.98,9.41,1.95,14.11,2.94,2.07.43,4.14.86,6.21,1.3.65.15,1.26-.08,1.87-.2,6.47-1.35,12.95-2.7,19.43-4.05.09-.02.17-.03.29-.04,1.27,3.62,2.55,7.24,3.83,10.9-.28.11-.55.22-.84.32-5.09,1.79-10.14,3.74-15.06,5.98-3.07,1.4-6.07,2.93-8.85,4.86-.12.08-.22.14-.37.03-2.74-1.93-5.74-3.42-8.77-4.82-4.79-2.22-9.72-4.08-14.68-5.87-.43-.16-.86-.31-1.32-.49m-13.32,74.96c-1.1.76-2.58,1.16-4.42,1.16-2.09,0-3.74-.46-4.88-1.37-1.06-.85-1.63-2.04-1.81-3.58l-.08-.81h3.1l.04.69c.05.7.38,1.21,1.02,1.58.64.38,1.51.55,2.62.55,3.14,0,3.14-1.25,3.14-1.7,0-.33-.11-.54-.37-.72-.42-.29-.93-.51-1.55-.7-.68-.21-1.43-.38-2.23-.56-.85-.18-1.63-.46-2.37-.74-.79-.31-1.47-.75-1.98-1.28-.62-.6-.91-1.41-.91-2.4,0-1.34.51-2.46,1.55-3.3.99-.81,2.46-1.22,4.35-1.22s3.44.46,4.53,1.36c1.01.84,1.59,1.92,1.65,3.25l.05.77h-3.02l-.08-.64c-.07-.51-.31-1.23-1.68-1.65-.41-.13-.95-.18-1.57-.18s-1.14.06-1.55.2c-.37.13-.66.27-.86.44-.17.15-.27.29-.31.46-.07.18-.11.41-.11.66,0,.04,0,.15.18.33.21.2.5.37.86.51.41.17.88.31,1.42.46.56.15,1.14.24,1.74.41.6.17,1.19.31,1.8.51.62.21,1.18.5,1.67.81,1.19.75,1.83,1.85,1.83,3.17,0,1.54-.6,2.75-1.76,3.56m7.8-3.13c.8.93,1.98,1.37,3.58,1.37.85,0,1.54-.18,2.19-.62.62-.42,1.1-.97,1.39-1.69l.18-.46h.02l2.68,1.23c-.51,1.3-1.32,2.38-2.44,3.17-1.23.87-2.7,1.34-4.38,1.34-2.23,0-4.07-.74-5.43-2.29-1.3-1.47-1.96-3.3-1.96-5.5s.66-4.03,1.96-5.47c1.38-1.53,3.21-2.3,5.43-2.3,1.68,0,3.13.48,4.38,1.35,1.12.76,1.92,1.84,2.44,3.16l-2.68,1.22h-.02l-.18-.44c-.31-.72-.77-1.28-1.39-1.69-.64-.44-1.34-.64-2.19-.64-.89,0-1.61.12-2.18.37-.55.24-1.03.57-1.4.99-.79.89-1.17,2.02-1.17,3.45s.4,2.57,1.17,3.45m16.32,8.16c-.23-.07-.53-.12-.82-.12-.54,0-.86.22-1.09.75l-.14.31h-1.96l.07-.58c.16-1.38.9-2.33,2.08-2.85.41-.18.9-.27,1.54-.27.86,0,1.55.16,2.2.43.56.25.99.43,1.33.56.22.07.51.12.85.12.29,0,.46-.07.59-.2.18-.18.29-.34.41-.51l.04-.37h2.1l-.07.59c-.43,2.08-1.64,3.12-3.64,3.12-.86,0-1.55-.14-2.22-.41l-1.28-.56Zm22.45,28.62l-7.96-5.13-7.97,5.13,2.43-9.16-7.35-6,9.46-.53,3.43-8.83,3.42,8.83,9.47.53-7.36,6,2.43,9.16Zm15.68-44.86h-4.82v12.29h-2.99v-12.29h-4.82v-2.93h12.63v2.93Zm4.88,12.29h-3.02v-15.23h3.02v15.23Zm14.31,0l-1.68-3.98h-5.89l-1.67,3.98h-3.3l6.46-15.23h2.92l6.47,15.23h-3.3Zm-6.35-6.88h3.45l-1.74-4.13-1.71,4.13Zm-10.79-53.88h-1.64v1.6c0,9.72-.03,19.43.02,29.15.01,1.39-.48,1.88-1.85,1.93-1.8.09-3.62.25-5.38.63-2.53.55-5.01,1.3-7.81,2.05,5.77-.44,11.17-.85,16.67-1.26v-34.1Zm-3.84-2.08h-1.8v1.47c0,8.93-.01,17.85-.01,26.79,0,2.35-.04,2.36-2.35,2.61-5.11.55-9.54,2.55-13.06,6.4,5.39-2.86,11.2-4.17,17.22-4.71v-32.55Zm-4.03-4.08c-5.65.97-10.6,3.04-14.35,7.43-1.6,1.88-2.45,3.94-2.39,6.59.17,8.64.07,17.29.07,25.94v1.57c4.42-5.33,10.07-8.01,16.68-8.8v-32.72Zm-19.45,10.21c-3.51-6.33-9.37-8.92-16.17-10.24v32.78c6.68.77,12.25,3.51,16.47,8.97.13-.35.17-.43.17-.51.01-9.81.02-19.62-.01-29.43,0-.53-.21-1.1-.47-1.57m-7.73,31.3c-.12-.01-.23-.02-.35-.03.12.05.23.06.35.03m-10.7-8.83v-28.6h-1.83v32.35c2.99.57,5.97.94,8.81,1.73,2.88.8,5.65,2.01,8.41,3.02-3.21-3.54-7.99-5.79-13.36-6.28-1.86-.17-2.02-.35-2.03-2.23m-1.98,6.14c-1.92-.11-2-.17-2.01-2.15v-30.55h-1.62v34.13c5.4.41,10.69.81,15.97,1.21-.12-.03-.24-.1-.37-.14-3.86-1.44-7.84-2.29-11.96-2.52m11.96,2.52c-3.86-1.44-7.84-2.29-11.96-2.52-1.92-.11-2-.17-2.01-2.15v-30.55h-1.62v34.13c5.4.41,10.69.81,15.97,1.21-.12-.03-.24-.1-.37-.14m-7.95-6.43c-1.86-.17-2.02-.35-2.03-2.23v-28.6h-1.83v32.35c2.99.57,5.97.94,8.81,1.73,2.88.8,5.65,2.01,8.41,3.02-3.21-3.54-7.99-5.79-13.36-6.28m8.32,6.57c.12.05.23.06.35.03-.12-.01-.23-.02-.35-.03m8.54-29.7c0-.53-.21-1.1-.47-1.57-3.51-6.33-9.37-8.92-16.17-10.24v32.78c6.68.77,12.25,3.51,16.47,8.97.13-.35.17-.43.17-.51.01-9.81.02-19.62-.01-29.43m4.63-4.35c-1.6,1.88-2.45,3.94-2.39,6.59.17,8.64.07,17.29.07,25.94v1.57c4.42-5.33,10.07-8.01,16.68-8.8v-32.72c-5.65.97-10.6,3.04-14.35,7.43m16.59-3.34v1.47c0,8.93-.01,17.85-.01,26.79,0,2.35-.04,2.36-2.35,2.61-5.11.55-9.54,2.55-13.06,6.4,5.39-2.86,11.2-4.17,17.22-4.71v-32.55h-1.8Zm3.99,2.08v1.6c0,9.72-.03,19.43.02,29.15.01,1.39-.48,1.88-1.85,1.93-1.8.09-3.62.25-5.38.63-2.53.55-5.01,1.3-7.81,2.05,5.77-.44,11.17-.85,16.67-1.26v-34.1h-1.64Zm14.14,49.75l-1.71,4.13h3.45l-1.74-4.13Zm0,0l-1.71,4.13h3.45l-1.74-4.13Zm-14.14-49.75v1.6c0,9.72-.03,19.43.02,29.15.01,1.39-.48,1.88-1.85,1.93-1.8.09-3.62.25-5.38.63-2.53.55-5.01,1.3-7.81,2.05,5.77-.44,11.17-.85,16.67-1.26v-34.1h-1.64Zm-3.99-2.08v1.47c0,8.93-.01,17.85-.01,26.79,0,2.35-.04,2.36-2.35,2.61-5.11.55-9.54,2.55-13.06,6.4,5.39-2.86,11.2-4.17,17.22-4.71v-32.55h-1.8Zm-16.59,3.34c-1.6,1.88-2.45,3.94-2.39,6.59.17,8.64.07,17.29.07,25.94v1.57c4.42-5.33,10.07-8.01,16.68-8.8v-32.72c-5.65.97-10.6,3.04-14.35,7.43m-4.63,4.35c0-.53-.21-1.1-.47-1.57-3.51-6.33-9.37-8.92-16.17-10.24v32.78c6.68.77,12.25,3.51,16.47,8.97.13-.35.17-.43.17-.51.01-9.81.02-19.62-.01-29.43m-8.54,29.7c.12.05.23.06.35.03-.12-.01-.23-.02-.35-.03m-8.32-6.57c-1.86-.17-2.02-.35-2.03-2.23v-28.6h-1.83v32.35c2.99.57,5.97.94,8.81,1.73,2.88.8,5.65,2.01,8.41,3.02-3.21-3.54-7.99-5.79-13.36-6.28m7.95,6.43c-3.86-1.44-7.84-2.29-11.96-2.52-1.92-.11-2-.17-2.01-2.15v-30.55h-1.62v34.13c5.4.41,10.69.81,15.97,1.21-.12-.03-.24-.1-.37-.14"/>
  <path class="cls-3" d="m231.15,295.83v-.25l6.24-9.09h-3.01c-.65,0-1.07.03-1.26.08-.2.05-.43.24-.68.57-.26.33-.45.74-.58,1.25h-.32l.32-2.22h7.19v.33l-6.17,9.01h2.95c1,0,1.64-.08,1.91-.24.27-.16.52-.43.74-.81s.39-.76.5-1.13h.33l-.33,2.5h-7.81Z"/>
  <path class="cls-3" d="m246.29,292.27h-3.67l-.25.61c-.37.89-.56,1.47-.56,1.74,0,.29.1.51.29.66.2.15.45.22.76.22v.33h-2.87v-.33c.43-.07.75-.22.96-.45.21-.24.46-.73.76-1.49.02-.07.14-.35.34-.83l2.81-6.71h.28l3.23,7.68.44,1.01c.1.23.24.41.4.54.17.13.42.21.76.25v.33h-3.8v-.33c.47,0,.78-.03.95-.1.16-.07.25-.2.25-.41,0-.11-.11-.41-.33-.93l-.74-1.79Zm-.12-.32l-1.71-4.12-1.7,4.12h3.41Z"/>
  <path class="cls-3" d="m256.65,294.16l3.52-8h2.97v.33h-.36c-.47,0-.79.04-.93.12-.15.08-.25.23-.3.44-.05.21-.07.72-.07,1.52v4.74c0,.76.02,1.26.06,1.49.04.24.13.41.29.52.15.12.45.17.89.17h.43v.33h-4.62v-.33h.34c.41,0,.69-.05.85-.16.16-.1.26-.27.31-.49.04-.22.07-.74.07-1.54v-6.15l-3.83,8.67h-.34l-3.86-8.67v5.66c0,.77.02,1.3.07,1.58.05.28.19.53.44.74.25.21.59.33,1.04.36v.33h-3.46v-.33c.41-.02.75-.14,1.01-.34.26-.2.42-.45.47-.74.06-.29.08-.84.08-1.64v-4.21c0-.77-.02-1.27-.07-1.49-.04-.22-.14-.38-.28-.46-.15-.08-.46-.13-.95-.13h-.26v-.33h2.94l3.54,8Z"/>
  <path class="cls-3" d="m268.49,290.63c1.1.08,1.91.35,2.45.82s.8,1.05.8,1.75c0,.61-.18,1.13-.54,1.57-.36.44-.82.73-1.39.86-.56.14-1.32.2-2.26.2h-3.79v-.33h.37c.42,0,.7-.05.86-.16.16-.11.26-.27.3-.49.04-.22.06-.74.06-1.54v-4.7c0-.78-.02-1.29-.07-1.52-.04-.23-.14-.38-.28-.47-.15-.09-.46-.13-.95-.13h-.18v-.33l1.59-.04,1.81-.06c2.64,0,3.96.76,3.96,2.28,0,.63-.23,1.13-.68,1.51-.45.38-1.14.64-2.05.77m-1.75-.14c.12,0,.22,0,.3,0,1.03,0,1.73-.16,2.1-.48.38-.32.56-.85.56-1.57,0-.5-.07-.89-.22-1.17-.15-.28-.37-.49-.66-.64-.29-.15-.8-.22-1.51-.22-.19,0-.38,0-.57.02v4.06Zm0,.35v2.15c0,.92.02,1.5.05,1.75.03.25.12.44.27.56.15.13.43.19.86.19.76,0,1.33-.19,1.71-.58.38-.39.57-.97.57-1.75s-.22-1.39-.65-1.77-1.19-.57-2.27-.57c-.17,0-.35,0-.54.01"/>
  <path class="cls-3" d="m272.76,286.49v-.33h4.42v.33h-.21c-.47,0-.79.04-.93.12-.15.08-.25.23-.3.44-.05.21-.07.72-.07,1.53v4.74c0,.76.02,1.26.05,1.49.04.24.13.41.28.52.15.12.45.17.89.17h.28v.33h-4.42v-.33h.28c.41,0,.7-.05.86-.16.16-.11.26-.27.3-.49.04-.22.06-.74.06-1.54v-4.74c0-.77-.02-1.27-.06-1.49-.04-.22-.14-.38-.28-.46-.15-.09-.47-.13-.96-.13h-.21Z"/>
  <path class="cls-3" d="m283.86,292.27h-3.67l-.25.61c-.37.89-.56,1.47-.56,1.74,0,.29.1.51.29.66.2.15.45.22.76.22v.33h-2.87v-.33c.43-.07.75-.22.96-.45.21-.24.46-.73.76-1.49.02-.07.14-.35.34-.83l2.81-6.71h.28l3.23,7.68.44,1.01c.1.23.24.41.4.54.17.13.42.21.76.25v.33h-3.8v-.33c.47,0,.78-.03.95-.1.16-.07.25-.2.25-.41,0-.11-.11-.41-.33-.93l-.74-1.79Zm-.12-.32l-1.71-4.12-1.7,4.12h3.41Z"/>
  <path class="cls-3" d="m291.47,286.49v-.33h4.42v.33h-.21c-.47,0-.79.04-.93.12-.15.08-.25.23-.3.44-.05.21-.07.72-.07,1.53v4.74c0,.76.02,1.26.05,1.49.04.24.13.41.28.52.15.12.45.17.89.17h.28v.33h-4.42v-.33h.28c.41,0,.7-.05.86-.16.16-.11.26-.27.3-.49.04-.22.06-.74.06-1.54v-4.74c0-.77-.02-1.27-.06-1.49-.04-.22-.14-.38-.28-.46-.15-.09-.47-.13-.96-.13h-.21Z"/>
  <path class="cls-3" d="m305.25,296.05l-6.84-9.06v6.71c0,.56.03.92.08,1.1s.21.34.47.48.64.22,1.16.22v.33h-3.61v-.33c.46-.03.81-.12,1.06-.25.24-.14.39-.28.43-.44.04-.16.07-.53.07-1.11v-5.13c0-.74-.04-1.24-.1-1.49-.07-.25-.18-.41-.33-.49s-.48-.11-1-.11v-.33h2.85l5.73,7.56v-5.78c0-.43-.04-.73-.13-.9-.09-.17-.27-.31-.54-.41-.27-.1-.6-.15-.98-.15v-.33h3.51v.33c-.41.03-.73.11-.97.24-.24.12-.38.27-.45.45-.06.17-.1.47-.1.88v8h-.31Z"/>
  <path class="cls-3" d="m308.05,295.73v-3.11h.36c.4,2.02,1.36,3.04,2.87,3.04.68,0,1.21-.19,1.58-.58.37-.39.56-.82.56-1.3s-.16-.89-.49-1.22c-.33-.32-.93-.67-1.8-1.04-.77-.33-1.36-.63-1.75-.87-.39-.25-.7-.57-.92-.97-.22-.4-.33-.82-.33-1.28,0-.69.24-1.26.72-1.72.48-.46,1.08-.69,1.81-.69.41,0,.79.07,1.16.2.36.13.73.41,1.11.83.22-.26.34-.54.37-.85h.31v2.53h-.31c-.18-.74-.5-1.32-.96-1.74s-.99-.64-1.59-.64-1,.16-1.27.47c-.27.31-.4.65-.4,1.02,0,.45.17.82.5,1.13.33.32.94.67,1.8,1.06.83.37,1.44.67,1.81.89.38.23.68.54.91.94.23.4.34.86.34,1.38,0,.83-.28,1.5-.83,2.02-.55.52-1.29.78-2.21.78-1.06,0-1.94-.41-2.65-1.22-.16.22-.27.54-.35.94h-.36Z"/>
  <path class="cls-3" d="m315.81,288.49h-.33l.05-2.32h9.38l.05,2.32h-.31c-.11-.64-.26-1.1-.45-1.38s-.39-.46-.61-.52c-.22-.06-.59-.1-1.12-.1h-1.55v6.82c0,.76.02,1.25.05,1.49.04.24.13.41.29.53.16.12.45.17.88.17h.47v.33h-4.82v-.33h.5c.41,0,.7-.05.86-.16.16-.11.26-.27.31-.49.05-.22.07-.74.07-1.54v-6.82h-1.43c-.62,0-1.04.03-1.26.09-.21.06-.41.24-.6.54-.19.3-.33.76-.43,1.37"/>
  <path class="cls-3" d="m325.68,286.49v-.33h4.42v.33h-.21c-.47,0-.79.04-.93.12-.15.08-.25.23-.3.44-.05.21-.07.72-.07,1.53v4.74c0,.76.02,1.26.05,1.49.04.24.13.41.28.52.15.12.45.17.89.17h.28v.33h-4.42v-.33h.28c.41,0,.7-.05.86-.16.16-.11.26-.27.3-.49.04-.22.06-.74.06-1.54v-4.74c0-.77-.02-1.27-.06-1.49-.04-.22-.14-.38-.28-.46-.15-.09-.47-.13-.96-.13h-.21Z"/>
  <path class="cls-3" d="m331.17,288.49h-.33l.05-2.32h9.38l.05,2.32h-.31c-.11-.64-.26-1.1-.45-1.38s-.39-.46-.61-.52c-.22-.06-.59-.1-1.12-.1h-1.55v6.82c0,.76.02,1.25.05,1.49.04.24.13.41.29.53.16.12.45.17.88.17h.47v.33h-4.82v-.33h.5c.41,0,.7-.05.86-.16.16-.11.26-.27.31-.49.05-.22.07-.74.07-1.54v-6.82h-1.43c-.62,0-1.04.03-1.26.09-.21.06-.41.24-.6.54-.19.3-.33.76-.43,1.37"/>
  <path class="cls-3" d="m348.37,286.16h3.23v.33c-.43.03-.75.12-.96.29-.21.16-.34.35-.39.55-.05.2-.07.6-.07,1.19v3.21c0,.82-.03,1.43-.1,1.83-.06.4-.25.79-.56,1.18s-.74.69-1.29.92c-.56.23-1.2.34-1.92.34-.86,0-1.59-.15-2.19-.44-.6-.29-1.02-.67-1.28-1.13-.25-.46-.38-1.08-.38-1.86v-.99s0-3.01,0-3.01c0-.77-.02-1.27-.07-1.49-.05-.22-.14-.38-.29-.46-.15-.08-.46-.13-.95-.13h-.22v-.33h4.41v.33h-.19c-.47,0-.79.04-.93.12-.15.08-.25.23-.3.44-.05.21-.07.72-.07,1.52v3.05c0,1.05.05,1.8.15,2.24.1.44.37.83.82,1.16.45.33,1.05.5,1.8.5.59,0,1.13-.11,1.61-.33.48-.22.84-.5,1.08-.83.24-.33.38-.67.43-1.02.05-.35.08-.9.08-1.65v-3.29c0-.55-.03-.93-.09-1.15-.06-.22-.19-.39-.4-.52-.2-.13-.53-.21-.97-.24v-.33Z"/>
  <path class="cls-3" d="m352.61,288.49h-.33l.05-2.32h9.38l.05,2.32h-.31c-.11-.64-.26-1.1-.45-1.38s-.39-.46-.61-.52c-.22-.06-.59-.1-1.12-.1h-1.55v6.82c0,.76.02,1.25.05,1.49.04.24.13.41.29.53.16.12.45.17.88.17h.47v.33h-4.82v-.33h.5c.41,0,.7-.05.86-.16.16-.11.26-.27.31-.49.05-.22.07-.74.07-1.54v-6.82h-1.43c-.62,0-1.04.03-1.26.09-.21.06-.41.24-.6.54-.19.3-.33.76-.43,1.37"/>
  <path class="cls-3" d="m370.44,292.82h.34l-.21,3.01h-8.01v-.33h.2c.48,0,.79-.06.93-.19.14-.13.23-.29.27-.49.04-.2.06-.7.06-1.51v-4.74c0-.74-.02-1.22-.06-1.45-.04-.23-.13-.4-.28-.49-.14-.09-.45-.14-.91-.14v-.33h6.91l.23,2.41h-.34c-.15-.67-.34-1.15-.56-1.44-.22-.28-.48-.46-.79-.53-.3-.07-.79-.11-1.47-.11h-1.34v4.06h1.03c.47,0,.8-.04.99-.12.19-.08.31-.2.37-.37s.09-.48.09-.96h.34v3.31h-.34c0-.54-.04-.9-.14-1.08-.09-.18-.22-.3-.39-.36-.17-.06-.47-.08-.88-.08h-1.06v2.29c0,1.15.07,1.82.22,2.02.15.2.55.3,1.19.3h.72c.51,0,.93-.06,1.26-.19s.64-.4.94-.81c.3-.41.53-.97.7-1.68"/>
  <path class="cls-3" d="m375.63,290.93c0-1.49.5-2.69,1.5-3.59,1-.9,2.24-1.36,3.74-1.36s2.76.45,3.77,1.34c1.01.89,1.51,2.11,1.51,3.66s-.48,2.71-1.45,3.64c-.97.93-2.24,1.39-3.82,1.39s-2.79-.46-3.78-1.39c-.98-.93-1.48-2.15-1.48-3.68m1.63.05c0,1.55.31,2.72.93,3.5.62.78,1.55,1.17,2.79,1.17,1.09,0,1.95-.39,2.58-1.17.63-.78.95-1.94.95-3.49s-.31-2.65-.93-3.45c-.62-.8-1.53-1.2-2.71-1.2s-2.06.39-2.68,1.17c-.62.78-.93,1.94-.93,3.47"/>
  <path class="cls-3" d="m394.81,286.16l.08,2.41h-.34c-.07-.53-.21-.96-.45-1.31-.23-.34-.47-.56-.72-.65-.25-.08-.68-.13-1.28-.13h-1.89v4.1h.9c.58,0,.97-.1,1.17-.3.19-.2.29-.59.29-1.19h.36v3.41h-.36c0-.41-.04-.74-.13-.98-.08-.24-.21-.4-.37-.49s-.48-.13-.96-.13h-.9v2.4c0,.76.02,1.26.06,1.49.04.24.13.41.29.52.15.12.45.17.89.17h.33v.33h-4.49v-.33h.3c.41,0,.7-.05.86-.16.16-.1.26-.27.31-.49.04-.22.07-.74.07-1.54v-4.74c0-.77-.02-1.27-.07-1.49-.05-.22-.14-.38-.29-.46-.14-.08-.46-.13-.95-.13h-.17v-.33h7.46Z"/>
  <path class="cls-3" d="m399.3,288.49h-.33l.05-2.32h9.38l.05,2.32h-.31c-.11-.64-.26-1.1-.45-1.38s-.39-.46-.61-.52c-.22-.06-.59-.1-1.12-.1h-1.55v6.82c0,.76.02,1.25.05,1.49.04.24.13.41.29.53.16.12.45.17.88.17h.47v.33h-4.82v-.33h.5c.41,0,.7-.05.86-.16.16-.11.26-.27.31-.49.05-.22.07-.74.07-1.54v-6.82h-1.43c-.62,0-1.04.03-1.26.09-.21.06-.41.24-.6.54-.19.3-.33.76-.43,1.37"/>
  <path class="cls-3" d="m408.87,290.93c0-1.49.5-2.69,1.5-3.59,1-.9,2.24-1.36,3.74-1.36s2.76.45,3.77,1.34c1.01.89,1.51,2.11,1.51,3.66s-.48,2.71-1.45,3.64c-.97.93-2.24,1.39-3.82,1.39s-2.79-.46-3.78-1.39c-.98-.93-1.48-2.15-1.48-3.68m1.63.05c0,1.55.31,2.72.93,3.5.62.78,1.55,1.17,2.79,1.17,1.09,0,1.95-.39,2.58-1.17.63-.78.95-1.94.95-3.49s-.31-2.65-.93-3.45c-.62-.8-1.53-1.2-2.71-1.2s-2.06.39-2.68,1.17c-.62.78-.93,1.94-.93,3.47"/>
  <path class="cls-3" d="m427.84,286.16h3.23v.33c-.43.03-.75.12-.96.29-.21.16-.34.35-.39.55-.05.2-.07.6-.07,1.19v3.21c0,.82-.03,1.43-.1,1.83-.06.4-.25.79-.56,1.18s-.74.69-1.29.92c-.56.23-1.2.34-1.92.34-.86,0-1.59-.15-2.19-.44-.6-.29-1.02-.67-1.28-1.13-.25-.46-.38-1.08-.38-1.86v-.99s0-3.01,0-3.01c0-.77-.02-1.27-.07-1.49-.05-.22-.14-.38-.29-.46-.15-.08-.46-.13-.95-.13h-.22v-.33h4.41v.33h-.19c-.47,0-.79.04-.93.12-.15.08-.25.23-.3.44-.05.21-.07.72-.07,1.52v3.05c0,1.05.05,1.8.15,2.24.1.44.37.83.82,1.16.45.33,1.05.5,1.8.5.59,0,1.13-.11,1.61-.33.48-.22.84-.5,1.08-.83.24-.33.38-.67.43-1.02.05-.35.08-.9.08-1.65v-3.29c0-.55-.03-.93-.09-1.15-.06-.22-.19-.39-.4-.52-.2-.13-.53-.21-.97-.24v-.33Z"/>
  <path class="cls-3" d="m442,295.83h-2.6c-.46-.32-1.17-1.17-2.12-2.54-.3-.44-.62-.86-.95-1.26s-.55-.65-.68-.74c-.12-.09-.32-.13-.58-.13h-.38v2.14c0,.76.02,1.26.05,1.49s.13.41.28.52c.15.12.45.17.89.17h.46v.33h-4.63v-.33h.31c.41,0,.7-.05.86-.16.16-.11.26-.27.3-.49.04-.22.06-.74.06-1.54v-4.74c0-.77-.02-1.27-.06-1.49-.04-.22-.14-.38-.28-.46-.15-.09-.47-.13-.96-.13h-.16v-.33l1.38-.07c.92-.04,1.65-.06,2.2-.06.92,0,1.67.09,2.25.26.58.17,1.04.45,1.4.84.36.39.53.86.53,1.4,0,.63-.23,1.17-.7,1.62-.47.45-1.15.72-2.05.83.4.19,1.06.9,1.95,2.11.73.98,1.31,1.63,1.72,1.93.42.3.91.47,1.48.49v.33Zm-7.31-4.99c.36,0,.72-.02,1.1-.04.38-.02.71-.07.99-.16.28-.08.51-.21.68-.37.17-.16.31-.38.41-.64.1-.27.15-.59.15-.98,0-.68-.17-1.22-.51-1.63-.34-.41-1.08-.61-2.22-.61-.18,0-.38.01-.61.03v4.42Z"/>
  <path class="cls-3" d="m442.41,286.49v-.33h4.42v.33h-.21c-.47,0-.79.04-.93.12-.15.08-.25.23-.3.44-.05.21-.07.72-.07,1.53v4.74c0,.76.02,1.26.05,1.49.04.24.13.41.28.52.15.12.45.17.89.17h.28v.33h-4.42v-.33h.28c.41,0,.7-.05.86-.16.16-.11.26-.27.3-.49.04-.22.06-.74.06-1.54v-4.74c0-.77-.02-1.27-.06-1.49-.04-.22-.14-.38-.28-.46-.15-.09-.47-.13-.96-.13h-.21Z"/>
  <path class="cls-3" d="m448.04,295.73v-3.11h.36c.4,2.02,1.36,3.04,2.87,3.04.68,0,1.21-.19,1.58-.58.37-.39.56-.82.56-1.3s-.16-.89-.49-1.22c-.33-.32-.93-.67-1.8-1.04-.77-.33-1.36-.63-1.75-.87-.39-.25-.7-.57-.92-.97-.22-.4-.33-.82-.33-1.28,0-.69.24-1.26.72-1.72.48-.46,1.08-.69,1.81-.69.41,0,.79.07,1.16.2.36.13.73.41,1.11.83.22-.26.34-.54.37-.85h.31v2.53h-.31c-.18-.74-.5-1.32-.96-1.74s-.99-.64-1.59-.64-1,.16-1.27.47c-.27.31-.4.65-.4,1.02,0,.45.17.82.5,1.13.33.32.94.67,1.8,1.06.83.37,1.44.67,1.81.89.38.23.68.54.91.94.23.4.34.86.34,1.38,0,.83-.28,1.5-.83,2.02-.55.52-1.29.78-2.21.78-1.06,0-1.94-.41-2.65-1.22-.16.22-.27.54-.35.94h-.36Z"/>
  <path class="cls-3" d="m461.88,294.16l3.52-8h2.97v.33h-.36c-.47,0-.79.04-.93.12-.15.08-.25.23-.3.44-.05.21-.07.72-.07,1.52v4.74c0,.76.02,1.26.06,1.49.04.24.13.41.29.52.15.12.45.17.89.17h.43v.33h-4.62v-.33h.34c.41,0,.69-.05.85-.16.16-.1.26-.27.31-.49.04-.22.07-.74.07-1.54v-6.15l-3.83,8.67h-.34l-3.86-8.67v5.66c0,.77.02,1.3.07,1.58.05.28.19.53.44.74.25.21.59.33,1.04.36v.33h-3.46v-.33c.41-.02.75-.14,1.01-.34.26-.2.42-.45.47-.74.06-.29.08-.84.08-1.64v-4.21c0-.77-.02-1.27-.07-1.49-.05-.22-.14-.38-.28-.46-.15-.08-.46-.13-.95-.13h-.26v-.33h2.94l3.54,8Z"/>
  <path class="cls-3" d="m257.9,309.79h-3.67l-.25.61c-.37.89-.56,1.47-.56,1.74,0,.29.1.51.29.66.2.15.45.22.76.22v.33h-2.87v-.33c.43-.07.75-.22.96-.45.21-.24.46-.73.76-1.49.02-.07.14-.35.34-.83l2.81-6.71h.28l3.23,7.68.44,1.01c.1.23.24.41.4.54.17.13.42.21.76.25v.33h-3.8v-.33c.47,0,.78-.03.95-.1.16-.07.25-.2.25-.41,0-.11-.11-.41-.33-.93l-.74-1.79Zm-.12-.32l-1.71-4.12-1.7,4.12h3.41Z"/>
  <path class="cls-3" d="m270.48,313.57l-6.84-9.06v6.71c0,.56.03.92.08,1.1s.21.34.47.48.64.22,1.16.22v.33h-3.61v-.33c.46-.03.81-.12,1.06-.25.24-.14.39-.28.43-.44.04-.16.07-.53.07-1.11v-5.13c0-.74-.04-1.24-.1-1.49-.07-.25-.18-.41-.33-.49s-.48-.11-1-.11v-.33h2.85l5.73,7.56v-5.78c0-.43-.04-.73-.13-.9-.09-.17-.27-.31-.54-.41-.27-.1-.6-.15-.98-.15v-.33h3.51v.33c-.41.03-.73.11-.97.24-.24.12-.38.27-.45.45-.06.17-.1.47-.1.88v8h-.31Z"/>
  <path class="cls-3" d="m272.78,303.76l1.59-.08c1.33-.07,2.22-.1,2.68-.1,1.43,0,2.55.22,3.36.66s1.4,1.03,1.79,1.78c.39.75.59,1.61.59,2.59,0,.71-.11,1.36-.32,1.94-.21.59-.51,1.07-.88,1.46-.37.39-.81.68-1.3.88-.49.2-.96.33-1.4.38-.44.05-1.07.08-1.87.08h-4.28v-.33h.4c.41,0,.7-.05.86-.16.16-.1.26-.27.31-.49.05-.22.07-.74.07-1.54v-4.66c0-.77-.02-1.27-.07-1.49-.04-.23-.14-.38-.28-.46-.14-.08-.46-.12-.95-.12h-.28v-.33Zm2.98.2v6.46c0,.96.02,1.57.05,1.85.04.28.14.47.32.58.18.11.56.17,1.13.17.84,0,1.53-.12,2.08-.35.54-.23.99-.68,1.36-1.36.36-.68.55-1.54.55-2.59,0-.82-.11-1.55-.32-2.19-.21-.64-.51-1.16-.91-1.57-.39-.4-.83-.67-1.31-.82-.48-.14-1.1-.22-1.85-.22-.36,0-.73.01-1.1.04"/>
  <path class="cls-3" d="m295.56,308.5h-5.05v2.33c0,.76.02,1.26.06,1.49.04.24.13.41.29.52.15.12.45.17.88.17h.25v.33h-4.35v-.33h.25c.41,0,.7-.05.86-.16.16-.1.26-.27.31-.49.04-.22.07-.74.07-1.54v-4.74c0-.77-.02-1.27-.07-1.49-.05-.22-.14-.38-.29-.46-.14-.08-.46-.13-.95-.13h-.18v-.33h4.35v.33h-.18c-.47,0-.78.04-.93.12-.15.08-.25.23-.29.44-.05.21-.08.72-.08,1.52v1.92h5.05v-1.92c0-.77-.02-1.27-.06-1.49-.04-.22-.14-.38-.28-.46-.15-.08-.46-.13-.95-.13h-.26v-.33h4.4v.33h-.14c-.48,0-.79.04-.93.12-.15.08-.25.23-.3.44-.05.21-.07.72-.07,1.52v4.74c0,.76.02,1.26.05,1.49.04.24.13.41.29.52.16.12.45.17.88.17h.22v.33h-4.4v-.33h.34c.41,0,.69-.05.85-.16.16-.1.26-.27.3-.49.04-.22.06-.74.06-1.54v-2.33Z"/>
  <path class="cls-3" d="m299.65,308.45c0-1.49.5-2.69,1.5-3.59,1-.9,2.24-1.36,3.74-1.36s2.76.45,3.77,1.34c1.01.89,1.51,2.11,1.51,3.66s-.48,2.71-1.45,3.64c-.97.93-2.24,1.39-3.82,1.39s-2.79-.46-3.78-1.39c-.98-.93-1.48-2.15-1.48-3.68m1.63.05c0,1.55.31,2.72.93,3.5.62.78,1.55,1.17,2.79,1.17,1.09,0,1.95-.39,2.58-1.17.63-.78.95-1.94.95-3.49s-.31-2.65-.93-3.45c-.62-.8-1.53-1.2-2.71-1.2s-2.06.39-2.68,1.17c-.62.78-.93,1.94-.93,3.47"/>
  <path class="cls-3" d="m311.75,313.25v-3.11h.36c.4,2.02,1.36,3.04,2.87,3.04.68,0,1.21-.19,1.58-.58.37-.39.56-.82.56-1.3s-.16-.89-.49-1.22c-.33-.32-.93-.67-1.8-1.04-.77-.33-1.36-.63-1.75-.87-.39-.25-.7-.57-.92-.97-.22-.4-.33-.82-.33-1.28,0-.69.24-1.26.72-1.72.48-.46,1.08-.69,1.81-.69.41,0,.79.07,1.16.2.36.13.73.41,1.11.83.22-.26.34-.54.37-.85h.31v2.53h-.31c-.18-.74-.5-1.32-.96-1.74s-.99-.63-1.59-.63-1,.16-1.27.47c-.27.31-.4.65-.4,1.02,0,.45.17.82.5,1.13.33.32.94.67,1.8,1.06.83.37,1.44.67,1.81.89.38.23.68.54.91.94.23.4.34.86.34,1.38,0,.83-.28,1.5-.83,2.02-.55.52-1.29.78-2.21.78-1.06,0-1.94-.41-2.65-1.22-.16.22-.27.54-.35.94h-.36Z"/>
  <path class="cls-3" d="m322.17,308.8v2.03c0,.76.02,1.26.05,1.49.04.24.13.41.29.53.16.11.45.17.88.17h.32v.33h-4.43v-.33h.26c.42,0,.7-.05.86-.16.16-.11.26-.27.3-.49.04-.22.06-.74.06-1.54v-4.74c0-.77-.02-1.27-.06-1.49-.04-.22-.14-.38-.28-.46-.15-.09-.47-.13-.96-.13h-.18v-.33l1.21-.04c.97-.03,1.73-.05,2.27-.05,1,0,1.77.08,2.31.24.54.16.98.44,1.33.83.34.4.52.9.52,1.51,0,.53-.12.99-.35,1.4-.24.4-.57.71-1.01.92-.44.21-1.21.31-2.32.31h-1.06Zm0-.36h.69c.56,0,1.01-.06,1.35-.17.34-.11.63-.35.86-.7.23-.36.34-.79.34-1.32,0-.8-.2-1.38-.59-1.76-.39-.37-1.03-.56-1.91-.56-.32,0-.57.01-.74.03v4.48Z"/>
  <path class="cls-3" d="m327.41,304.01v-.33h4.42v.33h-.21c-.47,0-.79.04-.93.12-.15.08-.25.23-.3.44-.05.21-.07.72-.07,1.53v4.74c0,.76.02,1.26.05,1.49.04.24.13.41.28.52.15.12.45.17.89.17h.28v.33h-4.42v-.33h.28c.41,0,.7-.05.86-.16.16-.11.26-.27.3-.49.04-.22.06-.74.06-1.54v-4.74c0-.77-.02-1.27-.06-1.49-.04-.22-.14-.38-.28-.46-.15-.09-.47-.13-.96-.13h-.21Z"/>
  <path class="cls-3" d="m332.9,306.01h-.33l.05-2.32h9.38l.05,2.32h-.31c-.11-.64-.26-1.1-.45-1.38s-.39-.46-.61-.52c-.22-.06-.59-.1-1.12-.1h-1.55v6.82c0,.76.02,1.25.05,1.49.04.24.13.41.29.53.16.12.45.17.88.17h.47v.33h-4.82v-.33h.5c.41,0,.7-.05.86-.16.16-.11.26-.27.31-.49.05-.22.07-.74.07-1.54v-6.82h-1.43c-.62,0-1.04.03-1.26.09-.21.06-.41.24-.6.54-.19.3-.33.76-.43,1.37"/>
  <path class="cls-3" d="m347.46,309.79h-3.67l-.25.61c-.37.89-.56,1.47-.56,1.74,0,.29.1.51.29.66.2.15.45.22.76.22v.33h-2.87v-.33c.43-.07.75-.22.96-.45.21-.24.46-.73.76-1.49.02-.07.14-.35.34-.83l2.81-6.71h.28l3.23,7.68.44,1.01c.1.23.24.41.4.54.17.13.42.21.76.25v.33h-3.8v-.33c.47,0,.78-.03.95-.1.16-.07.25-.2.25-.41,0-.11-.11-.41-.33-.93l-.74-1.79Zm-.12-.32l-1.71-4.12-1.7,4.12h3.41Z"/>
  <path class="cls-3" d="m359.74,310.51l-.07,2.84h-8.21v-.33h.28c.41,0,.7-.05.86-.16.16-.11.26-.27.31-.49.05-.22.07-.74.07-1.54v-4.74c0-.77-.02-1.27-.07-1.49-.05-.22-.14-.38-.28-.46-.15-.09-.46-.13-.95-.13h-.21v-.33h4.64v.33h-.43c-.48,0-.79.04-.94.12-.15.08-.25.22-.29.44-.05.21-.07.72-.07,1.53v5.06c0,.7.02,1.14.06,1.31.04.18.14.31.31.41.17.1.53.15,1.09.15h.74c.59,0,1.03-.05,1.32-.16.29-.11.56-.33.82-.68s.5-.91.71-1.68h.34Z"/>
  <path class="cls-3" d="m360.24,304.01v-.33h4.42v.33h-.21c-.47,0-.79.04-.93.12-.15.08-.25.23-.3.44-.05.21-.07.72-.07,1.53v4.74c0,.76.02,1.26.05,1.49.04.24.13.41.28.52.15.12.45.17.89.17h.28v.33h-4.42v-.33h.28c.41,0,.7-.05.86-.16.16-.11.26-.27.3-.49.04-.22.06-.74.06-1.54v-4.74c0-.77-.02-1.27-.06-1.49-.04-.22-.14-.38-.28-.46-.15-.09-.47-.13-.96-.13h-.21Z"/>
  <path class="cls-3" d="m365.73,306.01h-.33l.05-2.32h9.38l.05,2.32h-.31c-.11-.64-.26-1.1-.45-1.38s-.39-.46-.61-.52c-.22-.06-.59-.1-1.12-.1h-1.55v6.82c0,.76.02,1.25.05,1.49.04.24.13.41.29.53.16.12.45.17.88.17h.47v.33h-4.82v-.33h.5c.41,0,.7-.05.86-.16.16-.11.26-.27.31-.49.05-.22.07-.74.07-1.54v-6.82h-1.43c-.62,0-1.04.03-1.26.09-.21.06-.41.24-.6.54-.19.3-.33.76-.43,1.37"/>
  <path class="cls-3" d="m380.72,309.12l1.9-3.2c.31-.52.47-.89.47-1.11,0-.2-.08-.38-.25-.55-.17-.17-.46-.25-.89-.25v-.33h3.16v.33c-.44.06-.79.23-1.06.49-.27.26-.61.74-1.03,1.44l-2.17,3.61v1.28c0,.82.03,1.35.07,1.57.05.23.16.38.32.48.16.09.48.14.97.14v.33h-4.12v-.33h.16c.41,0,.7-.05.86-.16.16-.1.26-.27.3-.49.04-.22.06-.74.06-1.54v-1.19l-2.41-3.96c-.49-.8-.81-1.27-.98-1.43-.16-.15-.45-.24-.87-.25v-.33h3.92v.33c-.73,0-1.1.17-1.1.5,0,.13.12.4.36.8l2.31,3.81Z"/>
  <path class="cls-3" d="m389.6,313.25v-3.11h.36c.4,2.02,1.36,3.04,2.87,3.04.68,0,1.21-.19,1.58-.58.37-.39.56-.82.56-1.3s-.16-.89-.49-1.22c-.33-.32-.93-.67-1.8-1.04-.77-.33-1.36-.63-1.75-.87-.39-.25-.7-.57-.92-.97-.22-.4-.33-.82-.33-1.28,0-.69.24-1.26.72-1.72s1.08-.69,1.81-.69c.41,0,.79.07,1.16.2.36.13.73.41,1.11.83.22-.26.34-.54.37-.85h.31v2.53h-.31c-.18-.74-.5-1.32-.96-1.74s-.99-.63-1.59-.63-1,.16-1.27.47c-.27.31-.4.65-.4,1.02,0,.45.17.82.5,1.13.33.32.94.67,1.8,1.06.83.37,1.44.67,1.81.89.38.23.68.54.91.94.23.4.34.86.34,1.38,0,.83-.28,1.5-.83,2.02-.55.52-1.29.78-2.21.78-1.06,0-1.94-.41-2.65-1.22-.16.22-.27.54-.35.94h-.36Z"/>
  <path class="cls-3" d="m397.36,306.01h-.33l.05-2.32h9.38l.05,2.32h-.31c-.11-.64-.26-1.1-.45-1.38s-.39-.46-.61-.52c-.22-.06-.59-.1-1.12-.1h-1.55v6.82c0,.76.02,1.25.05,1.49.04.24.13.41.29.53.16.12.45.17.88.17h.47v.33h-4.82v-.33h.5c.41,0,.7-.05.86-.16.16-.11.26-.27.31-.49.05-.22.07-.74.07-1.54v-6.82h-1.43c-.62,0-1.04.03-1.26.09-.21.06-.41.24-.6.54-.19.3-.33.76-.43,1.37"/>
  <path class="cls-3" d="m414.56,303.68h3.23v.33c-.43.03-.75.12-.96.29-.21.16-.34.35-.39.55-.05.2-.07.6-.07,1.19v3.21c0,.82-.03,1.43-.1,1.83-.06.4-.25.79-.56,1.18s-.74.69-1.29.92c-.56.23-1.2.34-1.92.34-.86,0-1.59-.15-2.19-.44-.6-.29-1.02-.67-1.28-1.13-.25-.46-.38-1.08-.38-1.86v-.99s0-3.01,0-3.01c0-.77-.02-1.27-.07-1.49-.05-.22-.14-.38-.29-.46-.15-.08-.46-.13-.95-.13h-.22v-.33h4.41v.33h-.19c-.47,0-.79.04-.93.12-.15.08-.25.23-.3.44-.05.21-.07.72-.07,1.52v3.05c0,1.05.05,1.8.15,2.24.1.44.37.83.82,1.16.45.33,1.05.5,1.8.5.59,0,1.13-.11,1.61-.33.48-.22.84-.5,1.08-.83s.38-.67.43-1.02c.05-.35.08-.9.08-1.65v-3.29c0-.55-.03-.93-.09-1.15-.06-.22-.19-.39-.4-.52-.2-.13-.53-.21-.97-.24v-.33Z"/>
  <path class="cls-3" d="m418.45,303.76l1.59-.08c1.33-.07,2.22-.1,2.68-.1,1.43,0,2.55.22,3.36.66s1.4,1.03,1.79,1.78c.39.75.59,1.61.59,2.59,0,.71-.11,1.36-.32,1.94-.21.59-.51,1.07-.88,1.46-.37.39-.81.68-1.3.88-.49.2-.96.33-1.4.38-.44.05-1.07.08-1.87.08h-4.28v-.33h.4c.41,0,.7-.05.86-.16.16-.1.26-.27.31-.49.05-.22.07-.74.07-1.54v-4.66c0-.77-.02-1.27-.07-1.49-.04-.23-.14-.38-.28-.46-.14-.08-.46-.12-.95-.12h-.28v-.33Zm2.98.2v6.46c0,.96.02,1.57.05,1.85.04.28.14.47.32.58.18.11.56.17,1.13.17.84,0,1.53-.12,2.08-.35.54-.23.99-.68,1.36-1.36.36-.68.55-1.54.55-2.59,0-.82-.11-1.55-.32-2.19-.21-.64-.51-1.16-.91-1.57-.39-.4-.83-.67-1.31-.82-.48-.14-1.1-.22-1.85-.22-.36,0-.73.01-1.1.04"/>
  <path class="cls-3" d="m429.58,304.01v-.33h4.42v.33h-.21c-.47,0-.79.04-.93.12-.15.08-.25.23-.3.44-.05.21-.07.72-.07,1.53v4.74c0,.76.02,1.26.05,1.49.04.24.13.41.28.52.15.12.45.17.89.17h.28v.33h-4.42v-.33h.28c.41,0,.7-.05.86-.16.16-.11.26-.27.3-.49.04-.22.06-.74.06-1.54v-4.74c0-.77-.02-1.27-.06-1.49-.04-.22-.14-.38-.28-.46-.15-.09-.47-.13-.96-.13h-.21Z"/>
  <path class="cls-3" d="m442.71,310.34h.34l-.21,3.01h-8.01v-.33h.2c.48,0,.79-.06.93-.19.14-.13.23-.29.27-.49.04-.2.06-.7.06-1.51v-4.74c0-.74-.02-1.22-.06-1.45-.04-.23-.13-.4-.28-.49-.14-.09-.45-.14-.91-.14v-.33h6.91l.23,2.41h-.34c-.15-.67-.34-1.15-.56-1.44-.22-.28-.48-.46-.79-.53-.3-.07-.79-.11-1.47-.11h-1.34v4.06h1.03c.47,0,.8-.04.99-.12s.31-.2.37-.37.09-.48.09-.96h.34v3.31h-.34c0-.54-.04-.9-.14-1.08-.09-.18-.22-.3-.39-.36-.17-.06-.47-.08-.88-.08h-1.06v2.29c0,1.15.07,1.82.22,2.02.15.2.55.3,1.19.3h.72c.51,0,.93-.06,1.26-.19s.64-.4.94-.81c.3-.41.53-.97.7-1.68"/>
  <path class="cls-3" d="m444.34,313.25v-3.11h.36c.4,2.02,1.36,3.04,2.87,3.04.68,0,1.21-.19,1.58-.58.37-.39.56-.82.56-1.3s-.16-.89-.49-1.22c-.33-.32-.93-.67-1.8-1.04-.77-.33-1.36-.63-1.75-.87-.39-.25-.7-.57-.92-.97-.22-.4-.33-.82-.33-1.28,0-.69.24-1.26.72-1.72.48-.46,1.08-.69,1.81-.69.41,0,.79.07,1.16.2.36.13.73.41,1.11.83.22-.26.34-.54.37-.85h.31v2.53h-.31c-.18-.74-.5-1.32-.96-1.74s-.99-.63-1.59-.63-1,.16-1.27.47c-.27.31-.4.65-.4,1.02,0,.45.17.82.5,1.13.33.32.94.67,1.8,1.06.83.37,1.44.67,1.81.89.38.23.68.54.91.94.23.4.34.86.34,1.38,0,.83-.28,1.5-.83,2.02-.55.52-1.29.78-2.21.78-1.06,0-1.94-.41-2.65-1.22-.16.22-.27.54-.35.94h-.36Z"/>
</svg>