<?xml version="1.0" encoding="UTF-8"?>
<svg id="Layer_1" data-name="Layer 1" xmlns="http://www.w3.org/2000/svg" viewBox="0 0 512 512">
  <defs>
    <style>
      .cls-1 {
        fill: #04af97;
      }
    </style>
  </defs>
  <path class="cls-1" d="m149.49,257.98c0-9.43-.43-18.86-.57-28.29-.29-8.28-.57-16.72-.71-25,0-1.14.14-2.29.14-3.43.14-4,1-8.14-2.57-11.86-.43-.14-1.28-.43-2.14-.57-4.01-.86-8.01-.72-12.01-.43-2.71.14-4.28,1.43-5.28,3.86-1.29,3.14-1.58,6.42-1.86,9.85-.29,5.15-.29,10.43-.43,15.58,0,.71-.14,1.28-.14,2.42-4-5-8-9.43-11.43-14.29-3.43-4.86-6.29-10.14-9.57-15.43-.57-.14-1.28-.43-2.14-.57-4.28-.86-8.72-.86-13-.29-2,.14-3.29,1.28-4,3-.57,1.43-1.14,2.85-1.43,4.43-.43,4-.86,8-1,12.14-.43,6.43-.29,12.86-.86,19.29-.57,7.71-1.28,15.43-1.14,23.14.14,9.57,1,19.57.43,29.14-.71,9.29.71,18.71-.14,28.15-.29,3.86-.57,8.14,1.71,11.29,2.57,3.43,7.57,4,11.72,3.57,3.28-.14,6.85-1.14,8.71-3.86.71-1.14,1-2.57,1.28-3.86,2.57-12.58,2.57-25.72,3-38.43.43-13.28.57-26.71.43-40,0,.14.14.14.29.29,5.43,4.28,8.01,11.57,12.72,16.72.71.71,1.43,1.43,1.85,2.43.29.71.29,1.43.29,2.28.29,6.29.29,12.72.71,19.15.43,5.71,1.28,11.57,1.43,17.28.29,4,2,6.72,5.58,8.15,2.42,1,5,1.57,7.71,1.85,3,.43,5.85-.86,8.71-1.85,1.29-.58,2-1.72,2.15-3,.14-1.58.29-3.29.29-4.86.43-4.86-.14-9.71.29-14.71.57-7.71,1-15.57,1-23.28Z"/>
  <path class="cls-1" d="m208.06,200.97c-.29-2.57-1.71-3.86-4.28-4-1.43,0-2.86,0-4.14.14-6.72.57-13.43.57-20.15.57-1,0-2-.14-3,0-2.28.14-4.57.14-6.86.43-3.86.43-7.57,1-11.43,1.29-1.85.29-3.29,1.43-4.57,2.57-.57.43-.86,1.29-1,1.86-.29.86-.29,1.71-.29,2.57,0,3.42,0,6.71.14,10.14.14,4.29,1.43,5.43,5.71,5.29,3,0,6-.14,9.29-.29v3c-.29,3.14-.57,6.42-.86,9.71-.43,5.57-1.15,11.29-1.29,17-.14,13-.43,26.14.29,39.29.14,3.43,1.72,5.86,4.72,7.29,4.43,2.14,9,2.14,13.71.43.43-.14.86-.43,1.15-.71,2.14-1.58,3.29-3.71,3.29-6.43v-6.72c.14-2.28-.14-4.71.43-7,.71-4.14.29-8.43.57-12.57.14-1.15.14-2.15.29-3.29.14-1.86.43-3.71.57-5.57.14-11.29.14-22.43.29-33.71v-2.15h2c2.86.14,5.85.14,8.71.14,4,.14,6.15-1,6.29-5.85.29-2.86.43-5.72.57-8.58,0-1.57.14-3.29-.14-4.86Z"/>
  <path class="cls-1" d="m259.49,240.26c0-9.57.71-19.14.86-28.86,0-3.43-.14-7.29-2.42-9.86-2.29-2.57-6-3.14-9.29-3.14-2.15,0-4.57.29-6,1.72-1.43,1.28-1.85,3.29-2.14,5.28-1.58,9.43-.86,19.01-.71,28.57.14,5,.14,9.86.14,14.71,0,1.72.14,3.43.14,5.29-.14,2.42-.29,4.71-.43,7.14,0,3-.14,5.85-.14,8.71,0,2-1.15,3-2.72,3.57-1.14.43-2.43.71-3.57,1-3.43-.71-4.14-2.28-4-4.86.14-3.86.14-7.57.43-11.43.29-4.57.57-9,.14-13.57-.43-4.14-.57-8.28-.14-12.43.14-1.58,0-3,0-4.58,0-3.71-.14-7.29-.14-11,.14-4.57.43-9.14.57-13.71,0-1.15-.29-2.15-1.14-2.86-2.43-1-5.15-1.15-7.86-1.15-2.99,0-5.14,1.15-6.57,3.57-1.15,1.86-2.15,3.86-3,6-.43,1.14-.71,2.43-.71,3.57-.29,3.57-.43,7.14-.58,10.72-.14,1.72-.14,3.57-.29,5.28-.86,6.86-1.57,13.57-1.85,20.58-.29,6.72-.14,13.57,0,20.43.14,5.43.14,10.86,1.71,15.86,1.72,5.15,5,10,9.86,12.15,3,1.28,6.29,1.57,9.43,1.57,4.43.14,8.71,0,13-.57,4.43-.43,9.29-1.57,12.01-5.29.86-1.14,1.43-2.57,1.85-4,2.72-8.28,3.29-17.86,3.57-26.57,0-1.14-.14-2.43-.29-3.57-.14-1.28-.29-2.57-.29-4,0-1.28.14-2.43.14-3.71.14-3.57.29-7,.43-10.57Z"/>
  <path class="cls-1" d="m324.5,199.55c-.58-.29-1.58-.72-2.72-.72-3-.29-6.15-.29-9.15-.43-2.14-.14-3.71.86-5.28,2.15-3.57,3.29-7.14,6.86-10,10.86-.43.57-.86.86-1.14,1.28-.29-.29-.43-.29-.57-.43-2-4.28-5.43-7.57-8.29-11.29-1.28-1.57-2.85-2.43-5-2.29h-1.14c-2.86-.14-5.86-.29-8.86-.29-1.85,0-3.29,1.01-4,2.72-.57,1.43-1.14,2.72-1.28,4.14-.58,3.43-.86,6.86-1.15,10.29-.43,5.72-.71,11.43-1.14,17.15-.43,6.29-1.14,12.57-1.28,18.86-.29,13.15-.57,26.14.29,39.29.14,3.29,1.85,5.57,4.71,6.86,2,.86,4,1.43,6.15,1.71,2.72.43,5.28-.57,7.86-1.57,1-.29,1.57-1.14,1.85-2.15.15-.71.29-1.57.43-2.42.29-6.29.71-12.43,1-18.57.29-4.58.71-9.15.71-13.57.29-8.15.14-16.29.29-24.57v-4.57c.14,0,.29,0,.43-.14.71,1.28,1.43,2.57,2.29,3.86.71,1.43,1.57,2.71,2.43,4,1.85,2.28,4.43,2.28,6.28,0,1.86-2.29,3.57-4.43,5.43-6.72.29-.29.57-.43,1-.86-.29,2.28-.57,4.28-.71,6.28-.29,7.29-.71,14.71-.86,22.01,0,10-.29,20,.43,29.86.29,3.57,1.71,6.15,4.86,7.43,3.29,1.57,6.86,2.43,10.43,1.28,1-.29,1.86-.57,2.86-.86,1.43-.43,2.42-1.43,2.57-2.86.15-1.43.29-2.72.43-4,.14-4.28.29-8.57.57-12.85.29-6.72,1-13.29,1.28-19.86.14-8,0-16.14,0-24.15,0-7.29-.14-14.57-.14-21.72,0-1,.29-2,.29-2.86.14-3.42,1-6.99-2.14-10.28Z"/>
  <path class="cls-1" d="m393.5,289.13c-.86-7.58-2-15.01-3.57-22.29-1.28-6.28-1.28-12.57-2.86-18.71-.57-2.28-1.14-4.57-1.57-6.86-.57-2.72-1-5.43-1.85-8.14-1.15-4-1.29-8.14-1.86-12.28-.57-3.57-1.43-7-2-10.72-.43-3.29-1-7-3.43-9.29-2.28-2.15-5.71-2.57-8.85-2.57-2.72,0-5.57.14-8.28.57-2.43.29-5,1-6.57,2.86-.71,1-1.14,2.29-1.57,3.43-3.43,10.43-5.86,21.29-8.15,32-1.28,6.15-2.14,12.43-3.86,18.57-1.85,7.43-4,14.57-6.15,21.86-1.28,4.86-2.99,10-3.14,15.14,0,1.72.57,3.72,2,4.86,1.14.86,2.72,1.14,4.14,1.28,2.29.29,4.43.29,6.72.29,1.58,0,30.14-.86,31.58-.14,1.14.57,2.29.71,3.57.71,3,.14,6.15-.14,9.14-.86,2.43-.71,5-1.71,6-4,1-1.71.71-3.86.57-5.71Zm-9.49-32.77c-.77,2.26-1.76,4.33-3.72,5.91-1.29,1.05-2.4,2.45-3.19,3.92-.38.71.18,1.91.29,2.89.14,1.17.31,2.36.35,3.53,0,.26-.5.57-.81.78-.36.24-.8.34-1.15.58-1.05.69-2.28,1.26-1.62,2.95.29.74-.07,1.28-.92,1.48-.3.07-.72.37-.77.62-.36,2.11-1.94,3.21-3.48,4.35-.18.14-.46.17-.71.2-1.05.14-2.09.27-3.14.39-.81.08-.99-.38-1.06-1.18-.07-.72-.48-1.5-.96-2.06-.87-1.03-1.03-2.21-1.28-3.44-.17-.87-.73-1.7-1.26-2.44-.76-1.07-.44-2.7.38-3.8.38-.51.43-.89.2-1.46-.31-.75-.37-1.6-.72-2.31-.42-.86-.92-1.72-1.58-2.38-.92-.9-.34-1.79-.2-2.66.24-1.6.11-1.83-1.49-1.75-.57.03-.96-.02-1.27-.66-.44-.9-1.36-.57-2.13-.5-.27.02-.55.16-.79.31-1.57.88-3.35.04-4.99.62-.32.12-.98-.27-1.28-.61-1.25-1.39-2.51-2.77-3.56-4.31-.36-.52-.16-1.47-.09-2.22.09-1.13.28-2.25.45-3.37.05-.33.14-.69.33-.94.77-1,1.41-2.33,2.44-2.86,1.48-.75,2.19-1.91,3.02-3.16.41-.62,1.31-.92,2.06-1.41.77.34,1.59.36,2.59.03,1.28-.41,2.7-.39,4.05-.55.18-.02.36,0,.54.02.42.04,1.17.05,1.2.16.08.52-.05,1.08-.12,1.85.53.16,1.27.31,1.96.6.73.31,1.4.75,2.09,1.13.62.35,1.03.36,1.24-.5.18-.68.65-1.08,1.45-.71,1.29.59,2.62.97,4.07.72.34-.06.71.03,1.05-.01,1.39-.18,1.76.23,1.47,1.79-.3-.27-.57-.51-.84-.75l-.14.1c.37.58.78,1.13,1.11,1.72.72,1.34,1.85,2.39,2.26,4,.27,1.07,1.43,1.93,2.25,2.82.41.43.97.73,1.45,1.1.13.1.3.29.29.41-.19,1.32.75,1.14,1.45.99,1.06-.22,2.08-.63,3.29-1.02,0,.4.09.77-.01,1.07Z"/>
  <path class="cls-1" d="m429.75,206.87v-.26c0-1.68,0-3.23-.13-4.77,0-.9-.39-1.68-.77-2.32-.25-.52-.51-.9-.9-1.16-.52-.39-1.16-.39-1.68-.39h-3.35c-6.7,0-12.85-2.28-18.67,1.04-1.7.96-.15,36.87-.41,40.99-.52,8.51-.9,17.02-1.16,22.31.26,13.15-.13,23.07.52,33,.39,4,2.19,6.57,5.81,8.12,1.03.52,2.32.52,3.35,1.03,3.74,1.29,7.09-.13,10.44-1.03.39-.13.77-.52,1.16-.77,2.06-1.68,3.23-3.73,3.23-6.57,0-2.32,0-4.77.13-7.22,0-2.32-.13-4.77.26-7.1.52-3.22.52-6.32.65-9.54,0-2.83-.13-5.67.51-8.51.26-.65.26-1.41.26-2.19.13-4.64.26-9.28.26-13.93.13-6.96.26-14.05.26-21.15.13-5.67.26-11.34.26-17.02.13-.9.13-1.68,0-2.57Z"/>
</svg>