<?xml version="1.0" encoding="UTF-8"?>
<svg id="Layer_1" data-name="Layer 1" xmlns="http://www.w3.org/2000/svg" xmlns:xlink="http://www.w3.org/1999/xlink" viewBox="0 0 512 512">
  <defs>
    <style>
      .cls-1 {
        clip-path: url(#clippath-2);
      }

      .cls-2 {
        clip-path: url(#clippath-1);
      }

      .cls-3 {
        clip-path: url(#clippath-4);
      }

      .cls-4 {
        clip-path: url(#clippath);
      }

      .cls-5 {
        fill: none;
      }

      .cls-6 {
        clip-path: url(#clippath-3);
      }

      .cls-7 {
        fill: #e57526;
      }
    </style>
    <clipPath id="clippath">
      <rect class="cls-5" x="84.37" y="75.22" width="343.27" height="361.57"/>
    </clipPath>
    <clipPath id="clippath-1">
      <rect class="cls-5" x="84.37" y="75.22" width="343.27" height="361.57"/>
    </clipPath>
    <clipPath id="clippath-2">
      <rect class="cls-5" x="84.37" y="75.22" width="343.27" height="361.57"/>
    </clipPath>
    <clipPath id="clippath-3">
      <rect class="cls-5" x="84.37" y="75.22" width="343.27" height="361.57"/>
    </clipPath>
    <clipPath id="clippath-4">
      <rect class="cls-5" x="84.37" y="75.22" width="343.27" height="361.57"/>
    </clipPath>
  </defs>
  <g class="cls-4">
    <path class="cls-7" d="m92.68,420.53l.11-.22,4.11-9.1c.02-.06.11-.09.19-.09.14,0,.2.06.2.17l1.06,8.99.03.25h-5.7Zm8.46-9.77c-.22-1.84-1.57-3.24-3.85-3.24s-3.4,1.28-4.16,2.9l-8.54,17.93c-.62,1.34.11,2.57,1.79,2.57.92,0,1.65-.53,1.93-1.2l2.65-5.56h7.87l.61,5.11c.14,1.09.9,1.62,2.07,1.65,1.29,0,2.01-.78,1.9-2.01l-2.26-18.15Z"/>
    <path class="cls-7" d="m126.44,417.02h-5.05l.75-4.3c.14-.89.67-1.43,1.59-1.43h4.04c1.57,0,2.87.76,2.87,2.43,0,2.51-1.98,3.29-4.21,3.29m-1.03,10.16h-5.84l1.17-6.51h5.56c2.01,0,3.68.54,3.68,2.79,0,2.82-2.07,3.71-4.57,3.71m5.86-8.37c2.29-1.09,3.4-2.82,3.4-5.28,0-4.32-3.4-5.86-7.23-5.86h-3.85c-2.85,0-4.86,1.59-5.37,4.44l-2.6,14.88c-.08.25-.11.5-.11.78,0,2.07,1.59,3.01,3.46,3.01h6.68c4.55,0,8.32-2.32,8.32-7.23,0-2.01-.98-3.71-2.71-4.75"/>
    <path class="cls-7" d="m143.3,427.71c-1.73,0-3.77-.64-3.77-2.74,0-2.35,2.46-2.65,4.27-2.65,1.43,0,2.76.17,4.13.39-.45,2.74-1.59,5-4.63,5m1.17-14.46c-1.59,0-3.18.2-4.66.62-.81.25-1.48.78-1.48,1.7,0,1.18.81,1.76,1.87,1.76.25,0,.48-.02.7-.08,1.29-.28,2.46-.67,3.74-.67,2.23,0,3.63.67,3.65,3.1-1.62-.36-3.29-.58-4.99-.58-4.05,0-7.65,1.42-7.65,6,0,4.24,3.93,5.92,7.62,5.92,5.05,0,7.51-2.79,8.4-7.54.22-1.15.53-2.26.53-3.4,0-4.75-3.38-6.81-7.73-6.81"/>
    <path class="cls-7" d="m159.76,430.92c1.02,0,1.84-.73,1.84-1.78,0-1.61-1.61-1.48-1.61-3.12,0-.3.03-.61.07-.86l2.96-16.61c0-.13.03-.26.03-.39,0-1.16-.88-1.65-1.94-1.65s-1.75.59-1.97,1.61l-2.9,16.5c-.1.42-.13.86-.13,1.35,0,1.84.76,3.39,2.24,4.48.43.3.89.46,1.41.46"/>
    <path class="cls-7" d="m171.9,413.47l.69-3.76c0-.13.03-.26.03-.39,0-1.16-.89-1.65-1.95-1.65-.95,0-1.74.62-1.97,1.58l-2.33,13.37c-.13.7-.2,1.39-.2,2.04,0,4.25,3.03,6.35,7.08,6.35,1.09,0,2.21-.13,3.24-.49.82-.27,1.34-.9,1.34-1.78,0-1.02-.76-1.71-1.78-1.71-.95,0-1.81.49-2.83.49-1.82,0-3.19-.76-3.19-2.7,0-.54.06-1.05.16-1.58l1.12-6.36h7.08c1.02,0,1.75-.66,1.75-1.71s-.8-1.71-1.82-1.71h-6.42Z"/>
    <path class="cls-7" d="m193.97,421.82c-.53,2.9-1.17,5.72-4.69,5.72-2.23,0-3.6-1.03-3.6-3.38,0-.62.03-1.12.14-1.73.42-2.9,1.18-5.69,4.72-5.69,2.23,0,3.6,1.03,3.6,3.38,0,.53-.08,1.09-.17,1.71m-3.43-8.57c-3.85,0-6.51,1.68-7.79,5.39-.36,1.01-.5,2.15-.75,3.24-.17.76-.22,1.54-.22,2.43,0,4.58,3.15,6.7,7.48,6.7,3.85,0,6.48-1.68,7.76-5.39.36-1,.53-2.15.76-3.18.16-.89.28-1.73.28-2.48,0-4.57-3.16-6.7-7.51-6.7"/>
    <path class="cls-7" d="m214.7,430.92c1.02,0,1.82-.59,1.98-1.61l1.41-7.97c.1-.63.13-1.18.13-1.74,0-4.38-3.35-6.35-7.37-6.35-5.04,0-7.44,2.76-8.26,7.54l-1.42,8.07c-.03.1-.03.23-.03.39,0,1.16.95,1.68,1.97,1.68s1.75-.66,1.91-1.61l1.42-7.97c.42-2.6,1.32-4.61,4.28-4.61,2.07,0,3.59.92,3.59,3.13,0,.36-.03.69-.1,1.05l-1.39,7.94c-.03.16-.06.29-.06.39,0,1.16.88,1.68,1.94,1.68"/>
    <path class="cls-7" d="m241.91,407.43c-4.64,0-7.84,2.24-9.25,6.72-.49,1.58-.83,3.21-1.12,4.88-.27,1.48-.54,3-.54,4.55,0,5,3.99,7.44,8.6,7.44,2.08,0,4.51-.42,6.35-1.32.69-.36,1.12-.76,1.12-1.58,0-1.02-.69-2.04-1.77-2.04-.3,0-.62.06-.98.23-1.58.56-3.04,1.08-4.78,1.08-2.51,0-4.65-.89-4.65-3.79,0-1.32.27-2.67.53-3.99.27-1.55.52-3.03,1.02-4.52.9-2.76,2.6-4.09,5.51-4.09,2.07,0,3.59.62,5.47,1.25.29.1.59.17.88.17,1.16,0,1.79-1.02,1.79-2.08,0-.83-.47-1.25-1.22-1.62-2.11-.88-4.68-1.32-6.95-1.32"/>
    <path class="cls-7" d="m263.83,417.32h-5.41l.78-4.61c.2-.98.76-1.42,1.71-1.42h3.68c1.73,0,3.21.56,3.21,2.54,0,2.46-1.62,3.49-3.97,3.49m.9-9.66h-3.85c-2.93,0-5.03,1.45-5.56,4.44l-2.93,16.67c0,.14-.02.28-.02.39,0,1.18.95,1.76,1.98,1.76s1.79-.56,1.96-1.59l1.48-8.35h6.17c4.16,0,7.34-2.12,7.76-6.42,0-.25.03-.48.03-.7,0-4.16-3.13-6.2-7.01-6.2"/>
    <path class="cls-7" d="m293,407.43c-4.64,0-7.84,2.24-9.26,6.72-.49,1.58-.82,3.21-1.12,4.88-.26,1.48-.52,3-.52,4.55,0,5,3.99,7.44,8.6,7.44,2.07,0,4.52-.42,6.36-1.32.69-.36,1.12-.76,1.12-1.58,0-1.02-.69-2.04-1.78-2.04-.29,0-.62.06-.98.23-1.58.56-3.03,1.08-4.78,1.08-2.5,0-4.64-.89-4.64-3.79,0-1.32.26-2.67.52-3.99.27-1.55.53-3.03,1.02-4.52.89-2.76,2.6-4.09,5.51-4.09,2.07,0,3.58.62,5.47,1.25.29.1.58.17.88.17,1.15,0,1.77-1.02,1.77-2.08,0-.83-.46-1.25-1.22-1.62-2.11-.88-4.68-1.32-6.95-1.32"/>
    <path class="cls-7" d="m315.82,421.82c-.53,2.9-1.15,5.72-4.69,5.72-2.23,0-3.57-1.03-3.57-3.38,0-.62.03-1.12.11-1.73.45-2.9,1.2-5.69,4.72-5.69,2.23,0,3.6,1.03,3.6,3.38,0,.53-.09,1.09-.17,1.71m-3.43-8.57c-3.85,0-6.48,1.68-7.76,5.39-.36,1.01-.53,2.15-.75,3.24-.17.76-.26,1.54-.26,2.43,0,4.58,3.16,6.7,7.48,6.7,3.85,0,6.48-1.68,7.76-5.39.36-1,.53-2.15.76-3.18.16-.89.28-1.73.28-2.48,0-4.57-3.16-6.7-7.51-6.7"/>
    <path class="cls-7" d="m340.87,413.24c-1.82,0-3.36.66-4.55,1.94-1.22-1.28-3.03-1.94-4.77-1.94-3.65,0-6,1.9-6.62,5.46l-1.78,10.15c-.03.1-.03.23-.03.4,0,1.16.9,1.68,1.91,1.68s1.81-.59,1.97-1.61l1.79-10.02c.26-1.55,1.02-2.57,2.69-2.57,1.42,0,2.47.73,2.47,2.21,0,.23,0,.42-.03.53l-1.65,9.39c-.03.1-.03.23-.03.4,0,1.16.92,1.68,1.94,1.68s1.78-.65,1.94-1.61l1.75-9.79c.26-1.58,1.02-2.8,2.76-2.8,1.35,0,2.47.76,2.47,2.21,0,.13-.03.3-.07.53l-1.65,9.39c0,.13-.03.26-.03.4,0,1.16.95,1.68,2.01,1.68.95,0,1.71-.65,1.88-1.61l1.74-9.75c.03-.37.06-.63.06-.99,0-3.49-2.93-5.33-6.19-5.33"/>
    <path class="cls-7" d="m363.51,421.87c-.54,3.16-1.15,5.67-4.89,5.67-1.43,0-2.82-.33-4.1-.86l.75-4.25c.53-2.99.98-5.69,4.66-5.69,2.1,0,3.74.86,3.74,3.21,0,.62-.05,1.29-.16,1.93m-3.38-8.62c-6.03,0-7.73,3.24-8.71,8.57l-2.26,12.93c0,.14-.03.23-.03.37,0,1.14.95,1.67,2.01,1.67s1.68-.61,1.9-1.59l.93-5.31c1.56.7,3.15,1.12,4.86,1.12,5.78,0,7.71-3.46,8.54-8.62.14-.87.22-1.65.22-2.54,0-4.35-3.38-6.59-7.45-6.59"/>
    <path class="cls-7" d="m378.3,427.71c-1.76,0-3.79-.64-3.79-2.74,0-2.35,2.46-2.65,4.27-2.65,1.43,0,2.76.17,4.13.39-.45,2.74-1.59,5-4.61,5m1.15-14.46c-1.59,0-3.18.2-4.66.62-.81.25-1.48.78-1.48,1.7,0,1.18.79,1.76,1.87,1.76.25,0,.47-.02.7-.08,1.29-.28,2.46-.67,3.74-.67,2.23,0,3.6.67,3.65,3.1-1.62-.36-3.29-.58-4.97-.58-4.07,0-7.68,1.42-7.68,6,0,4.24,3.93,5.92,7.62,5.92,5.05,0,7.51-2.79,8.4-7.54.22-1.15.53-2.26.53-3.4,0-4.75-3.38-6.81-7.73-6.81"/>
    <path class="cls-7" d="m403.8,430.92c1.02,0,1.82-.59,1.98-1.61l1.41-7.97c.1-.63.13-1.18.13-1.74,0-4.38-3.35-6.35-7.37-6.35-5.04,0-7.45,2.76-8.27,7.54l-1.41,8.07c-.03.1-.03.23-.03.39,0,1.16.95,1.68,1.98,1.68s1.75-.66,1.91-1.61l1.41-7.97c.42-2.6,1.31-4.61,4.28-4.61,2.07,0,3.58.92,3.58,3.13,0,.36-.03.69-.1,1.05l-1.38,7.94c-.03.16-.07.29-.07.39,0,1.16.89,1.68,1.94,1.68"/>
    <path class="cls-7" d="m425.66,413.37c-.89,0-1.51.33-1.87.95l-5.67,10.57s-.1.06-.13.06c-.12,0-.19-.03-.19-.13-.37-1.55-.59-2.77-.82-3.59-.1-.49-.2-.88-.3-1.25l-1.49-5.27c-.23-.75-.72-1.34-1.87-1.34-1.34,0-1.97.79-1.97,1.68,0,.1.03.26.06.49l2.96,10.78c.37,1.28.99,1.94,1.75,2.33-1.84,3.33-2.77,4.45-4.95,4.55-1.28.03-1.84.79-1.84,1.71v.17c.1.88.72,1.71,2.01,1.71h.1c4.51-.1,6.22-2.76,8.3-6.69l7.64-14.23c.16-.3.26-.63.26-.93,0-.89-.63-1.58-1.97-1.58"/>
    <path class="cls-7" d="m115.02,299.72l.28-.7,12.4-27.75c.11-.19.3-.31.61-.31.39,0,.59.2.59.51l3.15,27.44.11.81h-17.14Zm32.22,25.52l-6.76-55.37c-.7-5.64-4.75-9.85-11.59-9.85s-10.3,3.9-12.59,8.85l-25.69,54.66c-1.87,4.13.31,7.85,5.37,7.85,2.76,0,4.97-1.62,5.86-3.63l7.9-16.98h23.7l1.87,15.58c.42,3.32,2.68,4.91,6.26,5.03,3.88,0,6.06-2.43,5.67-6.15"/>
    <path class="cls-7" d="m210.39,277.41c-5.45,0-10.11,2.01-13.68,5.92-3.67-3.92-9.12-5.92-14.37-5.92-11,0-18.05,5.83-19.93,16.68l-5.35,30.96c-.1.31-.1.71-.1,1.21,0,3.52,2.68,5.13,5.75,5.13s5.45-1.81,5.95-4.92l5.35-30.56c.79-4.73,3.07-7.84,8.12-7.84,4.27,0,7.44,2.22,7.44,6.74,0,.7,0,1.3-.09,1.61l-4.96,28.65c-.1.31-.1.71-.1,1.21,0,3.52,2.78,5.13,5.85,5.13s5.35-2.01,5.85-4.92l5.26-29.86c.8-4.82,3.07-8.55,8.33-8.55,4.07,0,7.43,2.32,7.43,6.74,0,.4-.1.91-.19,1.61l-4.96,28.65c0,.4-.1.81-.1,1.21,0,3.52,2.87,5.13,6.05,5.13,2.87,0,5.15-2.01,5.64-4.92l5.25-29.76c.1-1.11.2-1.91.2-3.01,0-10.65-8.82-16.28-18.63-16.28"/>
    <path class="cls-7" d="m252.41,277.81c-2.85,0-5.25,1.71-5.92,4.83l-7.34,42.41c-.11.3-.11.7-.11,1.2,0,3.52,2.87,5.14,5.95,5.14s5.25-2.01,5.75-4.92l7.43-42.41c0-.42.11-.81.11-1.23,0-3.52-2.68-5.03-5.86-5.03m2.87-17.39c-3.15,0-5.73,2.82-5.73,6.03s2.65,5.22,5.53,5.22c3.18,0,5.76-2.82,5.76-6.03,0-2.9-2.68-5.22-5.56-5.22"/>
    <path class="cls-7" d="m296.44,277.41c-12.19,0-20.32,4.22-24.29,16.38-1.08,3.22-1.48,6.74-2.18,10.05l-3.67,21.21c-.1.31-.1.71-.1,1.21,0,3.52,2.87,5.13,5.94,5.13s5.26-2.01,5.76-4.92l3.67-20.81c1.58-9.05,2.58-17.69,13.68-17.69,3.96,0,7.93,1.71,11,1.71,3.47,0,5.35-2.32,5.35-5.62,0-2.71-1.48-4.13-3.86-5.03-3.08-1.1-8.03-1.61-11.3-1.61"/>
    <path class="cls-7" d="m334.61,321.56c-5.28,0-11.42-1.93-11.42-8.35,0-7.15,7.45-8.07,12.9-8.07,4.27,0,8.32.5,12.4,1.2-1.29,8.38-4.78,15.22-13.88,15.22m3.46-44.14c-4.75,0-9.52.59-13.99,1.9-2.48.81-4.46,2.4-4.46,5.22,0,3.52,2.4,5.34,5.67,5.34.7,0,1.4-.11,2.07-.2,3.88-.92,7.34-2.12,11.22-2.12,6.73,0,10.92,2.12,11,9.46-4.86-1.12-9.91-1.71-14.97-1.71-12.2,0-23.09,4.3-23.09,18.29,0,12.95,11.87,18.09,22.98,18.09,15.19,0,22.61-8.54,25.3-23.03.67-3.52,1.56-6.93,1.56-10.45,0-14.49-10.19-20.8-23.28-20.8"/>
    <path class="cls-7" d="m411.44,331.39c3.07,0,5.45-1.81,5.95-4.93l4.26-24.33c.29-1.9.39-3.61.39-5.32,0-13.37-10.1-19.39-22.2-19.39-15.17,0-22.41,8.44-24.88,23l-4.26,24.63c-.1.3-.1.71-.1,1.21,0,3.52,2.87,5.13,5.95,5.13s5.26-2.01,5.75-4.93l4.26-24.33c1.29-7.94,3.97-14.07,12.9-14.07,6.24,0,10.81,2.82,10.81,9.55,0,1.11-.1,2.11-.3,3.22l-4.16,24.23c-.1.51-.2.9-.2,1.21,0,3.52,2.68,5.13,5.85,5.13"/>
    <path class="cls-7" d="m207.84,387.63c1.27,0,2.12-.91,2.12-2.15s-.93-2.15-2.16-2.15h-13.22c-.16,0-.23-.08-.23-.24,0-.08.03-.16.08-.19l17.02-14.75c1.08-.94,1.85-2.28,1.85-3.81,0-2.78-2.43-4.23-5.02-4.23h-12.52c-1.24,0-2.09.9-2.09,2.16s.93,2.15,2.16,2.15h12.1c.2,0,.27.08.27.23,0,.04-.03.12-.12.2l-16.85,14.63c-1.08.94-2.01,2.23-2.01,3.76,0,2.67,2.16,4.39,4.71,4.39h13.92Z"/>
    <path class="cls-7" d="m222.59,383.96c-2.04,0-4.44-.75-4.44-3.26,0-2.79,2.9-3.13,5.03-3.13,1.67,0,3.26.2,4.83.45-.51,3.27-1.84,5.95-5.42,5.95m1.37-17.23c-1.87,0-3.71.25-5.47.76-.95.3-1.73.95-1.73,2.04,0,1.37.93,2.07,2.21,2.07.28,0,.56-.03.81-.09,1.51-.33,2.88-.81,4.39-.81,2.62,0,4.24.81,4.29,3.69-1.9-.42-3.88-.68-5.86-.68-4.75,0-8.99,1.68-8.99,7.15,0,5.05,4.63,7.04,8.96,7.04,5.92,0,8.82-3.32,9.86-8.96.28-1.37.61-2.71.61-4.08,0-5.64-3.96-8.12-9.07-8.12"/>
    <path class="cls-7" d="m257.64,366.74c-2.13,0-3.95.79-5.34,2.31-1.43-1.52-3.56-2.31-5.61-2.31-4.29,0-7.04,2.27-7.77,6.5l-2.09,12.08c-.04.12-.04.27-.04.47,0,1.37,1.05,2,2.25,2s2.12-.7,2.32-1.93l2.08-11.92c.31-1.84,1.2-3.06,3.17-3.06,1.66,0,2.9.86,2.9,2.62,0,.28,0,.51-.03.63l-1.93,11.17c-.04.12-.04.27-.04.47,0,1.37,1.08,2,2.28,2s2.1-.79,2.29-1.93l2.05-11.64c.3-1.89,1.19-3.33,3.25-3.33,1.58,0,2.9.9,2.9,2.62,0,.16-.04.35-.08.63l-1.93,11.17c0,.16-.03.32-.03.47,0,1.37,1.12,2,2.35,2,1.12,0,2.01-.79,2.21-1.93l2.04-11.6c.04-.43.08-.74.08-1.18,0-4.16-3.43-6.34-7.26-6.34"/>
    <path class="cls-7" d="m284.02,376.98c-.64,3.63-1.26,6.79-5.61,6.79-2.07,0-4.11-.93-4.11-3.27,0-.89.12-1.84.31-2.82l1.04-6.01c1.45-.47,2.96-.78,4.46-.78,2.6,0,4.1,1.03,4.1,3.71,0,.78-.08,1.57-.19,2.37m-3.32-10.25c-1.54,0-2.96.28-4.35.87l1.11-6.42c0-.17.06-.3.06-.47,0-1.37-1.04-1.96-2.29-1.96-1.12,0-2.04.7-2.32,1.93l-2.82,16.31c-.2,1.2-.31,2.32-.31,3.52,0,5.17,4.1,7.4,8.74,7.4,6.76,0,9.04-4.11,9.97-10.22.19-1.09.3-2.15.3-3.27,0-4.99-3.32-7.68-8.09-7.68"/>
    <path class="cls-7" d="m298.03,366.9c-1.12,0-2.04.67-2.32,1.87l-2.85,16.56c-.03.11-.03.28-.03.48,0,1.37,1.12,1.98,2.32,1.98s2.04-.78,2.23-1.93l2.9-16.53c0-.17.03-.31.03-.47,0-1.37-1.04-1.96-2.29-1.96m1.15-6.79c-1.26,0-2.26,1.09-2.26,2.35s1.06,2.04,2.18,2.04c1.23,0,2.23-1.09,2.23-2.35,0-1.14-1.03-2.04-2.15-2.04"/>
    <path class="cls-7" d="m312.36,383.96c-2.07,0-4.47-.75-4.47-3.26,0-2.79,2.9-3.13,5.03-3.13,1.67,0,3.26.2,4.85.45-.5,3.27-1.87,5.95-5.41,5.95m1.34-17.23c-1.84,0-3.71.25-5.45.76-.98.3-1.73.95-1.73,2.04,0,1.37.92,2.07,2.21,2.07.25,0,.53-.03.81-.09,1.51-.33,2.85-.81,4.36-.81,2.62,0,4.27.81,4.29,3.69-1.9-.42-3.88-.68-5.83-.68-4.78,0-9.02,1.68-9.02,7.15,0,5.05,4.63,7.04,8.96,7.04,5.92,0,8.82-3.32,9.86-8.96.28-1.37.64-2.71.64-4.08,0-5.64-3.99-8.12-9.1-8.12"/>
    <path class="cls-7" d="m243.2,152.39c-.31-.08-.59-.17-.78-.2t.02-.05v-.31h.31c.31,0,.31.31.31.31,0,0,0,.17.14.25"/>
    <path class="cls-7" d="m243.39,153.14c-.34-.08-.59-.17-.81-.2t.03-.05v-.31h.3c.34,0,.34.31.34.31,0,0,0,.17.14.25"/>
    <path class="cls-7" d="m308.56,182.12c0,.62-.65.92-.95.92v-.3c0-.31-.31-.31-.31-.31h-.31v.92s0,.62-.31.93c-.33,0-.33.61-.33.92v1.2l-.62.62c-.95,1.54-1.26,2.43-1.26,2.74-.61.31-.61.61-.92,1.54-.64.92-.64,1.82-.95,2.12-.62.93-.95,1.23-.95,1.23,0,.31,0,.62-.31,1.51q-.62.92-.92,1.23-.65.3-.95.3h-.95s0,.31-.3.31c-.62.31-.93.31-.93.31h-.31l-.33-.31h-.31l-.31-.31c-.3-.61-.3-1.53-.3-1.53.3-.9.3-1.2.3-1.2,0-.61-.3-.92-.3-.92-.31,0-.31-.62-.31-.92,0-.9,0-1.2.31-1.2,0-.61,0-.92.3-.92s.31-.31.31-.31c.31,0,.31-.31,1.26-1.23q.31-.61.31-.89s-.31-.31-.31-1.23c-.31-.93-.31-1.23-.31-1.23v-.89s.31,0,.31-.31c.31,0,.31-.31.31-.31v-.92q0-.31.31-.31h.95c.61-.31.95-.31.95-.31h1.87s.31,0,.31-.3l.31-.31s0-.31.31-.31.3-.28.3-.28c0,0,.34,0,.34-.31.31-.61.31-.3.31-.92s.31-.92.31-.92h.95l.3-.31,1.57-.62v-.89s0-.31.31-.31c0-.31.31-.31.31-.31,0,0,.3,0,.3.31,0,0,.34,0,.34.31.31.31.31.89.31,1.2v3.04Zm-54.19,25.21c0-.11-.03-.19-.09-.28v-.02c-.08-.84-.61-1.62-.92-1.9l-.31-.3c-.62-.31-.62-.9-.92-1.2-.31-.92-.95-1.23-1.26-2.15-.03-.06-.03-.08-.03-.14-.11-.64-.11-1.32-.11-2.12-.09,0-.14-.02-.17-.05v-.73c-.06,0-.11,0-.14-.03v-2.57s-.06-.11-.2-.25v-.51s-.61-.92-.92-1.2c-.95-.31-.95-.92-1.26-1.23-.36-.37-.61-.73-.78-1.04.03-.25,0-.33-.14-.47v-.03c0-.56,0-.59-.28-.84t-.06-.06v-.02c0-.59-.3-.9-.3-.9-.37-.36-.62-.7-.76-1.01v-3.1c0-.62.31-.62.31-.92l.33-.31c.31-.31.31-.93.31-1.23s.31-1.2.31-1.51c0-.62.31-.93.31-.93q.64,0,.95-.3,0-.62.31-.93v-.89c0-.9,0-1.2-.28-2.07,0-.03,0-.06-.03-.09-.03-.19-.09-.45-.2-.75-.05-.09-.08-.17-.11-.25v-2.04c0-.11-.08-.28-.2-.53v-.22c0-.31-.61-1.23-.95-2.43-.36-.36-.61-.72-.75-1.03,0-.31-.03-.73-.2-1.04-.03-.39-.08-.81-.28-.98-.31,0-.31-.3-.31-.3-.64,0-.64-.62-.95-.93-.61-.61-.61-.92-.95-.92-.31-.31-1.23-.62-1.56-1.51-.26-.25-.95-.95-1.37-1.9v-.39c.62,0,.95-.62.95-.93,0-.61.3-1.23.3-1.54v-.58c.31,0,.31-.31.31-.31q.31-.62.31-.92v-2.12s-.09-.17-.17-.39v-.39s-.03-.06-.08-.14h.25v-.31s.28,0,.28-.25c-.17-.03-.31-.03-.42-.03-.08-.03-.17-.03-.17-.03h-.17c-.02-.06-.02-.08-.02-.14h.33v-.31s.28,0,.28-.25c-.2-.03-.33-.03-.45-.03-.08-.03-.16-.03-.16-.03h-.31v.31h-.31c-.31.31-1.26.31-1.57.31s-.95,0-1.26-.31c-.61-.31-.61-.92-.92-1.23-.64-.92-.64-1.23-.95-1.23,0-.31-.92-.31-1.26-.31h-4.35c0,.31-.31.31-.31.31,0,.31-.34.31-.34.31,0,.31-.61.31-.92.31-.95,0-.95.3-1.26.3,0,0-.62.31-.92.31-.34.62-.95.92-1.26.92h-.34s-.61-.3-.92-.3c-.62-.31-.95-.31-.95-.31h-3.74c-.31.31-.95.31-1.26.31-1.57.61-2.48.92-2.48.92-1.26-.31-2.21-.92-2.51-1.23,0-.31-.61-.92-.92-1.23-.31-.62-.95-.9-1.26-.9s-.95-.61-1.26-.92l-1.26-1.23c-.31-.62-.92-.92-1.23-.92-.33-.48-.59-.79-.75-.98v-.98l-.2-.17v-.62l-.31-.3v-.31c-.3,0-.3-.28-.3-.28-.65,0-.95-.31-.95-.31-.05-.06-.11-.14-.14-.22v-.26h-.08c-.08-.27-.08-.55-.08-.75h-.31q0-.62-.34-.92s-.61-.59-.92-.9c-.64-.31-.95-.92-.95-1.23-.06-.11-.11-.2-.14-.28v-.48l.33-.3v-.31h-.33v-.31l.14-.14v-.31h-.2c-.05-.08-.08-.19-.11-.25v-.36c-.06-.11-.11-.23-.14-.31.03-.22.08-.56.31-.78.64-.59.95-.9.95-.9.31-.31.31-.92.31-1.23.64-.31.64-.61.95-1.51v-2.76s.31,0,.31-.31c.3-.59.3-.89.3-.89v-.62h-.19c.03-.11.03-.17.03-.17v-.58h-.31c-.06-.06-.09-.11-.14-.17v-.31c0-1.2,0-1.82.92-2.12,0,0,.34-.3.34-.92s.31-.61.31-.92c0-.59.3-.9.3-.9l1.57-1.54c.61-.61.95-1.2.95-1.51l.31-.3v-.62s.61-.31.92-.31c.34,0,.95-.3,1.26-1.23,0-.59.31-.89.31-.89q.64-.31.95-.31h1.26s.61-.31.92-.31l.95-.31.31-.3c.31,0,.95-.31,1.26-1.23,0-.3.31-.58.31-1.51,0-.3,0-.92.31-1.23,0-.61.3-.61.3-.92.34-.59.34-.9.34-.9,0,0,0-.3.31-.3.61-.31.92-.31.92-.31.34-.62.64-.62,1.57-.92.3,0,.95-.62,1.26-.93.61-.31.61-.89.95-1.2.3-.92.92-1.23,1.23-1.23l.95.92h2.48s0,.31.33.31c0,.31.31.31.31.31.62,0,.62-.31.95-.31l.31-.31s0-.31.31-.31h.31v-.3h.3s0-.31.31-.31c.65-.31.95-.31.95-.31.31-.31,1.26-.31,1.57-.31h3.13c.62,0,.62.31.93.31,0,.31.33.31.33.31,1.23,0,1.57-.31,1.57-.31h2.79c.64,0,.64-.31.95-.31.61,0,.61-.3.95-.3q.31,0,.31.3v.31s0-.31.61.62c0-.26.2-.31.28-.31-.03.05-.08.11-.14.17-.31.58-.31.89-.31.89,0,.37.12.62.17.76,0,.47.17.75.25.86-.19.28-.53.65-.75.84q-.62,0-.92.31l-.31.28s0,.31.31.31h.36c-.06.03-.11.08-.2.17l-.3.3s0,.31.3.31h.34c.31,0,.31-.31.31-.31v-.3s.3,0,.3.3v.31s0,.31.31.31c.62,0,.62.28.95.28h2.48c.62,0,.95.31.95.31.62.31.31.31.93.31s.95,0,.95.3c0,0,.31.62.31.93l.3.3c0,.31.65.31,1.57.31,0,0,.64.31.95.31.62,0,.93.31.93.31l.33.28q.62.3.92.3c.31,0,.65,0,1.57-1.51.31,0,.31-.3.31-.92v-1.23c0-.28.31-.9,1.26-1.2.31-.31.95-.31,1.56-.31h.95c.61,0,.92.31.92.31,0,0,2.51-.31,2.51,0s.3.3.3.3h1.57c.62,0,.92.62.92.9h3.13c.33,0,.95.31,1.26.31q0,.31.3.31h.31c.34,0,.95,0,1.26-.31.64-.31.95-.31.95-.31h.31c0,.28.06.42.14.53,0,.06.03.09.06.11,0,.03.02.06.05.09.03.05.06.11.06.19v.31c0,.31.31.31.31.31v-.62c-.31,0,0,0,0-.3l.33-.31h.31c0,.31.31.31.31.31h2.76l.05.13v.17l.42,1.26v2.85c0,.3-.31.3-.31.3,0,0-.61,0-.92-.3-.64-.28-.95-.9-.95-1.2s-.31-.3-.31-.3h-.31v-.31c0-.31-.3-.31-.3-.31v.31c0,.47,0,.58.16.75v.03c0,.45,0,.56.14.7v.06l.06.02.11.14v.59l1.09,1.04v.02c0,.31.09.45.17.59v.17c0,.14,0,.25.06.34,0,.05.03.11.08.14,0,0,0,.02.03.08v.03s.03.05.06.08c0,0,0,.03.02.06.03.05.06.11.06.19v.31s0,.31.31.31c0,.61.33.92,1.26,2.12.3.59.61,1.18,1.45,1.98,0,.14.06.23.11.31v.14c0,.61.31.61.31.92,0,0,.64.62.95.92,0,0,0,.31.31.31l.31.31v.31c.33,0,.33.28.33.28.06.05.09.11.09.17.02.11.02.22.02.3v1.2c0,.33.09.67.23.98v.02c.08.81.61,1.62.89,1.9.65.3,1.26.92,1.57,1.23.64.61.95,1.23.95,1.51.06.05.11.11.14.17v.3c0,.48,0,.59.17.76v.03q0,.58.31.89s.64.31.95.31c.61,0,.61.31.92.31.34,0,.34.28.34.28,0,.3.3.3.3.3h.62v.03q0,.59.31.9c.64,0,.64.31.95.31s.31.3.31.3c.3,0,.3.31.3.31,0,0,.65.31.95.31l.67.67s-.11.08-.23.08q-.3,0-.3.31t.3.31h.31v.08c-.03.06-.08.06-.14.06q-.31,0-.31.31,0,.31.31.31h.31c0,.61.64.61.95.92,0,.31.31.31.31.31h.31c.3,0,.95-.31,1.25-.31.65-.31.95-.31.95-.31h.92q.64,0,.95-.31c.62-.3.92-.3.92-.3h1.9s.3,0,1.56-.31c0,0,.31-.31,0-.31.62-.28.93-.28.93-.28h.14v2.26c0,.61-.31.61-.31.92,0,.62-.34.92-.34.92-.3.62-.3.9-.3.9-.62.61-.93,1.23-.93,1.54-.64.3-.64.61-.95,1.54-.62.28-.92.89-.92,1.2-.95,1.23-1.9,2.43-2.21,2.74-1.26.92-2.18,1.84-2.48,2.15,0,0-.65,0-.95.31-.62,0-.95.31-.95.31l-1.23,1.2c-.3.31-1.26.62-1.56,1.54-.31.9-.95,1.2-1.26,2.12v.31l-.62.61c0,.62-.31.92-.31.92h-.33c0,.31-.31.31-.31.31-.31.31-.31.9-.31,1.2s-.64,1.23-.95,1.53c0,0,0,.31-.31.31v.59c0,.61-.3.92-.3.92v.93c0,.25,0,.69.16,1,.03.31.09.76.34.98.03,0,.08,0,.11.03v3.46c.09,0,.17.03.2.08v.7c.05,0,.08,0,.11.03v.73c0,.5,0,.81.2.89,0,.53.02.79.3.79.65.3.95.3.95.3.06,0,.12,0,.14.06v8.01c-.64,1.51-2.21,2.12-4.38,3.04-.95.61-1.56,1.23-2.51,2.12-.3.62-.92.62-1.25.93-.62,0-.93.31-.93.31q-.31,0-.31.3h-.64q-.31,0-.31.31v1.23l.2.06v.7l1.06.28v.47c.09.09.14.2.17.34v.42s.06.05.08.11l.03.03c.03.25.03.5.03.64,0,.59,0,1.2-.31,2.12,0,.31-.61.92-.95,1.23,0,0-.61.31-.92.31-.65.3-.95.3-.95.3q-.62.28-.93.28c-.64.31-.95.31-.95.31-.61.31-.92.93-.92,1.23v3.35l-.64.62c0,.61-.31.61-.31.92,0,.59-.65.59-.95.89l-1.23,1.23s-.65.3-.95,1.23c-.61.89-1.25,1.51-2.18,2.43-.64.92-1.56,1.2-2.82,2.12-.31,0-.95.3-1.26.3h-4.38c-.62,0-.62.31-.93.31,0,.31-.31.31-.31.31h-.95c-.95,0-.95.31-1.26.31q-.61.31-.92.31c-.95,0-1.26-.62-2.21-1.23-.39-.25-.67-.53-.84-.75h.09l.33-.31c.31,0,.31-.31.31-.31,0-.14-.14-.28-.34-.5.14-.08.14-.25.14-.25,0-.31-.61-.62-.92-1.54-.45-.84-.73-1.23-.87-1.4,0-.03-.02-.03-.02-.06m1.37-124.19c-17.17,0-73.74,3.04-77.48,40.79-1.26,10.36-.31,21.02,1.57,32.61,2.18,11.28,5.3,22.22,9.68,32.58,10.31,24.38,37.81,41.74,66.56,41.74s56.23-17.37,66.53-41.74c4.38-10.36,7.82-21.3,9.38-32.58,2.18-11.28,2.51-22.25,1.57-32.61-4.05-38.05-60.62-40.79-77.81-40.79m78.12,74.02c-2.18,11.56-5.3,22.53-9.68,32.89-10.31,24.68-39.06,42.97-68.43,42.97s-57.8-18.28-68.44-42.97c-4.35-10.36-7.79-21.33-9.68-32.89-2.18-11.59-2.48-22.56-1.54-32.92,4.04-39.9,61.84-42.94,79.66-42.94s75.94,3.04,79.68,42.94c1.26,10.66.31,21.33-1.57,32.92m7.51-33.81c-4.08-39.93-54.39-48.13-85.3-48.13s-81.56,8.21-85.33,48.13c-1.23,11.56-.3,23.14,1.57,34.71,2.21,11.59,5.31,23.48,10.33,34.14,11.87,27.7,43.42,46.29,73.74,46.29s61.87-18.6,73.74-46.6c4.38-10.66,8.12-22.56,10.3-34.11,1.26-11.28,1.87-22.87.95-34.43"/>
    <path class="cls-7" d="m201.99,135.08c.03.08.08.2.14.31v.36c-.14-.36-.14-.53-.14-.53v-.14Z"/>
    <path class="cls-7" d="m202.29,136.14c-.03-.06-.06-.08-.06-.14h.2v.31l-.14.14v-.31Z"/>
    <path class="cls-7" d="m204.64,141.16s-.08-.08-.14-.14c0,0-.61-.61-.95-.92-.62-.31-.92-.93-.92-1.23q-.34-.62-.34-.9v-.14c.03.08.08.17.14.28,0,.31.31.92.95,1.23.31.31.92.9.92.9q.34.3.34.92"/>
    <path class="cls-7" d="m204.81,126.09c-.22-.22-.28-.62-.31-.92.06.05.09.11.14.16h.31v.59s0,.06-.03.17h-.11Z"/>
    <path class="cls-7" d="m204.95,141.16c0,.2,0,.48.08.76h-.22c0-.48,0-.56-.17-.76h.31Z"/>
    <path class="cls-7" d="m206.51,143.29l.31.31v.61l-.14-.14v-.3c-.31,0-.31-.31-.31-.31-.62,0-.95-.31-.95-.31-.23-.22-.28-.67-.31-.98.03.08.08.17.14.22,0,0,.31.31.95.31,0,0,0,.28.31.28v.31Z"/>
    <path class="cls-7" d="m241.38,153.2c-.34.31-1.26.31-1.57.31-.33,0-.95,0-1.26-.31-.64-.31-.64-.92-.95-1.23-.61-.9-.61-1.2-.92-1.2,0-.31-.95-.31-1.26-.31h-4.38c0,.31-.31.31-.31.31,0,.3-.31.3-.31.3,0,.28-.61.28-.95.28-.92,0-.92.31-1.26.31,0,0-.61.31-.92.31-.31.61-.95.92-1.26.92h-.31s-.61-.31-.95-.31c-.61-.3-.92-.3-.92-.3h-3.74c-.34.3-.95.3-1.26.3-1.57.62-2.51.93-2.51.93-1.26-.31-2.18-.93-2.48-1.23,0-.31-.64-.93-.95-1.2-.31-.61-.95-.92-1.26-.92s-.92-.62-1.23-.92l-1.26-1.23c-.3-.59-.95-.9-1.26-.9-.61-.92-.92-1.23-.92-1.23v-.53c.17.19.42.5.76.98.3,0,.92.31,1.23.92l1.26,1.23c.3.31.95.93,1.26.93s.95.27,1.25.89c.31.31.93.92.93,1.23.31.31,1.26.92,2.51,1.23,0,0,.93-.31,2.49-.92.3,0,.95,0,1.25-.31h3.74s.34,0,.95.31c.31,0,.93.31.93.31h.33c.31,0,.93-.31,1.26-.93.31,0,.92-.3.92-.3.31,0,.31-.31,1.26-.31.31,0,.93,0,.93-.31,0,0,.33,0,.33-.31,0,0,.31,0,.31-.31h4.36c.33,0,1.25,0,1.25.31.31,0,.31.31.95,1.23.3.31.3.93.92,1.23.31.31.95.31,1.26.31s1.26,0,1.56-.31h.31v-.3h.31s.08,0,.17.02c.11,0,.25,0,.45.03,0,.25-.28.25-.28.25v.31h-.34c0,.06,0,.09.03.14h-.14v.31h-.31Z"/>
    <path class="cls-7" d="m242,153.5h.06c.05.08.08.14.08.14v.39c-.08-.19-.14-.39-.14-.53"/>
    <path class="cls-7" d="m241.69,153.2s0-.11.17-.2c.08-.05.17-.08.31-.08.11,0,.25,0,.42.03,0,.25-.28.25-.28.25h-.62Z"/>
    <path class="cls-7" d="m243.2,152.39c-.31-.08-.59-.17-.78-.2t.02-.05v-.31h.31c.31,0,.31.31.31.31,0,0,0,.17.14.25"/>
    <path class="cls-7" d="m245.74,167.52c-.31,0-.31-.31-.31-.31-.61,0-.61-.61-.92-.92-.64-.62-.64-.92-.95-.92-.31-.31-1.26-.59-1.57-1.51-.31-.3-1.26-1.23-1.57-2.43v-.22c.42.95,1.12,1.65,1.37,1.9.33.9,1.25,1.2,1.56,1.51.34,0,.34.31.95.92.31.31.31.93.95.93,0,0,0,.3.31.3.2.17.25.59.28.98,0-.08-.05-.16-.11-.22"/>
    <path class="cls-7" d="m243.7,105.82l.31-.28q.31-.31.92-.31c.22-.19.56-.56.76-.84.02.03.05.06.05.06.31,0,.31.31.31.31,0,.3-.61.92-.92,1.23h-.2c-.19,0-.31,0-.39.05-.03.03-.08.06-.17.09h-.36c-.31,0-.31-.31-.31-.31"/>
    <path class="cls-7" d="m245.43,103.53c-.06-.14-.17-.39-.17-.76,0,0,0-.3.31-.89.06-.06.11-.11.14-.17h.34q0,.62-.31.93c-.31.61-.31.89-.31.89"/>
    <path class="cls-7" d="m246.49,189.3s.31.31.31.89c-.06-.08-.11-.13-.11-.13-.65-.62-.95-1.23-.95-1.51v-.25c.14.31.4.65.76,1.01"/>
    <path class="cls-7" d="m247.14,191.11l-.14-.14c0-.31-.08-.53-.14-.7.28.25.28.28.28.84"/>
    <path class="cls-7" d="m246.05,168.78c.14.31.39.67.76,1.04.33,1.2.95,2.12.95,2.43v.22c-.23-.44-.56-1.09-.76-1.9-.61-.62-.95-1.23-.95-1.54v-.25Z"/>
    <path class="cls-7" d="m248.25,176.04c-.31-.62-.31-.9-.31-.9v-.11c.03.09.06.17.11.25.12.31.17.56.2.76"/>
    <path class="cls-7" d="m249.31,193.88c.31.28.92,1.2.92,1.2v.51c-.19-.28-.53-.76-.75-.95-.93-.31-.93-.93-1.23-1.23-.65-.61-.95-1.2-.95-1.51,0-.11,0-.19-.03-.28.17.31.42.68.78,1.04.31.31.31.92,1.26,1.23"/>
    <path class="cls-7" d="m250.43,198.4s.08.03.14.03v.73c-.14-.09-.14-.26-.14-.26v-.5Z"/>
    <path class="cls-7" d="m253.36,205.13c.31.28.84,1.06.92,1.9-.22-.53-.53-.95-.72-1.12l-.31-.3c-.64-.31-.64-.93-.95-1.23-.31-.92-.93-1.23-1.26-2.12-.09-.25-.14-.51-.17-.79.31.93.95,1.23,1.26,2.15.31.31.31.89.92,1.2l.31.31Z"/>
    <path class="cls-7" d="m255.43,209.54c-.62-1.2-.92-1.51-.92-1.51,0-.23-.03-.45-.12-.64.14.16.42.56.87,1.39.31.93.93,1.23.93,1.54,0,0,0,.17-.14.26-.2-.23-.45-.56-.62-1.04"/>
    <path class="cls-7" d="m278.38,112.18s.03.06.06.08l-.06-.02v-.06Z"/>
    <path class="cls-7" d="m279.8,114.64c-.08-.14-.17-.28-.17-.59l.17.14v.45Z"/>
  </g>
  <polygon class="cls-7" points="280.69 108.1 280.75 108.24 280.75 108.1 280.69 108.1"/>
  <g class="cls-2">
    <path class="cls-7" d="m278.24,111.46c-.17-.17-.17-.28-.17-.75v-.31s.31,0,.31.31v.3h.31s.31,0,.31.31.3.92.95,1.2c.3.31.92.31.92.31,0,0,.31,0,.31-.31v-2.85l.19.59v3.04c0,.3-.3.3-.3.3,0,0-.65,0-.95-.3-.61-.31-.92-.93-.92-1.23s-.31-.31-.31-.31h-.33v-.31c0-.31-.31-.31-.31-.31v.31Z"/>
    <path class="cls-7" d="m283.24,120.75c-.06-.08-.11-.17-.11-.31.03.06.05.09.11.14v.17Z"/>
    <path class="cls-7" d="m283.54,192.37c-.03-.14-.08-.25-.17-.34v-.47l.17.03v.78Z"/>
    <path class="cls-7" d="m283.65,192.93c.22.39.22,1.12.22,1.4,0,.61,0,1.2-.33,2.12,0,.31-.62.93-.93,1.23,0,0-.61.3-.95.3-.61.31-.92.31-.92.31q-.64.31-.95.31c-.62.31-.92.31-.92.31-.65.3-.95.89-.95,1.2v3.35l-.61.61c0,.62-.34.62-.34.93,0,.61-.61.61-.92.92-.31.28-.95.89-1.26,1.2,0,0-.61.31-.95,1.23-.62.93-1.23,1.51-2.18,2.43-.62.92-1.57,1.23-2.82,2.12-.31,0-.92.31-1.23.31h-4.38c-.62,0-.62.31-.95.31,0,.31-.31.31-.31.31h-.92c-.95,0-.95.3-1.26.3q-.65.31-.95.31c-.93,0-1.23-.61-2.18-1.23-.95-.59-1.25-1.2-1.25-1.51h.22c.17.22.45.5.84.76.95.61,1.26,1.23,2.21,1.23q.31,0,.92-.31c.31,0,.31-.31,1.26-.31h.95s.31,0,.31-.31c.31,0,.31-.3.92-.3h4.39c.3,0,.95-.31,1.25-.31,1.26-.93,2.18-1.2,2.82-2.12.92-.92,1.57-1.54,2.18-2.43.31-.93.95-1.23.95-1.23l1.23-1.23c.31-.31.95-.31.95-.9,0-.31.3-.31.3-.92l.65-.62v-3.35c0-.3.3-.92.92-1.23,0,0,.31,0,.95-.3q.31,0,.92-.28s.31,0,.95-.31c.3,0,.92-.31.92-.31.33-.31.95-.92.95-1.23.31-.92.31-1.54.31-2.12,0-.14,0-.39-.03-.64"/>
    <path class="cls-7" d="m285.55,124.41c0-.08,0-.2-.03-.31.23.31.23.81.23,1.06v1.23c0,.05,0,.14.02.19-.14-.31-.22-.64-.22-.98v-1.2Z"/>
    <path class="cls-7" d="m289.49,132.48c-.17-.17-.17-.28-.17-.76v-.3c.17.28.17.56.17,1.06"/>
    <path class="cls-7" d="m290.75,168.13v2.65c-.03-.06-.11-.09-.2-.09v-3.46c.2.12.2.62.2.9"/>
    <path class="cls-7" d="m291.05,173.13c-.2-.08-.2-.39-.2-.9v-.72c.2.05.2.28.2.28v1.34Z"/>
    <path class="cls-7" d="m292.45,174.28c.17.06.17.25.17.25v8.51c-.62,1.54-2.18,2.15-4.38,3.04-.93.62-1.57,1.23-2.48,2.15-.31.59-.95.59-1.26.89-.62,0-.95.31-.95.31q-.3,0-.3.31h-.62q-.31,0-.31.31v.53l-.19-.06v-1.23q0-.31.31-.31h.64q0-.3.31-.3s.31-.31.92-.31c.34-.31.95-.31,1.26-.92.95-.9,1.57-1.51,2.51-2.12,2.18-.92,3.74-1.54,4.38-3.04v-8.01Z"/>
    <path class="cls-7" d="m295.88,137.81q0-.31.31-.31c.11,0,.19-.05.22-.08l.25.25v.31s0,.19-.16.22v-.08h-.31q-.31,0-.31-.31"/>
    <path class="cls-7" d="m307.75,137.98h.17v3.04c0,.59-.31.59-.31.89,0,.62-.31.93-.31.93-.31.61-.31.92-.31.92-.64.62-.95,1.2-.95,1.51-.61.31-.61.62-.92,1.54-.64.31-.95.92-.95,1.2-.95,1.23-1.87,2.46-2.18,2.76-1.26.9-2.21,1.82-2.51,2.12,0,0-.62,0-.95.31-.62,0-.93.31-.93.31l-1.25,1.2c-.31.31-1.23.61-1.57,1.54-.31.92-.92,1.23-1.23,2.12v.31l-.65.62c0,.61-.3.92-.3.92h-.31c0,.31-.31.31-.31.31-.33.3-.33.92-.33,1.23,0,.28-.62,1.2-.93,1.51,0,0,0,.31-.31.31v.61c0,.62-.33.9-.33.9v1.17c-.17-.31-.17-.75-.17-1v-.93s.31-.31.31-.92v-.59c.31,0,.31-.31.31-.31.3-.3.95-1.23.95-1.53s0-.9.31-1.2c0,0,.3,0,.3-.31h.34s.31-.3.31-.92l.61-.61v-.31c.31-.93.95-1.23,1.26-2.12.31-.92,1.26-1.23,1.57-1.54l1.23-1.2s.33-.31.95-.31c.31-.31.95-.31.95-.31.31-.3,1.23-1.23,2.48-2.15.31-.31,1.26-1.51,2.21-2.74,0-.31.31-.92.92-1.2.31-.93.31-1.23.95-1.54,0-.31.3-.93.92-1.54,0,0,0-.28.31-.9,0,0,.33-.3.33-.92,0-.31.31-.31.31-.92v-2.26Z"/>
    <path class="cls-7" d="m307.92,137.67c.03.14.06.25.06.36l-.03-.02-.03-.03v-.31Z"/>
    <path class="cls-7" d="m308.25,138.26v.92c-.06-.08-.11-.28-.2-.75v-.06c-.02-.11-.05-.22-.08-.33l.08.05.2.17Z"/>
    <path class="cls-7" d="m243.2,152.39c-.31-.08-.59-.17-.78-.2t.02-.05v-.31h.31c.31,0,.31.31.31.31,0,0,0,.17.14.25"/>
    <path class="cls-7" d="m243.39,153.14c-.34-.08-.59-.17-.81-.2t.03-.05v-.31h.3c.34,0,.34.31.34.31,0,0,0,.17.14.25"/>
    <path class="cls-7" d="m308.56,182.12c0,.62-.65.92-.95.92v-.3c0-.31-.31-.31-.31-.31h-.31v.92s0,.62-.31.93c-.33,0-.33.61-.33.92v1.2l-.62.62c-.95,1.54-1.26,2.43-1.26,2.74-.61.31-.61.61-.92,1.54-.64.92-.64,1.82-.95,2.12-.62.93-.95,1.23-.95,1.23,0,.31,0,.62-.31,1.51q-.62.92-.92,1.23-.65.3-.95.3h-.95s0,.31-.3.31c-.62.31-.93.31-.93.31h-.31l-.33-.31h-.31l-.31-.31c-.3-.61-.3-1.53-.3-1.53.3-.9.3-1.2.3-1.2,0-.61-.3-.92-.3-.92-.31,0-.31-.62-.31-.92,0-.9,0-1.2.31-1.2,0-.61,0-.92.3-.92s.31-.31.31-.31c.31,0,.31-.31,1.26-1.23q.31-.61.31-.89s-.31-.31-.31-1.23c-.31-.93-.31-1.23-.31-1.23v-.89s.31,0,.31-.31c.31,0,.31-.31.31-.31v-.92q0-.31.31-.31h.95c.61-.31.95-.31.95-.31h1.87s.31,0,.31-.3l.31-.31s0-.31.31-.31.3-.28.3-.28c0,0,.34,0,.34-.31.31-.61.31-.3.31-.92s.31-.92.31-.92h.95l.3-.31,1.57-.62v-.89s0-.31.31-.31c0-.31.31-.31.31-.31,0,0,.3,0,.3.31,0,0,.34,0,.34.31.31.31.31.89.31,1.2v3.04Zm-54.19,25.21c0-.11-.03-.19-.09-.28v-.02c-.08-.84-.61-1.62-.92-1.9l-.31-.3c-.62-.31-.62-.9-.92-1.2-.31-.92-.95-1.23-1.26-2.15-.03-.06-.03-.08-.03-.14-.11-.64-.11-1.32-.11-2.12-.09,0-.14-.02-.17-.05v-.73c-.06,0-.11,0-.14-.03v-2.57s-.06-.11-.2-.25v-.51s-.61-.92-.92-1.2c-.95-.31-.95-.92-1.26-1.23-.36-.37-.61-.73-.78-1.04.03-.25,0-.33-.14-.47v-.03c0-.56,0-.59-.28-.84t-.06-.06v-.02c0-.59-.3-.9-.3-.9-.37-.36-.62-.7-.76-1.01v-3.1c0-.62.31-.62.31-.92l.33-.31c.31-.31.31-.93.31-1.23s.31-1.2.31-1.51c0-.62.31-.93.31-.93q.64,0,.95-.3,0-.62.31-.93v-.89c0-.9,0-1.2-.28-2.07,0-.03,0-.06-.03-.09-.03-.19-.09-.45-.2-.75-.05-.09-.08-.17-.11-.25v-2.04c0-.11-.08-.28-.2-.53v-.22c0-.31-.61-1.23-.95-2.43-.36-.36-.61-.72-.75-1.03,0-.31-.03-.73-.2-1.04-.03-.39-.08-.81-.28-.98-.31,0-.31-.3-.31-.3-.64,0-.64-.62-.95-.93-.61-.61-.61-.92-.95-.92-.31-.31-1.23-.62-1.56-1.51-.26-.25-.95-.95-1.37-1.9v-.39c.62,0,.95-.62.95-.93,0-.61.3-1.23.3-1.54v-.58c.31,0,.31-.31.31-.31q.31-.62.31-.92v-2.12s-.09-.17-.17-.39v-.39s-.03-.06-.08-.14h.25v-.31s.28,0,.28-.25c-.17-.03-.31-.03-.42-.03-.08-.03-.17-.03-.17-.03h-.17c-.02-.06-.02-.08-.02-.14h.33v-.31s.28,0,.28-.25c-.2-.03-.33-.03-.45-.03-.08-.03-.16-.03-.16-.03h-.31v.31h-.31c-.31.31-1.26.31-1.57.31s-.95,0-1.26-.31c-.61-.31-.61-.92-.92-1.23-.64-.92-.64-1.23-.95-1.23,0-.31-.92-.31-1.26-.31h-4.35c0,.31-.31.31-.31.31,0,.31-.34.31-.34.31,0,.31-.61.31-.92.31-.95,0-.95.3-1.26.3,0,0-.62.31-.92.31-.34.62-.95.92-1.26.92h-.34s-.61-.3-.92-.3c-.62-.31-.95-.31-.95-.31h-3.74c-.31.31-.95.31-1.26.31-1.57.61-2.48.92-2.48.92-1.26-.31-2.21-.92-2.51-1.23,0-.31-.61-.92-.92-1.23-.31-.62-.95-.9-1.26-.9s-.95-.61-1.26-.92l-1.26-1.23c-.31-.62-.92-.92-1.23-.92-.33-.48-.59-.79-.75-.98v-.98l-.2-.17v-.62l-.31-.3v-.31c-.3,0-.3-.28-.3-.28-.65,0-.95-.31-.95-.31-.05-.06-.11-.14-.14-.22v-.26h-.08c-.08-.27-.08-.55-.08-.75h-.31q0-.62-.34-.92s-.61-.59-.92-.9c-.64-.31-.95-.92-.95-1.23-.06-.11-.11-.2-.14-.28v-.48l.33-.3v-.31h-.33v-.31l.14-.14v-.31h-.2c-.05-.08-.08-.19-.11-.25v-.36c-.06-.11-.11-.23-.14-.31.03-.22.08-.56.31-.78.64-.59.95-.9.95-.9.31-.31.31-.92.31-1.23.64-.31.64-.61.95-1.51v-2.76s.31,0,.31-.31c.3-.59.3-.89.3-.89v-.62h-.19c.03-.11.03-.17.03-.17v-.58h-.31c-.06-.06-.09-.11-.14-.17v-.31c0-1.2,0-1.82.92-2.12,0,0,.34-.3.34-.92s.31-.61.31-.92c0-.59.3-.9.3-.9l1.57-1.54c.61-.61.95-1.2.95-1.51l.31-.3v-.62s.61-.31.92-.31c.34,0,.95-.3,1.26-1.23,0-.59.31-.89.31-.89q.64-.31.95-.31h1.26s.61-.31.92-.31l.95-.31.31-.3c.31,0,.95-.31,1.26-1.23,0-.3.31-.58.31-1.51,0-.3,0-.92.31-1.23,0-.61.3-.61.3-.92.34-.59.34-.9.34-.9,0,0,0-.3.31-.3.61-.31.92-.31.92-.31.34-.62.64-.62,1.57-.92.3,0,.95-.62,1.26-.93.61-.31.61-.89.95-1.2.3-.92.92-1.23,1.23-1.23l.95.92h2.48s0,.31.33.31c0,.31.31.31.31.31.62,0,.62-.31.95-.31l.31-.31s0-.31.31-.31h.31v-.3h.3s0-.31.31-.31c.65-.31.95-.31.95-.31.31-.31,1.26-.31,1.57-.31h3.13c.62,0,.62.31.93.31,0,.31.33.31.33.31,1.23,0,1.57-.31,1.57-.31h2.79c.64,0,.64-.31.95-.31.61,0,.61-.3.95-.3q.31,0,.31.3v.31s0-.31.61.62c0-.26.2-.31.28-.31-.03.05-.08.11-.14.17-.31.58-.31.89-.31.89,0,.37.12.62.17.76,0,.47.17.75.25.86-.19.28-.53.65-.75.84q-.62,0-.92.31l-.31.28s0,.31.31.31h.36c-.06.03-.11.08-.2.17l-.3.3s0,.31.3.31h.34c.31,0,.31-.31.31-.31v-.3s.3,0,.3.3v.31s0,.31.31.31c.62,0,.62.28.95.28h2.48c.62,0,.95.31.95.31.62.31.31.31.93.31s.95,0,.95.3c0,0,.31.62.31.93l.3.3c0,.31.65.31,1.57.31,0,0,.64.31.95.31.62,0,.93.31.93.31l.33.28q.62.3.92.3c.31,0,.65,0,1.57-1.51.31,0,.31-.3.31-.92v-1.23c0-.28.31-.9,1.26-1.2.31-.31.95-.31,1.56-.31h.95c.61,0,.92.31.92.31,0,0,2.51-.31,2.51,0s.3.3.3.3h1.57c.62,0,.92.62.92.9h3.13c.33,0,.95.31,1.26.31q0,.31.3.31h.31c.34,0,.95,0,1.26-.31.64-.31.95-.31.95-.31h.31c0,.28.06.42.14.53,0,.06.03.09.06.11,0,.03.02.06.05.09.03.05.06.11.06.19v.31c0,.31.31.31.31.31v-.62c-.31,0,0,0,0-.3l.33-.31h.31c0,.31.31.31.31.31h2.76l.05.13v.17l.42,1.26v2.85c0,.3-.31.3-.31.3,0,0-.61,0-.92-.3-.64-.28-.95-.9-.95-1.2s-.31-.3-.31-.3h-.31v-.31c0-.31-.3-.31-.3-.31v.31c0,.47,0,.58.16.75v.03c0,.45,0,.56.14.7v.06l.06.02.11.14v.59l1.09,1.04v.02c0,.31.09.45.17.59v.17c0,.14,0,.25.06.34,0,.05.03.11.08.14,0,0,0,.02.03.08v.03s.03.05.06.08c0,0,0,.03.02.06.03.05.06.11.06.19v.31s0,.31.31.31c0,.61.33.92,1.26,2.12.3.59.61,1.18,1.45,1.98,0,.14.06.23.11.31v.14c0,.61.31.61.31.92,0,0,.64.62.95.92,0,0,0,.31.31.31l.31.31v.31c.33,0,.33.28.33.28.06.05.09.11.09.17.02.11.02.22.02.3v1.2c0,.33.09.67.23.98v.02c.08.81.61,1.62.89,1.9.65.3,1.26.92,1.57,1.23.64.61.95,1.23.95,1.51.06.05.11.11.14.17v.3c0,.48,0,.59.17.76v.03q0,.58.31.89s.64.31.95.31c.61,0,.61.31.92.31.34,0,.34.28.34.28,0,.3.3.3.3.3h.62v.03q0,.59.31.9c.64,0,.64.31.95.31s.31.3.31.3c.3,0,.3.31.3.31,0,0,.65.31.95.31l.67.67s-.11.08-.23.08q-.3,0-.3.31t.3.31h.31v.08c-.03.06-.08.06-.14.06q-.31,0-.31.31,0,.31.31.31h.31c0,.61.64.61.95.92,0,.31.31.31.31.31h.31c.3,0,.95-.31,1.25-.31.65-.31.95-.31.95-.31h.92q.64,0,.95-.31c.62-.3.92-.3.92-.3h1.9s.3,0,1.56-.31c0,0,.31-.31,0-.31.62-.28.93-.28.93-.28h.14v2.26c0,.61-.31.61-.31.92,0,.62-.34.92-.34.92-.3.62-.3.9-.3.9-.62.61-.93,1.23-.93,1.54-.64.3-.64.61-.95,1.54-.62.28-.92.89-.92,1.2-.95,1.23-1.9,2.43-2.21,2.74-1.26.92-2.18,1.84-2.48,2.15,0,0-.65,0-.95.31-.62,0-.95.31-.95.31l-1.23,1.2c-.3.31-1.26.62-1.56,1.54-.31.9-.95,1.2-1.26,2.12v.31l-.62.61c0,.62-.31.92-.31.92h-.33c0,.31-.31.31-.31.31-.31.31-.31.9-.31,1.2s-.64,1.23-.95,1.53c0,0,0,.31-.31.31v.59c0,.61-.3.92-.3.92v.93c0,.25,0,.69.16,1,.03.31.09.76.34.98.03,0,.08,0,.11.03v3.46c.09,0,.17.03.2.08v.7c.05,0,.08,0,.11.03v.73c0,.5,0,.81.2.89,0,.53.02.79.3.79.65.3.95.3.95.3.06,0,.12,0,.14.06v8.01c-.64,1.51-2.21,2.12-4.38,3.04-.95.61-1.56,1.23-2.51,2.12-.3.62-.92.62-1.25.93-.62,0-.93.31-.93.31q-.31,0-.31.3h-.64q-.31,0-.31.31v1.23l.2.06v.7l1.06.28v.47c.09.09.14.2.17.34v.42s.06.05.08.11l.03.03c.03.25.03.5.03.64,0,.59,0,1.2-.31,2.12,0,.31-.61.92-.95,1.23,0,0-.61.31-.92.31-.65.3-.95.3-.95.3q-.62.28-.93.28c-.64.31-.95.31-.95.31-.61.31-.92.93-.92,1.23v3.35l-.64.62c0,.61-.31.61-.31.92,0,.59-.65.59-.95.89l-1.23,1.23s-.65.3-.95,1.23c-.61.89-1.25,1.51-2.18,2.43-.64.92-1.56,1.2-2.82,2.12-.31,0-.95.3-1.26.3h-4.38c-.62,0-.62.31-.93.31,0,.31-.31.31-.31.31h-.95c-.95,0-.95.31-1.26.31q-.61.31-.92.31c-.95,0-1.26-.62-2.21-1.23-.39-.25-.67-.53-.84-.75h.09l.33-.31c.31,0,.31-.31.31-.31,0-.14-.14-.28-.34-.5.14-.08.14-.25.14-.25,0-.31-.61-.62-.92-1.54-.45-.84-.73-1.23-.87-1.4,0-.03-.02-.03-.02-.06m1.37-124.19c-17.17,0-73.74,3.04-77.48,40.79-1.26,10.36-.31,21.02,1.57,32.61,2.18,11.28,5.3,22.22,9.68,32.58,10.31,24.38,37.81,41.74,66.56,41.74s56.23-17.37,66.53-41.74c4.38-10.36,7.82-21.3,9.38-32.58,2.18-11.28,2.51-22.25,1.57-32.61-4.05-38.05-60.62-40.79-77.81-40.79m78.12,74.02c-2.18,11.56-5.3,22.53-9.68,32.89-10.31,24.68-39.06,42.97-68.43,42.97s-57.8-18.28-68.44-42.97c-4.35-10.36-7.79-21.33-9.68-32.89-2.18-11.59-2.48-22.56-1.54-32.92,4.04-39.9,61.84-42.94,79.66-42.94s75.94,3.04,79.68,42.94c1.26,10.66.31,21.33-1.57,32.92m7.51-33.81c-4.08-39.93-54.39-48.13-85.3-48.13s-81.56,8.21-85.33,48.13c-1.23,11.56-.3,23.14,1.57,34.71,2.21,11.59,5.31,23.48,10.33,34.14,11.87,27.7,43.42,46.29,73.74,46.29s61.87-18.6,73.74-46.6c4.38-10.66,8.12-22.56,10.3-34.11,1.26-11.28,1.87-22.87.95-34.43"/>
    <path class="cls-7" d="m202.13,135.75c.03.06.06.17.11.25h-.11v-.25Z"/>
    <path class="cls-7" d="m202.29,136.75h.34v.31l-.34.31v.47c-.17-.33-.17-.39-.17-.64v-.62l.17-.14v.31Z"/>
    <path class="cls-7" d="m204.92,126.09h.2v.62s0,.3-.31.89c0,.31-.31.31-.31.31v2.76c-.31.89-.31,1.2-.95,1.51,0,.31,0,.92-.31,1.23,0,0-.31.31-.95.9-.22.22-.28.55-.31.78-.17-.42-.17-.62-.17-.62,0,0,0-.61.31-.92.62-.62.95-.9.95-.9.31-.3.31-.92.31-1.23.62-.3.62-.61.92-1.54v-2.74s.34,0,.34-.3c.17-.37.25-.62.28-.76"/>
    <path class="cls-7" d="m205.03,141.92h.08v.25c-.05-.08-.08-.17-.08-.25"/>
    <path class="cls-7" d="m206.82,144.21l.2.17v.98c-.14-.17-.2-.23-.2-.23v-.92Z"/>
    <path class="cls-7" d="m242.17,152.92c.11,0,.25,0,.42.03,0,.25-.28.25-.28.25v.31h-.25c-.03-.09-.09-.2-.14-.31-.03-.08-.03-.14-.06-.2-.03-.02-.03-.08-.03-.11h.17s.09,0,.17.03"/>
    <path class="cls-7" d="m242.14,152.44h-.64s0-.25.47-.28c.11,0,.25,0,.45.03,0,.25-.28.25-.28.25"/>
    <path class="cls-7" d="m242.14,154.03c.08.22.17.39.17.39v2.12q0,.31-.31.92s0,.31-.31.31v.59c0,.3-.31.92-.31,1.54,0,.3-.33.92-.95.92v.39c-.08-.17-.14-.36-.19-.56v-.59c.64,0,.95-.61.95-.92,0-.62.31-1.23.31-1.54v-.61c.3,0,.3-.31.3-.31q.34-.59.34-.9v-1.76Z"/>
    <path class="cls-7" d="m243.25,152.89s0,.17.14.25c-.34-.08-.59-.17-.81-.19t.03-.06v-.31h.3c.34,0,.34.31.34.31"/>
    <path class="cls-7" d="m245.57,103.7c.31,0,.31.31.31.31,0,.11-.06.25-.2.39-.08-.11-.25-.39-.25-.87.08.11.14.17.14.17"/>
    <path class="cls-7" d="m244.51,100.79c-.34,0-.34.31-.95.31-.31,0-.31.31-.95.31h-2.79s-.34.3-1.57.3c0,0-.33,0-.33-.3-.31,0-.31-.31-.93-.31h-3.13c-.31,0-1.26,0-1.57.31,0,0-.3,0-.95.3-.3,0-.3.31-.3.31h-.31v.31h-.31c-.31,0-.31.31-.31.31l-.31.3c-.33,0-.33.31-.95.31,0,0-.31,0-.31-.31-.33,0-.33-.3-.33-.3h-2.48l-.95-.93c-.31,0-.92.31-1.23,1.23-.34.31-.34.9-.95,1.2-.31.3-.95.92-1.26.92-.93.31-1.23.31-1.57.92,0,0-.31,0-.92.31-.31,0-.31.31-.31.31,0,0,0,.31-.34.89,0,.31-.3.31-.3.93-.31.31-.31.92-.31,1.23,0,.92-.31,1.2-.31,1.51-.31.92-.95,1.23-1.26,1.23l-.31.31-.95.31c-.31,0-.92.3-.92.3h-1.26q-.31,0-.95.31s-.31.31-.31.9c-.31.92-.92,1.23-1.26,1.23-.31,0-.92.31-.92.31v.61l-.31.31c0,.31-.33.89-.95,1.51l-1.57,1.54s-.3.31-.3.89c0,.31-.31.31-.31.93s-.34.92-.34.92c-.92.31-.92.92-.92,2.12v.3c-.2-.3-.2-.81-.2-1.06,0-1.23,0-1.84.95-2.12,0,0,.31-.3.31-.92s.31-.61.31-.92c0-.62.34-.93.34-.93l1.56-1.51c.62-.61.93-1.23.93-1.54l.3-.3v-.59s.65-.31.95-.31.93-.31,1.26-1.23c0-.61.31-.92.31-.92q.62-.31.95-.31h1.23s.65-.28.95-.28l.93-.31.31-.31c.33,0,.95-.3,1.25-1.23,0-.3.34-.61.34-1.51,0-.3,0-.92.31-1.23,0-.61.31-.61.31-.92.3-.62.3-.92.3-.92,0,0,0-.28.31-.28.64-.31.95-.31.95-.31.31-.62.62-.62,1.57-.93.31,0,.92-.61,1.23-.92.64-.31.64-.92.95-1.23.31-.89.95-1.2,1.26-1.2l.92.92h2.51s0,.28.31.28c0,.31.31.31.31.31.64,0,.64-.31.95-.31l.31-.28s0-.31.3-.31h.34v-.3h.31s0-.31.3-.31c.62-.31.93-.31.93-.31.33-.31,1.26-.31,1.57-.31h3.13c.64,0,.64.31.95.31,0,.31.31.31.31.31,1.26,0,1.56-.31,1.56-.31h2.82c.61,0,.61-.31.92-.31.65,0,.65-.31.95-.31s.31,0,.31.31v.31s0-.31.65.62c0-.31.3-.31.3-.31h.31c0,.47,0,.59-.14.75h-.03c-.08,0-.28.06-.28.31-.61-.92-.61-.61-.61-.61v-.31q0-.31-.31-.31"/>
    <path class="cls-7" d="m245.88,168.27c0-.11,0-.31-.03-.53.17.31.2.73.2,1.03-.11-.19-.17-.39-.17-.5"/>
    <path class="cls-7" d="m247.14,191.14c.14.14.17.22.14.48-.08-.2-.14-.37-.14-.48"/>
    <path class="cls-7" d="m247.94,172.99v2.04c-.2-.45-.2-.67-.2-.67v-1.9c.12.25.2.42.2.53"/>
    <path class="cls-7" d="m248.28,176.12c.28.87.28,1.17.28,2.07v.9q-.31.3-.31.92-.31.31-.95.31s-.31.3-.31.92c0,.31-.3,1.2-.3,1.51s0,.92-.31,1.23l-.34.31c0,.31-.31.31-.31.92v3.1c-.11-.23-.16-.39-.16-.53v-3.35c0-.62.3-.62.3-.9l.31-.3c.31-.31.31-.93.31-1.23s.31-1.23.31-1.54c0-.59.33-.9.33-.9q.62,0,.93-.31,0-.61.3-.92v-.92c0-.56,0-.9-.08-1.29"/>
    <path class="cls-7" d="m250.23,195.58c.14.14.2.25.2.25v2.57c-.2-.09-.2-.28-.2-.28v-2.54Z"/>
    <path class="cls-7" d="m250.74,199.21c0,.81,0,1.48.11,2.12-.22-.68-.28-1.34-.28-2.18.03.03.09.06.17.06"/>
    <path class="cls-7" d="m254.28,207.06c.06.08.08.17.08.28-.02-.03-.05-.06-.05-.06,0-.08,0-.14-.03-.22"/>
    <path class="cls-7" d="m256.04,210.57c.2.22.34.36.34.5,0,0,0,.31-.31.31l-.34.31h-.08c-.28-.31-.39-.59-.39-.76h.3l.31-.3c.09,0,.14-.03.17-.06"/>
    <path class="cls-7" d="m276.51,107.97c0,.08.03.14.06.17-.09-.14-.2-.28-.2-.65h-.31s-.31,0-.95.31c-.31.31-.92.31-1.26.31h-.31q-.3,0-.3-.31c-.31,0-.93-.31-1.26-.31h-3.13c0-.28-.3-.89-.92-.89h-1.57s-.3,0-.3-.31-2.51,0-2.51,0c0,0-.31-.31-.92-.31h-.95c-.61,0-1.25,0-1.56.31-.95.31-1.26.92-1.26,1.2v1.23c0,.61,0,.92-.31.92-.92,1.51-1.26,1.51-1.57,1.51s-.3,0-.92-.31l-.33-.28s-.31-.31-.93-.31c-.31,0-.95-.3-.95-.3-.92,0-1.57,0-1.57-.31l-.3-.31c0-.31-.31-.92-.31-.92,0-.31-.31-.31-.95-.31s-.31,0-.93-.31c0,0-.33-.31-.95-.31h-2.48c-.33,0-.33-.28-.95-.28-.31,0-.31-.3-.31-.3v-.31c0-.31-.3-.31-.3-.31v.31s0,.31-.31.31h-.34c-.3,0-.3-.31-.3-.31l.3-.31c.09-.08.14-.14.2-.17.08-.02.14-.05.17-.08.08-.11.08-.22.08-.22v-.28s.31,0,.31.28v.3s0,.31.33.31c.62,0,.62.31.93.31h2.51c.62,0,.93.31.93.31.61.3.31.3.95.3s.92,0,.92.31c0,0,.34.62.34.93l.31.3c0,.28.61.28,1.56.28,0,0,.62.31.93.31.64,0,.95.31.95.31l.3.31q.62.3.95.3c.3,0,.61,0,1.56-1.51.31,0,.31-.3.31-.92v-1.23c0-.31.31-.92,1.23-1.2.34-.31.95-.31,1.59-.31h.92c.62,0,.95.31.95.31,0,0,2.48-.31,2.48,0,0,.28.31.28.31.28h1.56c.65,0,.95.61.95.92h3.13c.31,0,.92.31,1.26.31q0,.3.31.3h.3c.31,0,.95,0,1.26-.3.62-.31.93-.31.93-.31h.3c0,.61.34.61.34.92v.31Z"/>
    <path class="cls-7" d="m278.24,111.48c.06.06.08.08.14.14v.56c-.14-.14-.14-.25-.14-.7"/>
  </g>
  <polygon class="cls-7" points="278.55 112.99 279.63 114.02 279.63 113.43 278.55 112.4 278.55 112.99"/>
  <g class="cls-1">
    <path class="cls-7" d="m279.94,115.28s0,.03.03.08c-.11-.11-.17-.28-.17-.56v-.16c.06.11.14.19.14.33v.31Z"/>
    <path class="cls-7" d="m280.7,108.11h-2.76s-.31,0-.31-.31h-.31l-.33.31c0,.31-.31.31,0,.31v.61s-.31,0-.31-.3v-.31c0-.09-.03-.14-.06-.2.09.06.2.06.2.06v-.62c-.31,0,0,0,0-.31l.31-.3h.31c0,.3.33.3.33.3h2.79v.31l.14.45Z"/>
  </g>
  <polygon class="cls-7" points="280.75 108.41 281.17 109.67 281.17 109.48 280.75 108.24 280.75 108.41"/>
  <g class="cls-6">
    <path class="cls-7" d="m283.12,120.45c-.84-.81-1.15-1.4-1.45-1.98-.92-1.2-1.25-1.51-1.25-2.12-.31,0-.31-.31-.31-.31v-.31c0-.08-.03-.14-.06-.19.03.02.11.05.2.05,0,.59.31.9,1.26,2.12.3.61.61,1.2,1.56,2.12v.31c0,.14,0,.23.06.31"/>
  </g>
  <polygon class="cls-7" points="282.32 191.28 283.38 191.56 283.38 190.83 282.32 190.58 282.32 191.28"/>
  <g class="cls-3">
    <path class="cls-7" d="m283.54,192.37c.06.17.08.34.08.53-.02-.05-.05-.08-.08-.11v-.42Z"/>
    <path class="cls-7" d="m285.25,123.18c.22.22.28.62.28.92,0-.05-.03-.11-.08-.16,0,0,0-.28-.34-.28v-.31l-.31-.31c-.31,0-.31-.31-.31-.31-.3-.31-.95-.92-.95-.92,0-.31-.3-.31-.3-.92v-.14c.08.08.14.16.14.3,0,0,.61.62.92.93,0,0,0,.28.33.28l.31.3v.31c.31,0,.31.31.31.31"/>
    <path class="cls-7" d="m288.99,130.5c.28.25.34.5.34.92-.03-.05-.09-.11-.14-.16,0-.28-.31-.9-.95-1.51-.3-.3-.92-.92-1.56-1.23-.28-.28-.81-1.09-.9-1.9.23.53.53.95.73,1.15.62.31,1.23.92,1.57,1.2.61.64.92,1.23.92,1.54"/>
    <path class="cls-7" d="m290.55,167.24s-.08-.03-.11-.03c-.25-.22-.31-.67-.34-.98.03.09.09.17.14.23.28,0,.31.47.31.78"/>
    <path class="cls-7" d="m290.75,170.79c.11.08.11.22.11.22v.51s-.05-.03-.11-.03v-.7Z"/>
    <path class="cls-7" d="m292.45,173.75v.53c-.03-.05-.08-.05-.14-.05,0,0-.31,0-.95-.31-.28,0-.31-.25-.31-.79.03.03.08.03.14.03.62.31.92.31.92.31.34,0,.34.28.34.28"/>
    <path class="cls-7" d="m290.75,133.71c-.31,0-.95-.31-.95-.31q-.31-.31-.31-.89c.06.05.08.08.14.14,0,0,.62.28.92.28.65,0,.65.3.95.3s.3.31.3.31c0,.31.31.31.31.31h.64c0,.48,0,.59.17.75h-.61s-.31,0-.31-.3c0,0,0-.28-.34-.28-.3,0-.3-.31-.92-.31"/>
    <path class="cls-7" d="m296.41,137.42l-.67-.67c-.31,0-.95-.31-.95-.31,0,0,0-.31-.31-.31,0,0,0-.3-.31-.3s-.31-.31-.95-.31q-.31-.31-.31-.9l.14.14c.62,0,.62.31.93.31.33,0,.33.31.33.31.31,0,.31.31.31.31,0,0,.62.3.92.3l.95.9v.31s0,.11-.08.22"/>
    <path class="cls-7" d="m307.44,137.2h.31v.78h-.14s-.31,0-.93.28c.31,0,0,.31,0,.31-1.25.31-1.56.31-1.56.31h-1.9s-.31,0-.93.31q-.3.3-.95.3h-.92s-.31,0-.95.31c-.31,0-.95.31-1.26.31h-.31s-.31,0-.31-.31c-.31-.31-.95-.31-.95-.92h-.31q-.3,0-.3-.31t.3-.31c.06,0,.12,0,.14-.05.06.53.65.56.93.84,0,.3.33.3.33.3h.31c.31,0,.95-.3,1.26-.3.61-.31.92-.31.92-.31h.95q.62,0,.93-.31c.64-.31.95-.31.95-.31h1.87s.31,0,1.57-.3c0,0,.31-.31,0-.31.61-.31.95-.31.95-.31"/>
    <path class="cls-7" d="m307.75,136.89c.03.14.03.25.06.36l-.06-.05v-.31Z"/>
    <path class="cls-7" d="m308.06,137.51v.92c-.06-.05-.08-.16-.11-.42-.03-.05-.03-.08-.03-.14-.03-.16-.06-.36-.11-.61l.25.25Z"/>
  </g>
</svg>