<?xml version="1.0" encoding="UTF-8"?>
<svg id="Layer_1" data-name="Layer 1" xmlns="http://www.w3.org/2000/svg" viewBox="0 0 512 512">
  <defs>
    <style>
      .cls-1 {
        fill: #99ca3c;
      }

      .cls-2 {
        fill: #1e76bd;
      }
    </style>
  </defs>
  <g>
    <path class="cls-2" d="m108.77,263.42l-9.74,24.27-9.84-24.27h-10.09v35.06h8.54v-21.07l7.89,21.07h6.89l7.84-21.03v21.03h8.54v-35.06h-10.04Z"/>
    <path class="cls-2" d="m146.62,270.61v3.95c-.8-1.3-1.94-2.35-3.42-3.15-1.48-.8-3.2-1.2-5.17-1.2-2.3,0-4.38.58-6.24,1.75-1.86,1.17-3.34,2.83-4.42,5-1.08,2.17-1.62,4.68-1.62,7.54s.54,5.39,1.62,7.56c1.08,2.18,2.56,3.87,4.42,5.05,1.87,1.18,3.93,1.77,6.2,1.77,1.96,0,3.69-.4,5.17-1.19,1.48-.8,2.64-1.85,3.47-3.15v3.94h8.54v-27.87h-8.54Zm-1.77,18.98c-1.18,1.23-2.62,1.85-4.32,1.85s-3.14-.63-4.32-1.87c-1.18-1.25-1.77-2.94-1.77-5.07s.59-3.81,1.77-5.02c1.18-1.21,2.62-1.82,4.32-1.82s3.13.62,4.32,1.85c1.18,1.23,1.77,2.91,1.77,5.05s-.59,3.81-1.77,5.05Z"/>
    <path class="cls-2" d="m188.65,273.49c-1.95-2.11-4.55-3.17-7.81-3.17-1.83,0-3.48.36-4.95,1.07s-2.63,1.69-3.5,2.92v-3.7h-8.54v27.87h8.54v-15.13c0-1.87.48-3.31,1.45-4.34.96-1.03,2.26-1.55,3.9-1.55s2.93.52,3.9,1.55c.96,1.03,1.45,2.48,1.45,4.34v15.13h8.49v-16.28c0-3.69-.97-6.6-2.92-8.71Z"/>
    <path class="cls-2" d="m224.81,273.49c-1.95-2.11-4.56-3.17-7.82-3.17-1.83,0-3.48.36-4.94,1.07-1.47.72-2.63,1.69-3.5,2.92v-3.7h-8.54v27.87h8.54v-15.13c0-1.87.48-3.31,1.45-4.34.96-1.03,2.27-1.55,3.9-1.55s2.93.52,3.9,1.55c.97,1.03,1.45,2.48,1.45,4.34v15.13h8.49v-16.28c0-3.69-.97-6.6-2.92-8.71Z"/>
    <path class="cls-2" d="m261.54,276.98c-1.26-2.18-3-3.85-5.19-5.02-2.2-1.17-4.66-1.75-7.39-1.75s-5.19.58-7.39,1.75c-2.2,1.17-3.93,2.84-5.2,5.02-1.26,2.18-1.9,4.7-1.9,7.57s.63,5.43,1.87,7.59c1.25,2.16,2.97,3.83,5.14,4.99,2.18,1.17,4.64,1.75,7.37,1.75s5.2-.58,7.41-1.75c2.21-1.17,3.96-2.84,5.24-5.02,1.28-2.18,1.93-4.7,1.93-7.56s-.63-5.39-1.9-7.57Zm-8.52,12.71c-1.15,1.2-2.54,1.8-4.17,1.8s-2.99-.6-4.07-1.8c-1.08-1.2-1.62-2.91-1.62-5.14s.55-3.99,1.65-5.17c1.1-1.18,2.48-1.77,4.15-1.77s3,.6,4.12,1.8c1.11,1.2,1.67,2.91,1.67,5.14s-.57,3.94-1.72,5.14Z"/>
    <path class="cls-2" d="m282.61,291.59c-1.56,0-2.81-.61-3.74-1.82-.93-1.21-1.4-2.95-1.4-5.22s.47-4,1.4-5.22c.93-1.21,2.18-1.83,3.74-1.83,2.2,0,3.68,1.07,4.45,3.2h9.09c-.73-3.33-2.27-5.91-4.62-7.74-2.34-1.83-5.27-2.75-8.76-2.75-2.73,0-5.15.58-7.27,1.75-2.11,1.17-3.76,2.83-4.95,5-1.18,2.17-1.77,4.69-1.77,7.59s.59,5.43,1.77,7.59c1.18,2.16,2.83,3.83,4.95,4.99,2.11,1.17,4.54,1.75,7.27,1.75,3.46,0,6.37-.93,8.74-2.79,2.36-1.87,3.91-4.43,4.65-7.69h-9.09c-.77,2.13-2.25,3.19-4.45,3.19Z"/>
    <path class="cls-2" d="m319.12,284.6l11.59-13.99h-10.54l-8.44,11.34v-18.27h-8.54v34.8h8.54v-11.69l8.49,11.69h10.59l-11.69-13.88Z"/>
    <path class="cls-2" d="m370.09,289.84c-1.28.77-2.74,1.15-4.37,1.15-2.63,0-4.76-.92-6.39-2.74-1.63-1.83-2.45-4.28-2.45-7.35s.81-5.51,2.45-7.34c1.63-1.83,3.76-2.74,6.39-2.74,1.63,0,3.09.38,4.37,1.15,1.28.77,2.27,1.89,2.97,3.35h9.39c-1-3.8-2.98-6.79-5.94-8.99-1.64-1.22-3.48-2.1-5.48-2.64-1.61-.44-3.35-.66-5.2-.66s-3.55.22-5.17.66c-1.39.38-2.71.91-3.95,1.61-2.68,1.52-4.77,3.63-6.26,6.34-1.5,2.71-2.25,5.8-2.25,9.26s.75,6.55,2.25,9.24c1.5,2.7,3.58,4.8,6.26,6.32,2.68,1.52,5.72,2.27,9.12,2.27,4.16,0,7.72-1.09,10.69-3.27,2.96-2.18,4.94-5.17,5.94-8.97h-9.39c-.7,1.47-1.69,2.58-2.97,3.35Z"/>
    <path class="cls-2" d="m409.37,270.61v3.95c-.79-1.3-1.94-2.35-3.42-3.15-1.48-.8-3.2-1.2-5.17-1.2-2.3,0-4.38.58-6.24,1.75-1.87,1.17-3.34,2.83-4.42,5-1.08,2.17-1.62,4.68-1.62,7.54s.54,5.39,1.62,7.56c1.09,2.18,2.56,3.87,4.42,5.05,1.86,1.18,3.93,1.77,6.19,1.77,1.96,0,3.69-.4,5.17-1.19,1.48-.8,2.64-1.85,3.47-3.15v3.94h8.54v-27.87h-8.54Zm-1.77,18.98c-1.18,1.23-2.62,1.85-4.32,1.85s-3.14-.63-4.32-1.87c-1.18-1.25-1.77-2.94-1.77-5.07s.59-3.81,1.77-5.02c1.18-1.21,2.62-1.82,4.32-1.82s3.14.62,4.32,1.85c1.18,1.23,1.77,2.91,1.77,5.05s-.59,3.81-1.77,5.05Z"/>
    <path class="cls-2" d="m438.88,271.64c-1.5.88-2.74,2.09-3.74,3.62v-4.65h-8.54v27.87h8.54v-12.93c0-2.3.53-3.9,1.59-4.82,1.07-.92,2.67-1.37,4.79-1.37h2.35v-9.04c-1.83,0-3.5.44-5,1.32Z"/>
    <path class="cls-2" d="m476.74,284.1c0-2.8-.59-5.24-1.78-7.34-1.18-2.1-2.82-3.71-4.92-4.85-2.1-1.13-4.5-1.7-7.19-1.7s-5.21.58-7.34,1.75c-2.13,1.17-3.79,2.83-4.97,5-1.18,2.17-1.77,4.69-1.77,7.59s.6,5.43,1.8,7.59c1.2,2.16,2.86,3.83,5,4.99,2.13,1.17,4.56,1.75,7.29,1.75,2.27,0,4.31-.41,6.15-1.25,1.83-.83,3.35-1.98,4.57-3.45,1.21-1.46,2.06-3.11,2.52-4.94h-9.09c-.83,1.8-2.32,2.7-4.45,2.7-1.43,0-2.64-.46-3.62-1.37-.98-.92-1.54-2.24-1.67-3.97h19.33c.1-.87.15-1.7.15-2.5Zm-19.43-2.25c.23-1.54.84-2.72,1.82-3.55.98-.83,2.19-1.25,3.62-1.25s2.74.43,3.75,1.3c1,.87,1.5,2.03,1.5,3.5h-10.69Z"/>
  </g>
  <g>
    <polygon class="cls-1" points="299.68 225.91 299.68 240.41 285.17 240.41 285.17 254.92 270.67 254.92 270.67 240.41 256.16 240.41 256.16 225.91 270.67 225.91 270.67 211.4 285.17 211.4 285.17 225.91 299.68 225.91"/>
    <path class="cls-2" d="m285.05,207.8h0s-14.38,0-14.38,0h0c0-4.76-3.86-8.63-8.63-8.63h-8.18c-4.76,0-8.63,3.86-8.63,8.63v18.17h7.33v14.38h-21.7v-32.55c0-12.71,10.3-23.01,23.01-23.01h8.18c12.71,0,23.01,10.3,23.01,23.01Z"/>
    <path class="cls-2" d="m270.79,207.8h0s14.38,0,14.38,0h0c0-4.76,3.86-8.63,8.63-8.63h8.18c4.76,0,8.63,3.86,8.63,8.63v18.17h-7.33s0,14.38,0,14.38h21.7s0-32.55,0-32.55c0-12.71-10.3-23.01-23.01-23.01h-8.18c-12.71,0-23.01,10.3-23.01,23.01Z"/>
  </g>
  <g>
    <path class="cls-1" d="m224.93,308.85c-.78-.73-1.84-1.17-3.18-1.34-.41-.05-.84-.08-1.3-.08h-5.62v17.41h2.27v-7.27h3.35c2.03,0,3.54-.48,4.53-1.44s1.49-2.16,1.49-3.61-.51-2.72-1.54-3.67Zm-1.69,6.02c-.6.55-1.53.82-2.79.82h-3.35v-6.39h3.35c2.46,0,3.7,1.07,3.7,3.22,0,1.02-.3,1.8-.9,2.35Z"/>
    <path class="cls-1" d="m240.84,313.54c-.47-.88-1.13-1.54-1.96-1.98-.83-.44-1.77-.66-2.8-.66s-1.87.19-2.66.58c-.79.38-1.41.92-1.86,1.62v-5.59h-2.27v17.33h2.27v-7.57c0-1.43.35-2.52,1.06-3.27.71-.75,1.66-1.13,2.86-1.13s2.11.36,2.8,1.09c.68.73,1.02,1.77,1.02,3.13v7.74h2.25v-8.07c0-1.26-.24-2.34-.71-3.22Z"/>
    <path class="cls-1" d="m256.01,311.15v2.5c-.43-.78-1.09-1.43-1.97-1.95-.88-.51-1.92-.78-3.12-.78s-2.32.29-3.31.87c-.99.58-1.77,1.41-2.34,2.46-.57,1.06-.85,2.28-.85,3.68s.28,2.61.85,3.69c.57,1.09,1.34,1.93,2.32,2.52.98.6,2.08.9,3.3.9s2.22-.26,3.11-.78c.89-.52,1.56-1.18,2.01-1.98v2.55h2.3v-13.68h-2.3Zm-.62,9.53c-.42.77-.98,1.36-1.69,1.77-.71.4-1.49.61-2.34.61s-1.62-.21-2.32-.61c-.7-.41-1.26-1-1.67-1.77-.41-.78-.63-1.69-.63-2.73s.21-1.93.63-2.7c.41-.77.97-1.35,1.67-1.75.7-.4,1.47-.6,2.32-.6s1.63.2,2.34.61,1.27.99,1.69,1.76c.41.77.62,1.67.62,2.7s-.21,1.94-.62,2.71Z"/>
    <path class="cls-1" d="m266.13,311.55c-.74.43-1.31,1.04-1.71,1.82v-2.22h-2.28v13.68h2.28v-7.44c0-2.76,1.27-4.14,3.82-4.14h.6v-2.35c-1.07,0-1.97.22-2.71.65Z"/>
    <path class="cls-1" d="m292.74,313.54c-.48-.88-1.14-1.54-1.97-1.98-.83-.44-1.78-.66-2.85-.66s-2.06.27-2.94.8c-.88.53-1.52,1.28-1.9,2.25-.43-1-1.09-1.75-1.97-2.27-.88-.51-1.9-.78-3.05-.78-.91,0-1.75.19-2.51.58-.76.38-1.36.93-1.81,1.64v-1.97h-2.27v13.68h2.27v-7.54c0-1.43.35-2.52,1.05-3.28.7-.76,1.64-1.14,2.82-1.14s2.06.36,2.73,1.09c.68.73,1.01,1.77,1.01,3.13v7.74h2.25v-7.54c0-1.43.35-2.52,1.05-3.28.7-.76,1.64-1.14,2.82-1.14s2.06.36,2.73,1.09c.68.73,1.01,1.77,1.01,3.13v7.74h2.25v-8.07c0-1.26-.24-2.34-.72-3.22Z"/>
    <path class="cls-1" d="m307.92,311.15v2.5c-.43-.78-1.09-1.43-1.97-1.95-.88-.51-1.93-.78-3.12-.78s-2.32.29-3.31.87c-.99.58-1.77,1.41-2.34,2.46-.57,1.06-.85,2.28-.85,3.68s.28,2.61.85,3.69c.57,1.09,1.34,1.93,2.33,2.52.98.6,2.08.9,3.29.9s2.22-.26,3.11-.78c.89-.52,1.56-1.18,2.01-1.98v2.55h2.3v-13.68h-2.3Zm-.62,9.53c-.42.77-.98,1.36-1.69,1.77-.71.4-1.49.61-2.34.61s-1.62-.21-2.32-.61c-.7-.41-1.26-1-1.67-1.77-.41-.78-.63-1.69-.63-2.73s.21-1.93.63-2.7c.41-.77.97-1.35,1.67-1.75.7-.4,1.47-.6,2.32-.6s1.63.2,2.34.61c.71.41,1.27.99,1.69,1.76.41.77.62,1.67.62,2.7s-.21,1.94-.62,2.71Z"/>
    <path class="cls-1" d="m322.38,322.43c-.67.47-1.5.7-2.5.7-1.3,0-2.34-.45-3.14-1.35-.8-.9-1.2-2.17-1.2-3.82s.4-2.89,1.2-3.79c.8-.89,1.85-1.33,3.14-1.33,1,0,1.84.24,2.51.73.68.48,1.13,1.14,1.36,1.97h2.45c-.35-1.45-1.07-2.58-2.16-3.4-1.09-.81-2.47-1.22-4.16-1.22-1.3,0-2.45.29-3.46.87-1.01.58-1.79,1.41-2.36,2.46-.56,1.06-.85,2.29-.85,3.71s.29,2.68.85,3.75c.57,1.06,1.35,1.89,2.36,2.47,1.01.58,2.16.87,3.46.87,1.65,0,3.02-.42,4.12-1.26,1.1-.84,1.83-1.96,2.2-3.36h-2.45c-.25.86-.71,1.53-1.37,1.99Z"/>
    <path class="cls-1" d="m338.66,311.15l-4.25,11.09-4.29-11.09h-2.52l5.52,13.53-2.7,6.6h2.34l8.24-20.13h-2.34Z"/>
  </g>
</svg>