<?xml version="1.0" encoding="UTF-8"?>
<svg id="Layer_1" data-name="Layer 1" xmlns="http://www.w3.org/2000/svg" viewBox="0 0 512 512">
  <defs>
    <style>
      .cls-1 {
        fill: #4a4a4b;
      }

      .cls-2 {
        fill: #e35039;
      }

      .cls-3 {
        fill: #e5503a;
      }

      .cls-4 {
        fill: #e75032;
      }
    </style>
  </defs>
  <path class="cls-2" d="m488.37,235.37c-1.68,3.56-3.49,7.07-5.02,10.7-2.57,6.09-7.54,9.94-12.37,14.06-2.88,2.45-5.22,5.61-7.45,8.7-1.46,2.02-1.08,4.53-.02,6.72,2.9,5.95,2,12.1.69,18.1-.75,3.41-3.51,5.84-6.68,7.29-3.34,1.53-4.59,3.69-4.4,7.44.22,4.13-1.27,7.87-5.05,10.3-.54.34-1.15.93-1.27,1.51-.9,4.01-3.44,7-6.05,9.92-2.59,2.89-5.23,5.79-8.17,8.32-3.26,2.8-7.34,3.69-11.61,3.77-1.65.03-3.33.23-4.92.66-6.88,1.86-12.67-1.54-13.57-8.53-.53-4.12-1.77-7.74-3.68-11.43-1.68-3.24-2.05-7.18-2.91-10.83-.27-1.17-.3-2.39-.43-3.59-.18-1.71.48-2.52,2.31-2.44,2.79.13,5.59.15,8.39.15,1.6,0,2.26.43,2.44,2.3.35,3.85.76,7.66,3.27,11.09,1.63,2.22,2.18,5.24,3.13,7.93.47,1.34,1.23,1.69,2.67,1.76,5.84.3,9.98-2.23,12.9-7.12.5-.84,1.11-1.63,1.78-2.33,1.21-1.26,1.73-2.65,1.72-4.46-.01-2.77,1.51-4.85,3.86-6.24,1.68-1,2.21-2.17,1.52-4.12-1.15-3.28-.11-6.17,2.45-8.33,2.87-2.41,5.98-4.53,8.9-6.89.65-.52,1.34-1.56,1.27-2.3-.22-2.53-.57-5.08-1.24-7.52-1.44-5.17-2.67-10.38-.23-15.46,1.25-2.59,3.15-4.97,5.15-7.08,3.4-3.6,7.02-7.01,10.71-10.32,2.26-2.03,4.4-4.03,5.28-7.14-.41-.08-.63-.19-.83-.15-5.88,1.2-10.45-1.39-12.73-6.92-.61-1.48-1.74-3.01-3.05-3.9-2.83-1.93-4.35-4.74-5.98-7.52-1.89-3.23-4.34-6.21-4.74-10.14-.03-.21-.19-.41-.3-.6-1.99-3.78-4.12-7.5-5.91-11.37-1.03-2.24-1.51-4.73-2.34-7.43-4.7,1.36-9.45-.92-14.41-2-.86-.19-2.22.4-2.9,1.08-4.08,4.06-6.12,4.45-11.41,1.99-4.96-2.31-9.95-4.52-14.92-6.82-2.88-1.33-5.02-3.26-5.51-6.65-.07-.48-1.12-1.19-1.67-1.15-3.35.24-6.67.66-10.33,1.06.07.13-.24-.18-.24-.49-.06-3.61-.17-7.22-.09-10.83.04-1.76,1.48-2.35,3-2.5,4.72-.48,9.44-1,14.17-1.33,4.88-.33,8.8,2.95,9.29,7.92.21,2.14,1.02,3.34,3.07,3.77.36.08.78.17,1.06.39,2.54,2.01,4.7,1.81,7.49-.1,3.19-2.19,7.03-1.39,10.44.1,4.49,1.96,9.03,2.78,13.9,2,3.79-.61,7.3.14,10.46,2.49,1.75,1.3,3.66,2.38,5.49,3.57,1.37.9,1.91,2.07,1.21,3.67-.48,1.1-.78,2.29-1.36,3.34-1.72,3.15-1.15,6.03.61,8.96,1.46,2.42,2.85,4.92,3.95,7.52,2.27,5.35,5.46,9.97,9.61,14.06,4.65,4.59,5.31,4.91,11.68,2.57,3.62-1.33,7.02-.04,8.86,3.32.31.57.72,1.07,1.09,1.61v5.89Z"/>
  <path class="cls-3" d="m462.05,347.75c-4.93-4.04-6.61-10.69-3.38-15.46,1.41-2.08,1.56-3.75,1-5.99-.79-3.17.77-6.44,4.04-7.39,4.56-1.33,7.15-4.49,9.42-8.23.15-.26.32-.51.51-.75,1.36-1.67,3.95-1.51,4.86.45,1.68,3.65,2.44,7.36.89,11.37-2.28,5.89-4.4,11.84-6.45,17.82-1.2,3.51-2.78,6.59-6.36,8.18h-4.54Z"/>
  <path class="cls-1" d="m70.09,227.42c-.12,0-.25,0-.38.02-4.28,10.85-8.55,21.7-12.85,32.62h14.62c-.47-10.99-.93-21.81-1.39-32.64m22.59,67.37h-19.99c-.4-5.42-.86-10.8-1.17-16.19-.21-3.62-.11-3.6-3.72-3.61-4.38-.01-8.77,0-13.15-.14-2.16-.07-3.3.82-4.06,2.78-2.03,5.19-4.14,10.35-6.35,15.47-.35.81-1.4,1.87-2.14,1.88-6.03.15-12.07.09-18.46.09.29-.88.43-1.51.69-2.08,11.94-27,23.9-54,35.81-81.02.87-1.99,2.01-2.9,4.26-2.85,6.42.13,12.85.1,19.27.03,1.91-.02,2.63.61,2.78,2.57,1.24,16.01,2.59,32.01,3.88,48.02.87,10.9,1.68,21.81,2.49,32.71.06.73-.08,1.48-.13,2.34"/>
  <path class="cls-1" d="m304.68,265.94c-.09-.21-.17-.42-.25-.63-2.96,1.18-6.06,2.1-8.86,3.59-3.32,1.79-4.36,5.05-4.1,8.68.19,2.65,2.1,4.38,4.77,4.52,4.49.25,8.8-2.88,9.92-7.29.48-1.89.87-3.81,1.24-5.73.57-3,.35-3.22-2.71-3.15m-19.81-16.76c-.38-3-.87-5.79-1.06-8.61-.27-4.16-.24-4.32,3.68-5.67,9.17-3.17,18.55-4.9,28.2-2.61,8.62,2.04,13.57,7.9,13.2,16.72-.31,7.41-1.66,14.78-2.73,22.14-1.12,7.74-2.44,15.44-3.72,23.44h-16.97c-.15-1.59-.31-3.19-.5-5.16-1.32.98-2.35,1.79-3.43,2.53-5.95,4.12-12.44,5.2-19.43,3.37-6.02-1.58-9.59-6.21-10.17-12.38-1.21-12.8,6.93-21.33,16.11-25.53,5.61-2.56,11.6-3.74,17.78-3.99,1.21-.05,3.05.97,3.53-1.29.47-2.17.15-4.28-1.89-5.33-1.68-.87-3.69-1.38-5.59-1.51-5.15-.36-10.01,1.03-14.71,3.03-.61.26-1.25.45-2.32.83"/>
  <path class="cls-1" d="m104.82,294.6c2.8-15.93,5.58-31.78,8.42-47.91h-8.17c.75-4.38,1.36-8.46,2.21-12.49.13-.63,1.32-1.33,2.11-1.46,1.4-.24,2.87-.11,4.3-.05,1.43.06,2.07-.39,2.38-1.96,1.19-6.12,3.21-11.95,7.5-16.69,7.86-8.67,17.77-10.8,28.91-8.78.74.13,1.47.29,2.32.46,0,.53.1,1.06-.02,1.52-1,3.94-2.14,7.85-3.04,11.82-.36,1.59-1.12,1.96-2.53,1.67-.15-.03-.3-.05-.45-.07-8.14-1.12-13.18,3.47-12.92,11.97h11.04c-.83,4.83-1.61,9.36-2.41,14.04-3.14,0-6.09.1-9.02-.03-1.75-.08-2.54.44-2.84,2.24-1.76,10.47-3.63,20.92-5.46,31.38-.75,4.3-1.42,8.62-2.3,12.89-.15.72-1.15,1.81-1.78,1.82-5.74.12-11.48.05-17.22.01-.21,0-.42-.15-1.01-.39"/>
  <path class="cls-1" d="m388.73,246.71c.81-4.57,1.47-8.57,2.27-12.54.11-.55.9-1.02,1.45-1.4.27-.18.73-.07,1.11-.08,5.32-.14,5.29-.14,6.25-5.43,1.31-7.23-.27-5.63,7.18-7.7,3.85-1.08,7.72-2.1,11.58-3.14.78-.21,1.57-.36,2.78-.62-1,5.77-1.95,11.2-2.94,16.91h12.88c-.83,4.79-1.6,9.29-2.41,13.97-3.77,0-7.3.04-10.84-.02-1.32-.03-2.18.27-2.4,1.72-1.34,8.78-2.87,17.53-3.98,26.33-.44,3.47,1.48,5.01,5.08,5.07,1.58.03,3.16,0,5.25,0-.37,2.82-.7,5.46-1.09,8.08-.16,1.12-.46,2.21-.65,3.33-.6,3.64-.6,3.91-4.09,4.16-4.5.31-9.08.66-13.53.13-7.18-.85-11.46-5.62-11.44-12.88.01-5.38.94-10.79,1.72-16.14.84-5.81,1.96-11.59,3.01-17.37.33-1.8-.23-2.53-2.1-2.41-1.56.11-3.13.02-5.08.02"/>
  <path class="cls-1" d="m377.95,247.99c-3.36-.9-6.37-2.08-9.47-2.42-2.19-.24-4.69.24-6.73,1.14-3.04,1.34-3.24,5.13-.45,6.94,2.65,1.72,5.58,2.99,8.36,4.51,6.34,3.44,9.95,8.63,9.21,15.99-.78,7.73-4.48,13.97-11.44,17.67-10.33,5.49-21.15,5.55-32.05,1.84-3.34-1.14-3.39-1.62-2.02-4.88,1.49-3.53,2.98-7.06,4.34-10.28,4.36,1.17,8.48,2.59,12.73,3.29,2.15.35,4.67-.25,6.76-1.09,3.16-1.27,3.58-5.29.89-7.39-1.4-1.1-3.18-1.7-4.71-2.65-2.87-1.77-5.96-3.33-8.48-5.52-4.46-3.89-5.49-9.08-4.04-14.67,2.36-9.12,8.51-14.69,17.27-17.56,7.84-2.57,15.6-2.02,23.28.83,1.65.61,2.02,1.39,1.27,3.06-1.67,3.69-3.16,7.47-4.72,11.21"/>
  <path class="cls-1" d="m264.14,279.28c.06,1.03.18,1.76.15,2.49-.16,3.32-.39,6.62-.54,9.94-.06,1.34-.45,2.26-1.93,2.63-7.89,2-15.85,2.67-23.67.12-9.5-3.11-14.21-9.93-14.99-19.9-1.37-17.51,8.83-34.32,25.13-40.51,7.88-2.99,15.99-3.47,24.22-1.32,1.72.45,2.36,1.16,1.6,3.01-1.45,3.55-2.75,7.17-4.01,10.8-.48,1.38-1.23,1.67-2.57,1.39-14.53-3.07-25.03,6.27-23.97,21.27.56,7.81,5.99,12.26,13.79,11.24,2.16-.28,4.29-.72,6.79-1.15"/>
  <path class="cls-1" d="m191.34,231.62c-1.08,6.24-2.14,12.36-3.22,18.64-1.16,0-2.2.06-3.24,0-9.84-.71-14.65,5.8-15.98,13.24-1.84,10.3-3.64,20.61-5.51,31.25h-19.7c3.57-20.7,7.09-41.14,10.65-61.75h16.63c-.23,2.99-.45,5.86-.67,8.74,5.4-6.67,11.58-11.42,21.03-10.11"/>
  <path class="cls-1" d="m188.41,295.07c3.62-20.77,7.17-41.13,10.72-61.51h19.77c-1.01,5.68-2.02,11.22-2.99,16.77-2.39,13.65-4.79,27.3-7.14,40.97-.65,3.76-.57,3.78-4.37,3.78h-16"/>
  <path class="cls-4" d="m222.91,211.71c-.02,7.46-5.65,13.18-12.93,13.13-4.14-.03-7.38-2.65-8.25-6.67-1.44-6.64,2.91-13.85,9.46-15.72,6.45-1.83,11.73,2.35,11.71,9.26"/>
</svg>