<?xml version="1.0" encoding="UTF-8"?>
<svg id="Layer_1" data-name="Layer 1" xmlns="http://www.w3.org/2000/svg" viewBox="0 0 512 512">
  <defs>
    <style>
      .cls-1 {
        fill: #08aa60;
      }

      .cls-2 {
        fill: #1c1f22;
      }

      .cls-3 {
        fill: #ef4347;
      }
    </style>
  </defs>
  <path class="cls-3" d="m103.35,228.59c0-4.27-.02-8.54-.03-12.81,0-.43-.03-.86-.05-1.3l.08-.02s.04-.04.04-.06c0-.04-.03-.08-.04-.12,0-.43.15-.77.5-1.02,13.27,0,26.54,0,39.8,0,.4,0,.8-.03,1.2-.05.6.08,1.21.08,1.81,0,.94.08,1.87.08,2.81,0h.4c2.36.12,4.71.03,7.07.04,1.13,0,2.26.07,3.38-.05,1.04.02,2.07.04,3.11.05,1.19.02,1.32.14,1.33,1.33.01,1.17-.08,2.34.03,3.51-.08,1.34-.08,2.68,0,4.02-.01,1.07-.06,2.14-.03,3.2.03,1.06-.32,1.92-1.02,2.7-2.53,2.8-5.04,5.62-7.56,8.43-.13.15-.29.28-.33.49h.01c-.08.05-.17.1-.24.17-1.87,2.1-3.75,4.19-5.62,6.29-.46.52-.89,1.08-1.33,1.62h0c-1.34,1.26-2.45,2.72-3.69,4.06-.72.78-1.48,1.53-2.05,2.44l-.03.03c-.27.09-.41.33-.59.53-1.64,1.84-3.27,3.69-4.91,5.53-2.49,2.8-4.98,5.6-7.47,8.4-.16.19-.43.33-.39.66.36.15.73.07,1.09.07,10.94,0,21.89,0,32.83,0,.23,0,.47,0,.7,0,.37-.02.56.13.56.52,0,.27,0,.53,0,.8,0,4.48.01,8.97.02,13.45,0,.17.01.33,0,.5-.05.67-.18.82-.84.89-.43.04-.87.04-1.3.04-4.08,0-8.16,0-12.25,0-.37,0-.73.03-1.1.05-1.29-.12-2.59-.05-3.88-.05-2.39,0-4.78.03-7.17.04-1.89-.12-3.78-.04-5.67-.05-1.39,0-2.79-.08-4.18.05-2.12-.02-4.25-.05-6.37-.04-1.56,0-3.12-.07-4.68.04-.37-.02-.73-.05-1.1-.05-4.08,0-8.15,0-12.23,0-.33,0-.67,0-1-.03-.32-.03-.58-.15-.64-.52.08-.13.08-.26-.03-.38l-.08-.02c.02-.36.05-.73.05-1.1.02-3.47.03-6.94.05-10.41.13-.3.1-.6.02-.9.12-.33.08-.67.38-.99,1.45-1.56,2.86-3.16,4.26-4.76.81-.93,1.7-1.79,2.38-2.83,0,0,.02-.02.02-.02.55-.39.99-.89,1.35-1.46,0,0-.01,0-.01,0,.06-.03.13-.05.17-.1,2.94-3.3,5.88-6.6,8.81-9.9,3.4-3.83,6.79-7.66,10.18-11.49,2.31-2.6,4.63-5.19,6.94-7.79.2-.23.52-.43.41-.87h-1.03c-9.2,0-18.41,0-27.62,0-1.37,0-2.75,0-4.12,0-.44,0-.89,0-1.09-.52.04-.11.04-.21-.05-.29"/>
  <path class="cls-2" d="m188.66,262.1c1.11-.77,2.04-1.72,2.82-2.81.33-.47.67-.94,1-1.41.91-1.07,1.35-2.39,1.82-3.68.28-.76.63-1.51.61-2.35.21-.07.22-.23.17-.41.48-1.86.56-3.75.27-5.65-.18-1.16-.34-2.33-.88-3.4.04-.34-.12-.59-.35-.81-.03-.6-.37-1.08-.59-1.61-.03-.28-.15-.5-.42-.63,0-.15,0-.31-.16-.39-.2-.46-.47-.87-.83-1.22h0c-.63-.88-1.23-1.81-2.12-2.48,0,0-.03-.03-.03-.03-.57-.43-.96-1.09-1.7-1.3-.33-.67-1.03-.89-1.61-1.24-1.43-.86-2.96-1.51-4.62-1.78-.12-.28-.36-.24-.59-.23-1.56-.46-3.17-.48-4.77-.51-2.64-.05-5.29-.01-7.93-.02-.85,0-.86-.01-.86-.88,0-5.16,0-10.31,0-15.47,0-.95,0-.96.93-.96,3.92,0,7.83-.15,11.75,0,1.34.05,2.67.17,4,.32.17.46.42.31.68.09.24.04.48.08.73.12.08.25.19.44.47.19.18-.14.36-.06.55-.04.04.29.2.38.48.3.19.02.38.03.58.05.03.11.07.19.21.13.49-.09.91.31,1.41.21.16.01.21.25.4.19.39-.12.65.23,1,.26.5.27,1.05.37,1.61.4.22.24.48.37.81.35.33.34.72.5,1.2.45.06.23.26.16.41.2.16.22.42.25.64.34.52.29,1.04.57,1.55.85.03.11.07.2.21.16.25.13.49.26.74.4.06.13.16.21.31.18,1.68,1.05,3.23,2.27,4.78,3.49.02.12.08.18.2.19.25.55.89.65,1.23,1.1.91,1.21,1.91,2.34,3,3.38,0,.07.02.11.1.13.06.16.05.38.29.42.08.13.17.26.25.4-.03.14.04.19.16.18.07.07.14.14.2.21-.03.3.13.48.37.62-.03.37.33.51.46.79l1.41,2.27c.34.72.68,1.43,1.01,2.15,0,.49.26.85.55,1.21l.26.8c.11.44.29.85.58,1.2,0,.14.02.28.03.41-.05.14.03.19.15.21.02.13.04.26.06.39-.05.14.03.19.14.22.02.13.03.26.05.38-.05.14.02.2.15.23.02.19.03.38.05.57-.04.14.04.2.16.22.02.2.04.39.07.59-.06.14.02.19.14.21.03.13.06.26.1.39-.01.43.1.83.24,1.23.48,3.01.65,6.03.45,9.06-.08,1.2-.4,2.37-.38,3.57-.17.31-.16.66-.23.99h.01c-.12.02-.19.08-.13.21-.02.19-.04.39-.07.58-.12.03-.2.09-.14.23-.02.13-.03.27-.05.4-.24.06-.2.23-.15.4,0,.13,0,.27-.01.4-.83,1.68-1.29,3.52-2.06,5.22-.14.05-.16.15-.1.27-.22.52-.61.95-.69,1.54-.15.09-.21.23-.22.4-.54.81-1.12,1.6-1.6,2.45-.19.33-.63.51-.61.97-.19.27-.39.54-.58.81-.24.04-.22.26-.28.42-.07,0-.11.05-.1.12-1.08,1.15-2.12,2.34-3.27,3.42-.56.53-1.18,1.01-1.63,1.65h-.08s-.07.05-.07.05c-.4.12-.56.51-.84.76h-.09s-.08.04-.08.04c-.14-.03-.19.04-.2.17-.2.14-.41.29-.61.43-.14-.03-.2.04-.21.17h0c-.81.53-1.61,1.07-2.42,1.61-.09.03-.18.05-.2.16-.16.02-.31.06-.39.23-.2.08-.4.17-.6.25-.14-.04-.2.03-.21.16-.13.08-.26.17-.39.25-.17-.02-.28.1-.4.18-.34.14-.67.28-1,.43-.22.07-.46.12-.62.32-.34.14-.71.23-.99.48-.35-.07-.58.12-.82.32-.64.1-1.25.28-1.81.61-.49.05-.97.15-1.41.41-.29.02-.58,0-.8.25-.22,0-.46-.13-.62.13-.13.03-.26.06-.39.09-.26-.11-.41.12-.6.19-.44-.12-.85.07-1.28.12-.99.14-1.97.26-2.96.4-.13-.06-.26-.04-.39.03-4.38,0-8.76,0-13.14.01-.2,0-.4,0-.6,0-.75-.01-.76-.02-.76-.78,0-5.15,0-10.3,0-15.45,0-.75.01-.76.78-.76,3.18,0,6.36.06,9.53-.06.8-.03,1.6-.1,2.39-.28.22.03.46.18.62-.11.49-.07.99-.08,1.39-.44.45-.01.88-.05,1.22-.4,1.03-.24,1.98-.66,2.83-1.29.65-.21,1.17-.61,1.61-1.12.07.02.12,0,.17-.05.14.03.18-.04.19-.17"/>
  <path class="cls-1" d="m253.59,253.46c.02.13.03.27.05.4-.03.13.03.19.15.2h0c.2.59.39,1.19.66,1.76.47,1.01.98,2.02,1.33,3.07.53,1.62,1.28,3.14,1.91,4.71.91,2.26,1.93,4.48,2.86,6.74,1.21,2.93,2.42,5.86,3.69,8.76.52,1.19.95,2.41,1.43,3.62-.38.19-.72.11-1.05.11-3.88,0-7.76,0-11.64,0-.33,0-.67-.05-1,.06-.13-.06-.26-.06-.39,0-1.43-.14-2.86-.03-4.28-.05-1.83-.02-1.83,0-2.74-1.48.03-.36-.2-.66-.28-1-.4-1.02-.79-2.03-1.19-3.05-.13-.26-.26-.51-.4-.77-.03-.53-.26-.99-.55-1.41-.04-.13-.07-.26-.11-.39-.22-.61-.39-1.24-.7-1.82-.04-.21-.01-.45-.23-.59-.15-.43-.28-.87-.46-1.3-.31-.77-.6-.93-1.53-.9-2.55-.09-5.09-.07-7.64.01-1.07-.08-2.15-.09-3.22,0-.34-.08-.67-.07-1,0-.37-.02-.73-.05-1.1-.05-4.55,0-9.11,0-13.66,0-.27,0-.53,0-.8,0-.23,0-.24-.18-.27-.35h-.01c.33-.36.62-.75.77-1.24h0c.06-.01.17,0,.19-.04.44-.88,1.12-1.62,1.44-2.56h0c.82-.93,1.16-2.1,1.61-3.22.19-.07.17-.25.21-.4.66-1.13,1.07-2.35,1.35-3.63.04-.34.36-.62.26-1,.31-.19.13-.62.4-.83.03-.01.07-.03.07-.03,0-.04-.02-.09-.04-.13.26-1.22.32-1.26,1.59-1.28.8-.02,1.6.1,2.39-.06.23.03.46.08.69.08,3.36,0,6.71,0,10.07,0,.23,0,.46-.04.69-.07.38.11.77.12,1.19,0-.22-1.05-.58-2.03-1.18-2.91,0-.06,0-.12-.04-.17.07-.66-.39-1.16-.61-1.72-.3-.77-.39-1.65-.96-2.32h0c-.37-1.35-.85-2.65-1.61-3.84-.01-.12-.03-.24-.04-.37-.15-.42-.31-.84-.42-1.28-.23-.91-.69-1.74-1.15-2.55h0c-.17-.71-.36-1.41-.82-2.01.05-.24-.13-.4-.23-.58.02-.39-.15-.71-.37-1.01,0-.29-.05-.57-.24-.8-.22-.62-.39-1.26-.77-1.82,0-.07-.01-.13-.05-.19-.23-.39-.04-.97-.55-1.22,0-.06,0-.13-.04-.18-.46-1.24-.93-2.48-1.4-3.72-.02-.05-.1-.07-.16-.11.01-.61-.18-1.15-.6-1.61-.1-.97-.58-1.78-1.02-2.61-.01-.16.01-.33-.18-.4l-1.26-3.45c-.04-.53-.27-.97-.6-1.37.06-.35-.03-.63-.36-.81-.02-.13-.04-.26-.06-.4-.31-.51-.24-1.21-.75-1.63,0-.15.02-.33-.18-.39.07-.32-.16-.56-.24-.84-.25-.9-.87-1.69-.78-2.77h1.13c4.55,0,9.09,0,13.64,0,.7,0,1.4-.04,2.1-.06.4.08.8.06,1.21.03.3.2.63.34.78.73.56,1.49,1.36,2.89,1.82,4.43.08.25.21.4.39.54h-.01c.06.28.02.58.19.85.36.55.52,1.2.8,1.77.36.72.47,1.56,1.03,2.18.02.13.04.27.07.4-.04.13.03.19.14.21h0c.38,1.33.97,2.58,1.6,3.81.04.15.09.3.23.39.51,1.87,1.41,3.58,2.09,5.39.53,1.41,1.11,2.8,1.78,4.14.3.6.28,1.35.85,1.81h0c.13.62.36,1.2.63,1.77.51,1.11,1.02,2.22,1.45,3.36.17.44.34.85.64,1.21.01.13.03.27.04.4.13.88.69,1.58.98,2.4.2.56.32,1.18.77,1.63.04.15.08.3.22.39.35,1.19.69,2.38,1.39,3.42"/>
  <path class="cls-2" d="m272.71,282.25q-2.11.2-2.11-1.79c0-22.83,0-45.66,0-68.49,0-1.22-.19-1.05,1.05-1.07.13,0,.27.02.4,0,.56-.09.71.19.66.69-.02.16,0,.33,0,.5v70.16Z"/>
  <path class="cls-2" d="m306.64,224.53c.3.67.6,1.33.89,2,.07.62.36,1.12.74,1.59.09.13.03.33.21.41.04.68.6,1.09.82,1.85.46-.73.72-1.38.94-2.04.11-.19.28-.35.25-.6.24-.21.36-.49.43-.79.26-.37.48-.77.57-1.22.2-.15.25-.38.31-.61.07-.28.32-.48.3-.79.18-.06.22-.22.26-.38h3.52c-.01.07.01.13.06.17.01,3.75.02,7.5.03,11.25-.03.13-.06.26-.09.38-.8.01-1.6.02-2.4.03-.16-.09-.16-.27-.22-.41.07-1.74.07-3.48,0-5.22.06-.46.08-.91-.04-1.56-.35.64-.69,1.03-.76,1.55-.36.49-.64,1.02-.8,1.61-.37.49-.63,1.04-.81,1.62-.04.05-.08.11-.12.16-.16.34-.46.63-.44,1.04-.14.08-.28.16-.42.24-.1-.01-.2-.06-.29-.04-.93.16-1.27-.35-1.62-1.15-.71-1.65-1.58-3.22-2.38-4.83-.19.67-.22,1.31-.13,1.96-.02,1.4-.03,2.8-.05,4.21-.01.78-.01.78-.75.8-.47,0-.94-.01-1.4,0-.34.01-.49-.13-.48-.46,0-.2,0-.4,0-.6,0-3.24,0-6.48,0-9.72,0-1.2-.12-1.03,1.09-1.04.8-.01,1.6-.01,2.4-.02.22.15.13.49.38.62"/>
  <path class="cls-2" d="m364.58,243.85c0,.09,0,.18,0,.27.86,1.5,1.51,3.1,2.28,4.66.46-.19.52-.66.7-1.04.74-1.56,1.48-3.13,2.2-4.7.16-.35.36-.52.75-.51,1.03.04,2.06-.07,3.09.06.01.14.03.28.04.42-.02.8-.04,1.6-.04,2.4,0,2.63,0,5.27,0,7.9q0,.96-.91,1.03s-.06.02-.1.02c-.4-.07-.8-.07-1.2,0-.5-.04-.42-.42-.42-.75,0-1.87,0-3.75,0-5.62,0-.24-.03-.48-.04-.72-1.06,1.82-2.01,3.63-2.89,5.48-.25.53-.59.61-1.1.6-.47,0-.8-.07-1.03-.56-.87-1.83-1.8-3.63-2.71-5.45,0-.11-.05-.23-.15-.19-.16.06-.1.2-.04.32.02.73-.08,1.46.06,2.18-.14,1.33-.06,2.67-.05,4.01,0,.53-.17.7-.68.67-.53-.03-1.07.02-1.6.04-.34-.07-.36-.31-.36-.6,0-3.54,0-7.09,0-10.63,0-.41.12-.62.56-.6.5.02,1.01.07,1.5,0,1.14-.19,1.83.24,2.15,1.33"/>
  <path class="cls-2" d="m317.65,272.83c-.9.17-1.8.12-2.7.03.03-.24.04-.48-.04-.71.12-1.09.05-2.19.05-3.28,0-2.52-.03-5.05-.04-7.57.79-.4,1.63-.14,2.45-.16.16,0,.23.2.33.34,1.27,1.69,2.52,3.38,3.84,5.03.5.62.87,1.38,1.63,1.89.08-.63.09-1.15,0-1.68.11-1.84.08-3.68.02-5.51.62-.22,1.26-.09,1.88-.1.75-.02.75,0,.89.79-.12,2.22-.04,4.44-.04,6.67,0,1.13-.07,2.25.05,3.38-.09.3-.06.61-.04.91-.91.13-1.83.08-2.75.03-1.73-2.42-3.61-4.71-5.47-7.06-.03.73-.18,1.42-.02,2.11-.11,1.34-.11,2.68,0,4.01-.11.29-.09.59-.03.89"/>
  <path class="cls-2" d="m397.91,254.36c-.53-.08-1.07-.07-1.6,0-.4,0-.69-.21-.92-.51-.92-1.23-1.84-2.46-2.76-3.69-.74-.98-1.5-1.95-2.38-3.08-.07.86-.09,1.51,0,2.16-.09,1.48-.09,2.95,0,4.42-.12.24.03.63-.39.7-.6-.08-1.2-.08-1.8,0-.14,0-.27-.02-.41-.03-.2-.34-.11-.72-.11-1.07,0-3.19,0-6.38,0-9.57,0-.33-.04-.66-.06-.99.77-.34,1.58-.21,2.35-.12.48.05.7.65.97,1.05.13.19.29.36.44.53.89,1.09,1.62,2.3,2.62,3.3h0c.44.9,1.17,1.57,1.83,2.35.11-.68.18-1.33.04-1.98.11-1.6.11-3.21,0-4.81.1-.19.09-.49.41-.48.78.03,1.58-.13,2.35.11v11.57c-.2.05-.39.09-.59.14"/>
  <path class="cls-2" d="m322.85,228.74c.3,0,.6.02.9,0,.6-.04,1.09-.53,1.16-1.14.08-.58-.25-1.08-.86-1.25-.41-.12-.83-.2-1.27-.19-1.48.04-1.25-.19-1.26,1.27-.01,1.3,0,1.3,1.34,1.31m.27,4.81c.37,0,.73.02,1.1,0,.56-.03,1.25-.64,1.32-1.15.1-.71-.18-1.17-.95-1.4-.64-.19-1.3-.24-1.97-.22-1.26.03-1.1-.15-1.11,1.13,0,1.66,0,1.66,1.61,1.64m1.22,2.25c-1.81-.01-3.61-.03-5.42-.04-.03-.13-.06-.25-.08-.38.01-2.16.03-4.31.04-6.47,0-1.46-.01-2.92-.02-4.38.07-.14-.03-.18-.14-.22h0c-.09-.52.37-.3.58-.42,1.54.08,3.08.06,4.62.01.54.12,1.1.15,1.61.4.2.07.4.13.6.2.7.44,1.18,1.04,1.39,1.85.11.53.09,1.06-.01,1.59-.26.71-.78,1.21-1.46,1.63.25.16.4.27.57.36,1.52.78,2.04,2.27,1.34,3.81-.25.56-.62,1-1.05,1.41-.23.02-.41.16-.59.28-.67.13-1.34.25-2.01.37"/>
  <path class="cls-2" d="m337.01,248.32c.04.9.24,1.71.79,2.5,1.37,1.98,4.61,1.67,5.72-.5.63-1.22.67-2.46.09-3.72-1.01-2.2-4.05-2.73-5.61-.9-.65.77-1.01,1.62-.99,2.63m4.42,6.14c-.54,0-1.07.01-1.61.02-.83-.1-1.59-.45-2.4-.63h0c-.12-.4-.55-.44-.82-.66-.86-.72-1.44-1.62-2.03-2.54-.07-.34-.14-.67-.21-1-.01-.74-.02-1.48-.03-2.21.16-.45.05-.96.29-1.4.09-.45.58-.71.61-1.2h0c.28-.07.4-.34.58-.53.62-.65,1.29-1.21,2.15-1.55,2.23-.87,4.3-.63,6.28.71,1.33.9,1.91,2.2,2.33,3.71.53,1.92-.59,4.91-2.24,6.05-.89.61-1.86.95-2.88,1.23"/>
  <path class="cls-2" d="m281.3,248.34c0,1.04,0,2.07,0,3.11,0,.27-.03.56.38.56.87,0,1.75.07,2.59-.18.91-.27,1.73-.78,2.06-1.69.32-.88.51-1.81.24-2.79-.28-1.04-.82-1.76-1.83-2.15-.95-.36-1.93-.4-2.92-.39-.38,0-.54.12-.53.52.02,1,0,2,0,3.01m3.85-5.57c.13.03.25.06.38.09.16.1.31.25.48.29,1.05.24,1.76.95,2.38,1.76.39.51.52,1.14.77,1.71.02.13.04.27.05.4.21.85.11,1.67-.02,2.53-.33,2.17-1.43,3.61-3.52,4.33-.51.17-1.04.21-1.53.41-1.61.02-3.21.04-4.82.06-.49.03-.73-.21-.7-.7.02-1.86.04-3.71.04-5.57,0-1.63-.03-3.25-.04-4.87,0-.55.25-.71.79-.7,1.91.05,3.84-.1,5.74.25"/>
  <path class="cls-2" d="m306.63,264.11c-.09.27-.09.54,0,.8q-.08.99.84.97c.06,0,.13-.03.19-.04,1.2.01,2.39.05,3.59.03.48,0,.63.16.62.63-.06,1.99.26,1.57-1.52,1.62-1.03.03-2.06.03-3.09.04-.5-.14-.76.02-.69.57.02.13.04.26.06.39-.07.13-.07.27,0,.4q-.12,1,.63.99c1.54.01,3.08.03,4.61.04.75,0,.75.01.77.78q.03,1.58-1.58,1.58c-2.14,0-4.28,0-6.43,0-.71,0-.73-.02-.73-.72,0-3.48,0-6.96-.01-10.44,0-.53.18-.68.7-.68,2.41.02,4.82.02,7.23,0,.46,0,.63.12.65.62.05,1.77.08,1.76-1.7,1.77-1.24,0-2.47.03-3.71.04-.58-.12-.53.22-.43.59"/>
  <path class="cls-2" d="m300.4,252.12c-.01.5-.06,1-.03,1.5.03.51-.12.72-.67.7-1.14-.03-2.27-.02-3.41,0-1.44,0-2.87.03-4.31.05-.54-.12-.26-.61-.4-.9.02-2.49.04-4.97.05-7.46,0-.73-.03-1.46-.05-2.18.02-.1.05-.2.04-.3-.02-1.02-.1-.99,1.07-.99,2.04,0,4.08,0,6.12,0q1.31,0,1.41,1.29v.4c0,.19-.02.37-.03.56-1.16.18-2.34.04-3.5.08-.63.02-1.27.03-1.9.05-.33-.11-.53,0-.53.36,0,.4,0,.8,0,1.21.01.8.01.8.93.76,1.14.08,2.28.08,3.42,0,.31.01.61.03.92.04.03.39.07.77.1,1.16-.07.2-.07.4,0,.6-.02.16-.04.31-.06.47-1.23.02-2.47.03-3.7.05-1.87.04-1.58-.34-1.61,1.65-.01.8,0,.8.93.76,1.54.08,3.08.08,4.62,0,.19.05.39.1.58.15"/>
  <path class="cls-2" d="m379.2,250.24c-.09.47-.09.94,0,1.41,0,.03-.03.05-.02.07.01.04.04.08.06.13.05.09.1.16.22.16,1.8-.01,3.59-.03,5.39-.04.29.03.4.22.42.49-.07.4-.07.8,0,1.21-.1.22.04.51-.22.68-2.75-.05-5.49-.07-8.24.01-.26-.09-.3-.3-.31-.55-.02-.46.08-.92-.06-1.37.14-1.72.04-3.44.05-5.16,0-1.09.09-2.18-.05-3.27.02-.16.06-.33.06-.49-.02-1.11.05-.99.97-1h3.2c1.27,0,2.54.01,3.8,0,.43,0,.59.15.57.58-.03.56,0,1.13,0,1.7-1.64.12-3.27.03-4.91.05-.98.01-.98,0-.98.97,0,.26.04.53.05.8-.12.41-.06.7.46.65.25-.02.5-.03.76-.05,1.14.08,2.28.08,3.42,0,.39.01.65.16.64.6-.07.4-.07.8,0,1.2-.03.52-.39.52-.78.52-1.34,0-2.67.01-4.01,0-.54,0-.62.25-.5.69"/>
  <path class="cls-2" d="m317.72,251.97c1.47.07,2.94.07,4.42,0l.83.04c.05.35.1.7.15,1.05-.08.14-.08.28,0,.41-.05.29-.1.57-.15.86-.27.01-.55.03-.82.04-2.28-.08-4.55-.08-6.83,0-.33-.04-.67-.08-1-.12,0-3.87,0-7.75,0-11.62.16-.03.32-.09.48-.09,2.49,0,4.97,0,7.46,0,.24,0,.46.02.67.15-.02.43-.04.86-.04,1.29-.02.88-.01.89-.85.89-1.36,0-2.73,0-4.09,0-1.04,0-.97-.07-.97.97,0,.2.03.4.04.59-.03.85-.03.85.73.85.2,0,.4-.03.6-.05.94.08,1.88.08,2.81,0,.38.12.79-.03,1.16.14-.11.74.16,1.51-.17,2.23-1.54-.01-3.08-.02-4.62-.04-.54,0-.63.25-.51.7-.07.4-.07.8,0,1.2q-.01.6.72.52"/>
  <path class="cls-2" d="m284.96,268.06c-.59-1.14-.85-2.22-1.49-3.15-.75.75-.74,1.83-1.3,2.63-.13.19-.09.53.34.53.75-.01,1.51,0,2.45,0m-1.61-7.01c.2.06.4.06.6,0,.74-.06.98.44,1.23,1.01.51,1.16.89,2.37,1.55,3.46.02.13.05.26.07.39.39.92.72,1.88,1.19,2.75.34.62.38,1.38.93,1.89.02.45.29.81.48,1.19-.12.45.37.63.43,1-.93.35-1.88.14-2.83.12-.2-.45-.4-.89-.6-1.34-.1-.26-.21-.52-.31-.78-.08-.47-.41-.41-.74-.34-1.27-.07-2.54-.07-3.82,0-.28-.09-.51-.05-.65.25-.14.29-.31.56-.37.89h0c-.12.01-.2.07-.16.21-.02.13-.04.26-.07.39-.22.22-.33.49-.39.78-.92-.01-1.85-.02-2.77-.03.06-.18.18-.34.14-.54.2-.23.26-.5.25-.8.47-.35.52-.89.61-1.41.23-.04.2-.23.22-.4.64-.92.88-2.03,1.34-3.03.09-.19.3-.34.28-.59.15-.49.5-.89.57-1.41.27-.13.14-.4.2-.6.31-.35.53-.73.55-1.21.03-.06.04-.12.04-.18.51-.41.58-1.06.83-1.6h-.01c.39-.01.79-.04,1.18-.07"/>
  <path class="cls-2" d="m342.34,230.84c-.5-1.13-.95-2.16-1.51-3.42-.41,1.29-1.1,2.24-1.24,3.42h2.75Zm-3.32-5.72c.24-.29.33-.65.41-1,.2-.08.4-.16.6-.24.47.07.94.07,1.41,0,.26.03.53.05.79.08,0,.07.02.13.08.16-.01.87.62,1.49.9,2.25.69,1.86,1.55,3.66,2.33,5.48.39.92.68,1.91,1.32,2.72.02.13.03.27.05.4-.04.14.04.19.16.21.05.07.09.14.14.21.01.11.03.22.04.33-.86.02-1.73.04-2.59.07-.12-.08-.25-.15-.37-.23-.09-.35-.21-.7-.42-1,0-.38-.34-.64-.4-.99-.06-.37-.27-.4-.55-.4-1.33,0-2.67,0-4.01,0-.38,0-.59.12-.72.52-.16.53-.44,1.03-.64,1.56-.13.36-.37.52-.74.53-.67-.07-1.34-.07-2.01,0-.24-.13-.16-.3-.09-.49.18-.51.34-1.02.51-1.53.22-.06.19-.24.21-.4.1-.44.56-.72.55-1.22.09-.19.3-.34.27-.58.18-.38.41-.74.52-1.14.21-.79.81-1.44.85-2.29h0c.59-.38.44-1.12.8-1.61.22-.15.19-.38.21-.6.28-.2.35-.5.37-.81"/>
  <path class="cls-2" d="m295.02,227.6c-.65,1.13-1.07,2.13-1.41,3.23h2.8c-.47-1.08-.89-2.07-1.39-3.23m2.57-.66c.05.44.43.75.46,1.2-.04.14.03.19.16.21h0c.05.13,0,.33.2.39.08.27.17.53.25.8-.04.14.03.19.16.21h0c.06.14,0,.34.21.39.08.27.16.54.25.8-.04.14.04.19.16.21.05.14-.01.33.2.39.12.46.17.95.59,1.27-.04.35.23.61.27.94-.04.14.04.19.16.2.2.57.4,1.13.64,1.79h-2.64c-.1-.17-.18-.36-.4-.41,0-.06-.01-.12-.04-.18.02-.38-.15-.7-.36-1.01-.31-.97-.31-.98-1.26-.98-1.13,0-2.25,0-3.38,0-.33,0-.69-.07-.8.38-.12.02-.2.06-.16.2-.15.4-.3.8-.45,1.21-.25.06-.18.24-.16.4-.12.33-.38.39-.7.39-.52,0-1.03.02-1.55.04-.16-.01-.32-.04-.48-.04-.27,0-.33-.14-.3-.37.22-.06.16-.26.19-.4.28-.2.37-.48.4-.8.48-.9.92-1.83,1.21-2.81.42-.3.32-.83.55-1.21.26-.36.47-.74.44-1.2.23-.05.2-.23.21-.4.45-.32.39-.88.6-1.31.52-1.05.95-2.14,1.42-3.22.12-.05.25-.1.37-.14.53.01,1.06.03,1.59.04.29,0,.61-.06.84.19.05.48.02,1,.56,1.27.02.42.19.8.41,1.15.04.15-.04.35.2.4"/>
  <path class="cls-2" d="m290.99,269.72c-.04-.21.09-.46-.2-.59-.09-.74-.17-1.47-.26-2.21,0-.2.01-.4.02-.6.03-.7.34-1.32.46-2,.21-.07.17-.25.2-.4.7-.9,1.51-1.68,2.39-2.41.25.04.4-.16.6-.25.97-.27,1.94-.46,2.96-.41.66.03,1.22.39,1.87.4.06.02.13.03.19.05.02.12.07.2.21.16.07,0,.14,0,.21,0,.09.05.17.11.26.16q1.27.76.48,2c-.04.06-.07.11-.11.17-.43.65-.43.64-1.07.24-.36-.22-.68-.56-1.16-.5-.46-.14-.9-.36-1.41-.2-2.07.06-3.37,1.58-3.23,3.79-.06.14-.05.27.02.4-.05,1.25.57,2.13,1.62,2.69,1.23.66,2.48.62,3.7-.07.18-.1.21-.23.14-.4.11-.6.11-1.21,0-1.81.04-.34.09-.68.13-1.03.88.03,1.75-.08,2.63.06,0,1.16-.04,2.33,0,3.49.02.54-.2.89-.6,1.17-.91.65-1.9,1.12-2.99,1.36-1.01.08-2.01,0-3.01-.05-.62-.25-1.26-.49-1.79-.91-.18-.14-.36-.3-.61-.31-.01-.09-.03-.18-.14-.21-.12-.31-.43-.4-.65-.6h0c-.18-.46-.38-.91-.82-1.21"/>
  <path class="cls-2" d="m278.94,232.57c.1-.02.19-.05.2-.18.35-.18.41-.6.7-.84.03-.02.06-.05.07-.09.34-.21.41-.63.69-.88.39-.22.48-.67.77-.96.42-.27.57-.75.87-1.11.04,0,.07-.03.09-.06.35-.22.43-.65.73-.91.04-.02.06-.05.07-.09.29-.36.58-.72.94-1.18-.33-.02-.48-.04-.64-.04-.16,0-.32.04-.48.07-1.27-.16-2.54-.04-3.81-.07-.95-.02-.96-.01-.96-.91.02-1.64-.21-1.38,1.37-1.39,2.48-.01,4.96,0,7.44,0,.78,0,.78.01.79.75,0,.4-.01.8-.02,1.21-.3.33-.71.56-.83,1.04-.12.02-.16.09-.16.2-.36.27-.67.57-.82,1.01h0c-.25.23-.61.38-.65.79-.24.16-.39.4-.55.63-.13,0-.19.06-.18.19-.14.21-.36.36-.42.62-.51.24-.66.79-1.02,1.17-.47.49-.88,1.04-1.26,1.61-.23.34.09.25.26.23,1.6.12,3.21.03,4.81.05.91.01.9,0,.92.95,0,.33-.05.67.07.99-.06.14-.12.27-.18.41-3.21,0-6.43,0-9.64,0-.07-.14-.14-.27-.21-.41.07-.27.07-.53,0-.8.05-.13.05-.27,0-.4.09-.37.42-.6.57-.94.28-.14.27-.47.46-.66"/>
  <path class="cls-2" d="m351.59,246.77c0,.5,0,1,0,1.5,0,.34.15.49.48.48.7,0,1.4.04,2.1-.08.66-.11,1.11-.5,1.31-1.1.24-.75.27-1.52-.29-2.18-.13-.14-.31-.29-.49-.33-.87-.19-1.75-.34-2.65-.28-.34.02-.47.15-.46.48.01.5,0,1,0,1.5m6.73.46c-.07.4-.15.8-.22,1.2-.46,1.32-1.42,2.04-2.74,2.37-.75.18-1.51.2-2.27.29h-.4c-.1-.01-.2-.04-.3-.04q-.82,0-.79.81c0,.06.03.13.05.19-.1.54-.1,1.07,0,1.61-.09.17-.08.35,0,.52-.57.28-1.19.03-1.77.18q-.94-.1-.94-1.05c0-2.4,0-4.8,0-7.21,0-1.1.07-2.2-.05-3.3.05-.04.06-.09.01-.13.09-.04.18-.11.28-.11,1.77-.05,3.55-.14,5.31.07.82.09,1.68.25,2.38.81.9.72,1.34,1.61,1.31,2.76.05.35.1.69.15,1.04"/>
  <path class="cls-2" d="m328.39,269.53c-.32-1.45-.45-2.91-.12-4.38.18-.95.89-1.62,1.32-2.44h0c.54-.39,1.07-.79,1.61-1.19.4-.02.65-.33,1-.46.74-.08,1.48-.17,2.21-.25.27.03.53.06.8.09.43.29.95.18,1.41.35.26.1.52.2.78.29.54.45,1.09.9,1.63,1.36,0,.13-.02.26-.02.4-.55.46-1.04.97-1.48,1.54-.75-.56-1.34-1.29-2.32-1.33-.61-.26-1.21-.2-1.81.03-.56.1-1.05.32-1.43.77-.12,0-.18.06-.19.18-.53.33-.75.87-.93,1.43-.06.67-.07,1.34-.01,2.01-.07.14.02.19.13.22h-.01c.32,1.45,1.62,2.4,3.24,2.36.2.06.4.05.6-.03.25.1.4-.13.6-.19.17.04.32.03.4-.16.54-.02.86-.4,1.21-.73.17-.16.31-.34.57-.23.41.45.67,1.03,1.21,1.36.03.13.06.27.08.4-.16.19-.32.39-.48.58-.77.44-1.49.99-2.33,1.29-1.29.31-2.57.31-3.86-.01-.33.05-.5-.32-.82-.31-.09-.17-.26-.13-.41-.16-.67-.6-1.33-1.21-2-1.81-.01-.23-.11-.43-.28-.59-.02-.2-.11-.36-.33-.41"/>
  <path class="cls-2" d="m305.2,245.24l.09.58c.55,1.32,1.1,2.64,1.69,4.06.55-.85.73-1.72,1.07-2.52.6-1.43,1.14-2.89,1.71-4.33.09-.23.19-.5.54-.5.82,0,1.65,0,2.53,0-.21.58-.34,1.05-.54,1.49-.76,1.61-1.32,3.31-2.02,4.95-.75,1.76-1.35,3.59-2.21,5.3-.6.03-1.21.06-1.81.09-.2-.1-.4-.2-.59-.3-.06-.2.08-.47-.19-.61-.46-1.3-.88-2.62-1.61-3.82-.01-.07-.03-.13-.05-.19.07-.2.02-.39-.08-.57-.41-.72-.7-1.49-.93-2.29-.1-.36-.26-.72-.56-.99,0-.06-.01-.12-.04-.18.13-.26-.09-.44-.16-.64-.27-.71-.64-1.38-.81-2.25.86,0,1.65,0,2.44,0,.24,0,.29.16.41.33.53.73.57,1.67,1.12,2.38"/>
  <path class="cls-2" d="m346.29,268.53c-.01,1.23-.02,2.46-.04,3.69-.01.69-.02.71-.73.7-.59,0-1.32.24-1.74-.11-.45-.37-.14-1.12-.16-1.7-.03-.66-.04-1.33,0-1.99.04-.63-.09-1.16-.56-1.6-.05-.6-.49-1.01-.76-1.49-.47-.79-.77-1.69-1.45-2.35,0-.07,0-.12-.05-.18-.14-.47-.35-.91-.75-1.23h0c.01-.3-.16-.53-.31-.77-.25-.39.04-.4.29-.45.79.02,1.58.04,2.37.05.35.7.73,1.38,1.21,2.01.02.16.07.31.23.39.32.62.65,1.24,1.04,2,.37-.6.68-1.04.81-1.58h0c.48-.26.51-.82.79-1.22.16-.08.21-.23.23-.39.13-.21.27-.42.38-.64.21-.4.53-.63.99-.61.47.07.94.07,1.41,0,.26.03.53.05.79.08-.02.05-.03.1-.03.15-.75,1.26-1.52,2.51-2.18,3.83-.25.21-.38.48-.41.8-.18.23-.44.43-.52.7-.21.67-.9,1.14-.84,1.92"/>
  <path class="cls-2" d="m403.94,254.36c-.35-.24-.2-.61-.21-.92-.01-2.6,0-5.2,0-7.79,0-.81,0-.82-.81-.83-.67,0-1.33-.02-2,0-.44.02-.58-.17-.57-.59.02-.53,0-1.06-.02-1.6.25-.13.51-.11.78-.11h7.86c.26,0,.53-.02.78.11,0,.57-.03,1.14-.02,1.7,0,.34-.14.48-.47.48-.83,0-1.67.03-2.5.04-.33-.09-.44.05-.35.36-.01,2.66-.03,5.33-.04,7.99,0,1.1,0,1.09-1.12,1.1-.3,0-.6.03-.89.04-.14-.06-.27-.06-.41,0"/>
  <path class="cls-2" d="m149.28,291.8c.07,0,.14,0,.21.01.14.04.19-.05.21-.16.2-.03.39-.05.59-.07.23.21.49.32.81.23.13.02.26.04.4.06.46.26.81.66,1.19,1.01h0c.13.24-.11.58.19.79.03,1.47.06,2.94.09,4.41-.06.16-.04.37-.26.44-.13,0-.27,0-.4,0-.2-.06-.4-.06-.6,0-.38-.02-.67-.07-.67-.61.01-1.09.11-2.19-.06-3.28-.09-.99-.29-1.24-1.03-1.38-.32-.06-.53.21-.83.22-.3.02-.32.36-.43.59-.3.3-.17.68-.18,1.03-.03.93-.02,1.86,0,2.79,0,.38-.05.62-.53.61-1.68-.04-1.31.15-1.36-1.27-.04-.92.13-1.85-.1-2.77-.12-.94-.31-1.18-.98-1.2-.75-.03-1.12.28-1.23,1.01-.23,1.02-.06,2.05-.11,3.08-.01.26,0,.53-.01.8,0,.19-.09.33-.29.33-.43.01-.87.02-1.3,0-.41-.02-.31-.36-.32-.6,0-1.5,0-2.99,0-4.49,0-.37.02-.73,0-1.1-.03-.41.11-.62.56-.59.43.03.87,0,1.3,0,.07.18,0,.41.21.55.67-.5,1.38-.79,2.23-.41.39.18.75.38,1.07.67.14.12.31.22.42.05.29-.46.84-.47,1.23-.76"/>
  <path class="cls-2" d="m333.1,252.46c-.09.47-.09.93,0,1.4-.07.19-.07.43-.32.5-2.08-.01-4.16-.03-6.24-.05-.4,0-.79.05-1.18-.07-.01-.19-.02-.39-.03-.58.02-2.95.03-5.91.04-8.86,0-.6-.03-1.19-.04-1.79.05-.22.06-.47.38-.47.65,0,1.31,0,1.96,0,.33,0,.31.27.38.48-.07,2.74-.07,5.49,0,8.24q-.02.78.93.7c1.21.09,2.41.08,3.61,0,.32.02.49.19.52.51"/>
  <path class="cls-2" d="m234.38,295.11c-.02-.33-.08-.63-.23-.95-.27-.56-.64-.87-1.29-.93-.72-.06-1.19.32-1.45.86-.3.6-.27,1.29-.01,1.94.35.88,1.47,1.19,2.22.62.52-.39.79-.89.76-1.54m-5.06,5.75c0-2.76,0-5.52,0-8.28,0-.89,0-.89.85-.9.33,0,.67,0,1,0,.09.28.03.84.56.31.32-.13.65-.26.97-.38.56-.07,1.05.32,1.61.25.07.22.24.19.4.16.57.36.95.89,1.26,1.47.11.26.22.51.32.77-.01.53-.03,1.06-.04,1.58-.11.34-.23.68-.35,1.03-.4.66-.95,1.17-1.62,1.56-.66.16-1.33.12-1.99.08-.32-.2-.59-.48-1.03-.58-.01.46-.07.91.03,1.36-.02.36-.06.72-.04,1.08.03.45-.18.57-.59.55-.39-.02-.79.01-1.18.02-.04-.06-.09-.08-.16-.07"/>
  <path class="cls-2" d="m204.21,294.3c.17,0,.33.01.5,0,1.17-.09,1.76-1.17,1.23-2.22-.09-.19-.2-.4-.4-.4-.66-.03-1.25-.4-1.94-.29-.32.05-.49.12-.47.47.02.47,0,.94,0,1.4.02,1.17-.17,1.04,1.08,1.05m.74,1.77c-.54-.04-1.07-.06-1.61.03-.14-.03-.19.03-.16.17-.02.6-.04,1.2-.05,1.79,0,.29-.12.43-.41.42-.03,0-.07,0-.1,0q-1.48.12-1.48-1.36c0-2.2,0-4.4,0-6.59,0-.85,0-.85.89-.85,1.16,0,2.33-.04,3.49.08.84.27,1.63.62,2.24,1.29.41,1.05.52,2.12.19,3.21-.31.56-.78.98-1.24,1.39h-.08s-.06.05-.06.05c-.54.1-1.09.17-1.61.37"/>
  <path class="cls-2" d="m263.01,294.65c.41-.52.55-1.18.8-1.77.5-1.19.45-1.2,1.64-1.2h.78c-.21.62-.4,1.19-.59,1.76-.29.67-.62,1.33-.87,2.02-.39,1.07-.91,2.09-1.15,3.21-.2.07-.14.26-.2.4-.31.37-.26.93-.67,1.25-.04.01-.07.04-.08.08l-.44.48c-.71.31-1.46.26-2.2.2-.27-.2-.53-.4-.8-.59-.05-.2.04-.38.1-.56.26-.22.31-.58.5-.84.41-.01.76.35,1.19.16.29.07.43-.07.46-.35.24-.25.09-.51-.02-.74-.38-.82-.6-1.71-1.07-2.5-.09-.51-.18-1.02-.56-1.41-.06-.2.08-.47-.19-.61-.21-.6-.42-1.2-.63-1.8.55-.32,1.15-.09,1.72-.15.25-.02.34.17.41.35.12.33.22.67.33,1-.05.14.03.19.15.21.08.27.16.53.24.8-.04.14.04.19.16.21.04.14-.02.33.18.4.02.38.08.75.5,1.03.11-.39.34-.67.29-1.04"/>
  <path class="cls-2" d="m332.79,235.8c-.5-.01-1-.03-1.5-.04-.74-.02-.74-.02-.75-.79,0-.54,0-1.07,0-1.61,0-2.78,0-5.56,0-8.33,0-.37.03-.73.04-1.1.27-.01.54-.03.8-.04.47.07.94.07,1.41,0,.12.02.23.04.35.06l.03,11.76c-.13.03-.25.06-.38.09"/>
  <path class="cls-2" d="m242.14,294.4c-.3-.99-.67-1.26-1.52-1.21-.77.05-1.13.39-1.24,1.21h2.75Zm1.77-.94c.1.78.4,1.54.13,2.34-1.43-.01-2.85-.03-4.28-.03-.15,0-.34-.04-.43.15-.08.19.05.31.15.44.52.65,1.65.96,2.34.41.63-.51.91-.18,1.31.16.02.07.04.13.06.2.43.45-.13.63-.26.93h-.09s-.08.04-.08.04c-.34.14-.67.28-1.01.42-.6,0-1.21,0-1.81,0-.81-.2-1.41-.73-2-1.27h0c-.27-.29-.25-.75-.6-1-.02-.2.08-.4-.03-.6.03-.76-.02-1.55.37-2.24.35-.62.8-1.14,1.5-1.41.67-.26,1.27-.38,2.05-.25,1.21.2,2.08.68,2.69,1.7"/>
  <path class="cls-2" d="m159.06,294.42c-.2-.88-.47-1.15-1.12-1.23-.67-.08-1.36.25-1.6.76-.11.25-.1.46.25.46.82,0,1.63,0,2.47,0m-2.94,3.89c-.28-.13-.43-.48-.8-.46-.31-.29-.39-.76-.78-1-.36-1.13-.38-2.26-.01-3.4.51-.74,1.11-1.37,1.98-1.66.07,0,.14,0,.21.01.71-.31,1.41-.26,2.12,0,.19.38.56.15.84.26.72.49.99,1.28,1.35,2.02.03.5.06,1.01.09,1.51-.29.24-.63.17-.96.17-1.07,0-2.14,0-3.21,0-.25,0-.54-.11-.74.15.7,1.28,1.63,1.43,3.29.49.12.53.9.57.85,1.26-.25.23-.61.29-.81.58-.27.07-.6,0-.8.27-.67,0-1.34,0-2.01-.01-.2-.07-.4-.14-.6-.2"/>
  <path class="cls-2" d="m124.01,294.42c.79,0,1.47.01,2.16,0,.2,0,.49.13.57-.2.07-.28-.04-.51-.27-.69-.86-.68-2.07-.32-2.46.9m-1.62,2.42c-.18-.38-.27-.78-.33-1.18-.03-1.16.09-2.29.91-3.21h0c.35-.04.58-.28.83-.48.23-.16.5-.15.76-.17.38-.18.78-.32,1.17-.1.34.19.69.09,1.04.14.09.23.25.19.43.13,1.02.51,1.47,1.41,1.66,2.47-.1.45.09.93-.16,1.36-1.3-.12-2.6-.03-3.9-.05-.27,0-.67-.18-.8.18-.12.34.31.46.47.7.1.16.26.17.42.22.64.21,1.22.17,1.82-.19.17-.1.45-.43.7-.13.28.34.79.55.76,1.1-.13.08-.27.16-.4.23-.67.45-1.44.6-2.22.73-.45-.17-.93-.14-1.4-.18-.06-.21-.24-.18-.4-.2-.12-.26-.35-.35-.6-.4-.13-.43-.62-.59-.76-1.01"/>
  <path class="cls-2" d="m164.79,291.98c.37-.18.74-.38,1.17-.4.37-.06.64.3,1.01.23.07.01.13.02.2.04.12.3.4.16.61.23.04.04.09.09.13.13.1.19.23.36.41.47.31.72.44,1.46.42,2.24-.03,1-.01,2.01,0,3.01,0,.28,0,.54-.36.59-.27-.06-.54-.06-.81,0q-.74-.12-.76-.8c-.02-1.02-.03-2.04-.05-3.06.07-.3-.01-.57-.12-.87-.16-.45-.46-.7-.88-.68-.51.03-1.09.05-1.23.73-.31.3-.23.68-.23,1.04-.02.87,0,1.74,0,2.61q0,.94-.95,1.02c-.27-.07-.54-.06-.81-.01-.2-.14-.16-.35-.16-.54,0-1.86.01-3.73-.01-5.59,0-.5.12-.75.66-.7.4.04.8,0,1.2,0,.09.28.04.85.57.3"/>
  <path class="cls-2" d="m216.17,295c-.03,1.16.62,1.9,1.63,1.95.9.04,1.69-.84,1.68-1.83,0-1.11-.64-1.86-1.63-1.88-.97-.03-1.67.7-1.69,1.77m-.35-2.91l.39-.08c.14.04.19-.04.2-.16.4-.09.8-.18,1.2-.27.4.08.76.38,1.21.23.07,0,.14.02.2.02.07.22.22.23.4.15.14.05.29.1.43.14.19.18.38.36.56.54.2.26.41.52.61.78,0,.26.15.44.28.64.13.65.14,1.29.01,1.94-.33.25-.31.69-.51,1.02-.43.72-1.17.97-1.79,1.4-.33.06-.68.02-.99.18-.2-.08-.41-.09-.62-.03-.31-.18-.66-.11-1-.15-.53-.4-1.06-.8-1.59-1.2-.04-.27-.09-.52-.4-.6-.21-1.15-.26-2.29.2-3.4h0c.32-.16.47-.47.67-.74h0c.21-.1.41-.23.54-.44"/>
  <path class="cls-2" d="m185.85,295.02c-.17,1.04.75,1.96,1.66,1.93.96-.03,1.68-.8,1.66-1.87-.03-1-.53-1.79-1.65-1.85-.99-.05-1.66.68-1.67,1.78m2.62,3.5c-.14-.04-.27-.02-.4.06-.47-.02-.94-.03-1.41-.05-.2-.02-.4-.04-.6-.07-.06-.22-.25-.17-.4-.2-.1-.29-.34-.37-.6-.41-.31-.3-.4-.76-.79-.99-.12-.41-.23-.82-.35-1.22,0-.32-.02-.64-.03-.96.2-.31.15-.66.16-1,.47-.54.94-1.07,1.4-1.61.13-.02.27-.04.4-.06.15.06.18-.04.21-.15.14-.04.33.01.4-.19,1.79-.04,3.4.32,4.4,2,.03.13.06.26.09.4-.04.16-.13.32.09.42.21.69-.2,1.32-.18,1.99-.21.23-.37.47-.42.78h0c-.33.27-.66.55-.98.83h0c-.3.21-.72.18-1,.45"/>
  <path class="cls-2" d="m111.7,291.81c.06.03.12.04.19.04.72.41,1.02,1.15,1.41,1.81h0c.03.33.07.67.11,1-.08,1.21-.07,2.41,0,3.61l-.09.2c-.54.01-1.07.03-1.61.04-.09-.08-.17-.16-.26-.24.06-1.27.07-2.54,0-3.82.06-.18-.04-.31-.09-.47-.28-.74-.56-.95-1.22-.88-.77.09-.95.29-1.07,1.13-.28.88-.06,1.78-.13,2.66-.01.16,0,.33,0,.5q0,1.05-1.04,1.07c-.13,0-.26.03-.4.04-.13-.02-.26-.04-.4-.05,0-2.07-.01-4.15-.04-6.22,0-.45.17-.59.59-.56.33.03.67,0,1,.01.22,0,.26.15.24.34-.09.01-.18.04-.14.15.01.03.1.03.16.05.46.01.75-.43,1.2-.43.14.04.19-.05.21-.16.06-.02.13-.04.19-.06.41.07.76.38,1.21.23"/>
  <path class="cls-2" d="m115.92,291.63c.45.09.34.6.63.81-.06.4.06.73.35,1.01.09.26.17.53.26.79.17.52.32,1.05.72,1.52.34-.86.68-1.69,1.01-2.53-.01-.3.3-.49.25-.8.46-1.13,1.39-.73,2.19-.74.08.2.03.31-.02.44-.33.9-.89,1.71-1,2.69-.2.07-.14.27-.2.4-.23.3-.3.66-.39,1h0c-.12.01-.2.07-.15.21-.08.27-.17.54-.25.8-.1.03-.15.09-.18.19q-.29.98-1.23,1.02c-.06,0-.13.02-.19.04-.17-.01-.33-.04-.5-.04-.29,0-.46-.02-.54-.4-.08-.43-.35-.82-.54-1.22-.01-.16.02-.35-.21-.4.02-.3-.06-.57-.26-.8-.36-1.02-.67-2.06-1.2-3.02.05-.17-.03-.3-.11-.44-.12-.21-.11-.43.15-.57.47.07.94.08,1.41,0"/>
  <path class="cls-2" d="m253.81,292.24c.03-.1.03-.26.08-.28.87-.32.86-1,.72-1.73.01-.17.03-.34.04-.51.62-.02,1.25-.04,1.87-.06.03.19.07.38.1.57-.07.4-.07.8,0,1.21-.03.16.03.23.19.2.46.17.99-.13,1.42.2l-.03,1.18c-.4.03-.8.06-1.19.09-.54-.12-.45.23-.4.54-.07.6-.07,1.21,0,1.81,0,.25-.05.51-.02.76.05.49.3.76.84.62.31.07.49-.32.8-.24q.52,1.21-.63,1.92c-.78.05-1.56.11-2.21-.46-.17-.24-.32-.5-.59-.64.02-.06,0-.11-.04-.16-.06-.2-.11-.4-.16-.6.01-.9.03-1.8.04-2.7,0-.81,0-.81-.82-.99.04-.25.06-.49-.02-.74"/>
  <path class="cls-2" d="m137.16,297.03c-.13-1.02-.07-2.05-.08-3.08q0-.8-.82-.98c.05-.31.07-.62-.02-.92.79-.37,1.03-.99.79-1.82l.12-.56c.46,0,.93.01,1.4,0,.35,0,.47.15.46.48,0,.43.03.86.04,1.29-.03.15.02.23.18.19.23.02.46.08.67.04.65-.12.78.25.77.77-.02.2-.04.4-.06.6-.07,0-.13.01-.2.01q-1.42.04-1.41,1.51c0,.3.03.6.04.89,0,.26-.04.52-.02.78.05.49.31.69.78.65.28-.02.5-.13.65-.38.08.05.15.1.22.15.13.3.21.63.51.82.01.12.03.24.04.36-.4.23-.8.45-1.2.68-.4,0-.8.01-1.21.02-.86-.17-1.33-.77-1.67-1.51"/>
  <path class="cls-2" d="m223.46,292.09c.29-.24.73-.14,1-.43,1.18-.19,2.18.36,3.26.69-.62,1.2-.63,1.23-1.72.88-.36-.11-.7-.2-1.06-.13-.2.04-.4.12-.45.34-.06.25.06.49.28.58.21.08.39.21.62.27.63.16,1.23.41,1.85.62h-.01c.27.28.5.6.67.96,0,.27.02.54.03.8-.25.99-.94,1.54-1.86,1.86-.6,0-1.21-.02-1.81-.02-.78-.02-1.31-.62-2-.85h0c-.1-.46.46-.61.48-1.02l.08-.05c.22-.13.45-.16.64.03.49.49,1.12.49,1.74.51.33.01.73.03.84-.37.13-.47-.3-.6-.62-.77-.06-.03-.12-.07-.18-.07-.9-.07-1.56-.61-2.25-1.1-.44-.69-.33-1.41-.13-2.14.26-.12.44-.34.6-.56"/>
  <path class="cls-2" d="m131.19,291.85c.2-.01.4-.03.6-.04.38-.19.78-.32,1.17-.1.34.19.69.09,1.04.15.18.36.55.08.78.24.46.47.13.87-.16,1.22-.24.28-.58.19-.9,0-.51-.3-1.07-.34-1.63-.13-.4.15-.43.43-.09.71.54.44,1.23.55,1.86.76.67.22,1.19.56,1.4,1.26.02.12.04.23.07.35-.11,1.12-.75,1.84-1.75,2.27-.21-.02-.41-.02-.6.11-.4-.05-.8-.13-1.19-.13-.69-.01-1.25-.34-1.79-.72-.14-.1-.29-.2-.26-.39.07-.39.39-.61.63-.87.21-.23.43.05.61.16.55.36,1.16.48,1.8.44.26-.02.56-.02.59-.4.03-.35-.1-.58-.47-.64-.13-.02-.24-.09-.36-.13-.89-.25-1.68-.69-2.36-1.31.01-.06,0-.12-.04-.17l-.05-1.21c.1-.26.2-.53.3-.79.33-.12.51-.43.79-.61"/>
  <path class="cls-2" d="m178.78,292.85c.01-.23.05-.45.04-.68-.02-.31.18-.38.4-.45.26.09.36-.01.4-.26.05-.36-.03-.71.12-1.07.48-1.11,1.75-1.64,2.92-1.15.32.13.7.23.87.59.16.34-.37.42-.31.74.01.05-.05.12-.08.18l.09.02-.09-.03c-.46.06-.84-.38-1.32-.21-.32-.08-.22.13-.21.29q-.17.93.73.96c.3,0,.6-.04.86.15-.16.4.09.86-.2,1.23-.39,0-.79-.04-1.18-.02-.31.01-.36.23-.28.5-.13,1.18-.03,2.37-.06,3.55-.01.43.05.86-.06,1.28-.6,0-1.19,0-1.79-.01,0-1.5-.02-3-.03-4.51,0-.74,0-.74-.8-.9-.01-.07-.03-.14-.04-.21"/>
  <path class="cls-2" d="m174.77,297.28c0,.19.02.39.03.58-.45.43-1.02.6-1.59.77-.2-.03-.4-.05-.6-.08-1.05-.21-1.6-.91-1.84-1.9,0-1,.02-2,.02-3.01,0-.25.08-.6-.34-.59-.64.01-.4-.46-.46-.77-.1-.5.2-.64.61-.67.15.02.19-.05.15-.18.01-.23.04-.46.04-.69q.01-1.05,1.02-1.13c.26.01.53.02.79.03.13.49.07,1,.06,1.49,0,.38.11.57.51.54.13,0,.27-.01.4,0,.24.03.58-.14.7.2.12.31.08.66.01.99-.04.19-.25.19-.41.19-.27,0-.53,0-.8,0-.23,0-.41.09-.4.33.05,1.02-.19,2.06.14,3.06.17.5.54.54.93.32.23-.13.44-.09.66-.1h0c0,.27.15.46.38.61"/>
  <path class="cls-2" d="m104.86,289.63c.28.18.21.47.21.72,0,2.47,0,4.94,0,7.41,0,.7-.02.71-.72.71-1.51,0-1.25.16-1.26-1.27-.01-2.2,0-4.41,0-6.61,0-.32-.11-.67.16-.95.54.05,1.07.07,1.61,0"/>
  <path class="cls-2" d="m211.42,295.86c-.07.67-.07,1.34,0,2.01-.02.19-.03.38-.05.57-.6.04-1.33.26-1.75-.08-.4-.33-.13-1.07-.14-1.64-.02-1.44-.01-2.88,0-4.32,0-.7.02-.7.73-.72.37,0,.74-.01,1.1-.02.18.61.18.62.68.35.44-.23.87-.47,1.39-.38.01.53.03,1.07.04,1.6-.19.19-.44.13-.67.16-.7.11-1.27.66-1.35,1.36-.04.36,0,.73,0,1.1"/>
  <path class="cls-2" d="m247.44,295.06c-.14.96-.04,1.93-.06,2.89,0,.37-.12.51-.51.53-1.38.08-1.38.09-1.38-1.27,0-1.63.01-3.27,0-4.9,0-.46.11-.7.61-.64.3.03.6.02.9,0,.42-.02.37.28.39.54-.04.1-.03.19.09.21.04,0,.09-.07.14-.1.19-.28.51-.36.76-.55.19-.05.38-.09.56-.14.35-.1.47.08.5.39-.1.45.06.93-.12,1.37-1.3.01-1.85.49-1.87,1.64"/>
  <path class="cls-2" d="m192.52,298.46c-.01-2.07-.02-4.14-.04-6.21,0-.43.14-.6.58-.57.4.02.8-.01,1.2-.02.16.2.02.51.24.72.54-.58,1.26-.53,1.95-.59-.18.53.12,1.12-.19,1.64-1.29,0-1.58.24-1.75,1.43-.26.63-.11,1.3-.14,1.95-.03.56.06,1.12-.06,1.67-.6,0-1.19,0-1.79-.01"/>
  <path class="cls-2" d="m250.58,297.87c.08-1.81.08-3.62,0-5.43.06-.13.06-.27,0-.4.01-.09.03-.19.04-.29.59-.03,1.18-.07,1.77-.1.19.16.13.4.21.59v.2c-.08,1.88-.08,3.75,0,5.62l-.21.43c-.59-.03-1.19-.06-1.78-.09-.01-.18-.02-.36-.03-.54"/>
  <path class="cls-2" d="m250.42,290.03c.38-.88.67-1.09,1.31-1.04.44.03.68.33.92.64.03.2.06.41.08.61-.12.19-.23.38-.35.58-.47.48-1.03.33-1.58.21-.03-.1-.07-.18-.19-.2-.07-.27-.13-.53-.2-.8"/>
</svg>