<?xml version="1.0" encoding="UTF-8"?>
<svg id="Layer_1" data-name="Layer 1" xmlns="http://www.w3.org/2000/svg" viewBox="0 0 512 512">
  <g>
    <path d="m389.95,201.71c-1.63,0-3.26.1-4.89,0-1.43-.08-2.84-.37-4.48-.59,1.07,5.35,2.34,10.23,2.99,15.19,4.35,32.96-1.02,64.3-15.93,94.03-.85,1.7-1.91,2.13-3.69,2.13-70.18-.04-140.37-.05-210.55.01-1.98,0-3.02-.74-4.02-2.3-6.92-10.75-10.87-22.64-13.38-35.04-5.46-27.01-5.46-54.01,1.81-80.68,2.27-8.32,6.11-16.21,9.29-24.46-2.23-1.02-4.47.8-6.9,1.69-1.54.56-3.19,2.71-4.66-.21-1.76-3.51-1.51-6.29.95-7.52,2.2-1.11,4.45-2.22,6.79-2.92,2.21-.66,4.59-.78,7.79-1.28-2.48-1.26-4.18-2.48-6.08-3.02-2.44-.7-2.36-1.98-1.45-3.72,1.1-2.1,2.27-4.16,3.58-6.55.53.99.96,1.78,1.11,2.06,2.39-1.59,4.83-3.02,7.03-4.75,1.3-1.02,2.23-2.52,3.33-3.8-.13-.28-.27-.57-.4-.85,2.62.21,5.24.53,7.87.57,1.04.02,2.57-.26,3.07-.97,2.14-3.04,4.42-6.11,5.81-9.51,2.01-4.93,1.89-5.13,6.91-2.27,2.7-2.47,5.11-6.32,8.34-7.22,5.14-1.43,8.05-5.8,12.72-7.57,4.62-1.75,8.98-4.16,13.6-5.89,17.32-6.48,35.23-9.24,53.68-7.42,23.1,2.27,43.62,11.06,61.7,25.52,17.74,14.18,31.15,31.74,40.38,52.5,1.87,4.21,5.55,5.88,10.09,6.71.16,2.94,1.91,6.08-1.1,8.42,2.91,1.85,5.8,3.69,8.7,5.53v4.17Zm-154.58,101.93c.32-2.46.81-5.2.99-7.96.53-7.82-.3-15.25-6.23-21.25-.69-.7-.81-2.14-.89-3.25-.58-8.3-.86-16.62-1.69-24.89-.46-4.55-1.8-9.01-2.75-13.51.38-.38.77-.75,1.15-1.13.73,1.67,1.46,3.35,2.19,5.02.35-.32.69-.64,1.04-.95.7-7.95-4.04-14.74-4.98-22.37-.15-1.2-2.15-2.11-3.15-3.27-.77-.89-1.45-1.9-1.96-2.96-1.12-2.32-2.01-4.74-3.18-7.03-.39-.76-1.27-1.66-2.03-1.77-2.23-.32-4.54-.14-6.78-.43-1.23-.16-2.69-.55-3.53-1.37-2.83-2.77-5.73-5.16-9.97-5.28-.75-.02-1.75-.58-2.17-1.2-2.34-3.45-5.66-5.51-9.44-6.86-1.05-.37-2.39-.1-3.56.08-3.28.5-6.54,1.46-9.82,1.57-2.93.1-4.37-1.2-5.55-3.62,7.3,3.79,14-.2,21.36-.94-.3-2.57-.51-4.91-.85-7.23-.37-2.55-1.63-3.63-4.48-3.9-2.45-.24-5.27-1.51-6.96-3.26-1.27-1.32-1-4.12-1.36-6.02-1.45.75-3.35,2.01-5.43,2.73-2.2.76-4.58,1.02-5.85,1.28-1.07,2.88-1.84,4.96-2.63,7.08,2.26,1.28,5.13-2.13,7.38,1.71-2.45.64-4.63,1.92-6.49,1.56-6.03-1.19-8.6,2-10.17,6.97-.15.47-.36.92-.53,1.39-11.33,29.7-12.11,60.13-6.13,90.97,2.28,11.73,6.14,22.95,12.81,33.01.64.96,2.07,1.95,3.16,1.97,12.18.26,24.36.36,36.54.44,10.41.07,20.79-.01,30.9-3.12,3.42-1.05,7.04-1.44,11.02-2.22Zm10.78-2.26c5.41,2.29,10.65,4.56,15.94,6.72,1.17.47,2.51.79,3.76.74,8.48-.33,16.96-.71,25.43-1.19,3.96-.22,8.07-.34,10.64-4.13.5-.73.74-1.75.79-2.65.18-3.49-.91-7.59.54-10.38,5.07-9.75,8.35-19.91,9.01-30.81.53-8.74,2.31-17.76-3.92-25.58-1.18-1.48-1.53-3.62-2.29-5.45-.76-1.82-1.23-3.9-2.42-5.39-2.11-2.65-4.58-5.02-7.09-7.3-.44-.4-2.47-.04-2.64.4-1.13,2.99-2.88,2.18-4.64.92-4.87-3.49-9.92-6.11-16.25-4.91-.79.15-1.83-1.03-2.76-1.6.16-.17.33-.35.49-.52,1.98.12,3.96.24,5.94.35.11-.4.22-.79.33-1.19-2.69-1.3-5.39-2.6-8.37-4.03-.11,1.26-.18,2.09-.27,3.13-1.02-.16-1.83-.29-2.61-.41.1-1.05.18-1.85.28-2.95-.9.25-1.51.29-1.97.57-3.54,2.11-5.52,1.78-8.04-1.25-.95-1.14-2.11-2.09-3.17-3.13-.05.39-.1.78-.15,1.17-1.11.44-2.47,1.51-3.26,1.19-1.6-.65-2.9-2.06-4.41-3.21-.61.78-1.1,1.28-1.44,1.87-2.36,4.11-4.6,8.3-7.05,12.36-2.1,3.47-2.81,7-2.16,11.07.56,3.49.75,7.13.43,10.64-1.27,13.79-.05,26.96,6.97,39.38,4.42,7.82,5.86,16.55,4.37,25.6Zm111.87-91.17c.02.47.05.94.07,1.42-4.35-2.98-6.81-.36-9.32,2.26-.54.56-1.28.92-1.95,1.35-3.84,2.44-7.66,4.91-11.55,7.27-.54.32-1.43.26-2.1.12-3.35-.67-5.42.64-7.09,3.54-1.58,2.75-3.81,5.14-5.75,7.69-.33.44-.83.85-.95,1.34-.85,3.42-1.57,6.87-2.43,10.28-.6,2.37-1.14,4.63.97,6.62.37.35.39,1.23.34,1.85-.48,6.32-1.01,12.64-1.51,18.96-.38,4.86-1.15,9.52-3.75,13.89-3.31,5.57-3.88,11.55-.98,17.63.8,1.68,1.87,2.57,3.83,2.71,4.94.37,9.85,1.3,14.78,1.34,10.09.07,20.18-.3,30.27-.48,1.89-.03,2.91-.94,3.75-2.69,5.18-10.88,8.88-22.24,11.36-34,4.47-21.19,5.57-42.4.33-63.65-.55-2.24-1-3.78-3.98-3.29-1.63.27-4.08.29-4.54-2.66,1.55-.16,2.95-.3,4.56-.47-.45-2.04-.83-3.74-1.16-5.21-1.62-.4-3.06-.69-4.46-1.13-1.38-.44-2.71-1.03-4.05-1.56.16.31.32.62.49.93-1.95,1.89-3.72,4.02-5.89,5.6-1.7,1.25-4.9,1.36-5.59,2.83-.76,1.62.6,4.23,1.02,6.33,1.79.39,3.54.78,5.3,1.17Zm-39.92-53.07c1.48,4.8,5.29,5.95,9.16,7.05,3.58,1.02,7.15,2.09,11.1,3.26.17-.15.74-.97,1.5-1.24.92-.32,2.01-.16,3.02-.21-.52.72-1.06,1.42-1.55,2.16-.36.52-.66,1.08-.98,1.62.56.33,1.15.98,1.68.94,2.14-.17,4.39-.2,6.36-.93,3.02-1.11,5.85-2.74,9.38-4.46.54,3.24,1.03,6.14,1.58,9.42.46.26,1.38.86,2.35,1.32,1.01.48,2.08.84,3.61,1.44-.43-1.26-.6-1.91-.86-2.52-13.42-31.5-36.6-52.68-68.56-64.27-14.72-5.34-30.16-6.24-45.7-5.54-12.93.58-25.65,2.28-37.49,7.94-5.96,2.85-11.52,6.35-16.56,11.09,2.16,1.42,4.04,2.66,6,3.94,5.2-5.64,11.73-3.52,18.01-3.12.4-3.97,2.47-6.24,5.89-7.52.47,2.03.75,3.8,1.31,5.48.6,1.76,1.68,2.56,3.61,1.35,2.01-1.26,4.36-2.04,6.17-3.52,1.72-1.41,3.3-1.37,5.22-.96,3.92.85,5.96,3.25,6.02,7.78,3.89.61,7.7,1.19,11.51,1.83.44.07.89.41,1.24.73,2.57,2.36,5.57,3.6,9.09,3.3,1.67,6.41,5.92,10.12,11.75,12.22,5.86,2.11,11.63,1.68,16.31-.74,3.03,2.42,5.64,4.42,8.14,6.55,2.21,1.88,4.24,3.97,6.46,5.84.64.53,1.67.85,2.5.83.81-.02,1.61-.6,2.73-1.07Zm-100.12,36.97c-.96-4.76-.05-6.8,3.17-8.22-2.18,5.16-.71,10.25-.02,15.47h3.01c-1.68,6.37,4.5,8.91,6.37,14.65,2.27-3.3,4.51-5.84,5.93-8.78,2.76-5.69,5.06-11.6,7.52-17.43.22-.52.25-1.15.27-1.74.17-6.12-2.12-11.06-7.36-14.33-3.52-2.19-7.37-3.87-10.86-6.1-2.8-1.79-5.25-4.12-7.93-6.1-.77-.57-1.8-.93-2.76-1.1-1.76-.33-3.57-.43-3.81-2.94,1.2-.2,2.28-.38,3.42-.58-2.36-5.32-2.57-5.37-10.77-2.59-1.17-3.32-2.53-3.65-4.89-1.26-1.95,1.98-3.88,3.98-5.95,5.82-.6.53-1.83.95-2.49.7-4.69-1.83-9.07-.3-13.37.71.36,2.14.69,4.05,1.05,6.18,4.93,1.39,7.79,5.46,10.55,9.6.38.58.69,1.51.5,2.12-.95,3.14.76,4.67,3.27,5.72,2.46,1.03,4.98,1.94,7.45,2.94,3.32,1.34,6.23,3.11,6.9,7.26h10.78Zm23.92-33.1c-3.52-3.61-7.5-2.2-11.41-1.02-.26-1.07-.46-1.89-.76-3.12-2.9.4-5.68.78-8.53,1.18,1.49,5.42,3.89,7.25,8.75,7.46,1.37.06,2.91.52,4.03,1.3,6.93,4.79,13.27,10.12,15.15,19.68,3.03-6.17,4.01-11.93,2.81-18.08,2.15.32,3.88.58,5.15.77-.93,4.69-1.84,9.27-2.88,14.53,2.2-.4,4.06-.74,5.93-1.08,1.14-.2,2.35-.74,3.42-.54,9.07,1.7,17.25-2.37,20.86-10.42.82-1.83.94-3.26-.81-4.69-.79-.65-1.08-1.92-1.59-2.92.39-.22.79-.44,1.18-.66,1.14,1.86,2.21,3.76,3.43,5.57.76,1.13,1.6,3.11,3.31,1.67,3.03-2.55,6.08-4.81,10.41-4.89-1.51-1.2-2.91-2.12-4.43-2.74-3.02-1.23-6.29-1.96-9.12-3.52-2.5-1.38-4.56-3.59-6.78-5.47-.62-.52-1.12-1.18-1.68-1.77-.57.72-1.12,1.46-1.71,2.16-.79.92-1.47,2.06-2.47,2.66-2.31,1.39-4.85,2.4-7.17,3.77-1.36.81-2.49,2.01-3.72,3.03.21-1.22,1.19-1.81,1.44-2.62.28-.93.27-2.75-.21-2.99-2.91-1.48-3.76-4.03-4.11-6.25-3.97-.45-7.71-.96-11.47-1.23-.73-.05-1.83.66-2.23,1.34-1.66,2.8-3.11,5.72-4.8,8.89Zm88.64,31.52c-1.68.34-2.82.51-3.92.82-.7.2-1.42.52-2,.95-2.52,1.87-4.9,3.94-7.5,5.67-2.54,1.7-5.4,2.92-7.93,4.65-3.77,2.57-6.13,8.73-4.71,11.99,1.89,4.34,3.86,8.66,5.93,12.92,1.21,2.48,2.71,4.8,5.58,5.6,1.04-1.74,2.2-3.25,2.89-4.95.68-1.67.89-3.53,1.35-5.49,5.11-1.36,1.65-6.71,4.22-10.04.94,1.75,1.73,3.22,2.58,4.81,3.21.06,6.66.9,8.72-3.26.69-1.39,2.67-2.33,4.26-3.05,2.14-.99,4.44-1.67,6.72-2.3,2.32-.65,2.5-1.69.85-3.26-.35-.33-.88-.46-1.36-.71,3.6-4.97,8.79-7.89,11.11-13.63-3.14-.45-5.92-1.36-8.59-1.1-3.92.38-6.64-.69-8.74-4-.52-.82-1.97-1.56-2.9-1.46-.65.07-1.15,1.62-1.68,2.45-1.4-1.91-3.43-1.96-7.4.09.71.93,1.39,1.83,2.52,3.31Zm-25.07.38c-.62-1.57-.97-3.45-2.02-4.78-.89-1.12-2.52-1.85-3.97-2.27-.98-.28-2.24.57-3.3.42-2.23-.33-3.88-.41-4.93,2.27-.8,2.03-2.54,3.69-3.77,5.38-3.6-1.95-6.95-3.77-9.11-4.94-5.7,2.41-10.34,4.52-15.11,6.28-1.43.52-3.23.03-4.85,0-.03-.32-.07-.63-.1-.95-.63.28-1.25.58-1.89.82-.68.25-1.39.44-2.13.68,1.76,3.13,4.53,4.45,6.16,2.81,1.85-1.87,2.87-.81,4.49.27,8.53,5.67,17.17,11.17,25.91,16.82,1.42-2.54,1.7-5.47,4.97-4.62.99-3.44-1.88-7.02.82-10.61,1.33,4.13-1.11,9.03,4.61,11.09.44-6.03,4.36-8.86,9-11.13,2.13-1.04,4.28-2.09,6.24-3.42,1.97-1.33,4.04-2.76,4.5-5.84-1.34,0-2.42-.11-3.47.02-3.91.51-7.82,1.09-12.06,1.7Zm-110.27-64.06c.22-.01.45-.02.67-.04.04.56-.07,1.18.16,1.65.32.67.88,1.24,1.33,1.84.3-.83.76-1.65.83-2.51.04-.45-.58-.96-.94-1.42-.97-1.26-1.96-2.5-3.23-4.1-1.71,1.24-3.73,2.71-5.73,4.16.95,3.61,2.83,4.83,6.9,4.36v-3.95Zm79.84,23.57c-5.5-.7-8.06.35-9.56,3.79,3.53,1.98,7.61.44,9.56-3.79Zm-58.29,2.43c.32.3.65.6.97.9,2.63-.85,5.26-1.7,8.64-2.78-2.08-.87-3.13-1.45-4.25-1.74-1.33-.34-3.25-1.06-3.97-.47-.95.78-.97,2.68-1.39,4.09Zm91.46,27.88c1.3-.45,2.71-.94,4.75-1.65-2.05-1.7-3.3-2.96-4.78-3.86-.63-.38-1.73,0-2.62.03.23.74.38,1.53.72,2.22.44.91,1.02,1.75,1.93,3.26Zm-68.46-42.29c-2.93-.18-4.26,1.36-4.5,3.68-.09.89,1.01,2.75,1.44,2.71,1.97-.18,3.82-.97,4.45-3.64-1.36.3-2.39.53-4.18.94,1.18-1.55,1.9-2.5,2.8-3.68Zm48.1,50.14c.14-.47.29-.95.43-1.42-1.9-.78-3.75-1.7-5.71-2.26-.56-.16-1.41.71-2.13,1.1.48.66.86,1.77,1.45,1.9,1.95.42,3.97.48,5.97.68Zm31.78-2.88c1.62.88,3.04,1.65,4.46,2.42,2.63-2.63,2.83-3.16,1.62-4.14-1.6-1.3-4.28-.58-6.08,1.73Zm-117.94,4.34c.26-.27.51-.55.77-.82-1.16-1.08-2.17-2.68-3.53-3.09-1.57-.47-3.46.11-5.21.23.04.27.08.54.11.81,2.62.96,5.24,1.91,7.86,2.87Zm37.81-58.86c-.12-.28-.23-.55-.35-.83-2.57.39-5.14.78-8.37,1.27.92.98,1.88,2.51,2.3,2.37,2.21-.7,4.29-1.83,6.41-2.81Zm15.23,6.99c-1.22-.71-2.32-1.85-3.07-1.66-1.24.32-2.34,1.42-3.31,2.38-.24.23.07,1.32.44,1.76.2.24,1.1.1,1.57-.11,1.21-.56,2.35-1.25,4.38-2.37Zm6.41,6.76c0-.16.01-.32.02-.47h-9.06c1.1.95,1.87,1.62,2.13,1.85,2.64-.53,4.77-.95,6.91-1.38Z"/>
    <path d="m195.21,128.86v3.95c-4.07.47-5.96-.76-6.9-4.36,2-1.45,4.02-2.91,5.73-4.16,1.27,1.61,2.26,2.85,3.23,4.1.36.46.97.98.94,1.42-.07.85-.53,1.67-.83,2.51-.46-.61-1.01-1.17-1.33-1.84-.22-.47-.12-1.1-.16-1.65-.22.01-.45.02-.67.04Z"/>
    <path d="m275.05,152.43c-1.94,4.23-6.03,5.78-9.56,3.79,1.5-3.44,4.05-4.49,9.56-3.79Z"/>
    <path d="m216.76,154.86c.42-1.42.44-3.31,1.39-4.09.72-.59,2.64.13,3.97.47,1.12.29,2.17.87,4.25,1.74-3.38,1.09-6.01,1.94-8.64,2.78-.32-.3-.65-.6-.97-.9Z"/>
    <path d="m308.22,182.73c-.91-1.51-1.49-2.35-1.93-3.26-.33-.69-.48-1.48-.72-2.22.89-.03,1.98-.41,2.62-.03,1.48.9,2.73,2.16,4.78,3.86-2.04.71-3.45,1.2-4.75,1.65Z"/>
    <path d="m239.76,140.44c-.9,1.18-1.62,2.13-2.8,3.68,1.79-.4,2.82-.63,4.18-.94-.63,2.68-2.48,3.46-4.45,3.64-.42.04-1.53-1.82-1.44-2.71.25-2.31,1.57-3.86,4.5-3.68Z"/>
    <path d="m287.86,190.58c-2-.2-4.02-.26-5.97-.68-.59-.13-.97-1.24-1.45-1.9.72-.4,1.57-1.26,2.13-1.1,1.96.56,3.82,1.48,5.71,2.26-.14.47-.29.95-.43,1.42Z"/>
    <path d="m319.64,187.7c1.8-2.3,4.47-3.03,6.08-1.73,1.21.98,1.01,1.51-1.62,4.14-1.42-.77-2.84-1.54-4.46-2.42Z"/>
    <path d="m201.7,192.04c-2.62-.96-5.24-1.91-7.86-2.87-.04-.27-.08-.54-.11-.81,1.75-.12,3.64-.71,5.21-.23,1.36.41,2.37,2.02,3.53,3.09-.26.27-.51.55-.77.82Z"/>
    <path d="m239.52,133.19c-2.12.98-4.2,2.11-6.41,2.81-.43.14-1.38-1.39-2.3-2.37,3.23-.49,5.8-.88,8.37-1.27.12.28.23.55.35.83Z"/>
    <path d="m254.75,140.18c-2.03,1.11-3.17,1.81-4.38,2.37-.47.22-1.37.35-1.57.11-.36-.45-.67-1.53-.44-1.76.98-.96,2.07-2.06,3.31-2.38.75-.19,1.85.95,3.07,1.66Z"/>
    <path d="m261.16,146.93c-2.13.43-4.27.85-6.91,1.38-.26-.23-1.03-.9-2.13-1.85h9.06c0,.16-.01.32-.02.47Z"/>
  </g>
  <g>
    <path d="m120.27,340.76v11.43c0,1.95.1,3.39.32,4.32.21.93.61,1.71,1.2,2.34.52.55,1.12.96,1.82,1.22.7.26,1.59.42,2.68.47v.66h-18.31v-.66c.92,0,1.79-.15,2.61-.45.82-.3,1.46-.69,1.92-1.19.54-.59.92-1.4,1.15-2.44s.34-2.45.34-4.27v-21.12c0-1.22-.07-2.49-.2-3.81-.19-1.68-1.01-2.93-2.46-3.76-.8-.44-1.92-.7-3.35-.77v-.66h29.95l.83,9.32-.66.14c-.48-1.45-.92-2.54-1.32-3.27-.9-1.66-2.16-2.95-3.78-3.87-.94-.53-2.02-.91-3.24-1.12-1.22-.21-2.91-.32-5.04-.32h-4.44v16.91h1.15c3.38,0,5.84-.75,7.37-2.27.67-.65,1.17-1.42,1.52-2.31.34-.89.57-2.05.69-3.48l.66.03-.17,17.37h-.69c-.21-1.95-.57-3.45-1.08-4.51-.51-1.06-1.28-1.92-2.31-2.57-.76-.48-1.71-.83-2.82-1.05-1.12-.22-2.56-.33-4.31-.33Z"/>
    <path d="m144.21,341.9c0-3.21.69-6.19,2.06-8.93,1.38-2.74,3.38-5.14,6.02-7.19,1.97-1.51,4.09-2.67,6.36-3.48,2.27-.81,4.57-1.22,6.88-1.22,2.94,0,5.79.65,8.54,1.94,2.75,1.29,5.16,3.11,7.22,5.47,3.36,3.82,5.04,8.17,5.04,13.05,0,2.45-.44,4.81-1.32,7.08-.88,2.28-2.16,4.35-3.84,6.23-2.06,2.33-4.51,4.14-7.32,5.42-2.82,1.28-5.77,1.92-8.84,1.92s-5.94-.62-8.71-1.86c-2.77-1.24-5.16-3-7.16-5.28-1.59-1.78-2.8-3.8-3.65-6.06-.85-2.27-1.28-4.62-1.28-7.07Zm6.94.43c0,5.55,1.51,10.22,4.53,14.03,1.36,1.7,2.79,2.94,4.31,3.71,1.52.77,3.27,1.16,5.26,1.16s3.77-.38,5.29-1.15,2.97-2.01,4.34-3.73c3.02-3.83,4.53-8.54,4.53-14.14,0-3.08-.41-5.99-1.25-8.73-.83-2.74-2-5.07-3.51-6.98-1.22-1.57-2.59-2.71-4.08-3.43-1.5-.72-3.27-1.08-5.32-1.08s-3.78.36-5.26,1.06c-1.48.71-2.85,1.85-4.11,3.44-1.51,1.89-2.67,4.22-3.5,6.97-.82,2.75-1.23,5.71-1.23,8.86Z"/>
    <path d="m192.78,322.08h18.89v.66c-1.32,0-2.33.11-3.04.34-1.15.37-1.72,1.05-1.72,2.07s.78,2.71,2.35,4.99l5.02,7.34,4.39-5.42c1.72-2.12,2.84-3.61,3.35-4.46s.77-1.64.77-2.36c0-1.01-.54-1.71-1.61-2.09-.5-.19-1.37-.33-2.61-.4v-.66h13.16v.66c-1.45,0-2.58.19-3.38.57-1.24.57-2.89,2.16-4.96,4.76l-2.18,2.75-6.22,7.71,9.86,14.65c1.74,2.6,3.31,4.48,4.73,5.65.73.59,1.44,1.01,2.14,1.26.7.25,1.63.4,2.79.46v.66h-19.92v-.66c1.55-.17,2.67-.44,3.38-.8,1.15-.57,1.72-1.38,1.72-2.41,0-.36-.11-.78-.34-1.26-.23-.48-.66-1.19-1.28-2.15l-7-10.6-6.82,8.31c-1.05,1.28-1.8,2.35-2.25,3.2-.45.85-.67,1.64-.67,2.37,0,1.03.39,1.83,1.16,2.39.77.56,1.93.88,3.45.96v.66h-13.93v-.66c1.05-.19,1.92-.46,2.62-.82.7-.35,1.51-.97,2.45-1.85,1.38-1.26,3.31-3.41,5.82-6.45l7.45-9.11-8.89-13.33-1.52-2.21c-1.11-1.62-2.04-2.67-2.81-3.15-.69-.42-1.85-.7-3.5-.83-.19,0-.48-.02-.86-.06v-.66Z"/>
    <path d="m238.85,360.54c1.11-.06,2-.21,2.67-.46.67-.25,1.27-.65,1.81-1.21.59-.61,1-1.39,1.22-2.34.22-.95.33-2.39.33-4.34v-21.12c0-2.1-.13-3.64-.39-4.62s-.76-1.78-1.5-2.41c-.94-.78-2.31-1.22-4.13-1.32v-.66h15.76c3.5,0,5.72.04,6.68.12,4.03.31,7.45,1.45,10.26,3.44,2.67,1.89,4.76,4.37,6.25,7.44,1.49,3.07,2.24,6.4,2.24,10.02,0,2.64-.43,5.13-1.28,7.47s-2.03,4.28-3.54,5.83c-2.12,2.18-4.77,3.56-7.94,4.16-2.37.44-4.79.66-7.25.66h-21.18v-.66Zm12.29-37.58v28.49c0,1.87.1,3.3.32,4.27.21.97.6,1.8,1.18,2.49,1.22,1.49,3.21,2.23,5.96,2.23,2.35,0,4.36-.39,6.03-1.16,1.67-.77,3.17-2.03,4.48-3.77,1.3-1.68,2.29-3.6,2.97-5.77s1.02-4.48,1.02-6.92c0-2.71-.41-5.29-1.23-7.74-.82-2.44-2-4.58-3.52-6.42-2.12-2.54-4.65-4.22-7.6-5.04-1.61-.44-3.65-.66-6.13-.66h-3.47Z"/>
    <path d="m326.99,361.2h-18.83v-.66c1.7-.15,2.88-.44,3.55-.86,1.18-.75,1.78-1.78,1.78-3.1,0-.78-.27-1.83-.8-3.15l-.49-1.2-2.75-6.76h-12.61l-1.49,3.95-.72,1.78c-.86,2.1-1.29,3.76-1.29,4.96,0,.7.16,1.37.47,1.98.32.61.74,1.11,1.28,1.49.75.52,1.7.82,2.87.92v.66h-12.84v-.66c1.01-.06,1.9-.31,2.66-.75.76-.44,1.51-1.15,2.24-2.12.61-.78,1.21-1.79,1.79-3.02.58-1.23,1.35-3.08,2.31-5.55l10.49-27.03h1.63l12.47,30.12c.94,2.28,1.68,3.9,2.24,4.87.55.98,1.16,1.71,1.8,2.21.46.34.98.61,1.58.79.59.18,1.48.34,2.66.47v.66Zm-18-16.91l-6.02-14.84-5.68,14.84h11.69Z"/>
    <path d="m330.73,361.2v-.69c1.93,0,3.42-.55,4.47-1.64.59-.61,1-1.39,1.22-2.34s.33-2.39.33-4.34v-21.12c0-2.02-.12-3.52-.36-4.49-.24-.96-.68-1.75-1.33-2.36-.54-.5-1.13-.86-1.79-1.09-.66-.23-1.51-.36-2.54-.4v-.66h18.32v.66c-1.05.06-1.91.2-2.58.43-.67.23-1.26.59-1.78,1.09-.65.63-1.09,1.42-1.32,2.38-.23.96-.34,2.44-.34,4.44v16.54c0,2.54.07,4.43.2,5.68.13,1.24.39,2.25.77,3.04.67,1.38,1.66,2.38,2.98,3.02,1.32.64,3.07.96,5.25.96s4.19-.3,5.75-.9c1.55-.6,2.83-1.53,3.83-2.79.67-.86,1.22-1.83,1.65-2.92.43-1.09.83-2.52,1.19-4.3l.69.06-.37,11.75h-34.22Z"/>
    <path d="m400.27,322.08l.49,9.46-.66.03c-.25-1.6-.66-2.93-1.23-3.98-.57-1.05-1.4-1.98-2.49-2.78-.9-.67-1.96-1.14-3.18-1.42s-2.85-.42-4.87-.42h-6.56v17.2h1.72c1.74,0,3.05-.12,3.93-.34.88-.23,1.59-.64,2.15-1.23.54-.55.93-1.21,1.19-1.96.26-.75.47-1.87.65-3.34l.66.03-.11,15.36h-.66c-.17-1.47-.43-2.66-.76-3.55-.33-.9-.8-1.66-1.39-2.29-.57-.61-1.32-1.06-2.23-1.35-.92-.29-2.08-.43-3.5-.43h-1.64v6.56c0,2.62.07,4.52.2,5.72.13,1.19.39,2.19.77,3,.65,1.38,1.64,2.38,2.97,3.02,1.33.64,3.08.96,5.26.96,2.29,0,4.21-.29,5.76-.87s2.81-1.49,3.78-2.71c.69-.82,1.25-1.76,1.68-2.81.43-1.05.83-2.44,1.19-4.16l.66.03-.37,11.41h-34.19v-.66c1.09-.06,1.97-.21,2.65-.46.68-.25,1.29-.65,1.82-1.21.59-.61,1-1.39,1.22-2.34s.33-2.39.33-4.34v-21.12c0-1.95-.11-3.4-.33-4.34-.22-.94-.62-1.72-1.22-2.34-.52-.55-1.11-.95-1.79-1.2s-1.57-.4-2.68-.46v-.66h30.81Z"/>
  </g>
  <g>
    <path d="m149.57,392.27v11.43c0,1.95.1,3.39.32,4.32.21.93.61,1.71,1.2,2.34.52.55,1.12.96,1.82,1.22.7.26,1.59.42,2.68.47v.66h-18.31v-.66c.92,0,1.79-.15,2.61-.45.82-.3,1.46-.69,1.92-1.19.54-.59.92-1.4,1.15-2.44s.34-2.45.34-4.27v-21.12c0-1.22-.07-2.49-.2-3.81-.19-1.68-1.01-2.93-2.46-3.76-.8-.44-1.92-.7-3.35-.77v-.66h29.95l.83,9.32-.66.14c-.48-1.45-.92-2.54-1.32-3.27-.9-1.66-2.16-2.95-3.78-3.87-.94-.53-2.02-.91-3.24-1.12-1.22-.21-2.91-.32-5.04-.32h-4.44v16.91h1.15c3.38,0,5.84-.75,7.37-2.27.67-.65,1.17-1.42,1.52-2.31.34-.89.57-2.05.69-3.48l.66.03-.17,17.37h-.69c-.21-1.95-.57-3.45-1.08-4.51-.51-1.06-1.28-1.92-2.31-2.57-.76-.48-1.71-.83-2.82-1.05-1.12-.22-2.56-.33-4.31-.33Z"/>
    <path d="m173.51,393.4c0-3.21.69-6.19,2.06-8.93,1.38-2.74,3.38-5.14,6.02-7.19,1.97-1.51,4.09-2.67,6.36-3.48,2.27-.81,4.57-1.22,6.88-1.22,2.94,0,5.79.65,8.54,1.94,2.75,1.29,5.16,3.11,7.22,5.47,3.36,3.82,5.04,8.17,5.04,13.05,0,2.45-.44,4.81-1.32,7.08-.88,2.28-2.16,4.35-3.84,6.23-2.06,2.33-4.51,4.14-7.32,5.42-2.82,1.28-5.77,1.92-8.84,1.92s-5.94-.62-8.71-1.86c-2.77-1.24-5.16-3-7.16-5.28-1.59-1.78-2.8-3.8-3.65-6.06-.85-2.27-1.28-4.62-1.28-7.07Zm6.94.43c0,5.55,1.51,10.22,4.53,14.03,1.36,1.7,2.79,2.94,4.31,3.71,1.52.77,3.27,1.16,5.26,1.16s3.77-.38,5.29-1.15c1.52-.76,2.97-2.01,4.34-3.73,3.02-3.83,4.53-8.54,4.53-14.14,0-3.08-.41-5.99-1.25-8.73-.83-2.74-2-5.07-3.51-6.98-1.22-1.57-2.59-2.71-4.08-3.43-1.5-.72-3.27-1.08-5.32-1.08s-3.78.36-5.26,1.06c-1.48.71-2.85,1.85-4.11,3.44-1.51,1.89-2.67,4.22-3.5,6.97-.82,2.75-1.23,5.71-1.23,8.86Z"/>
    <path d="m235,393.56v10.14c0,1.95.11,3.4.33,4.34.22.95.63,1.72,1.22,2.34.52.54,1.11.93,1.79,1.19.68.26,1.57.42,2.68.47v.66h-18.31v-.66c1.11-.06,2-.22,2.68-.47.68-.26,1.28-.65,1.79-1.19.61-.61,1.02-1.38,1.23-2.32.21-.94.32-2.39.32-4.36v-21.12c0-1.97-.11-3.42-.32-4.36s-.62-1.71-1.23-2.32c-.52-.55-1.12-.95-1.81-1.2s-1.58-.4-2.67-.46v-.66h13.81c2.31,0,3.83.01,4.56.03,2.96.13,5.28.54,6.96,1.21,1.89.76,3.36,1.9,4.4,3.42,1.04,1.52,1.56,3.28,1.56,5.29,0,2.98-1.13,5.37-3.38,7.17-.69.53-1.45.97-2.28,1.32-.83.34-1.94.67-3.34.97,1.15.48,2,.97,2.55,1.49.44.4.84.9,1.2,1.51s.91,1.67,1.63,3.2c1.7,3.5,2.99,6.05,3.86,7.67.87,1.62,1.6,2.79,2.19,3.51.48.59.94,1,1.39,1.23.45.23,1.06.38,1.85.46v.66h-9.52c-.48-1.05-.78-1.72-.92-2.01l-2.01-4.56c-1.2-2.73-2.42-5.15-3.64-7.25-1.22-2.08-2.34-3.51-3.35-4.27-.52-.38-1.07-.66-1.66-.82-.59-.16-1.32-.24-2.18-.24h-1.4Zm0-.63h1.09c2.37,0,4.06-.13,5.09-.4,1.02-.27,1.98-.82,2.88-1.66,2.01-1.91,3.01-4.28,3.01-7.11,0-1.51-.29-2.93-.87-4.26-.58-1.33-1.39-2.42-2.42-3.28-.8-.65-1.76-1.1-2.87-1.36-1.11-.26-2.68-.39-4.73-.39h-1.18v18.46Z"/>
    <path d="m294.46,373.58l.49,9.46-.66.03c-.25-1.6-.66-2.93-1.23-3.98-.58-1.05-1.4-1.98-2.49-2.78-.9-.67-1.96-1.14-3.18-1.42s-2.85-.42-4.87-.42h-6.56v17.2h1.72c1.74,0,3.05-.12,3.92-.34.88-.23,1.6-.64,2.15-1.23.53-.55.93-1.21,1.19-1.96.26-.75.48-1.87.65-3.34l.66.03-.11,15.36h-.66c-.18-1.47-.43-2.66-.76-3.55-.33-.9-.8-1.66-1.39-2.29-.58-.61-1.32-1.06-2.23-1.35-.92-.29-2.08-.43-3.5-.43h-1.63v6.56c0,2.62.07,4.52.2,5.72.13,1.19.39,2.19.77,3,.65,1.38,1.64,2.38,2.96,3.02s3.08.96,5.26.96c2.29,0,4.21-.29,5.76-.87,1.55-.58,2.81-1.49,3.78-2.71.69-.82,1.25-1.76,1.68-2.81.43-1.05.82-2.44,1.19-4.16l.66.03-.37,11.41h-34.19v-.66c1.09-.06,1.97-.21,2.65-.46.68-.25,1.29-.65,1.82-1.21.6-.61,1-1.39,1.22-2.34.22-.95.33-2.39.33-4.34v-21.12c0-1.95-.11-3.4-.33-4.34-.22-.94-.62-1.72-1.22-2.34-.51-.55-1.11-.95-1.79-1.2-.68-.25-1.57-.4-2.68-.46v-.66h30.81Z"/>
    <path d="m304.56,412.59l.09-11.84.66.03c.8,3.01,1.76,5.39,2.87,7.12,2.08,3.2,4.7,4.8,7.85,4.8,2.2,0,4.01-.74,5.45-2.21,1.43-1.47,2.15-3.33,2.15-5.59,0-.97-.16-1.97-.47-2.98-.32-1.01-.74-1.88-1.28-2.61-.55-.74-1.33-1.46-2.34-2.15s-2.54-1.56-4.6-2.61c-1.81-.92-3.21-1.69-4.17-2.32s-1.74-1.27-2.33-1.92c-1.64-1.8-2.46-3.98-2.46-6.56,0-1.59.32-3.11.96-4.58s1.53-2.73,2.68-3.78c2.03-1.87,4.42-2.81,7.19-2.81.9,0,1.73.09,2.49.27.76.18,1.79.54,3.07,1.08.96.38,1.61.63,1.95.73.34.11.65.16.92.16.67,0,1.12-.49,1.35-1.46h.66l.2,11.38h-.66c-.52-1.81-.96-3.2-1.33-4.17-.37-.96-.81-1.86-1.33-2.68-.94-1.49-1.96-2.59-3.09-3.31-1.12-.72-2.42-1.08-3.89-1.08-2.14,0-3.82.73-5.06,2.18-.51.59-.92,1.29-1.22,2.09s-.44,1.61-.44,2.41c0,3.19,2.05,5.77,6.15,7.72l4.04,1.95c3.11,1.47,5.35,3.1,6.73,4.88,1.57,1.99,2.35,4.3,2.35,6.94,0,1.75-.36,3.43-1.06,5.03-.99,2.23-2.48,3.95-4.47,5.16s-4.33,1.82-7.02,1.82c-2.46,0-4.84-.49-7.11-1.46-1.18-.52-1.89-.81-2.12-.89-.23-.08-.49-.11-.77-.11-.92,0-1.55.46-1.89,1.38h-.66Z"/>
    <path d="m351.91,374.47c-1.21,0-2.49.04-3.87.11-2.94.16-5.14.53-6.58,1.12-1.44.59-2.63,1.61-3.57,3.07-.86,1.34-1.52,3.15-1.98,5.45l-.66-.06.52-10.58h38.78l.52,10.58-.66.06c-.52-2.65-1.32-4.66-2.42-6.03-1.1-1.37-2.7-2.35-4.8-2.94-1.78-.52-4.79-.77-9.03-.77v29.23c0,1.95.11,3.4.33,4.34s.62,1.72,1.22,2.34c.53.55,1.14.96,1.82,1.21s1.56.4,2.65.46v.66h-18.32v-.66c1.11-.06,2-.21,2.68-.46.68-.25,1.29-.65,1.82-1.21.59-.61,1-1.38,1.22-2.32.22-.94.33-2.39.33-4.36v-29.23Z"/>
  </g>
</svg>