<?xml version="1.0" encoding="UTF-8"?>
<svg id="Layer_1" data-name="Layer 1" xmlns="http://www.w3.org/2000/svg" xmlns:xlink="http://www.w3.org/1999/xlink" viewBox="0 0 512 512">
  <defs>
    <style>
      .cls-1 {
        fill: #fff;
      }

      .cls-2 {
        font-family: ArialMT, Arial;
        font-size: 16.01px;
      }

      .cls-2, .cls-3 {
        fill: #1ebeea;
      }

      .cls-4 {
        clip-path: url(#clippath-1);
      }

      .cls-5 {
        font-size: 20.46px;
      }

      .cls-5, .cls-6, .cls-7 {
        font-family: ArialNarrow, Arial;
      }

      .cls-8 {
        fill: #10bdea;
      }

      .cls-9 {
        clip-path: url(#clippath);
      }

      .cls-6 {
        font-size: 19.28px;
      }

      .cls-10 {
        fill: none;
      }

      .cls-7 {
        font-size: 10.61px;
      }
    </style>
    <clipPath id="clippath">
      <rect class="cls-10" x="55.11" y="194.95" width="401.79" height="122.1"/>
    </clipPath>
    <clipPath id="clippath-1">
      <rect class="cls-10" x="55.11" y="194.95" width="401.79" height="122.1"/>
    </clipPath>
  </defs>
  <g class="cls-9">
    <path class="cls-3" d="m101.4,194.95c25.58,0,46.29,20.94,46.29,46.78s-20.71,46.78-46.29,46.78-46.29-20.94-46.29-46.78,20.72-46.78,46.29-46.78"/>
    <path class="cls-1" d="m105.87,200.5c7.42,0,13.43,6.17,13.43,13.78s-6.01,13.78-13.43,13.78-13.42-6.17-13.42-13.78,6.01-13.78,13.42-13.78"/>
    <path class="cls-1" d="m105.44,210.19l-13,4.09s4.92,23.15,6.76,24.44c1.83,1.29,2.58,3.34,6.89,2.15,4.3-1.18,4.09-2.8,5.71-5.71,1.61-2.9,7.22-18.04,7.22-18.04l-13.57-6.93Z"/>
    <path class="cls-1" d="m105.87,200.5c7.42,0,13.43,6.17,13.43,13.78s-6.01,13.78-13.43,13.78-13.42-6.17-13.42-13.78,6.01-13.78,13.42-13.78"/>
    <path class="cls-1" d="m83.05,217.4c3.97,0,7.19,3.3,7.19,7.38s-3.22,7.37-7.19,7.37-7.19-3.3-7.19-7.37,3.22-7.38,7.19-7.38"/>
    <path class="cls-1" d="m82.94,226.23l-2.15,5.55s13.45,5.43,14.63,5,3.02-1.83,1.61-4.09c-1.4-2.26-8.06-12.08-8.06-12.08l-6.04,5.62Z"/>
    <path class="cls-1" d="m71.1,231.16c5,0,9.05,4.16,9.05,9.28s-4.05,9.28-9.05,9.28-9.05-4.15-9.05-9.28,4.05-9.28,9.05-9.28"/>
    <path class="cls-1" d="m72.19,249.65s25.6-6.41,26.14-7.59c.54-1.18.54-2.8-1.51-3.77-2.05-.97-21.9-6.5-23.25-6.78-1.35-.28-2.16-1.08-2.37,1.82-.22,2.91.99,16.31.99,16.31"/>
    <path class="cls-1" d="m83.1,249.64c3.95,0,7.16,3.29,7.16,7.34s-3.21,7.34-7.16,7.34-7.15-3.29-7.15-7.34,3.2-7.34,7.15-7.34"/>
    <path class="cls-1" d="m81,256.32l-2.94-4.55c-.34-.53,12.64-6.86,14.24-7.24,1.6-.38,1.94-.49,3.12-.06s1.61,1.51.65,3.45c-.97,1.94-6.84,12.85-6.84,12.85l-8.23-4.46Z"/>
    <path class="cls-1" d="m105.01,254.06c7.91,0,14.32,6.58,14.32,14.7s-6.41,14.69-14.32,14.69-14.32-6.58-14.32-14.69,6.41-14.7,14.32-14.7"/>
    <path class="cls-1" d="m104.15,263.86l14.23-.37s-6.91-18.69-8.09-19.98c-1.18-1.29-3.21-1.96-6.22-1.75-8.25.59-10.28,15.5-13,23.62l13.08-1.53Z"/>
    <path class="cls-3" d="m105.01,255.68c7.04,0,12.75,5.86,12.75,13.08s-5.71,13.08-12.75,13.08-12.75-5.86-12.75-13.08,5.71-13.08,12.75-13.08"/>
    <path class="cls-3" d="m105.92,201.74c6.75,0,12.22,5.62,12.22,12.54s-5.47,12.54-12.22,12.54-12.22-5.62-12.22-12.54,5.47-12.54,12.22-12.54"/>
    <path class="cls-3" d="m83.04,218.53c3.19,0,5.77,2.65,5.77,5.92s-2.58,5.92-5.77,5.92-5.77-2.65-5.77-5.92,2.58-5.92,5.77-5.92"/>
    <path class="cls-3" d="m83.37,250.94c3.19,0,5.77,2.65,5.77,5.92s-2.58,5.92-5.77,5.92-5.77-2.65-5.77-5.92,2.59-5.92,5.77-5.92"/>
    <path class="cls-3" d="m71.31,232.76c4.16,0,7.54,3.46,7.54,7.73s-3.37,7.73-7.54,7.73-7.54-3.46-7.54-7.73,3.37-7.73,7.54-7.73"/>
    <path class="cls-1" d="m83.34,252.04c2.56,0,4.64,2.13,4.64,4.76s-2.08,4.76-4.64,4.76-4.64-2.13-4.64-4.76,2.08-4.76,4.64-4.76"/>
    <path class="cls-1" d="m83.04,219.81c2.5,0,4.52,2.08,4.52,4.64s-2.02,4.64-4.52,4.64-4.52-2.08-4.52-4.64,2.02-4.64,4.52-4.64"/>
    <path class="cls-1" d="m105.01,258.2c5.68,0,10.28,4.72,10.28,10.55s-4.6,10.55-10.28,10.55-10.28-4.72-10.28-10.55,4.6-10.55,10.28-10.55"/>
    <path class="cls-1" d="m105.87,203.73c5.68,0,10.28,4.72,10.28,10.55s-4.6,10.55-10.28,10.55-10.28-4.72-10.28-10.55,4.6-10.55,10.28-10.55"/>
    <path class="cls-1" d="m105.87,205.05c4.97,0,8.99,4.13,8.99,9.23s-4.03,9.23-8.99,9.23-8.99-4.13-8.99-9.23,4.03-9.23,8.99-9.23"/>
    <path class="cls-1" d="m71.1,234.41c3.24,0,5.87,2.7,5.87,6.03s-2.63,6.03-5.87,6.03-5.87-2.7-5.87-6.03,2.63-6.03,5.87-6.03"/>
    <path class="cls-3" d="m95.1,258.48s5.81-5.17,10.01-4.63c4.2.54,9.58,3.55,9.58,3.55,0,0-4.09-11.95-6.25-13.46-2.15-1.51-5.87-2.21-8.07,1.4-2.2,3.61-5.27,13.14-5.27,13.14"/>
    <path class="cls-3" d="m95.54,223.81s3.55,12.92,5.38,14.43c1.83,1.51,6.57,2.05,7.97-.75s6.03-12.92,6.03-12.92c0,0-6.57,3.77-10.23,3.55-3.66-.22-9.15-4.31-9.15-4.31"/>
    <path class="cls-3" d="m77.74,246.77s19.05-4.36,19.48-5.76c.43-1.4-.7-2.31-2.85-2.53-2.15-.22-16.74-5.01-16.74-5.01,0,0,2.85,4.04,2.85,6.46s-.54,3.88-.91,4.52c-.38.64-1.83,2.31-1.83,2.31"/>
    <path class="cls-3" d="m89.91,256.08s4.79-7.27,5.11-8.61c.32-1.34-.32-2.58-1.61-2.31-1.29.27-9.48,4.73-9.48,4.73,0,0,3.82.75,4.58,1.83.75,1.08,1.4,4.36,1.4,4.36"/>
    <path class="cls-3" d="m90.23,224.75s-.49,3.66-1.94,4.84c-1.46,1.18-3.61,1.88-3.61,1.88,0,0,7.64,3.77,9.1,3.98,1.45.22,2.96.16,2.26-1.83-.7-1.99-5.81-8.88-5.81-8.88"/>
  </g>
  <polygon class="cls-3" points="437.92 203.82 434.83 230.73 416.74 230.29 418.95 204.26 401.3 204.26 393.8 274.85 411.44 274.41 415.42 243.96 433.5 244.4 430.86 273.97 449.39 273.97 456.89 203.37 437.92 203.82"/>
  <polygon class="cls-3" points="344.93 203.92 343.17 218.93 360.16 219.15 355.08 274.08 373.17 273.86 378.91 218.93 395.67 218.49 397 203.7 344.93 203.92"/>
  <polygon class="cls-3" points="321.33 204.14 314.49 273.64 332.8 273.64 339.42 204.14 321.33 204.14"/>
  <polygon class="cls-3" points="259.78 203.48 252.72 273.64 269.71 273.85 273.9 235.91 292.21 274.08 306.55 273.85 313.39 203.92 296.18 203.7 292.21 241.43 273.9 203.7 259.78 203.48"/>
  <polygon class="cls-3" points="209.04 203.92 202.42 274.3 248.09 273.64 248.97 258.85 222.27 258.63 223.38 244.52 239.26 244.52 240.8 231.94 224.26 231.5 225.37 219.15 251.4 218.71 252.72 203.92 209.04 203.92"/>
  <g class="cls-4">
    <path class="cls-8" d="m204.85,219.15l1.76-15.22s-15.22,1.11-24.93-.44c-11.09-1.77-20.24-2.26-28.46,5.96v11.47c8.82-4.41,20.63-1.9,30.66-1.76,0,0-20.96,31.55-25.59,35.08-6.89,5.25-5.46,12.06-6.62,20.29,0,0,20.29,3.53,26.47,8.16,6.18,4.63,16.99,10.37,26.25,13.46,15.67,5.22,24.35-.31,27.14-16.32,0,0-5.52,1.98-14.12,0-8.6-1.99-16.76-3.97-25.59-8.38-8.82-4.41-20.08-5.96-20.08-5.96l33.09-46.33Z"/>
    <text class="cls-5" transform="translate(233.72 295.33) scale(1 1.09)"><tspan x="0" y="0">Manufacturer</tspan></text>
    <text class="cls-5" transform="translate(341.73 295.15) scale(1 1.09)"><tspan x="0" y="0">of</tspan></text>
    <text class="cls-7" transform="translate(356.81 294.99) scale(1 1.09)"><tspan x="0" y="0"> </tspan></text>
    <text class="cls-6" transform="translate(355.85 295.69) scale(1 1.16)"><tspan x="0" y="0" xml:space="preserve"> HDPE </tspan></text>
    <text class="cls-6" transform="translate(405.23 295.89) scale(1 1.16)"><tspan x="0" y="0">Pipes.</tspan></text>
    <text class="cls-2" transform="translate(329.07 313.69)"><tspan x="0" y="0">Proudly Zambian</tspan></text>
  </g>
</svg>