<?xml version="1.0" encoding="UTF-8"?>
<svg id="Layer_1" data-name="Layer 1" xmlns="http://www.w3.org/2000/svg" viewBox="0 0 512 512">
  <defs>
    <style>
      .cls-1 {
        font-family: HighTide, 'High Tide - Demo';
        font-size: 45.28px;
      }

      .cls-1, .cls-2 {
        fill: #c19261;
      }

      .cls-3 {
        fill: #5a4b43;
        font-family: Ubuntu-Medium, Ubuntu;
        font-size: 72.19px;
        font-weight: 500;
      }
    </style>
  </defs>
  <g>
    <path class="cls-2" d="m107.79,218.31c-15.02,21.39-9.56,46.88-9.56,46.88,0,0,0-.91.46-4.55.87-6.93,5.07-13.33,9.23-18.78,3.04-3.98,5.88-7.83,8.2-12.3.54-1.03,2.78-4.11,2.6-5.33.7,4.54-.82,9.76-2.19,14-2.66,8.22-8.82,14.18-12.61,21.78-2.67,5.33-3.69,11.34-3.84,17.27-.3,11.21,3.32,22.14,9.09,31.62,2.43,3.98,5.52,7.65,8.5,11.24.38.46.78.9,1.18,1.34-12.06,1.78-24.96-1.1-36.01-9.7-15.95-12.41-24.07-33.69-14.22-56.58.85,1.83,1.78,3.95,2.77,6.37,4.77,11.65,5.92,15.48,16.39,23.67,10.47,8.19,10.01,17.75,10.01,17.75,0,0,1.82-3.64-.91-14.11-3.67-14.07-12.19-19.25-12.72-19.56.13.05.88.37,5.44,2.26,5.35,2.23,8.95,8.38,9.1,8.64-.11-.37-3.75-12.42-10.92-20.93-4.04-4.8-10.89-8.2-16.18-10.28,5.53-10.83,12.12-21.01,18.64-31.25,7.74-12.15,15.44-24.33,21.25-37.57.09-.21.3-.37.7-.84,2.98,7.28,6.88,13.81,10.48,20.51.1.19.21.39.32.58-4.66,4.53-9.95,10.43-15.18,17.88Z"/>
    <path class="cls-2" d="m156.32,257.41c-3.94-10.17-10.05-19.14-15.41-28.54-2.16-3.79-4.68-7.38-7.03-11.06.23,2.92.49,5.84.57,8.75.23,7.93-1.31,15.81-4.74,22.98-3.38,7.05-8.6,12.93-12.95,19.37-5.11,7.56-10.86,16.11-10.9,25.59-.03,5.62,2.38,10.36,5.16,15.06,2.44,4.13,5.19,8.06,8.11,11.87,12.44-1.92,23.97-8.8,31.65-19.5,9.81-13.68,11.7-28.65,5.54-44.51Zm-3.7,19.15c-.2.28-.52.46-.83.62-.78.39-1.98.54-2.66,1.02-.5.36-.47.4-.16.99.3.57.79,1.1,1.27,1.58.18.18.16.49-.05.65-.56.43-1.56,1.2-1.88,1.52-.35.35.91,1.23,1.51,1.63.16.1.18.32.05.46l-.65.65q-.91.91-.91,1.82c0,.91-.91,5.92-6.37,5.92s-11.38-2.28-19.12,2.28c-7.74,4.55-8.19,14.57-8.19,14.57,0,0-1.82-2.28-.46-11.83,1.67-11.67,8.87-17.13,9.1-17.29-.19.03-5.08,1-9.1,5.46-3.02,3.35-5.01,9.1-5.01,9.1,0,0-4.55-10.92,16.39-32.32,8.33-8.51,8.65-17.3,8.65-17.3,0,.11.91.68,1.01.76,3.49,2.85,6.49,6.62,8.53,10.63.82,1.6,1.58,3.25,1.96,5.02.39,1.74.44,3.55,1.09,5.23,1.09,2.81,3.9,4.22,5.53,6.63.45.66.78,1.57.32,2.23Z"/>
  </g>
  <g>
    <text class="cls-3" transform="translate(174.76 249.88)"><tspan x="0" y="0">Lukanda</tspan></text>
    <text class="cls-1" transform="translate(212.01 284.86)"><tspan x="0" y="0">Beauty Center</tspan></text>
  </g>
</svg>